<?xml version="1.0" encoding="utf-8"?>
<svg version="1.1" xmlns="http://www.w3.org/2000/svg" xmlns:xlink="http://www.w3.org/1999/xlink" x="0px" y="0px"
	 viewBox="0 0 512 512" style="enable-background:new 0 0 512 512;" width="512" height="512" xml:space="preserve">
<style type="text/css">
	.st0{fill:#FFFFFF;}
</style>
<g>
	<!-- Lid -->
	<path class="st0" d="M83,129h346c11.6,0,21,9.4,21,21v52c0,11.6-9.4,21-21,21H83c-11.6,0-21-9.4-21-21v-52
		C62,138.4,71.4,129,83,129z M83,155c-2.8,0-5,2.2-5,5v32c0,2.8,2.2,5,5,5h346c2.8,0,5-2.2,5-5v-32c0-2.8-2.2-5-5-5H83z"/>
	<!-- Body -->
	<path class="st0" d="M94,245h324c9.4,0,17,7.6,17,17v145c0,11.6-9.4,21-21,21H98c-11.6,0-21-9.4-21-21V262
		C77,252.6,84.6,245,94,245z M101,271v130h310V271H310v32c0,7.7-6.3,14-14,14h-80c-7.7,0-14-6.3-14-14v-32H101z M228,271v19h56v-19
		H228z"/>
	<!-- Handles -->
	<path class="st0" d="M128,309h36c5.5,0,10,4.5,10,10s-4.5,10-10,10h-36c-5.5,0-10-4.5-10-10S122.5,309,128,309z"/>
	<path class="st0" d="M348,309h36c5.5,0,10,4.5,10,10s-4.5,10-10,10h-36c-5.5,0-10-4.5-10-10S342.5,309,348,309z"/>
</g>
</svg>
