<?xml version="1.0" encoding="utf-8"?>
<!-- Generator: Adobe Illustrator 26.5.0, SVG Export Plug-In . SVG Version: 6.00 Build 0)  -->
<svg version="1.1" id="Calque_1" xmlns="http://www.w3.org/2000/svg" xmlns:xlink="http://www.w3.org/1999/xlink" x="0px" y="0px"
	 viewBox="0 0 512 512" style="enable-background:new 0 0 512 512;" width="512" height="512" xml:space="preserve">
<style type="text/css">
	.st0{fill:#FFFFFF;}
</style>
<path id="icon-symbol" class="st0" d="M228.8,32.2v114.2h17.7V32.2L228.8,32.2L228.8,32.2z M120.6,32.8c-15.5,0-28.1,12.6-28.1,28.1
	c0,15.5,12.6,28.1,28.1,28.1c12.7,0,23.3-8.4,26.8-19.9h44.9v77.3h17.7v-95h-63C143.1,40.6,132.8,32.8,120.6,32.8L120.6,32.8z
	 M313.8,32.8c-15.5,0-28.1,12.6-28.1,28.1c0,12.1,7.7,22.5,18.4,26.4v59.1h17.7V87.8c11.6-3.5,20.1-14.2,20.1-26.9
	C341.9,45.4,329.4,32.8,313.8,32.8L313.8,32.8z M266.1,92.5v53.9h17.7V92.5H266.1L266.1,92.5z M454.7,96.5
	c-15.5,0-28.1,12.6-28.1,28.1c0,13.1,8.9,24.1,21.1,27.2v27.5h-92.9v17.7h110.6v-46.3c10.2-4.2,17.4-14.2,17.4-26
	C482.7,109.1,470.2,96.5,454.7,96.5L454.7,96.5z M30.2,123.7v17.7h66.6v55.6h62.8v-17.7h-45.1v-55.6L30.2,123.7L30.2,123.7z
	 M177.2,164.1v159.7H337V164.1L177.2,164.1L177.2,164.1z M194.8,179.8h17.7v78.6l32.4,32.4h75.3v17.7h-82.6l-2.6-2.6l-10.8-10.8
	c-1,7.4-7.4,13.1-15,13.1c-8.4,0-15.2-6.8-15.2-15.2c0-7.7,5.7-14,13.1-15l-9.7-9.7l-2.6-2.6L194.8,179.8L194.8,179.8z M249.7,179.9
	h17.7v55.3h52.5l0,17.7h-70.2L249.7,179.9L249.7,179.9z M53.1,217.4v90c-11.5,3.5-19.8,14.2-19.8,26.8c0,15.5,12.6,28.1,28.1,28.1
	s28.1-12.6,28.1-28.1c0-12.2-7.8-22.6-18.7-26.4V235h88.8v-17.7L53.1,217.4L53.1,217.4z M354.7,217.4V235h54v-17.7L354.7,217.4
	L354.7,217.4z M454.7,239.3c-10.9,0-20.3,6.2-25,15.3h-75l0,17.7H427c2.3,13.2,13.8,23.2,27.7,23.2c15.5,0,28.1-12.6,28.1-28.1
	C482.7,251.9,470.2,239.3,454.7,239.3L454.7,239.3z M105.6,254.6v17.7h54v-17.7L105.6,254.6L105.6,254.6z M122.7,291.1v84.2
	c-11.5,3.5-19.9,14.2-19.9,26.8c0,15.5,12.6,28.1,28.1,28.1c15.5,0,28.1-12.6,28.1-28.1c0-12.2-7.8-22.6-18.6-26.4v-66.9h19.2v-17.7
	L122.7,291.1L122.7,291.1z M354.7,291.1v17.7h45.2v95.3c-11.3,3.6-19.5,14.3-19.5,26.8c0,15.5,12.6,28.1,28.1,28.1
	c15.5,0,28.1-12.6,28.1-28.1c0-12.3-7.9-22.8-19-26.6V291.1H354.7L354.7,291.1z M192.4,341.5v54h17.7v-54H192.4z M228.8,341.5v86.6
	c-11,3.8-18.9,14.2-18.9,26.5c0,15.5,12.6,28.1,28.1,28.1s28.1-12.6,28.1-28.1c0-12.5-8.2-23.1-19.5-26.8v-86.3H228.8L228.8,341.5z
	 M266.1,341.5v54h17.7l0-54L266.1,341.5L266.1,341.5z M304.2,341.5v140.1h17.7V341.5H304.2L304.2,341.5z"/>
</svg>
