<?xml version="1.0" encoding="utf-8"?>
<!-- Generator: Adobe Illustrator 26.5.0, SVG Export Plug-In . SVG Version: 6.00 Build 0)  -->
<svg version="1.1" id="Calque_1" xmlns="http://www.w3.org/2000/svg" xmlns:xlink="http://www.w3.org/1999/xlink" x="0px" y="0px"
	 viewBox="0 0 512 512" style="enable-background:new 0 0 512 512;" width="512" height="512" xml:space="preserve">
<style type="text/css">
	.st0{fill:#FFFFFF;}
</style>
<g id="icon-symbol">
	<path class="st0" d="M341.8,217.5c-13.5-7.7-24.5-11.2-40.2-2.2c-15.7,9-15.7,20.9-17.5,34.8h-56.1c-0.9-14.7-3.1-26.2-18.6-35.5
		c-15.7-9.4-25.8-3.1-38.6,2.5c-2.1-3.2-4-5.7-5.4-8.3c-7.6-13-15.1-26.1-23.3-40.6c11.6-8.4,21.7-15.5,21.3-33.7
		c-0.4-17.4-8.3-25-21.7-32.9l28-49.3c12.8,4.1,23.5,12.1,39.5,2.1c15.1-9.5,18.3-20.2,18.6-35.6h56.5c0.6,14.8,3.1,26.1,18.4,35.5
		c15.7,9.5,25.8,3.1,38.6-2.5c1.9,2.8,3.5,4.8,4.6,7c7.9,13.5,15.6,27,24.1,41.9c-11.5,8.5-21.8,15.3-21.3,33.7
		c0.5,17.3,8.3,25,21.8,32.9L341.8,217.5z M255.9,80.5c-29.8-0.1-54,24-54,53.8s24,54,53.8,54c29.8,0.1,54-24,54-53.8
		c0-0.1,0-0.4,0-0.5C309.5,104.4,285.5,80.4,255.9,80.5z"/>
	<path class="st0" d="M349.6,488.9L274,475.3c4.6-27.2,9.2-53.7,13.8-80.2c1.7-9.8,3.5-19.6,5.4-29.3c3.9-20.9,16.9-39,35.6-49
		c13.2-7.5,26.7-14.2,39.9-21.4c9.7-5.3,19.2-7,25.9,4c6.3,10.2,0.8,17.5-7.6,23.7c-7.7,5.4-15,11.4-21.7,17.8
		c-4,4.9-7.4,10.2-10.3,15.7l3.1,4.5c11.9-4.1,24-7.4,36.4-9.7c35.3-4.1,53.4-22.7,59.3-58.3c4.8-28.1,15.1-55.3,24.2-82.5
		c1.8-5.3,9.2-8.6,13.9-12.9c2.1,5.7,6.6,11.9,5.8,17.2c-5.9,38.7-12.5,77.4-20.1,115.7c-2.1,8-6.7,15-13.2,20.1
		c-32.5,26.2-65.5,51.7-98.9,76.6c-8.4,5.3-13.3,14.7-12.8,24.5C352.3,464.3,351.3,476.6,349.6,488.9z"/>
	<path class="st0" d="M157.3,356.2c-4.1-6.3-8.8-12.4-13.8-18.1c-7.1-6.8-16.6-11.5-22.7-19c-3.6-4.6-5.9-15.2-3.2-19
		c3.5-4.8,14.3-9,19.2-7c19.5,7.5,37.8,17.5,54.6,29.9c12.4,10.2,21.4,24,25.8,39.3c9,35.3,13.7,71.8,20,107.8
		c-0.1,1.8-0.4,3.6-1,5.4l-73.8,13.2c-1.7-8.4-2.5-16.9-2.3-25.5c2.3-21.8-9.4-33.7-25.7-45.4c-30.1-21.5-59.1-44.6-87.8-67.8
		c-6.1-4.9-10.3-11.5-12.1-19c-7.5-38.4-14.2-77-20.1-115.7c-0.8-5.5,4.3-11.9,6.7-17.9c4.5,4.6,11.5,8.6,13.2,14.2
		c11.1,34.8,21.7,69.8,31,105.1c2.7,14.7,14.4,26.1,29.3,28.2c19.6,4.4,38.8,10.7,58.2,16.1L157.3,356.2z"/>
	<path class="st0" d="M77.6,326.4c-22.8-35.2-13.8-70.8-5.3-106.3c0.6-3,5.7-4.8,8.6-7.2c2.2,3.6,6.4,7.4,6.2,10.7
		C84.3,257.8,81,291.7,77.6,326.4z"/>
	<path class="st0" d="M434.6,328.8c-3.5-35.6-7.1-67.7-9.7-100c-0.4-5.2,3.5-10.6,5.4-15.9c4,4.4,7.5,9.3,10.4,14.3
		c1.8,5.4,3.1,11.1,3.6,16.8C451.8,281.7,451.1,289.1,434.6,328.8z"/>
	<path class="st0" d="M52.1,257.8c-1.9-17.4-4.5-34.8-5.5-52.4c-0.4-7.2,3.4-16.3,12.8-12.3c5.3,3.7,8.5,9.8,8.4,16.4
		c-2.1,16.3-6.4,32.1-10.1,48.2H52.1z"/>
	<path class="st0" d="M454.1,257.4c-3.5-15.1-7.2-30.1-10.1-45.3c-1.5-8-3.2-17.5,8.8-19.5c11.6-1.8,13.2,7.7,12.6,15.1
		c-1,16.9-4,33.7-6.2,50.6L454.1,257.4z"/>
</g>
</svg>
