<?xml version="1.0" encoding="utf-8"?>
<!-- Generator: Adobe Illustrator 26.5.0, SVG Export Plug-In . SVG Version: 6.00 Build 0)  -->
<svg version="1.1" id="Calque_1" xmlns="http://www.w3.org/2000/svg" xmlns:xlink="http://www.w3.org/1999/xlink" x="0px" y="0px"
	 viewBox="0 0 512 512" style="enable-background:new 0 0 512 512;" width="512" height="512" xml:space="preserve">
<style type="text/css">
	.st0{fill:#FFFFFF;}
</style>
<g transform="translate(0,0)">
	<path class="st0" d="M220.6,63.4c0.3,0,0.6-0.1,0.8-0.1c63.8-10.9,126.5,20.7,165.2,76.8l-13.5,9.8c-32.5-43-82.5-67.3-133.6-58.5
		c-77.4,13.3-127.2,97-111.9,186.4C143,367.1,217.8,429,295.3,416c51.1-9,90.1-48.1,106.4-99.5l16,4.7
		C402.3,378.3,363.6,424,312,442l4,56l-22.3-50c-2,0-4.1,0-6.1,1c-91.9,15-182-57.6-200.3-164.3C70.2,185,121.9,92,203.8,67.4
		L191,14.3l21-0.3L220.6,63.4z M362.1,320.1c-17.7,6.3-34,10.3-46.3,12.8c-2,5-4.4,9.7-7,13.8c-8,12.6-18.6,20.7-31.4,21.6
		c-9.5,0.6-19-2.9-27.8-9.2L239,371.9c16.9,15.8,36.1,24.1,55.3,22.7c20.2-1.3,37.7-13.1,50.5-32.5
		C352.4,350.6,358.3,336.3,362.1,320.1L362.1,320.1z M74.4,300.3c-4.2,3-7.5,5.8-9.8,8.5c-5,5.8-6.2,11.4-5.1,16.1
		c1,4.1,3.8,8,9.2,10.8c4,2.1,10,3.8,17.6,4.8C81,327.4,77.1,313.9,74.4,300.3L74.4,300.3z M166,312c3.5,8.7,7.4,16.5,11.3,23.4
		c26.4-3.9,56-9.6,87.1-17c73.4-17.6,135.4-40.1,164.5-58.2c8.6-5.3,14.6-10.4,17.8-14.9c3.5-5,4.3-9.7,3.3-13.8
		c-1.1-4.7-4.8-9.2-11.9-12.1c-9.8-4-28.7-5.5-53.9-4.1l0.6,16.6c10.6-0.1,19.3,0.5,25.4,1.9c1.5,0.3,3,1,4.2,1.5l-0.3,0.3
		c-2.3,2.6-6,5.3-10.7,8.2c-25.6,15.9-80.2,35.4-144.7,50.9C224.9,302.8,193,308.6,166,312L166,312z M292.1,263.6l-6.5-26.1
		c-113.9-6.9-175,40.2-59.4,42.1L292.1,263.6z M322.6,251.4l40.7-14.1c-7.5-41.6-25.6-77.3-48.1-99.4c-17.4-17-37.4-26.1-57.3-24.7
		c-34.1,2.3-60.7,34.9-69.4,82.2l16.2,3.7c7.3-27.3,22.2-46.8,42.7-48.2c13-0.9,25.9,5.8,37.3,17.3
		C302.9,186.5,317.1,216.6,322.6,251.4L322.6,251.4z"/>
</g>
</svg>
