<?xml version="1.0" encoding="utf-8"?>
<!-- Generator: Adobe Illustrator 26.0.1, SVG Export Plug-In . SVG Version: 6.00 Build 0)  -->
<svg version="1.1" id="Calque_1" xmlns="http://www.w3.org/2000/svg" xmlns:xlink="http://www.w3.org/1999/xlink" x="0px" y="0px"
	 viewBox="0 0 220 220" style="enable-background:new 0 0 220 220;" width="220" height="220" xml:space="preserve">
<style type="text/css">
	.st0{fill:#0C9394;stroke:#FFFFFF;stroke-width:6;stroke-miterlimit:10;}
	.st1{fill:#FFFFFF;}
</style>
<g>
	<path class="st0" d="M155.3,111.7H71.6c-6.6,0-12-5.4-12-12V16c0-6.6,5.4-12,12-12h83.7c6.6,0,12,5.4,12,12v83.7
		C167.3,106.3,161.9,111.7,155.3,111.7z"/>
	<circle class="st1" cx="82" cy="26.4" r="10.6"/>
	<circle class="st1" cx="82" cy="89.1" r="10.6"/>
	<circle class="st1" cx="144.7" cy="89.1" r="10.6"/>
	<circle class="st1" cx="146" cy="26.4" r="10.6"/>
	<circle class="st1" cx="113.5" cy="57.9" r="10.6"/>
</g>
<g>
	<path class="st0" d="M103.6,214.8H19.9c-6.6,0-12-5.4-12-12v-83.7c0-6.6,5.4-12,12-12h83.7c6.6,0,12,5.4,12,12v83.7
		C115.6,209.4,110.2,214.8,103.6,214.8z"/>
	<circle class="st1" cx="30.3" cy="129.4" r="10.6"/>
	<circle class="st1" cx="30.3" cy="192.1" r="10.6"/>
	<circle class="st1" cx="93" cy="192.1" r="10.6"/>
	<circle class="st1" cx="94.3" cy="129.4" r="10.6"/>
</g>
<g>
	<path class="st0" d="M134.7,211.6l-59.2-59.2c-4.7-4.7-4.7-12.3,0-17l59.2-59.2c4.7-4.7,12.3-4.7,17,0l59.2,59.2
		c4.7,4.7,4.7,12.3,0,17l-59.2,59.2C147,216.2,139.3,216.2,134.7,211.6z"/>
	<g>
		<path class="st1" d="M147.9,172.9c-0.2-0.2-0.4-0.3-0.6-0.5c-0.1,0.3-0.2,0.5-0.3,0.9C147.4,173.1,147.6,173,147.9,172.9
			 M115.4,120c0.2-0.1,0.2-0.2,0.1-0.4c-0.2-0.2-0.4-0.4-0.5-0.5c-0.2-0.2-0.3-0.1-0.3,0.1L115.4,120z M135.5,152.7
			c0.2,0.2,0.5,0.5,0.7,0.7c0,0,0.1,0,0.2,0.1c0-0.1,0-0.2,0-0.2c-0.4-0.5-0.9-0.9-1.3-1.3c0,0-0.1,0-0.2-0.1c0,0.1,0,0.2,0,0.2
			C135.1,152.3,135.3,152.5,135.5,152.7 M127.6,163.9c0.6,0.6,1.2,1.1,1.8,1.6c-0.1-0.2-0.3-0.4-0.3-0.6c-0.1-0.5-0.4-0.7-0.7-0.9
			C128.1,163.8,127.9,163.8,127.6,163.9 M158.2,118.3C158.1,118.3,158.1,118.3,158.2,118.3c-0.1,0.2-0.1,0.4-0.1,0.5
			c0.5,0.5,1,1,1.5,1.5l0.3-0.3L158.2,118.3z M118.6,147.7c-0.2,0.1-0.4,0.2-0.2,0.4c0.4,0.4,0.7,0.9,1.2,1.2
			c0.3,0.2,0.4,0.2,0.6-0.1L118.6,147.7z M128.2,180.1c-0.5-0.5-0.9-0.9-1.4-1.4c-0.1-0.1-0.2-0.2-0.3,0c-0.1,0.1-0.1,0.2,0,0.4
			c0.4,0.4,0.8,0.8,1.2,1.2C127.9,180.5,127.9,180.5,128.2,180.1 M130.9,180.5c-0.5,0.3-0.9,0.5-1.3,0.7l-0.1,0.2
			c0.3,0.3,0.5,0.5,0.8,0.8C130.5,181.6,130.7,181.1,130.9,180.5 M108.9,123c0.7,0,1.3,0.1,1.9,0.1V123l-1.4-1.4
			C109.2,122.1,109.1,122.6,108.9,123 M126.6,172.5c-0.1,0.3-0.2,0.5-0.3,0.7c-0.1,0.2-0.1,0.3,0.1,0.5c0.3,0.3,0.6,0.6,0.9,0.9
			c0.1,0.1,0.2,0.1,0.3,0.2c0.1-0.3,0.3-0.5,0.4-0.7c0-0.1,0-0.2-0.1-0.3C127.4,173.4,127,173,126.6,172.5 M127.9,175.4
			c-0.2,0.3-0.4,0.6-0.6,0.8l1.5,1.5c0.1-0.3,0.3-0.5,0.4-0.8c0-0.1,0-0.2,0-0.2C128.8,176.3,128.4,175.9,127.9,175.4 M120.7,156.3
			c-0.1,0.4-0.1,0.7,0.3,1c0.7,0.7,1.4,1.4,2.1,2.1c0.3,0.3,0.6,0.4,1,0.3L120.7,156.3z M118.3,114.7
			C118.3,114.7,118.4,114.6,118.3,114.7c-0.4-0.5-0.8-0.9-1.2-1.4H117c-0.6,0.1-1.2,0.1-1.7,0.4c-0.4,0.2-0.6,0.7-1,1.1
			C115.7,114.8,117,114.7,118.3,114.7 M117.8,117.7c-0.6-0.4-3.9-0.6-4.6-0.3c0.3,0.3,0.5,0.5,0.8,0.8c0,0,0.1,0,0.2,0
			c0.9,0.1,1.7,0.2,2.6,0.3c0.1,0,0.2,0,0.3,0C117.2,118.3,117.5,118,117.8,117.7 M113.5,118.2c-0.4-0.4-0.6-0.6-0.9-0.9h-0.1
			c-0.4,0-0.9,0-1.3,0c-0.8,0.1-1.6,0.3-2.5,0.4c-0.3,0-0.5,0.2-0.8,0.3c0.4,0.4,0.7,0.6,0.9,0.9c0.1,0.1,0.3,0.2,0.4,0.1
			c1.3-0.3,2.6-0.7,4-0.7C113.2,118.3,113.3,118.2,113.5,118.2 M137,154.6L137,154.6c-0.2-0.2-0.4-0.4-0.6-0.6
			c-0.1-0.1-0.2-0.2-0.4-0.1c-0.7,0.3-1.5,0.6-2.2,0.9c-0.4,0.2-0.6,0.4-0.3,0.8c0.4,0.5,0.8,1,1.2,1.4c0,0,0.1,0.1,0.2,0.1
			c0.4-0.1,0.8-0.3,1.2-0.4c0.2-0.1,0.4-0.3,0.6-0.4c0.4-0.2,0.7-0.4,0.9-0.7c0-0.1,0-0.2,0-0.3C137.5,155,137.2,154.8,137,154.6
			 M132.5,149.7C132.5,149.7,132.4,149.7,132.5,149.7c-0.3-0.2-0.5-0.4-0.7-0.6c-0.1-0.1-0.1-0.1-0.2-0.1c-0.3,0.1-0.7,0-1,0.2
			c-0.5,0.3-0.9,0.8-1.1,1.4c-0.1,0.3,0,0.6,0.3,0.7c0.1,0.1,0.3,0.2,0.4,0.3c0.2,0.1,0.2,0.2,0.1,0.4c-0.1,0.1-0.1,0.3,0,0.4
			c0.2,0.3,0.4,0.6,0.8,0.6c0.7-0.1,1.6,0,1.9-0.9c0-0.1,0.1-0.1,0.1-0.2c0.1-0.4,0.2-0.8,0.3-1.2v-0.1
			C133,150.4,132.7,150,132.5,149.7 M124.5,141.9c-0.1-0.1-0.2-0.2-0.2-0.2c-0.4-0.4-0.8-0.8-1.2-1.1c-0.1-0.1-0.1-0.2-0.1-0.3
			l0.1-0.1c0.2,0,0.4,0,0.6,0.2c0.4,0.4,0.7,0.7,1.1,1.1c0.1,0.1,0.2,0.2,0.3,0c0.5-0.6,0.9-1.1,0.8-2c-0.1-0.6-0.2-1.2-0.6-1.7
			c-0.5-0.5-1.2-0.8-1.9-0.9c-0.8-0.1-1.6,0.1-2.2,0.7c-0.2,0.2-0.3,0.1-0.4,0c-0.5-0.4-0.9-0.9-1.4-1.3c-0.2-0.2-0.3-0.2-0.4,0
			c0.5,0.5,1,1,1.4,1.4c0.2,0.2,0.5,0.4,0.2,0.7c-0.1,0.1-0.1,0.2-0.1,0.3c0,0.3-0.1,0.7,0,1c0.1,0.9,0.4,1.8,1.3,2.2
			c0.1,0.1,0.3,0.1,0.4,0.2C123,142.6,123.8,142.4,124.5,141.9 M129.8,175.7c0.1-0.3,0.1-0.5,0.2-0.7c0-0.3,0.2-0.4,0.6-0.4
			c0.6,0,1.2,0,1.8-0.1c0.5-0.1,0.9-0.3,1.3-0.4c0.2-0.1,0.3-0.1,0.5-0.2c-0.1-0.2-0.2-0.4-0.3-0.5c0-0.1-0.1-0.2-0.1-0.3
			c0.1-0.6,0.1-1.2-0.1-1.8c-0.2-0.5-0.4-0.7-0.9-0.7c-0.1,0-0.2,0-0.2-0.1c-0.4-0.4-0.6-0.9-0.4-1.4c0.4-1.3,0.4-2.6,0.3-3.9
			c0-0.1-0.1-0.3-0.2-0.4c-0.4-0.4-0.9-0.9-1.3-1.3c-0.2-0.2-0.2-0.4,0-0.7l1.4,1.4c0-0.1,0-0.2,0-0.3c-0.1-0.5-0.2-1-0.2-1.6
			c0-0.2-0.1-0.4-0.3-0.6c-1.4-1.4-2.7-2.8-4.1-4.1c-0.1-0.1-0.1-0.1-0.3-0.2c0.2,0.3,0.4,0.6,0.5,0.9c0.2,0.8,0.5,1.6,0.6,2.5
			c0.3,1.3,0.5,2.5,0.8,3.8c0,0.1,0.1,0.2,0.1,0.2c0.4,0.4,0.8,0.9,1.2,1.3c0.1,0.1,0.1,0.3,0.1,0.3c-0.1,0.1-0.3,0.1-0.4,0.1
			c-0.2-0.1-0.4-0.2-0.7-0.3c0,0.4,0,0.7,0.1,1.1c0,0.1,0.2,0.3,0.3,0.3c0.5,0.2,0.6,0.2,0.4,0.8c0.1,0,0.2,0,0.3,0s0.1,0.1,0.2,0.2
			c0.1,0.1,0.1,0.3,0.2,0.4c0.4,0.3,0.6,0.7,0.4,1.3c0,0.1,0,0.2-0.1,0.3c0,0.1-0.1,0.2-0.1,0.4l-1.7-1.7c0,0.2-0.1,0.3-0.1,0.4
			c-0.1,0.6-0.2,1.3-0.4,1.9c-0.2,0.8-0.4,1.6-0.7,2.5c0,0.1,0,0.3,0,0.4C128.9,174.8,129.3,175.2,129.8,175.7 M119.2,157l1.1,1.1
			v0.1c-0.1,0-0.3,0-0.4,0c-1-0.2-1.9-0.5-2.6-1.2c-0.1-0.1-0.2-0.2-0.3-0.4c-0.2-0.5-0.6-0.8-1.2-0.9c-1.5-0.3-3-0.4-4.6-0.2
			c-0.4,0.1-0.8,0.1-1.3,0.1c-0.1,0-0.2,0-0.3-0.1c-0.5-0.5-0.9-0.9-1.4-1.4c0.3-0.3,0.6-0.4,1-0.5c2.1-0.4,4.1-0.4,6.2-0.2
			c0.2,0,0.4,0.1,0.5,0.2c0.3,0.3,0.6,0.6,1,0.8c0,0,0,0,0.1,0c0-0.1-0.1-0.2-0.1-0.2c0-0.1,0-0.2-0.1-0.3c0.1,0,0.2,0,0.3,0
			c0.3,0.1,0.5,0.3,0.8,0.1c0.1,0,0.1-0.1,0.2-0.1c0.3-0.3,0.3-0.2,0.6,0.1c0.4,0.3,0.8,0.7,1.2,0.9c1,0.5,1.9,1.2,2.8,1.8
			c0.7,0.5,1.1,1.2,1.7,1.8c0.1,0.1,0.2,0.2,0.3,0.2l0.1-0.1c-0.5-1-1.1-2-1.6-3.1l3.2,3.2c0,0,0.1,0,0.1-0.1
			c-0.1-0.1-0.1-0.2-0.2-0.3c-1-1.1-2.1-2.1-3.2-3.1c-0.8-0.7-1.3-1.6-1.9-2.4c-0.3-0.3-0.5-0.7-0.8-1c-0.6-0.7-1.2-1.4-1.9-2
			c-0.9-0.8-1.8-1.4-2.7-2.1c-0.2-0.1-0.4-0.3-0.6-0.4c-1.4-1.4-2.9-2.9-4.3-4.3c-0.1-0.1-0.1-0.1-0.2-0.2v-0.1
			c0.9,0.2,1.8,0.5,2.7,0.7c0,0,0-0.1,0.1-0.1c-0.2-0.4-0.3-0.9-0.5-1.3c-0.4-0.8-0.8-1.6-1.1-2.4c-0.4-1-0.6-2.1-0.9-3.2
			c-0.1-0.2-0.1-0.4-0.3-0.5c-0.5-0.6-1.1-1.1-1.7-1.7c0.3-0.1,0.6-0.1,0.8,0.2c0.3,0.3,0.5,0.5,0.8,0.8c-0.1-1-0.2-1.9-0.3-2.9
			c-0.8,0-1.6,0-2.4-0.1c-0.1,0-0.3-0.1-0.4-0.1c-1.3-1.3-2.5-2.5-3.8-3.8c-0.2-0.2-0.2-0.3-0.1-0.5c0.5-1.7,1-3.4,1.5-5.1
			c0.1-0.2,0-0.4-0.2-0.6c-0.5-0.4-0.9-0.9-1.4-1.3c-0.2-0.2-0.2-0.4,0.1-0.6l1.8,1.8c0.1-0.1,0.1-0.2,0.1-0.3
			c0.1-0.5,0.3-1,0.4-1.6c0.1-0.4,0.3-0.6,0.6-0.8c0.1-0.1,0.2-0.2,0.4-0.3l-1.6-1.6c0.2-0.1,0.4-0.2,0.5-0.2c0.8-0.3,1.4-0.8,2-1.4
			c0.5-0.4,1-0.9,1.5-1.4c0.2-0.2,0.3-0.1,0.4,0c0.4,0.4,0.9,0.9,1.3,1.3c0.1,0.1,0.2,0.1,0.3,0.2l0.1-0.1c-0.1-0.2-0.1-0.4-0.3-0.6
			c-0.3-0.4-0.7-0.7-1-1c-0.2-0.2-0.2-0.3,0-0.4c0.4-0.4,0.9-0.8,1.3-1.2c0.1-0.1,0.2-0.1,0.3-0.2c0.4,0.4,0.7,0.7,1.1,1.1
			c0.1,0.1,0.2,0.2,0.3,0.3c0.4,0.4,0.5,0.3,0.8,0c0.6-0.6,0.6-0.6,0-1.2c-0.3-0.3-0.5-0.5-0.8-0.8c-0.2-0.2-0.2-0.3,0-0.5
			c0.3-0.2,0.5-0.5,0.8-0.7c0.2-0.2,0.3-0.2,0.4,0c0.5,0.5,1,1,1.5,1.5c0.1,0.2,0.3,0.2,0.4,0c0.3-0.3,0.6-0.6,0.9-0.9
			c0.2-0.2,0.2-0.3,0-0.4c-0.4-0.4-0.9-0.9-1.3-1.3c-0.2-0.1-0.2-0.3,0-0.4c0.6-0.6,0.6-0.6,1.2,0c0.3,0.3,0.7,0.7,1,1
			c0.1,0.1,0.2,0.2,0.4,0c0.4-0.3,0.8-0.7,1.2-1c-0.1-0.1-0.2-0.2-0.2-0.3c-0.5-0.5-0.9-0.9-1.4-1.4c-0.2-0.1-0.2-0.3,0-0.4
			c0.5-0.4,1-0.9,1.5-1.3c0.3-0.3,0.7-0.4,1.2-0.4c0.2,0,0.4,0,0.6,0L120,104c0.3-0.1,0.6-0.1,0.8,0.1c0.4,0.5,0.9,0.9,1.4,1.4
			c0.1,0.1,0.3,0.2,0.5,0.3c0.7,0.2,1.3,0.4,2,0.6c1,0.3,1.8,0.8,2.7,1.3c0.7,0.4,1.4,0.7,2,1.2c0.7,0.5,1.4,1,2,1.5
			c0.2,0.1,0.3,0.2,0.5,0.1c0.6-0.2,1.2-0.4,1.8-0.6c0.3-0.1,0.4-0.3,0.1-0.5c-0.5-0.5-1-1-1.5-1.5c0.2-0.1,0.3-0.2,0.5-0.3
			c-1.7-2.4-3.5-4.7-5.2-7.1c0.1,0,0.2,0,0.3,0c3.9,0,7.9-0.1,11.8-0.1c0.2,0,0.3,0.1,0.5,0.2c0.6,0.6,1.2,1.2,1.8,1.8
			c0.1,0.1,0.2,0.2,0.4,0.1c0.2-0.2,0-0.3-0.1-0.4c-0.5-0.5-1-1-1.5-1.5c0,0-0.1-0.1-0.2-0.2c0.1,0,0.2,0,0.3,0c1.4,0,2.8,0.1,4.2,0
			c1.1,0,1.7,0.5,2.3,1.3c0.9,1.1,1.6,2.3,2.2,3.5c0.3,0.6,0.5,1.4,0.8,2c0.4,1,0.6,2.1,0.8,3.2c0.1,1,0.7,1.5,1.5,2
			c0.2,0.1,0.4,0.2,0.6,0.3c0-0.1,0-0.1,0-0.2c0.2-2.4,0.1-4.7-0.1-7.1c-0.2-1.8-0.5-3.5-0.8-5.3c0-0.1,0-0.3-0.1-0.5
			c3.1,1.7,6,3.3,9,4.9c0,0,0-0.1,0.1-0.1c-0.1-0.1-0.1-0.2-0.2-0.2c-0.2-0.2-0.4-0.4-0.6-0.7c-0.1-0.1-0.1-0.2,0-0.4
			c0.2-0.2,0.3-0.2,0.5,0c0.6,0.7,1.1,1.3,1.7,1.9c0.6,0.7,1.3,1.2,2.3,1.4c0.3,0.1,0.5,0.2,0.6,0.5c0.1,0.2,0.2,0.5,0.3,0.7
			s0.2,0.4,0.1,0.7c0,0.1,0,0.2,0.1,0.3c0.2,0.3,0.4,0.5,0.6,0.7c0.2,0.3,0.4,0.6,0.5,1c0.2,0.8,0.5,1.5,0.6,2.3
			c0.2,1,0.3,2.1,0.5,3.2c0,0.1,0,0.3,0.1,0.4c0.1,0.5,0.1,0.9-0.5,1.1c0,0,0,0.2,0,0.3l0,0c0.5,0.4,0.5,0.9,0.5,1.4
			c-0.1,1.5-0.1,2.9-0.2,4.4c0,0.1,0,0.3,0.1,0.4c0.4,0.5,0.8,1,1.3,1.4c0.1,0.1,0.2,0.1,0.3,0c0.1,0,0.2,0,0.3,0
			c0.6,0.6,1.1,1.1,1.7,1.7c0.1,0.1,0.1,0.2,0,0.3l0,0c-0.5,0.6-1.1,1.1-1.3,2c-0.4-0.3-0.8-0.6-1.2-0.9c-1.2-1.1-2.4-2.3-3.6-3.5
			c-0.1-0.1-0.2-0.3-0.2-0.4c0-2.9,0-5.8,0.1-8.6c0-0.1,0-0.2,0-0.3c0.1,0,0.2,0.1,0.3,0.1c0.3-0.5,0.2-0.6-0.2-0.9
			c-0.1-0.1-0.2-0.3-0.3-0.4c-0.3-1.1-0.5-2.3-0.8-3.4c-0.1-0.5-0.4-0.9-0.8-1.2c-0.3-0.2-0.5-0.4-0.8-0.7c-0.2,0.8-0.3,1.5-0.5,2.3
			c-0.3-0.3-0.7-0.6-0.9-0.8c-0.7-0.7-1.5-1.4-2.2-2.2c-0.1-0.1-0.2-0.3-0.2-0.4c-0.1-0.4-0.2-0.9-0.4-1.3c-0.2-0.3-0.4-0.6-0.8-0.8
			c-0.6-0.4-1.3-0.7-2-1.2c0,0.3-0.1,0.5-0.1,0.8c0.1,0.5,0.1,0.9,0.2,1.4c0.3,1.6,0.4,3.2,0.4,4.7c0,1.1-0.1,2.3-0.3,3.4
			c-0.1,0.6,0,1,0.6,1.3c0.2,0.1,0.4,0.3,0.5,0.5c0.1,0.1,0.2,0.1,0.3,0s0.2-0.3,0.3-0.4c0.1-0.2,0.3-0.2,0.4-0.1
			c1.6,1.3,3.2,2.5,4.8,3.7c0.2,0.1,0.3,0.3,0.3,0.6c0,0.6-0.1,1.3-0.1,1.9c0,0.3,0.1,0.5,0.3,0.7c0.7,0.7,1.4,1.5,2.1,2.3
			c0.1,0.1,0.1,0.2,0.2,0.3l-0.1,0.1c-0.1-0.1-0.2-0.1-0.3-0.2c-0.6-0.6-1.1-1.2-1.7-1.6c-0.9-0.7-1.7-1.5-2.5-2.3
			c-0.5-0.5-1.1-0.8-1.7-1.1c-0.9-0.6-1.9-0.9-3-1.1c-0.1,0-0.2,0-0.4-0.1c0-0.1,0.1-0.2,0.1-0.3c0.3-0.5,0.6-1,0.8-1.6
			c0-0.1,0-0.3,0-0.3c-0.2-0.3-0.5-0.5-0.8-0.8c-0.1-0.2-0.3-0.1-0.4,0c-0.1,0.1-0.2,0.2-0.3,0.3c-0.1,0-0.1,0-0.1,0
			c-1.6-1.5-3.7-2.1-5.8-2.6c-0.3-0.1-0.5-0.2-0.6-0.5c-0.4-1.5-0.8-3-1.3-4.5c-0.1-0.4-0.1-0.7-0.2-1.1l2.7,2.7
			c0-0.1,0.1-0.3,0-0.3c-0.2-0.3-0.4-0.7-0.6-1c-0.5-0.6-1.1-1.1-1.7-1.6c-0.9-0.7-1.3-1.7-1.7-2.7c-0.3-0.7-0.7-1.4-1.3-1.9
			c-0.1-0.1-0.3-0.1-0.4-0.1c-0.4,0-0.8,0-1.3,0c0.1,0.1,0.2,0.2,0.2,0.3c0.6,0.6,1.3,1.2,1.9,1.8c0.1,0.1,0.3,0.2,0.1,0.4
			c-0.2,0.2-0.3,0.1-0.4-0.1c-0.6-0.7-1.3-1.4-1.9-2c-0.1-0.1-0.2-0.1-0.3-0.1c0,0.1-0.1,0.2-0.1,0.3c0.3,1.5-0.1,2.9-0.7,4.2
			c-0.2,0.4-0.5,0.7-0.9,1.1c-0.3-0.6-0.7-1.2-1-1.7c-0.1-0.1-0.1-0.2-0.2-0.3c-1.1-1.2-2.2-2.3-3.3-3.5c-0.2-0.2-0.5-0.4-0.7-0.6
			c-0.1-0.1-0.2-0.1-0.3-0.1c-1,0-2,0-3,0c0,0-0.1,0-0.2,0c0.1,0.2,0.1,0.4,0.2,0.6c0.7,0.9,1.4,1.8,2,2.8c0.6,0.9,1.2,1.8,1.7,2.7
			c0.3,0.6,0.6,1.2,0.8,1.8c0.1,0.2,0,0.5,0,0.8l-0.1,0.1c-0.4,0-0.9,0.2-1.2-0.3c-0.3-0.4-0.6-0.7-1-1c-0.1-0.1-0.3-0.2-0.5-0.2
			c0,0,0,0.1-0.1,0.1l1.4,1.4l-0.1,0.1c-1.4,0.2-2.7,0.7-4,1.4c-0.3,0.1-0.5,0.1-0.7-0.1c-0.8-0.6-1.6-1.2-2.4-1.8
			c-0.6-0.4-1.1-0.7-1.7-1c-0.5-0.3-0.9-0.8-1.3-1.2c-0.3-0.4-0.7-0.7-1.1-1.1c-0.1-0.1-0.3-0.1-0.5-0.2c0,0.8,0.7,0.9,1,1.5
			c-0.2,0-0.3-0.1-0.4-0.1c-0.9-0.2-1.8-0.5-2.7-0.7c-0.3-0.1-0.6-0.1-0.9-0.1c-0.4-0.1-0.6,0.1-0.9,0.4c0.3,0.2,0.6,0.5,0.9,0.6
			c0.6,0.3,1.3,0.7,1.8,1.2c0.6,0.6,1.1,1.2,1.5,2c0.1,0.1,0.1,0.2,0.1,0.3c-0.4,0.3-0.7-0.1-1.1-0.1c0.4,0.5,0.9,1.1,1.3,1.6
			c-0.1,0-0.2,0-0.2,0c-0.7,0-1.5,0-2.2-0.1c-0.2,0-0.3-0.1-0.5-0.2c-0.5-0.5-0.9-0.9-1.4-1.4c-0.1-0.1-0.3-0.2-0.4-0.2
			c-0.4,0-0.8,0-1.3,0l1.5,1.5c-0.6,0.6-1.5,0.3-2.2,0.5c0.1,0.1,0.1,0.1,0.2,0.2c0.4,0.4,0.9,0.9,1.3,1.3c0.1,0.1,0.2,0.2,0.3,0.2
			c0.5,0.1,1.1,0.2,1.6,0.3c0.2,0,0.4,0.2,0.5,0.3c0.5,0.4,1,0.8,1.2,1.4c0.1,0.2,0.1,0.4-0.1,0.5c-0.1,0.1-0.2,0.1-0.2,0.2
			c-0.1,0.1-0.3,0.1-0.4,0c-0.4-0.4-0.9-0.8-1.3-1.3c-0.2-0.2-0.3-0.1-0.5-0.1c-0.9,0.4-1.4,1.2-2,1.9c-0.3,0.3-0.5,0.6-0.8,0.9
			c-0.1,0.1-0.2,0.1-0.4,0.1c-0.4,0-0.8-0.1-1.1-0.1c0,0,0,0.1-0.1,0.1l1.3,1.3c-0.2,0.2-0.4,0.2-0.5,0c-0.3-0.3-0.7-0.7-1-1
			s-0.6-0.5-1-0.5c-1,0-2.1-0.2-3.1-0.2c-0.4,0-0.8,0.2-1.2,0.4c-0.3,0.1-0.5,0.1-0.7-0.1c-0.5-0.5-0.9-0.9-1.4-1.4
			c-0.3-0.3-0.5-0.3-0.8-0.1c-0.3,0.2-0.6,0.3-0.9,0.6c0.3,0.3,0.5,0.5,0.7,0.8c0.4,0.5,0.9,0.9,1.6,1c0.9,0.1,1.4,0.7,2,1.4
			c-0.2,0.2-0.5,0.4-0.7,0.6l1.6,1.6c-0.1,0.1-0.2,0.1-0.2,0.1c-0.8,0.3-1.5,0.5-2.3,0.7c-0.1,0-0.3,0-0.4-0.1
			c-0.4-0.3-0.8-0.7-1.3-1c-0.2-0.2-0.5-0.3-0.8-0.4c-0.1,0-0.2,0-0.3,0c0,0.1,0,0.3,0.1,0.3c0.5,0.4,0.9,0.8,1.4,1.1
			c0.1,0.1,0.2,0.2,0.3,0.3c-0.2,0.1-0.3,0.2-0.5,0.3c-0.5,0.2-0.9,0.3-1.4,0.5c-0.1,0-0.2,0.1-0.3,0.2c-0.3,0.8-0.5,1.7-0.8,2.6
			c0.2,0,0.2,0,0.3,0c0.8-0.2,1.5-0.3,2.3-0.5c1.2-0.3,2.4,0,3.6,0.3c0.1,0,0.2,0.1,0.2,0.2c0.2,0.2,0.4,0.5,0.7,0.7
			c0.3,0.2,0.4,0.5,0.4,0.8c0,0.9,0,1.7-0.1,2.6c-0.1,1.2,0.1,2.3,0.4,3.4c0.1,0.7,0.3,1.4,0.6,2c0.3,0.8,0.7,1.5,1.1,2.3
			c0.4,0.7,0.8,1.3,1.3,2c0.8,1.2,1.8,2.1,2.8,3.1c1.4,1.4,2.8,2.8,4,4.4c0.7,0.9,1.3,1.8,1.9,2.7c0.9,1.3,1.8,2.5,2.9,3.6
			c0.8,0.8,1.6,1.6,2.4,2.4h0.1c-0.3-1-0.7-2-1.1-3.1c1.4,0.4,2.8,0.6,4.3,0.4c-0.1-0.1-0.1-0.2-0.2-0.3c-0.5-0.6-1-1.2-1.5-1.8
			c-0.1-0.1-0.3-0.2-0.4-0.1c-0.7,0.1-1.3,0.1-2,0s-1.4-0.4-1.9-0.9c-1.1-1.1-2.1-2.4-2.8-3.7c-0.2-0.3-0.2-0.6-0.3-0.9
			c-0.2-0.7-0.5-1.4-0.7-2.2c0,0,0-0.1,0.1-0.1c0.3,0.1,0.6,0.2,0.9,0.4s0.6,0.3,1,0.3c1.4,0,2.7,0,4.1,0c0.1,0,0.3,0.1,0.4,0.2
			c0.1,0.1,0.2,0.3,0.4,0.4c0-0.2,0-0.4,0-0.5s0.1-0.2,0.2-0.3c0.2-0.1,0.5-0.2,0.7-0.2c0.6-0.1,1.1-0.4,1.6-0.8
			c0.1-0.1,0.1-0.2,0-0.3c-0.4-0.4-0.9-0.9-1.3-1.3c-0.1-0.1-0.2-0.1-0.3,0c-0.6,0.4-1.2,0.7-1.9,0.9c-0.2,0.1-0.5,0.1-0.8,0.2
			l0.8,0.8c-0.3,0.2-0.5,0.3-0.7,0c-0.1-0.2-0.3-0.3-0.5-0.5s-0.4-0.4-0.3-0.7c0-0.1-0.1-0.2-0.1-0.3c-0.3-0.3-0.7-0.7-1-1
			c-0.1-0.1-0.3-0.1-0.5-0.2c0.3,0.7,1.1,1,1.2,1.7c0,0,0,0.1-0.1,0.1s-0.1,0-0.2-0.1c-1.7-0.5-3.5-0.9-5.2-1.5
			c-1-0.3-2-0.9-2.8-1.5c-0.4-0.3-0.8-0.5-1.2-0.8c-0.1-0.1-0.3-0.1-0.3,0c-0.1,0.1-0.1,0.2-0.1,0.3c0,0.3,0.2,0.6,0.1,0.9
			c-0.2-0.2-0.5-0.3-0.6-0.5c-0.5-0.5-1-0.9-1.5-1.4c-0.2-0.2-0.2-0.3,0-0.5c0.2,0.1,0.4,0.2,0.6,0.3c0.1,0,0.2,0.1,0.3,0.1
			c0-0.1,0.1-0.3,0.1-0.4c0-0.1-0.1-0.3-0.1-0.4c-0.1-0.2-0.2-0.4,0.1-0.5c0,0,0-0.2,0-0.3c-0.3-0.4-0.6-0.9-0.8-1.3
			c-0.2-0.3-0.3-0.6-0.4-0.9c-0.5-1.4-0.6-2.7-0.4-4.2c0-0.1-0.1-0.3-0.1-0.4c-0.5-0.5-0.9-1-1.4-1.4c-0.1-0.1-0.2-0.2,0-0.4
			s0.3-0.1,0.4,0c0.4,0.4,0.7,0.7,1.1,1.1c0.1,0.1,0.1,0.1,0.3,0.2c0.1-0.4,0.2-0.7,0.4-1c0.2-0.5,0.5-1.1,0.7-1.6
			c0.1-0.2,0.1-0.3-0.1-0.4c-0.4-0.4-0.8-0.8-1.2-1.2c-0.1,0.4-0.1,0.9-0.2,1.4c-0.5-0.3-1-0.5-1.4-0.8c-0.1,0-0.1-0.2-0.1-0.2
			c0.4-0.4,0.5-0.9,0.6-1.5c0,0,0,0,0.1-0.1c0.2,0.2,0.3,0.3,0.5,0.5c0.1,0.1,0.2,0.1,0.3,0c0.2-0.2,0.4-0.5,0.7-0.7
			c0.1-0.1,0.1-0.2,0-0.4c-0.2-0.2-0.4-0.5-0.5-0.7c-0.1-0.1-0.1-0.2,0-0.3c0.3-0.9,0.7-1.7,1.1-2.6c0.6,0.2,1.3,0.4,1.9,0.7
			c-0.1,0.1-0.1,0.2-0.2,0.2c-0.6,0.6-1.1,1.2-1.7,1.8c-0.1,0.1-0.1,0.1-0.2,0.2c-0.3,0.3-0.3,0.6,0,0.8c0.5,0.5,1,0.9,1.4,1.4
			c0.2,0.2,0.3,0.2,0.5,0c0.1-0.1,0.2-0.2,0.4-0.4c0.2,0.4,0.4,0.7,0.5,1.1c0.2,0.5,0.4,1.1,0.6,1.6c0.2,0.4,0.3,0.9,0.7,1.2
			c0.9,0.9,1.9,1.8,2.8,2.7c0.3,0.3,0.6,0.4,1,0.5c0.2,0.1,0.3,0.2,0.5,0.3c0.4,0.3,0.7,0.7,1.1,1.1c0.7,0.8,1.5,1.2,2.5,1.6
			c1.4,0.5,2.8,0.9,4.3,1.1c0.2,0,0.2,0.1,0.2,0.2c0.1,0.8,0.3,1.7,0.3,2.5c0,0.7-0.1,1.3-0.2,2c0,0-0.1,0-0.1,0.1l-1.6-1.6h-0.1
			c-0.1,0.3-0.2,0.6-0.3,1c0,0.1,0.1,0.2,0.1,0.3c0.4,0.4,0.7,0.8,1.1,1.1c0.1,0.1,0.3,0.2,0.4,0.2c0.3,0,0.6,0.2,0.8,0.4
			c0.8,0.8,1.4,1.7,2,2.7c0.3,0.4,0.6,0.7,1,1.1c0.3,0.3,0.5,0.7,0.8,1c0.1,0.1,0.1,0.2,0.1,0.3c0,0.2,0,0.5,0.1,0.7
			c0.1,0.5,0.1,1.1-0.2,1.6c-0.1,0.2-0.3,0.5-0.5,0.6c-0.2,0.2-0.2,0.3,0,0.4c0.3,0.3,0.5,0.7,0.8,1c0.1,0.1,0.2,0.2,0.2,0.3
			c0.1,0.6,0.5,1,1,1.4c1,0.8,1.5,1.8,1.7,3.1c0.2,1.4,0.6,2.7,0.9,4.1c0,0.1,0,0.2,0.1,0.4c-0.2-0.1-0.5-0.1-0.7-0.2
			c-0.1,0.3,0,0.4,0.2,0.6c0.4,0.2,0.5,0.5,0.5,0.9c0.1,1.5,0,3-0.1,4.5c0,0.1,0,0.2,0,0.2c-0.2,0.6,0.1,0.9,0.5,1.3
			c0.8,0.7,1.5,1.5,2.3,2.3c0.1,0.1,0.2,0.2,0.2,0.2c0.5-0.1,0.7,0.3,1,0.6c0,0,0.1,0.1,0.2,0.1c0-0.1,0.1-0.2,0.1-0.2
			c0.1-0.9,0.2-1.7,0.3-2.6c0-0.2,0-0.3-0.2-0.4c-0.2-0.1-0.4-0.3-0.6-0.4c0,0,0-0.2,0-0.3c0.1-0.1,0.3-0.1,0.3-0.1
			c0.2,0.3,0.5,0.3,0.8,0.1c0,0,0.2,0,0.2,0.1c0.3,0.3,0.6,0.5,0.8,0.8c0.1,0.1,0.1,0.2,0.1,0.3c-0.1,0.2,0,0.3,0.2,0.4
			c0.1,0,0.2,0.1,0.4,0.1s0.3,0.1,0.5,0.2c0.3,0.3,0.3,0.6,0.2,0.9c-0.1,0.2-0.1,0.4,0.1,0.6c0.3,0.2,0.3,0.4,0.2,0.7
			c-0.1,0.5-0.1,1-0.2,1.5c0,0.1,0,0.1,0,0.3l-1.5-1.5c0.2-0.2,0.3-0.5,0.6-0.2c0,0,0.1,0,0.2,0c0,0,0-0.1,0-0.2
			c-0.2-0.2-0.5-0.5-0.8-0.8c-0.1,0.6-0.2,1.2-0.3,1.8c0.9-0.3,1.2,0.5,1.7,0.9c0,0,0,0.1-0.1,0.1s-0.2-0.1-0.3-0.1
			c-0.4-0.2-0.7-0.4-1.1-0.7c-0.1,0.2-0.1,0.3,0,0.4c0.1,0.1,0.3,0.2,0.4,0.3c0.1,0.1,0.2,0.3,0.2,0.4c0,0.1-0.2,0.1-0.3,0.2
			c0,0-0.1,0-0.2,0l0.6,0.6c0.1,0.1,0.3,0.3,0.4,0.4c0.1,0.1,0.2,0.2,0,0.3c-0.1,0.1-0.2,0.2-0.4,0c-0.1-0.1-0.2-0.2-0.3-0.4
			c0,0.4-0.1,0.7-0.1,1.2c-0.3-0.3-0.7-0.5-0.8-0.7c-0.2-0.3-0.2-0.7-0.2-1c-0.3,0.1-0.5,0.3-0.7,0c-0.2-0.2-0.4-0.3-0.4-0.6
			c0-0.1,0-0.2-0.1-0.3c-0.1-0.2-0.3-0.4,0.1-0.7c0.2-0.1,0.2-0.4,0.1-0.6c-0.2-0.2-0.4-0.4-0.3-0.7c0,0-0.1-0.1-0.1-0.2
			c-1-1-2-2-3-3c-0.1-0.1-0.3-0.2-0.4-0.1h-0.2c-0.1-0.1-0.3-0.2-0.4-0.4c-0.2-0.3-0.5-0.7-0.7-1.1c-0.4-0.7-1.1-1.3-1.6-1.9
			c-0.1-0.1-0.3-0.2-0.5-0.3c0.1,0.5,0.5,0.7,0.8,1s0.3,0.3,0,0.6c-0.1,0.1-0.2,0.1-0.4,0c-0.3-0.3-0.7-0.7-1-1
			c-0.2-0.2-0.3-0.2-0.5,0c-0.4,0.4-0.3,0.3-0.6,0c-0.4-0.4-0.9-0.9-1.3-1.3c-0.1-0.1-0.2-0.1-0.3-0.1c0,0.1,0,0.2,0.1,0.3
			c0.5,0.5,1,1,1.5,1.6c0.3,0.3,0.3,0.3,0,0.6c-0.6,0.6-1.2,1.2-1.8,1.8c-0.2,0.2-0.2,0.3,0,0.5s0.4,0.4,0.6,0.6
			c-0.1,0.1-0.1,0.2-0.2,0.3c0.2,0.2,0.3,0.3,0.5,0.5c0.2,0.1,0.2,0.3,0,0.4c-0.2,0.2-0.5,0.5-0.7,0.7c0.3,0.3,0.6,0.6,0.9,0.9
			c0.6,0.6,0.6,0.6,1.4,0.3c0.2-0.1,0.3-0.1,0.5-0.2l-1.7-1.7c0.2-0.2,0.4-0.3,0.6-0.5c0.4-0.3,0.7-0.5,1.1-0.8
			c0.2-0.2,0.3-0.1,0.4,0.1c0.6,1,1.1,2,1.4,3.1c0,0.1,0.1,0.2,0.1,0.3c0.3-0.2,0.6-0.5,0.9-0.7c0.2,0.8,0.4,1.6,0.6,2.5
			c-0.7-0.2-0.9-0.8-1.4-1.1c-0.3,0.2-0.3,0.2-0.1,0.5c0.6,0.6,1.2,1.2,1.8,1.8c0.1,0.1,0.2,0.1,0.2,0.2c0.1,0.1,0.1,0.3,0.1,0.4
			c-0.1,0-0.2,0-0.4,0c-0.1,0.2-0.2,0.5-0.3,0.8c-0.2,0.5-0.4,1.1-0.5,1.7c0,0.1,0,0.2,0,0.3c0.1,0,0.2-0.1,0.3-0.1
			c0.5-0.5,1-1,1.5-1.5c0.2-0.2,0.3-0.2,0.4,0c0.4,0.4,0.8,0.8,1.2,1.2c0.1,0.1,0.1,0.1,0.3,0.2c0.1-0.5,0.2-1,0.3-1.5l2.3,2.3
			c-0.3,0.3-0.5,0.5-0.8,0.8h-0.2c-0.2-0.1-0.3-0.3-0.4-0.4c-0.2,0.4-0.5,0.7-0.7,1c0,0.1,0,0.2,0.1,0.3c0.3,0.2,0.3,0.5,0.1,0.7
			c-0.1,0.2-0.3,0.5-0.4,0.8l-0.5-0.5c-0.3-0.3-0.6-0.6-0.8-0.8c-0.1-0.1-0.2-0.1-0.2-0.1c-0.3,0.2-0.4,0-0.5-0.1
			c-0.6-0.6-1.2-1.2-1.7-1.7c-0.1-0.1-0.3-0.2-0.5-0.1c-0.2,0.2-0.5,0.1-0.7-0.1c-0.1-0.1-0.3-0.2-0.4-0.3c-0.1-0.1-0.3-0.1-0.4-0.1
			c0.1,0.6,0.6,0.8,0.9,1.2l-1.5,1.5c0.1,0.1,0.3,0.3,0.4,0.4c0.1,0.1,0.3,0.2,0.4,0.3c0.4,0.3,0.4,0.5,0.1,0.9
			c-0.1,0.2-0.4,0.4-0.2,0.7l-0.1,0.2c-0.1,0-0.2,0-0.4-0.1c-0.3,0.4-0.7,0.9-1.1,1.4c0,0.1,0,0.3,0.1,0.3c0.6,0.6,1.3,1.3,1.9,1.9
			c0.2,0.2,0.2,0.3,0,0.5s-0.3,0.2-0.5,0c-0.6-0.7-1.3-1.3-1.9-1.9c-0.2-0.2-0.3-0.2-0.5,0c-0.7,0.7-1.4,1.4-2.2,2.2
			c-0.2,0.2-0.3,0.2-0.5,0c-0.6-0.6-1.1-1.2-1.7-1.7c-0.2-0.2-0.2-0.3,0-0.4c0.7-0.7,1.4-1.4,2.2-2.2c0.3-0.3,0.3-0.3,0-0.6
			c-0.5-0.5-0.9-1-1.4-1.4c-0.2-0.2-0.1-0.3,0-0.5c0.1-0.1,0.2-0.2,0.4,0c0.5,0.5,1,1,1.4,1.5c0.2,0.2,0.3,0.2,0.4,0
			c0.3-0.4,0.7-0.7,1.1-1.1c0.2-0.2,0.3-0.2,0.4,0c0.1,0.1,0.2,0.2,0.3,0.3c0.1,0.2,0.3,0.2,0.5,0c-0.2-0.3-0.4-0.5-0.5-0.8
			c-0.2-0.2-0.2-0.4,0-0.6c0.3-0.4,0.6-0.8,0.9-1.2c0.2-0.3,0.5-0.7,0.7-1.1c0.2-0.3,0.3-0.4,0.7-0.3c0.2,0.1,0.4,0.1,0.5,0
			c0.2,0,0.2-0.2,0-0.3c-0.1-0.1-0.1-0.1-0.2-0.2c-0.2-0.2-0.3-0.4-0.2-0.6c0.1-0.3,0-0.5-0.2-0.7c-0.5-0.4-0.9-0.9-1.4-1.4
			c-0.2-0.2-0.3-0.2-0.4,0c-0.3,0.3-0.5,0.5-0.8,0.8c0.3,0.3,0.5,0.4,0.6,0.7c0.1,0.1,0.1,0.2,0,0.3c-0.1,0.2-0.2,0.1-0.3,0
			c-0.1-0.2-0.3-0.3-0.5-0.5c-0.3,0.4-0.5,0.8-0.8,1.2c-0.6,0.9-1.3,1.8-1.9,2.7c-0.2,0.2-0.4,0.4-0.6,0.6c-0.1,0-0.2,0-0.3,0
			c-0.2-0.2-0.4-0.4-0.6-0.6c-0.2-0.2-0.3,0-0.4,0.1c-0.1,0.1-0.3,0.2-0.1,0.4s0.3,0.3,0.5,0.5c0.3,0.3,0.3,0.3,0,0.6
			c-0.6,0.6-1.2,1.2-1.7,1.9c-0.2,0.2-0.3,0.3-0.5,0.5c-0.3-0.2-0.2-0.4-0.1-0.5c0.3-1.1,0.7-2.3,1-3.4c0.1-0.3,0-0.5-0.2-0.8
			c-0.4-0.3-0.7-0.7-1.1-1.1c-0.2-0.2-0.3-0.2-0.5-0.2c-0.3,0.1-0.7,0.1-1,0.1c-0.6,0.1-1.2,0.2-1.8,0.3c-0.2,0-0.4,0-0.5-0.2
			c-0.3-0.3-0.7-0.7-1-1c-0.2-0.2-0.2-0.3,0-0.5c0.4-0.6,0.9-1.3,1.3-1.9l-0.9-0.9c0.1-0.1,0.2-0.2,0.3-0.3c0.1-0.1,0.2-0.1,0.4,0
			c0.2,0.2,0.4,0.4,0.7,0.7c0.1-0.2,0.3-0.3,0.3-0.5c0.2-0.4,0.4-0.7,0.6-1.1c0-0.1,0-0.3-0.1-0.4c-0.3-0.4-0.7-0.8-1.1-1.1
			c-0.1-0.1-0.1-0.3-0.1-0.4c0-0.2,0.1-0.4,0.2-0.6c0.1-0.3,0-0.5-0.2-0.7c-0.4-0.4-0.9-0.9-1.3-1.3c-0.2-0.2-0.3-0.4-0.1-0.7
			c0.1-0.2,0.2-0.4,0.3-0.7l1.7,1.7c0.1-0.5,0.3-0.9,0.3-1.3c0-1.4-0.1-2.8-0.2-4.1c0-0.1,0-0.3,0-0.4c0,0,0.1,0,0.1-0.1l1.2,1.2
			c0,0,0.1,0,0.1-0.1c-0.1-0.3-0.1-0.6-0.2-0.8c-0.2-0.7-0.6-1.3-0.6-2c0,0,0-0.1-0.1-0.1c-0.5-0.5-0.9-1.2-1.7-1.3
			c-0.3,0-0.4-0.2-0.5-0.5c-0.1-0.6-0.4-1.1-0.9-1.6c-1.3-1.3-2.7-2.5-4-3.7c-0.1-0.1-0.2-0.1-0.2-0.2
			C119.5,156.8,119.4,156.9,119.2,157"/>
		<path class="st1" d="M178,137.9c-0.2-0.2-0.3-0.3-0.5-0.5c-0.1-0.1-0.2-0.1-0.3,0s-0.2,0.2,0,0.3c0.3,0.3,0.6,0.6,0.9,0.9
			c0.1,0.2,0.2,0.1,0.4,0c0.1-0.1,0.2-0.2,0-0.4C178.2,138.1,178.1,138,178,137.9 M172.1,172.5c0.8,0,1.5,0,2.3,0
			c-0.4-0.4-0.7-0.7-1.1-1.1h-0.2C172.8,171.8,172.5,172.1,172.1,172.5 M166.8,169.9c0.2,0.1,0.3,0.1,0.4,0.1
			c1.2,0.3,2.3,0.6,3.5,0.8c0.8,0.1,1.6-0.1,2.4-0.2c1.7-0.3,3-1.3,4-2.6c0.7-0.9,1.1-1.9,1.4-3c0.5-1.9,0.9-3.8,1.1-5.7
			c0.1-1.3,0.3-2.7,0.3-4c0-1.8-0.2-3.6-0.4-5.4c-0.3-2.2-0.9-4.3-1.4-6.5c-0.1-0.4-0.2-0.8-0.2-1.2l1.7,1.7
			c0.2-0.5,0.1-0.9-0.2-1.2c-0.6-0.6-1.1-1.1-1.7-1.6c-0.3-0.3-0.5-0.6-0.7-1c-0.3-0.8-0.6-1.6-0.9-2.3c-0.1-0.3-0.1-0.5-0.2-0.8
			c0-0.4-0.1-0.7-0.4-1c-0.1,0,0-0.2-0.1-0.3c0.1,0,0.2,0,0.3,0.1s0.2,0.2,0.3,0.3c0.3-0.5,0.5-1,0.8-1.4c0.2-0.4,0.5-0.8,0.7-1.2
			c0.1-0.2,0.2-0.2,0.3-0.1c0.6,0.6,1.2,1.2,1.8,1.9c0.1,0.1,0,0.2,0,0.3c-0.3,0.6-0.6,1.1-0.8,1.8c-0.2,0.6-0.3,1.3,0.2,1.9
			c0.7,0.7,1.4,1.4,2.1,2.1c0.1,0.1,0.1,0.1,0.2,0.2c0.2,0.2,0.2,0.3-0.1,0.5l-1.6-1.6c0,0,0,0-0.1,0c0.2,0.6,0.3,1.2,0.5,1.8
			c1,3.7,1.7,7.4,2.1,11.2c0.3,2.3,0.2,4.7,0.1,7c-0.1,1-0.3,2-0.5,3c-0.4,1.7-1,3.3-1.8,4.8c-0.9,1.7-2.1,3.1-3.6,4.1
			c-0.3,0.2-0.7,0.3-1,0.4c-0.1,0-0.2,0.1-0.4,0.1l2,2c-0.1,0.1-0.2,0.1-0.2,0.1c-1.4,0.2-2.7,0.4-4.1,0.6c-0.2,0-0.4,0-0.5-0.2
			c-0.4-0.5-0.9-0.9-1.3-1.3c-0.3-0.4-0.7-0.3-1.1-0.3v0.1c0.3,0.3,0.6,0.6,1,1c0.1,0.1,0.2,0.2,0,0.3c-0.1,0.1-0.2,0.2-0.4,0
			c-0.5-0.5-1-1-1.5-1.5c-0.1-0.1-0.3-0.2-0.5-0.3c-1.4-0.4-2.6-1.1-3.7-2c-1-0.8-1.9-1.7-2.8-2.6c-0.1-0.1-0.1-0.2-0.3-0.3
			c0.2-0.1,0.3-0.1,0.5-0.1h0.1c0.9,0,1.7,0.4,2.2,1.1c0.2,0.3,0.6,0.6,0.9,0.9c0.1,0.1,0.2,0.1,0.4,0c0.1-0.1,0.2-0.2,0-0.4
			c-0.4-0.4-0.8-0.8-1.2-1.2l-0.3-0.3c0.1-0.1,0.2-0.1,0.3-0.1c1-0.3,1.7-0.9,2.3-1.6c0.5-0.6,0.7-1.4,0.8-2.1
			c0.1-1.4,0-2.8-0.2-4.2c-0.1-0.8-0.5-1.5-0.7-2.3c-0.5-1.8-1.4-3.4-2.2-5.1c-0.7-1.5-1.5-3-2.2-4.5c-0.1-0.2-0.2-0.2-0.4-0.2
			c-0.5,0.1-1,0.2-1.6,0.3c0.2,0.5,0.3,0.9,0.5,1.3c1.8,4.4,3.5,8.7,5.3,13.1c0.2,0.5,0,1-0.3,1.4c-0.2,0.3-0.5,0.7-0.8,0.9
			c-0.4,0.3-0.9,0.6-1.5,0.7c-0.8,0.3-1.7,0.5-2.6,0.8c-0.5,0.1-0.6,0.1-0.8-0.4c-0.3-0.6-0.6-1.3-0.9-1.9v-0.1c0,0,0,0,0.1-0.1
			c0.2,0.2,0.4,0.4,0.6,0.6c0.2,0.2,0.3,0.2,0.5,0c0.1-0.2,0.1-0.2,0-0.4c-0.4-0.4-0.9-0.8-1.3-1.3c-0.3-0.4-0.6-0.9-0.9-1.3
			c-1-1.7-1.9-3.4-2.9-5.2c-0.8-1.5-1.6-3-2.4-4.5c-0.4-0.8-1-1.4-1.5-2.2c-1.2-1.7-2.3-3.5-3.5-5.2c-0.2-0.3-0.5-0.6-0.7-0.9
			c-0.7-0.8-1.5-1.6-2.2-2.3s-1.5-1.5-2.2-2.1c-0.5-0.4-1-0.6-1.7-0.6c-0.2,0-0.4,0-0.7,0c-0.6,0-1.1,0.6-1,1.3
			c0.1,1.5,0.7,2.8,1.4,4.1c1,2,2,4,2.9,6.1c0.9,2.2,1.7,4.4,2.3,6.7c0.6,2.2,1,4.4,1.3,6.6c0,0.1,0,0.1,0,0.2c0,0,0,0.1-0.1,0.1
			c-0.3-0.3-0.5-0.5-0.7-0.7c-0.1-0.1-0.3-0.3-0.4-0.4c-0.1-0.1-0.2-0.1-0.4,0c-0.1,0.1-0.1,0.2,0,0.4c0.5,0.5,1.1,1.1,1.6,1.6
			c0.1,0.1,0.2,0.2,0.2,0.4c0,1.1,0,2.3,0,3.4c0,0,0,0.1-0.1,0.2c-0.1-0.1-0.2-0.2-0.3-0.3c0,0-0.1,0-0.2,0c0,0.1,0,0.2,0,0.2
			c0.1,0.1,0.2,0.2,0.3,0.3c0.3,0.2,0.4,0.6,0.2,1c-0.1-0.1-0.1-0.1-0.2-0.2c-0.8-0.7-1.5-1.5-2.2-2.3c-0.3-0.4-0.6-0.8-0.6-1.3
			c-0.1-1.4-0.3-2.8-0.4-4.2c0-0.1-0.1-0.2-0.2-0.3c-0.5-0.5-0.9-1-1.4-1.4c-0.2-0.2-0.3-0.4-0.2-0.8c0-0.1,0-0.2,0.1-0.4l1.4,1.4
			c0,0,0,0,0.1,0c-0.1-0.4-0.2-0.8-0.3-1.3c-0.3-1.3-0.6-2.6-1-3.9c0-0.2-0.1-0.3-0.3-0.4c-0.5-0.5-1-1-1.5-1.5
			c-0.1-0.1-0.1-0.1-0.2-0.2c-0.3-0.9-0.5-1.8-0.8-2.7c0,0,0.1,0,0.1-0.1l1.4,1.4c0,0,0.1,0,0.1-0.1c0-0.2,0-0.5-0.1-0.7
			c-0.6-1.7-1.5-3.3-2.4-4.8c-1-1.5-1.6-3.2-1.8-4.9c-0.2-1.1-0.1-2.2,0.3-3.2c0.3-0.7,0.8-1.3,1.5-1.7c0.8-0.4,1.6-0.4,2.4-0.3
			c1,0.1,2,0.5,2.9,1c0.6,0.4,1.3,0.9,1.8,1.4c0.8,0.7,1.5,1.5,2.2,2.3c0.6,0.8,1.2,1.6,1.7,2.4c1,1.4,2,2.8,2.9,4.3
			c1,1.5,1.9,3.1,2.8,4.6c1.8,3.1,3.3,6.3,4.9,9.5c0.4,0.8,0.7,1.6,1.1,2.5c0.8-0.1,1.4-0.7,1.6-1.4c0.2-0.6,0.2-1.2-0.1-1.9
			c-1.6-3.9-3.2-7.9-4.8-11.8c-0.3-0.8-0.5-1.6-0.8-2.4c1.3-0.4,2.5-0.7,3.8-1.1l-1.1-1.1c-0.1-0.1-0.2-0.2-0.3-0.3
			c-0.2-0.2-0.2-0.5,0.1-0.6c0.1,0,0.2,0,0.3,0.1c0.5,0.5,1,1,1.5,1.5c0.1,0.1,0.2,0.2,0.4,0.1c0.6-0.4,1,0,1.3,0.5
			c0.5,0.8,1.1,1.6,1.2,2.6c0,0.2,0.2,0.5,0.4,0.7c1,1.3,1.8,2.7,2.4,4.2c0.7,1.6,1.3,3.2,1.8,4.8c0.5,1.7,0.8,3.5,0.8,5.3
			c0,1.1-0.1,2.2-0.4,3.2c-0.3,1.3-1.1,2.2-2.1,3C167.3,169.4,167.1,169.6,166.8,169.9"/>
		<path class="st1" d="M129.9,126.1c-0.6-0.6-1.2-1.2-1.7-1.7c-0.1-0.1-0.2-0.2-0.4,0c-0.3,0.3-0.7,0.7-1,1
			c-0.4,0.4-0.6,0.9-0.6,1.4c0,0.4,0.2,0.8,0.2,1.2s0.2,0.8,0.5,1.1c0.5,0.6,1,1,1.8,1.2c0.3,0.1,0.7,0.1,1,0.1c0.5,0,1-0.2,1.4-0.5
			c0.4-0.4,0.7-0.8,1.1-1.1c0.1-0.2,0.2-0.2,0.4,0c0.3,0.3,0.6,0.6,0.9,0.9c0.2,0.2,0.3,0.3,0.5,0.5c0.1-0.4,0.3-0.7,0.3-1
			c0-0.5-0.1-1-0.4-1.4c-0.5-0.5-0.9-1.1-1.4-1.5C131.5,125.8,130.7,125.6,129.9,126.1 M140.1,132.7c-0.1,0.1-0.2,0.2-0.3,0.3
			c-0.8,0.8-1.5,1.7-2.5,2.3c-0.4,0.3-0.9,0.4-1.4,0.6c-0.7,0.3-1.3,0.3-2.1,0.3c-1,0-2-0.3-2.9-0.6c-0.6-0.2-1.1-0.6-1.6-0.9
			c-1.2-0.6-2.1-1.6-3.1-2.5c-0.5-0.4-0.8-1-1.2-1.5c-0.8-1-1.5-2-2.3-3c-0.1-0.1-0.1-0.3-0.2-0.4c0,0,0.1,0,0.1-0.1
			c0.2,0.2,0.4,0.4,0.6,0.6c0.1,0.1,0.2,0.3,0.4,0.2c-0.1-0.1-0.1-0.3-0.2-0.4c-0.2-0.2-0.3-0.4-0.5-0.5c-0.7-0.5-1-1.1-1.1-1.9
			c-0.1-0.6-0.1-1.3,0.2-1.9c0.5-1.1,1.2-2,2-2.8c0.2-0.2,0.3-0.2,0.5,0c0.5,0.5,1,1,1.5,1.5c0.1,0.2,0.3,0.2,0.4,0
			c0.2-0.3,0.5-0.5,0.7-0.7c0.1-0.1,0.1-0.2,0-0.4c-0.4-0.4-0.8-0.9-1.3-1.3c-0.2-0.2-0.2-0.3,0-0.4c0.7-0.4,1.4-0.7,2.1-1
			c1.4-0.6,2.9-1.1,4.4-1.7c0.1,0,0.1-0.1,0.2-0.1l-1.7-1.7c0.2-0.2,0.3-0.1,0.4,0c0.5,0.5,1,1,1.4,1.5c0.2,0.2,0.4,0.2,0.6,0.1
			c0.8-0.3,1.7-0.6,2.5-0.9c0,0.4-0.6,2.2-1,2.7l-1.5-1.5c-0.3,0.1-0.3,0.2-0.1,0.4c0.4,0.4,0.9,0.9,1.3,1.3
			c0.1,0.1,0.2,0.3,0.1,0.5c-0.1,0.2-0.1,0.5-0.2,0.7c-0.4,1.3-0.5,2.6-0.5,3.9c0,0.1,0,0.2,0,0.3c0.2,1.2,0.6,2.5,1.2,3.6
			c0.5,0.8,1,1.7,1.7,2.4c0.6,0.7,1.3,1.3,1.9,1.9C139.1,132,139.5,132.3,140.1,132.7"/>
		<path class="st1" d="M159.2,128.5C159.2,128.5,159.2,128.6,159.2,128.5c0.3,1.3,0.4,2.6,0.9,3.8c0.7,1.5,1.3,2.9,2.4,4.2
			c0.7,0.8,1.4,1.5,2.2,2c1.2,0.8,2.5,1.7,3.8,2.5c0.2,0.1,0.5,0.2,0.8,0.3c-0.2-0.3-0.3-0.4-0.4-0.6c-0.3-0.8-0.6-1.6-0.8-2.4
			c-0.6-2-1-3.9-2.3-5.6c-0.7-0.8-1.4-1.6-2.4-2.1c-0.8-0.4-1.7-0.8-2.5-1.2C160.3,129.2,159.8,128.8,159.2,128.5 M169.8,145.5
			l-1.7-1.7c0.3-0.2,0.1-0.4-0.1-0.6c-0.4-0.4-0.8-0.8-1.1-1.1c-0.1-0.1-0.2-0.1-0.3,0s-0.2,0.2,0,0.4c0.4,0.4,0.9,0.8,1.3,1.3
			c-0.1,0-0.2,0-0.2,0c-0.9-0.1-1.6-0.5-2.1-1.2s-1-1.6-1.5-2.3c-0.7-0.9-1.4-1.9-2.1-2.8c-0.7-0.9-1.5-1.7-2-2.6
			c0-0.1-0.1-0.1-0.2-0.2c-1.5-1.6-3-3.2-4.6-4.8c-0.3-0.3-0.4-0.7-0.5-1.1c-0.1-1,0.1-2,0.6-3c0.1-0.1,0.2-0.2,0.3-0.3
			c1.1-0.8,2.3-0.9,3.6-0.9c0.7,0,1.3,0.3,1.9,0.8c0.9,1,2,1.8,2.9,2.7c1.2,1.2,2.3,2.5,3.5,3.7c0.6,0.6,1.1,1.3,1.6,2
			c1.6,2.3,2.8,4.7,3.8,7.3c0.1,0.4,0,0.7-0.2,0.9c-0.5,0.5-0.9,1.1-1.5,1.4c-0.6,0.3-1.2,0.4-1.8,0.4c-0.1,0-0.3,0-0.4,0
			c0.1,0.1,0.1,0.2,0.2,0.2c0.2,0.2,0.4,0.4,0.6,0.6c0.8,1,1.2,0.8,2.3,0.4c0.7-0.3,1.2-0.7,1.8-1.1c0.2-0.2,0.4-0.2,0.5,0.1
			c0.3,0.6,0.7,1.1,1,1.7c0.1,0.3,0.2,0.8,0.2,1.1c0,0.9-0.1,1.8-0.5,2.6c-0.1,0.2-0.2,0.2-0.4,0c-0.5-0.5-0.9-0.9-1.4-1.4
			c-0.1-0.1-0.2-0.2-0.4,0c-0.1,0.1-0.1,0.2,0,0.4c0.5,0.5,0.9,0.9,1.4,1.4c0.2,0.2,0.2,0.3,0.1,0.5c-0.2,0.3-0.4,0.6-0.7,0.9
			c-0.2,0.3-0.9,0.3-1.2,0c-1.1-0.7-2.1-1.5-3.1-2.2c-1.2-0.8-1.9-2-2.5-3.2c-0.2-0.3-0.2-0.7-0.4-1c0-0.1,0-0.2,0-0.3
			c0.1,0,0.2,0,0.3,0c0.8,0.3,1.6,0.5,2.5,0.8c0.2,0.1,0.5,0,0.7,0C169.8,145.6,169.8,145.5,169.8,145.5"/>
		<path class="st1" d="M138.8,125.1c0.7-0.1,1.3-0.1,2-0.2l-1.5-1.5c0.3-0.1,0.4-0.1,0.6,0.1c0.4,0.4,0.8,0.8,1.2,1.2
			c0.2,0.1,0.4,0.3,0.6,0.3c1.9,0.3,3.5,1.1,5.2,1.8c0.5,0.2,1,0.6,1.5,0.9c1.8,1.1,3.4,2.5,4.9,3.9c0.4,0.4,0.7,0.8,1.1,1.2
			c1,1.2,2.1,2.4,3.1,3.6c0.7,0.9,1.4,1.8,2.1,2.7c0.6,0.8,1.1,1.6,1.7,2.5c0,0,0,0.1,0.1,0.2c-2.4,1-4.5,2.5-6.5,4.1
			c-0.1-0.2-0.2-0.4-0.2-0.5c-0.3-1-1-1.8-1.6-2.6c-1-1.3-1.9-2.7-3-4c-0.6-0.8-1.4-1.5-2.1-2.2c-1.8-1.8-3.6-3.7-5.4-5.5
			c-0.9-0.9-1.9-1.7-2.9-2.5c-0.2-0.1-0.3-0.3-0.5-0.4v-0.1c0.2,0,0.4,0,0.6,0.1c2.1,1.1,4.3,2.2,6.4,3.4c1.4,0.8,2.7,1.7,4,2.5
			c0.8,0.5,1.5,1.1,2.2,1.6c0.1,0.1,0.2,0.1,0.2,0.2c0,0,0.1,0,0.1-0.1s-0.1-0.2-0.1-0.3c-0.7-0.8-1.3-1.6-2-2.4
			c-0.1-0.2-0.3-0.3-0.5-0.4c-1.9-1.6-3.9-3.2-5.8-4.7c-0.5-0.4-1.1-0.6-1.7-0.9c-1.2-0.6-2.4-1.2-3.7-1.9
			C138.9,125.2,138.9,125.2,138.8,125.1"/>
		<path class="st1" d="M171.2,168.9c0.3-0.9,0.6-1.8,0.8-2.6c0.2-1.1,0.4-2.3,0.5-3.5c0.2-1.8-0.2-3.5-0.7-5.2
			c-0.2-0.8-0.6-1.6-0.9-2.4c-0.2-0.5-0.7-0.8-1-1.2c-0.4-0.4-0.8-0.7-1.1-1.1c-0.3-0.3-0.3-0.4-0.1-0.8c0.1,0.1,0.2,0.2,0.3,0.3
			c0.5,0.4,1.1,0.9,1.6,1.3c0.6,0.5,1.3,0.5,2,0.6c1.1,0.1,2.2-0.3,3.2-0.7c0.4-0.2,0.7-0.5,1-0.7c0.1-0.1,0.2-0.2,0.3-0.3
			c0.6,0.3,0.6,0.8,0.6,1.3c0.1,2.6,0,5.1-0.4,7.7c-0.2,1-0.4,2.1-0.7,3.1c-0.2,0.8-0.6,1.5-1.2,2.1c-0.4,0.4-0.7,0.8-1.1,1.1
			c-0.3,0.3-0.7,0.4-1.1,0.6C172.6,168.8,171.9,169,171.2,168.9"/>
		<path class="st1" d="M91.6,148.2c0.4,0.4,0.8,0.8,1.3,1.2c0,0,0.2,0,0.3,0c0.5-0.4,1.1-0.7,1.7-1.1l-1.4-1.4
			c0.3-0.2,0.6-0.4,0.9-0.5c0.6-0.3,0.6-0.6,0.1-1.1c-0.2-0.2-0.4-0.3-0.6-0.3c-0.3-0.1-0.5-0.2-0.7-0.4c-0.3-0.3-0.6-0.6-1-0.9
			c-0.1-0.1-0.2-0.2,0-0.3c0.1-0.1,0.2-0.1,0.3,0c0.3,0.3,0.7,0.6,1,1c0.1,0.1,0.3,0.2,0.4,0c0.7-0.5,0.7-0.5,1.3,0.1
			c0.4,0.4,0.8,0.8,1.2,1.2c0.2,0.2,0.2,0.3,0,0.5c-0.3,0.2-0.5,0.4-0.4,0.7c0.1,0.2,0.2,0.4,0.4,0.6c0.1,0.1,0.2,0.3,0.3,0.4
			c0.1,0.2,0.2,0.3-0.1,0.4c-0.2,0.1-0.3,0.2-0.4,0.3c-0.2,0.2-0.2,0.4,0,0.7c0.2,0.2,0.1,0.4,0,0.6c-0.4,0.5-0.6,1.1-0.4,1.7
			c0.2,0.7,0.8,1,1.5,1.1c0.2,0,0.5-0.1,0.7-0.2c0.2-0.1,0.4-0.3,0.6-0.4c0.3-0.2,0.3-0.3,0-0.6c-0.4-0.4-0.7-0.7-1.1-1.1
			c0.1-0.1,0.2-0.1,0.3-0.2c0.1-0.1,0.2-0.1,0.3-0.1c0.7-0.3,0.8-0.6,0.2-1.1c-0.3-0.3-0.5-0.5-0.8-0.8c0,0,0,0,0-0.1
			c0.3-0.2,0.6-0.3,1-0.3c0.1,0,0.4,0.2,0.4,0.3c0.1,0.4,0.3,0.5,0.6,0.7c0.6,0.4,1.1,0.9,1.5,1.6c0.1,0.2,0,0.8-0.3,0.9
			c-0.1,0-0.2,0-0.3-0.1c-0.4-0.4-0.4-0.4-0.9,0c-0.2,0.1-0.4,0.3-0.6,0.4c-0.2,0.1-0.2,0.3-0.1,0.5c0.2,0.2,0.3,0.4,0.5,0.7
			c0.1,0.1,0.1,0.3,0,0.4c-0.4,0.4-0.8,0.7-1.2,1.1c-0.2,0.1-0.2,0.2,0,0.4c0.4,0.4,0.9,0.9,1.3,1.3c0.1,0.1,0.2,0.1,0.3,0
			c0.6-0.4,1.2-0.8,1.8-1.3c0.1,0,0.1-0.2,0-0.3c-0.1-0.2-0.3-0.4-0.4-0.6c-0.2-0.2-0.1-0.4,0.1-0.5c0,0,0.3,0.1,0.3,0.2
			c0.2,0.3,0.3,0.6,0.4,0.9c0.1,0.1,0.1,0.2,0.2,0.3c0.2,0.3,0.4,0.5,0.7,0.8c0.1,0.1,0.1,0.2,0,0.4c-0.5,0.4-0.9,0.9-1.4,1.3
			c-0.1,0.1-0.2,0.1-0.3,0.2c-0.2,0.1-0.4,0.1-0.6-0.1c-0.2-0.3-0.4-0.5-0.7-0.7c-0.1-0.1-0.3-0.2-0.4,0c-0.2,0.2-0.3,0.1-0.4,0
			c-0.7-0.7-1.4-1.5-2.2-2.2c-0.1-0.1-0.1-0.1-0.2-0.2c-0.2,0.4-0.4,0.8-0.6,1.2l-1.4-1.4c0.2-0.2,0.4-0.5,0.7-0.7
			c0.2-0.1,0.2-0.2,0-0.4c-0.3-0.3-0.6-0.6-0.9-0.9c-0.1-0.1-0.2-0.3,0-0.4c0.3-0.2,0.2-0.3,0-0.5c-0.3-0.3-0.6-0.6-0.9-0.8
			c-0.2-0.2-0.3-0.2-0.4,0c-0.1,0.1-0.3,0.1-0.3,0c-0.7-0.7-1.4-1.3-2-2v-0.1c0.3-0.4,0.3-0.4,0-0.7c-0.4-0.4-0.9-0.9-1.3-1.3
			c-0.1-0.1-0.1-0.1-0.2-0.2c0.4-0.3,0.7-0.5,1.1-0.7c0.2-0.2,0.5-0.3,0.7-0.5c0.1-0.1,0.2-0.1,0.4,0c0.5,0.6,1,1.2,1.6,1.8
			c0.1,0.2,0.1,0.3,0,0.4c-0.4,0.4-0.8,0.7-1.2,1.1C91.8,148,91.7,148.1,91.6,148.2"/>
		<path class="st1" d="M174.6,123.9c-0.6-0.6-1.2-1.2-1.7-1.8c0,0,0-0.2,0-0.3c0.6-0.8,1.3-1.6,1.9-2.5c0.2-0.3,0.4-0.5,0.7-0.8
			c0.1,0.1,0.2,0.2,0.2,0.2c2.4,2.4,4.8,4.8,7.2,7.3c0.1,0.1,0.2,0.3,0.2,0.4c0,1.1-0.5,2.1-0.9,3.2c-0.1,0.4-0.3,0.9-0.5,1.3
			c-0.1-0.1-0.2-0.1-0.3-0.2c-0.6-0.6-1.1-1.1-1.7-1.7c-0.2-0.2-0.2-0.3-0.1-0.5c0.2-0.3,0.3-0.7,0.5-1c0.1-0.2,0.1-0.3-0.1-0.4
			c-0.4-0.3-0.7-0.7-1-1c-0.1-0.1-0.2-0.1-0.4,0c-0.2,0.3-0.5,0.5-0.7,0.7c-0.1,0.1-0.2,0.2-0.4,0c-0.4-0.5-0.9-0.9-1.4-1.4
			c-0.1-0.1-0.1-0.3-0.1-0.4c0.2-0.6,0.3-1.1,0.5-1.7c0.1-0.2,0-0.3-0.1-0.4c-0.2-0.2-0.4-0.4-0.6-0.5c-0.1-0.2-0.2-0.2-0.4,0
			c-0.3,0.4-0.6,0.8-0.9,1.2C174.7,123.8,174.7,123.8,174.6,123.9"/>
		<path class="st1" d="M156.3,122.3c-0.2,0.2-0.5,0.3-0.7,0.5s-0.5,0.3-0.7,0.5s-0.4,0.4-0.6,0.6c-0.8,0.6-1.1,1.4-1.4,2.3
			c-0.1,0.4-0.2,0.8-0.3,1.2c-0.1,0.4-0.2,0.4-0.5,0.1c-0.7-0.7-1.4-1.4-2.2-2.2c-0.1-0.1-0.2-0.2-0.3-0.2c-1.2-0.5-2.4-1.1-3.7-1.5
			c-0.4-0.2-0.9-0.2-1.4-0.3c0,0-0.1,0-0.2-0.1c0.2-0.2,0.3-0.3,0.4-0.4c0.4-0.2,0.9-0.4,1.3-0.6c0.1,0,0.1-0.1,0.3-0.1
			c-0.1-0.1-0.1-0.2-0.2-0.2c-0.4-0.4-0.8-0.8-1.3-1.3c-0.1-0.1-0.1-0.2-0.1-0.3c0.1-0.2,0.2,0,0.3,0.1c0.4,0.4,0.8,0.8,1.3,1.3
			c0.2,0.2,0.3,0.2,0.6,0.1c1-0.2,1.9-0.5,2.9-0.6c1.7-0.3,3.3-0.1,4.9,0.5C155.2,121.9,155.8,122.1,156.3,122.3
			C156.3,122.2,156.3,122.3,156.3,122.3"/>
		<path class="st1" d="M107.3,145.1c-0.5,0.1-1,0.2-1.5,0.2c-1.5-0.1-2.9,0.2-4.3,0.6c-0.3,0.1-0.6,0.2-0.8,0.2
			c-0.1,0-0.3,0-0.4-0.1c-0.6-0.5-0.6-0.6-1.3-0.3c-0.5,0.2-0.8,0.1-1.2-0.3c-0.6-0.6-1.2-1.2-1.8-1.8c-0.1-0.1-0.2-0.2-0.1-0.4
			c0.2-0.2,0.3-0.1,0.4,0.1c0.2,0.2,0.3,0.3,0.5,0.5s0.3,0.2,0.4,0c0.1-0.3,0.3-0.3,0.5,0c0.3,0.4,0.7,0.2,1,0.1
			c1.6-0.6,3.4-0.9,5.1-1.2c0.5-0.1,0.9,0,1.3,0.4c0.6,0.7,1.3,1.3,2,2C107.1,144.9,107.2,145,107.3,145.1"/>
		<path class="st1" d="M106.4,150.4c0.4-0.4,0.5-0.9,0.3-1.4c-0.1-0.4-1-0.8-1.4-0.6c-0.5,0.3-1,0.7-0.7,1.5
			c0.1,0.3,0.2,0.6,0.5,0.7C105.6,150.7,106,150.7,106.4,150.4 M103.6,149.5c-0.2-0.2-0.4-0.4-0.7-0.6c-0.1-0.1-0.3-0.1-0.4-0.1
			c-0.2,0-0.5,0.1-0.7,0.1c-0.1,0-0.2,0-0.2-0.1c-0.4-0.4-0.8-0.8-1.1-1.1c0.3-0.3,0.5-0.4,0.9-0.4c1.8-0.1,3.6-0.2,5.3-0.2
			c0.5,0,1,0.3,1.3,0.7c0.2,0.2,0.3,0.4,0.5,0.5c0.4,0.6,0.6,1.4,0.4,2.1c-0.1,0.3-0.3,0.6-0.5,0.9c-0.3,0.6-1,0.6-1.6,0.8
			c-0.3,0.1-0.5,0-0.7-0.2c-0.4-0.4-0.9-0.8-1.3-1.2c-0.2-0.2-0.3-0.2-0.5-0.1h-0.1c-0.4,0.3-0.4,0.3-0.8-0.2
			c-0.3-0.3,0-0.5,0.1-0.7C103.5,149.7,103.6,149.6,103.6,149.5"/>
		<path class="st1" d="M141.1,117c-0.3,0-0.6,0-1,0c0,0.7,0.1,1.5,0.1,2.2c0.8-0.1,1.8-0.1,2.7-0.2c0.2,0,0.4,0.1,0.5,0.2
			c0.3,0.3,0.6,0.6,1,1c-0.5,0.2-1,0.5-1.4,0.7c-0.6,0.2-1.1,0.4-1.7,0.5c-0.6,0.1-1.3,0.1-1.9,0c-1.1-0.1-1.8-0.7-2.1-1.8
			c-0.1-0.3,0-0.6,0-0.9c0.2-0.8,0.7-1.5,1.3-2.1c0.3-0.3,0.7-0.6,1.1-0.8c0.2-0.1,0.3-0.1,0.4,0.1
			C140.5,116.2,140.8,116.5,141.1,117C141.1,116.9,141.1,116.9,141.1,117"/>
		<path class="st1" d="M140.3,115.5c0.2-0.1,0.4-0.2,0.6-0.3c0.7-0.2,1.5-0.5,2.2-0.5c0.9-0.1,1.8,0,2.5,0.3
			c1.1,0.5,1.6,1.5,1.1,2.7c-0.4,0.9-1,1.6-1.8,2.1c-0.1,0.1-0.2,0.1-0.3,0c-0.3-0.3-0.6-0.6-0.9-0.9c0.3-0.1,0.3-0.3,0.3-0.5
			c0-0.5,0-1,0-1.6c-0.5,0-1,0-1.5,0c-0.6,0.1-1-0.1-1.4-0.6C140.9,116.1,140.6,115.8,140.3,115.5"/>
		<path class="st1" d="M139.4,114.5c0.1,0.1,0.2,0.2,0.3,0.3c0,0.1,0.1,0.2,0,0.3c-0.1,0.1-0.2,0.2-0.3,0c-0.2-0.3-0.4-0.4-0.7,0
			c0-0.2,0-0.3,0-0.3c0.2-0.3,0-0.5-0.2-0.7c-0.1-0.1-0.2-0.2,0-0.3c0.1,0,0.2,0,0.3,0s0.2,0.1,0.3,0.3c0.3-0.5,0.5-0.9,0.8-1.4
			c0.1-0.2,0.2-0.3,0.5-0.4c2.1-0.3,4.1-0.6,6.2-0.9c0.1,0,0.1,0,0.3,0c0,0.8,0.1,1.6,0.1,2.5c-1.2-0.6-2.5-0.8-3.8-0.7
			C141.7,113.3,140.5,113.6,139.4,114.5"/>
		<path class="st1" d="M130.7,115.3c-0.6,0.2-1.2,0.4-1.7,0.7c-1.3,0.7-2.7,1.1-3.8,2.1c-0.1,0.1-0.2,0.2-0.4,0
			c-0.4-0.4-0.8-0.7-1.2-1.1c-0.1-0.1-0.1-0.2,0-0.4c0.6-0.6,0.4-0.6,0.9,0c0.6,0.6,0.6,0.6,1.2,0c0.2-0.1,0.3-0.3,0.5-0.4
			c0.2-0.2,0.3-0.3,0-0.5c-0.2-0.1-0.3-0.3-0.5-0.5c0.5-0.3,0.9-0.5,1.3-0.8c0.2-0.1,0.3-0.2,0.5-0.3c0.4-0.3,0.7-0.3,1.1-0.1
			c0.7,0.4,1.4,0.7,2.1,1C130.7,115.2,130.7,115.2,130.7,115.3"/>
		<path class="st1" d="M174.9,134.7c-0.1-0.1-0.3-0.2-0.4-0.3c-0.1-0.1-0.2-0.2-0.3,0c-0.1,0.1-0.1,0.2,0,0.4c0.4,0.5,0.4,0.5,0.1,1
			c-0.2,0.3-0.4,0.6-0.6,1c0,0.1-0.1,0.1-0.2,0.2c-0.2-0.6-0.5-1.2-0.6-1.9c-0.2-1-0.9-1.6-1.7-2.1c-0.5-0.4-1.1-0.7-1.7-1.2
			c0.4-0.2,0.6-0.4,0.9-0.5c0.1,0,0.2,0.1,0.3,0.1c0.7,0.7,1.4,1.4,2.1,2c0.1,0.1,0.2,0.2,0.4,0s0.1-0.3,0-0.4
			c-0.6-0.6-1.3-1.3-1.9-1.9c-0.2-0.2-0.2-0.3,0.1-0.4c0.3-0.1,0.5-0.1,0.8,0.2c0.9,1,1.9,1.9,2.8,2.8c0.3,0.3,0.3,0.3,0.1,0.7
			C175,134.6,174.9,134.6,174.9,134.7"/>
		<path class="st1" d="M114.1,146.8c-0.5-0.2-1.1-0.4-1.6-0.6c-0.7-0.2-1.4-0.4-2.2-0.7c-0.2-0.1-0.3-0.1-0.5-0.2
			c-0.9-0.9-1.9-1.8-2.8-2.8c0,0-0.1-0.1-0.1-0.2c0.1,0,0.2,0,0.3,0c0.8,0.1,1.6,0.1,2.3,0.2c0.3,0,0.6,0.2,0.8,0.4
			c1.2,1.2,2.4,2.4,3.6,3.6C114.1,146.7,114.1,146.7,114.1,146.8C114.2,146.8,114.2,146.8,114.1,146.8"/>
		<path class="st1" d="M103.7,129.2l3.6,3.6c-0.4,0.1-0.7,0.1-1,0.2c-0.6,0.1-1.3,0.2-1.9,0.3c-0.1,0-0.3,0-0.4-0.1
			c-0.3-0.3-0.7-0.7-1-1c-0.1-0.1-0.1-0.2-0.1-0.3C103.1,131,103.4,130.1,103.7,129.2"/>
		<path class="st1" d="M180.2,134.3l-0.6-0.6c-0.4-0.4-0.9-0.9-1.3-1.3c-0.1-0.1-0.1-0.2-0.1-0.3c0.4-0.9,0.8-1.7,1.2-2.6
			c0.1,0.1,0.2,0.1,0.2,0.2c0.6,0.6,1.1,1.1,1.7,1.7c0.2,0.2,0.2,0.3,0.1,0.5c-0.3,0.7-0.7,1.5-1,2.2
			C180.3,134.1,180.2,134.2,180.2,134.3"/>
		<path class="st1" d="M159.6,109.8c0.1,0.1,0.1,0.1,0.2,0.2c0.8,0.8,1.5,1.5,2.3,2.3c0.2,0.1,0.2,0.3,0.1,0.5c-0.4,1-1,1.9-1.7,2.7
			c-0.2,0.2-0.4,0.5-0.6,0.7c0-1,0.1-2.1,0-3.1C159.9,111.9,159.7,110.9,159.6,109.8C159.5,109.8,159.6,109.8,159.6,109.8"/>
		<path class="st1" d="M172.5,126.7c-0.7-0.5-1.3-1.1-1.8-1.8c0-0.1,0-0.2,0-0.3c0.5-0.6,1-1.3,1.5-1.9c0.1-0.2,0.2-0.1,0.4,0
			c0.5,0.5,1,1,1.5,1.5c0.1,0.1,0.1,0.2,0.1,0.3C173.6,125.3,173.1,126,172.5,126.7C172.6,126.7,172.5,126.7,172.5,126.7"/>
		<path class="st1" d="M118.6,152c-0.3-0.1-0.5-0.1-0.8-0.2c-0.6-0.1-1.2-0.3-1.9-0.4c-0.2,0-0.3-0.1-0.3-0.3
			c-0.1-0.3-0.4-0.4-0.8-0.5c-0.2-0.1-0.4-0.1-0.5-0.3c-0.5-0.4-1-0.9-1.5-1.4c-0.2-0.2-0.3-0.5-0.4-0.8c-0.1-0.2,0.1-0.2,0.3-0.1
			c0.7,0.2,1.4,0.5,2,0.9c0.7,0.4,1.4,0.7,2,1.2c0.4,0.3,0.7,0.7,1.1,1c0.3,0.3,0.5,0.5,0.8,0.8C118.6,151.9,118.6,152,118.6,152"/>
		<path class="st1" d="M108,153.9c-0.4,0.1-0.7,0.2-1,0.3c-0.1,0-0.2-0.1-0.3-0.1c-0.3-0.3-0.7-0.7-1-1c-0.1-0.1-0.2-0.2-0.2-0.1
			c-0.4,0.1-0.7,0.3-1.2,0.4l1.3,1.3c-0.5,0.3-0.9,0.5-1.3,0.7c-0.6,0.3-0.6,0.3-1-0.2c-0.3-0.3-0.5-0.5-0.8-0.8c0,0,0,0,0-0.1
			c0.3-0.2,0.7-0.4,1.1-0.5c0.6-0.2,0.8-0.7,0.8-1.3c0-0.2,0-0.3,0-0.5c0-0.1,0.1-0.2,0.1-0.3c0,0,0.2,0,0.2,0.1
			c0.2,0.2,0.4,0.4,0.6,0.6c0.1,0.1,0.3,0.1,0.4,0.1c0.6-0.3,1.1-0.1,1.5,0.4C107.3,153.2,107.6,153.5,108,153.9"/>
		<path class="st1" d="M148.2,182.9c0.6,0.6,1.1,1.1,1.6,1.6c0,0,0,0.2-0.1,0.3c-0.3,0.3-0.6,0.6-0.9,0.9c-0.2,0.2-0.2,0.3,0,0.5
			c0.7,0.7,1.4,1.4,2.2,2.1c0.3,0.2,0.3,0.5,0.2,0.9c-0.1-0.1-0.2-0.1-0.2-0.2c-0.8-0.8-1.6-1.6-2.4-2.4c-0.2-0.2-0.3-0.2-0.5,0
			c-0.3,0.3-0.6,0.6-0.9,0.9c-0.1,0-0.1-0.1-0.1-0.1c0.1-0.4-0.1-0.7-0.4-0.9c-0.1-0.1-0.2-0.2-0.1-0.4c0,0,0,0,0-0.1
			c0.2-0.4,0.4-0.8,1-0.8c0.3,0,0.7-0.2,1.1-0.4c-0.3-0.3-0.4-0.5-0.7-0.7c-0.2-0.2-0.3-0.4-0.1-0.6
			C148,183.3,148.1,183.1,148.2,182.9"/>
		<path class="st1" d="M175.9,126c0.5,0.5,0.9,0.9,1.3,1.3c0.2,0.2,0.1,0.3-0.1,0.4c-0.6,0.6-1.1,1.1-1.7,1.7
			c-0.2,0.2-0.2,0.3,0,0.5c0.1,0.1,0.2,0.2,0.3,0.3c0.4,0.4,0.4,0.4,0.1,1c-0.1-0.1-0.2-0.2-0.3-0.2c-0.5-0.5-1.1-1.1-1.6-1.6
			c-0.2-0.2-0.1-0.3,0-0.5c0.2-0.2,0.3-0.2,0.4,0c0.1,0.1,0.2,0.2,0.4,0.4C175.2,128.2,175.5,127.1,175.9,126"/>
		<path class="st1" d="M144.4,179.2c0.2-0.6,0.3-1.2,0.5-1.8c0.1,0.1,0.2,0.2,0.3,0.3c0.7,0.7,1.4,1.4,2.1,2.1
			c0.3,0.3,0.3,0.5,0.1,0.8c0,0.1-0.1,0.1-0.1,0.3c-0.3-0.3-0.7-0.5-0.7-1.1c0-0.1,0-0.2-0.1-0.3c-0.2-0.3-0.5-0.5-0.8-0.8
			c-0.1,0.4-0.2,0.7-0.3,1c0,0.1,0.1,0.2,0.1,0.3c0.4,0.3,0.7,0.6,1.1,0.9c0.3,0.2,0.2,0.4,0.1,0.7c-0.1-0.1-0.2-0.1-0.2-0.2
			c-0.5-0.5-1.1-1.1-1.6-1.6c-0.2-0.2-0.3-0.2-0.5,0s-0.3,0.2-0.5,0s-0.4-0.4-0.5-0.5s-0.4-0.3-0.1-0.5c0,0,0-0.1-0.1-0.2
			c-0.1-0.1-0.2-0.2-0.2-0.2c-0.1-0.1-0.2-0.2,0-0.3c0.1,0,0.2,0,0.3,0.1c0.3,0.3,0.5,0.6,0.8,0.9
			C144.2,179.1,144.2,179.1,144.4,179.2"/>
		<path class="st1" d="M122.5,175.5l1.3,1.3c-0.6,0.7-1.1,1.3-1.7,2c-0.4-0.4-0.8-0.8-1.2-1.2v-0.2
			C121.4,176.7,122,176.1,122.5,175.5"/>
		<path class="st1" d="M144.3,171c-0.3-0.1-0.3-0.3-0.3-0.5c0.1-0.9,0.2-1.9,0.3-2.8c0-0.2,0-0.4-0.2-0.5c-0.3-0.2-0.5-0.5-0.7-0.7
			c-0.1-0.1,0-0.2,0-0.3c0.1,0,0.2,0,0.3,0.1c0.7,0.7,1.4,1.3,2,2c0.2,0.3,0.3,0.6,0.5,1c0,0.1-0.1,0.3-0.2,0.3
			c-0.3,0.2-0.6,0.4-1,0.6c-0.3,0.1-0.5,0.3-0.5,0.6C144.4,170.7,144.4,170.9,144.3,171"/>
		<path class="st1" d="M124.3,176.2c-0.5-0.5-0.9-0.9-1.3-1.4c0,0,0-0.2,0-0.3c0.2-0.5,0.5-1,0.7-1.5c0.1-0.2,0.2-0.2,0.3,0
			c0.5,0.5,0.9,0.9,1.4,1.4c0.1,0.1,0.1,0.2,0.1,0.3C125.1,175.2,124.7,175.7,124.3,176.2"/>
		<path class="st1" d="M140.7,184.4c0.3,0.3,0.6,0.6,0.9,0.9c0.2,0.1,0.1,0.2,0,0.4c-0.2,0.2-0.4,0.4-0.6,0.6
			c-0.1,0.1-0.2,0.1-0.3,0c-0.6-0.6-1.1-1.1-1.7-1.7c-0.1-0.1-0.1-0.2,0-0.3c0.1-0.2,0.3-0.5,0.4-0.7c0.1-0.2,0.2-0.2,0.3,0
			C140,183.8,140.4,184.1,140.7,184.4L140.7,184.4"/>
		<path class="st1" d="M112.9,151c-0.2,0-0.4,0.1-0.7,0.1c-0.5,0.1-1,0.2-1.6,0.3c-0.2,0-0.3,0-0.2-0.2c0.2-0.6,0.1-1.3,0-1.9
			c-0.1-0.3-0.2-0.6-0.4-0.9c0-0.1,0-0.2,0-0.2c0.1,0,0.1,0,0.2,0.1s0.3,0.3,0.4,0.4c0.4,0.3,0.6,0.7,0.6,1.3c0,0.3,0.6,0.7,0.9,0.6
			C112.5,150.4,112.6,150.9,112.9,151C112.9,150.9,112.9,150.9,112.9,151"/>
		<path class="st1" d="M93.7,139.5c-0.3,0.1-0.6,0.2-0.8,0.3c-0.1,0-0.1,0-0.2-0.1c-0.8-0.8-1.6-1.6-2.4-2.4c0.2-0.3,0.9-0.3,1.2,0
			c0.6,0.6,1.3,1.3,2,1.9C93.5,139.3,93.5,139.4,93.7,139.5"/>
		<path class="st1" d="M87.3,145c-0.6,0.7-0.6,0.7-1.2,0.1c-0.5-0.5-1-0.9-1.5-1.4c-0.2-0.2-0.2-0.3,0-0.5c0.6-0.5,0.4-0.5,0.9,0
			s1,1,1.5,1.5C87.1,144.8,87.2,144.9,87.3,145"/>
		<path class="st1" d="M152,182l-0.2-0.2l-2.3-2.3c-0.3-0.3-0.3-0.3,0-0.6c0.1-0.1,0.1-0.1,0.2-0.2c0.1,0.1,0.2,0.2,0.3,0.3
			c0.7,0.7,1.3,1.3,2,2C152.3,181.3,152.3,181.5,152,182"/>
		<path class="st1" d="M109,145.3c-0.5-0.1-0.9,0-1.3-0.4c-0.7-0.8-1.5-1.5-2.2-2.2l-0.3-0.3c0.5,0,0.9-0.1,1.2,0.3
			c0.7,0.8,1.5,1.5,2.3,2.3C108.8,145.1,108.8,145.2,109,145.3"/>
		<path class="st1" d="M106.2,155c0.3-0.1,0.6-0.3,0.9-0.4c0.1,0,0.2,0,0.2,0c0.4,0.4,0.8,0.8,1.3,1.3c-0.4,0.1-0.7,0.2-1,0.3
			c-0.1,0-0.1,0-0.2-0.1C107,155.9,106.7,155.5,106.2,155"/>
		<path class="st1" d="M140.3,172.4c0.6,0.6,1.2,1.2,1.7,1.7c0.1,0.1,0.3,0.2,0.1,0.3c0,0-0.2,0-0.3-0.1c-1.2-1.2-2.4-2.4-3.6-3.6
			c-0.1-0.1-0.1-0.2-0.1-0.3c0.1,0,0.3,0,0.3,0.1C139.1,171.2,139.7,171.8,140.3,172.4"/>
		<path class="st1" d="M172,121.3c-0.1,0.1-0.2,0.2-0.2,0.2c-0.1,0.2-0.2,0.1-0.4,0c-0.4-0.4-0.8-0.8-1.3-1.3
			c-0.4-0.4-0.4-0.4,0.1-0.7L172,121.3z"/>
		<path class="st1" d="M113.8,124.2c0.2,0.2,0.5,0.5,0.7,0.7c0,0.1,0,0.2,0,0.2c-0.1,0.4-0.3,0.7-0.5,1.2c-0.3-0.3-0.5-0.5-0.8-0.8
			c0,0,0-0.1,0-0.2C113.4,125,113.6,124.7,113.8,124.2"/>
		<path class="st1" d="M163.1,112.4c0.6,0.6,1.1,1.1,1.7,1.7c0.2,0.2,0,0.2-0.1,0.3c-0.1,0.1-0.2,0.3-0.4,0.1c-0.5-0.5-1-1-1.5-1.5
			C162.6,112.7,162.9,112.6,163.1,112.4"/>
		<path class="st1" d="M184.1,148.2l-0.7-0.7c-0.5-0.5-1-1-1.5-1.5c-0.2-0.2-0.2-0.4,0-0.6c0.1,0.1,0.3,0.3,0.4,0.4
			c0.6,0.6,1.1,1.1,1.7,1.7C184.1,147.6,184.2,147.8,184.1,148.2"/>
		<path class="st1" d="M101.2,150.4c0.1-0.1,0.2-0.2,0.4-0.3c0.3-0.1,0.6-0.2,0.9-0.3c0.1,0,0.2,0,0.3,0.1c0.1,0.1,0.1,0.2,0.1,0.3
			c-0.1,0.4-0.4,0.6-0.6,0.9h-0.2C101.7,150.9,101.5,150.7,101.2,150.4"/>
		<path class="st1" d="M149.6,181.6l2.3,2.3c-0.1,0.3-0.2,0.3-0.4,0.1c-0.7-0.7-1.3-1.3-2-2C149.3,181.9,149.4,181.8,149.6,181.6"/>
		<path class="st1" d="M110.2,147.5c0.4-0.2,0.8-0.1,1.1,0.2c0.2,0.2,0.4,0.4,0.6,0.6c0.1,0.1,0,0.2,0,0.3c-0.1,0.1-0.2,0.4-0.4,0.2
			C111.1,148.4,110.7,147.9,110.2,147.5"/>
		<path class="st1" d="M104.2,157c0.4-0.4,0.4-0.4,0.7-0.1c0.3,0.3,0.6,0.6,0.9,0.9c0.1,0.1,0.1,0.2,0,0.3s-0.2,0.3-0.4,0.1
			C105,157.8,104.6,157.4,104.2,157"/>
		<path class="st1" d="M114,150.3c0.2,0.2,0.3,0.3,0.5,0.5c0.1,0.1,0.1,0.2,0.1,0.2c-0.1,0-0.2,0.1-0.2,0.1c-0.6,0.1-1-0.4-1.3-0.8
			c-0.1-0.1,0.1-0.3,0.2-0.5c0,0,0.2,0,0.3,0.1C113.7,150,113.8,150.2,114,150.3L114,150.3z"/>
		<path class="st1" d="M101.6,158.1c0.4,0.5,0.8,0.9,1.2,1.4c-0.3,0.4-0.3,0.4-0.7,0.1c-0.2-0.2-0.4-0.5-0.7-0.7
			C101.1,158.5,101.1,158.4,101.6,158.1"/>
		<path class="st1" d="M88.5,139.7c0.2,0,0.3,0,0.3,0.1c0.6,0.6,1.2,1.2,1.9,1.8c0.1,0.1,0.1,0.2,0.1,0.3c-0.1,0-0.2,0-0.3,0
			c-0.7-0.6-1.3-1.3-2-2C88.5,139.8,88.5,139.8,88.5,139.7"/>
		<path class="st1" d="M139.2,154.7c-0.1,0.5,0.4,0.7,0.5,1.1c-0.2,0.2-0.4,0.2-0.6-0.1c-0.1-0.1-0.2-0.3-0.3-0.4
			c-0.3-0.2-0.2-0.5,0-0.8C138.9,154.7,139,154.7,139.2,154.7"/>
		<path class="st1" d="M144.9,172.3c-0.2,0-0.5,0-0.7-0.1c-0.3-0.1-0.2-0.3-0.2-0.5c0,0,0-0.1,0.1-0.1c0.3,0,0.5,0,0.8,0.1
			c0.1,0,0.2,0.2,0.2,0.4C145.1,172.1,145,172.2,144.9,172.3"/>
		<path class="st1" d="M111.6,128.9c-0.1-0.1-0.3-0.3-0.4-0.4c0-0.1,0-0.2,0-0.3c0.1,0,0.2-0.1,0.3,0c0.3,0.2,0.5,0.5,0.8,0.8
			c0,0.1,0,0.2,0,0.3c0,0-0.2,0.1-0.3,0C111.8,129.1,111.7,129,111.6,128.9"/>
		<path class="st1" d="M122.7,160.7c-0.1-0.1-0.2-0.2-0.4-0.4c-0.1-0.1-0.1-0.2,0-0.3c0.1,0,0.2,0,0.3,0c0.3,0.2,0.5,0.5,0.7,0.7
			c0.1,0.1,0,0.2,0,0.3c-0.1,0-0.2,0-0.3,0C123,161,122.8,160.8,122.7,160.7"/>
		<path class="st1" d="M175.9,117.9c0.5,0.5,0.9,0.9,1.4,1.4c0,0,0,0.1,0,0.2c-0.1,0-0.1,0-0.2,0c-0.4-0.4-0.9-0.9-1.3-1.3
			c-0.1-0.1,0-0.2-0.1-0.3C175.8,117.9,175.8,117.9,175.9,117.9"/>
		<path class="st1" d="M158.4,108.6c-0.1-0.1-0.2-0.1-0.2-0.2s0-0.2,0-0.3c0.1-0.1,0.2-0.1,0.3-0.1c0.2,0.1,0.3,0.3,0.5,0.5
			c0,0.1,0,0.2,0,0.3c-0.1,0.1-0.2,0.1-0.3,0C158.5,108.7,158.4,108.6,158.4,108.6"/>
		<path class="st1" d="M100.4,151.8c0.2,0.2,0.3,0.4,0.4,0.5c-0.4,0.3-0.6,0.3-0.8,0C99.9,152.2,100,152.1,100.4,151.8"/>
		<path class="st1" d="M144.1,172.8c0.2-0.1,0.4-0.3,0.4-0.3c0.2,0.1,0.3,0.3,0.5,0.4c0,0,0,0.2-0.1,0.2c-0.1,0.1-0.2,0.1-0.3,0.1
			C144.5,173.1,144.3,173,144.1,172.8"/>
		<path class="st1" d="M142.2,117.8c-0.1-0.1-0.2-0.2-0.2-0.2c0-0.1,0-0.2,0-0.2c0.1,0,0.2,0,0.3,0c0.2,0.1,0.3,0.3,0.5,0.5v0.2
			h-0.2C142.4,118,142.3,117.9,142.2,117.8"/>
		<path class="st1" d="M95.6,141.9c-0.2-0.2-0.4-0.4-0.6-0.6v-0.2h0.2c0.2,0.1,0.3,0.3,0.4,0.4C95.8,141.6,95.7,141.7,95.6,141.9
			C95.7,141.8,95.6,141.8,95.6,141.9"/>
		<path class="st1" d="M145.1,171.5c-0.1-0.1-0.3-0.3-0.4-0.4c0,0,0.1-0.1,0.2-0.3c0.1,0.2,0.2,0.4,0.3,0.6
			C145.2,171.5,145.1,171.5,145.1,171.5"/>
		<path class="st1" d="M131.7,171.5c0.3,0.2,0.5,0.3,0.7,0.5c0,0,0,0.2-0.1,0.2c-0.2,0.1-0.4,0.2-0.6,0.2c-0.1,0-0.2-0.2-0.2-0.3
			C131.5,172,131.6,171.8,131.7,171.5"/>
		<path class="st1" d="M162.9,135.6c-0.3-0.5-0.7-1-1-1.6c-0.1-0.2-0.2-0.4-0.3-0.5c-0.3-0.5-0.5-1-0.5-1.6c0-0.2,0.2-0.5,0.5-0.4
			c0.4,0.1,0.8,0.2,1.2,0.4c1.5,0.8,2.5,2.1,3.5,3.4c0.3,0.4,0.5,0.9,0.6,1.5c0,0.3,0.1,0.6-0.2,0.7c-0.2,0.1-0.6,0.1-0.8,0
			c-0.7-0.3-1.3-0.7-1.9-1.1C163.6,136.2,163.3,136,162.9,135.6"/>
	</g>
</g>
</svg>
