<?xml version="1.0" encoding="utf-8"?>
<!-- Generator: Adobe Illustrator 25.1.0, SVG Export Plug-In . SVG Version: 6.00 Build 0)  -->
<svg version="1.1" id="Calque_1" xmlns="http://www.w3.org/2000/svg" xmlns:xlink="http://www.w3.org/1999/xlink" x="0px" y="0px"
	 viewBox="0 0 220 220" style="enable-background:new 0 0 220 220;" xml:space="preserve">
<style type="text/css">
	.st0{fill:#95046F;}
	.st1{clip-path:url(#SVGID_2_);fill:#FFFFFF;}
</style>
<path class="st0" d="M195.2,220H24.8c-13.5,0-24.5-11-24.5-24.5V24.5C0.3,11,11.3,0,24.8,0h170.4c13.5,0,24.5,11,24.5,24.5v170.9
	C219.5,208.9,208.4,220,195.2,220z"/>
<g>
	<defs>
		<rect id="SVGID_1_" x="33.2" y="13.5" width="153.6" height="192.9"/>
	</defs>
	<clipPath id="SVGID_2_">
		<use xlink:href="#SVGID_1_"  style="overflow:visible;"/>
	</clipPath>
	<path class="st1" d="M69.3,169h-0.2c-4.1,1.3-6.8,4.9-8.4,8.9c-0.4,0.9-1,1.9-1,2.5c0,0.5,0.7,1.4,1,2c2.6,4.6,7.2,8.1,11.6,10.6
		c0.8-5.6,2-10.9,4.2-14.9C73.4,175.7,70.8,172.9,69.3,169"/>
	<path class="st1" d="M96.7,196.4c-2.8-2.8-5.1-6.3-4-12.3c-5.9-0.2-9.8-2.1-13.5-4.2c-2.2,4-3.5,10.3-2.9,15.1
		c5.9,2.6,13.9,4.1,23,3.5C98.6,197.7,97.6,197.2,96.7,196.4"/>
	<path class="st1" d="M128.1,137c2.4,4.4,3.6,10.2,2.1,17.7c2.3-1.4,4.3-3.2,6-5.2c1.7-2.1,3.1-4.6,4-7.6c2.1,3.8,3.9,7.9,6,11.6
		c0.9-8.1,0.2-16.4-1.6-22.4c-0.6-2.1-1-3-2.5-4.1c-1.9-1.3-4.7-2.2-7.2-2.6C133.8,129.9,131.4,134,128.1,137"/>
	<path class="st1" d="M139.7,151.5c-3.3,3.5-6.7,6.7-11,9c-2.7,6.7-6.9,12.1-12.1,16c-5.2,3.9-11.7,6.7-19.6,7.6
		c-0.9,6.4,2.3,10,6,12.5c0.6,0.4,1.4,1,1.8,1c0.3,0,1-0.3,1.7-0.5c8.9-2.3,15.9-6.6,22-11.6c5.8-4.7,10.5-10.9,13.8-18.3
		c0.8-1.9,1.7-3.8,1.7-6c-0.1-3.9-2.2-7.1-4.2-9.7C139.7,151.6,139.7,151.5,139.7,151.5"/>
	<path class="st1" d="M61.2,90.6c2.2,1.3,5.7,1.5,9.1,1.7c12.9,0.7,23.4-3.6,23.1-16.7c-6.5,1.8-13.7,0.7-17.7-1.9
		c-4.1-2.7-6.5-7.3-7.3-12.6c0-0.1,0-0.1-0.1-0.1c-2.3,3-4.3,6.3-6.4,10.2c-2,3.7-3.9,7.6-4.1,12.3C57.7,86.7,59,89.3,61.2,90.6"/>
	<path class="st1" d="M68.1,165.9c-0.6-2.4-1.1-4.9-1.5-7.5c-3.6-0.5-7.1-0.2-9.9,1.1c-1,0.4-3,1.4-3.4,2.4
		c-0.2,0.6-0.1,1.6-0.1,2.4c0.1,4.5,1.6,8.1,3.1,11.3c0.3,0.6,0.4,1.2,0.9,1.5C60,172.3,63,168,68.1,165.9"/>
	<path class="st1" d="M127.5,133c2.4-3.2,1.7-12.9,1.7-12.9s7.3,0,11.5,1.3c-5.1-8.2-12.8-15.7-23.8-18.8
		c-0.3,7.7-4.8,11.4-9.7,14.2C117.3,119.3,123.8,124.9,127.5,133"/>
	<path class="st1" d="M75.1,134.5c2.9-4,7-6.8,11.4-9c0.3-0.1,0.6-0.3,0.8-0.5c-6.2,0-10.8,1.8-14.8,4c-1.2,0.7-2.5,1.3-3.4,2.4
		C72.1,131.6,74.3,132.5,75.1,134.5"/>
	<path class="st1" d="M68.8,145c1.2-2.4,2.4-4.8,3.7-7.1c-0.2-2.1-1.2-3.8-3.7-4c-0.9-0.1-2.2-0.1-3,0.3c-0.6,0.2-1.4,1.1-2.1,1.7
		c-1.9,1.8-4.1,4.1-5.5,6.1C62.8,140.9,67.4,142.3,68.8,145"/>
	<path class="st1" d="M66.6,155.6c-0.2-1.7,0-3.3,0.4-5c0.1-0.6,0.5-1.3,0.5-1.7c0-0.8-1.6-1.8-2.4-2.4c-2-1.4-5.3-1.9-7.8-0.6
		c-2,3.2-3.2,7.2-3.8,11.9C56.7,155.5,62.3,154.3,66.6,155.6"/>
	<path class="st1" d="M75.2,64.1c2.5,1,5.2-1.2,6.9-3.2c1.7-2,2.9-4.6,3.3-6.7c0.7-3.5-0.2-6.7-3.5-6.5c-0.4,0-0.9,0.1-1.2,0.2
		c-3.1,1.1-6.5,5.6-7.3,9.8C72.9,60.6,73.3,63.4,75.2,64.1"/>
	<path class="st1" d="M151.9,45.8c-0.8,5.9-4.9,9-9.8,10.6c0.4,0.5,1,0.7,1.6,0.9c4.9,1.8,12.2,0.9,16.2-1.3
		C160.4,50,158,46.3,151.9,45.8"/>
	<path class="st1" d="M166.2,51.2c-0.6,6-3.8,9-8.2,10.7c9.8,2.4,15.9,8,18.7,16.5c1.8-1.3,3.1-3.8,3.2-6.6c0.1-2.4-0.6-4.8-1.6-6.7
		C175.6,59.5,170.7,55,166.2,51.2"/>
	<path class="st1" d="M134.2,51.3c-5.1,1.2-10.4,0-14.2-1.5c-2.5-1-4.4-2.6-6.8-3.5c4.9-0.1,7.5-2.7,12-3c2.7-0.2,4.9,0.2,6.9,0.8
		c2.1,0.6,3.5,1.6,5,2.5c1.6,1,3.5,1.8,6,2C140.5,49.8,137.5,50.5,134.2,51.3 M147.7,44.4c-8.8-4-23.9-5.3-36.5-3.1
		c-1.8,1.6-4.4,3.3-4.9,6.4c-0.4,2.7,1.3,4.2,3.1,5.4c9.7-0.4,20.5-0.2,28.3,1.6c1.5,0.3,1.9,0.3,3.4-0.2
		C145.2,53,149.1,49.7,147.7,44.4"/>
	<path class="st1" d="M89.8,112.4c2.2,1,4.4,2.2,7.1,2.7c2.7,0.6,5.9,0.7,8.7-0.8c1.6-0.8,2.9-2.3,4-4.2c1.2-2,2.4-3.6,2.8-5.5
		c0.3-1.8,0.1-3-0.5-3.8c-1.7-2.3-5.4-2.6-9.8-2.6C100.2,105.2,95,108.7,89.8,112.4"/>
	<path class="st1" d="M113.5,134c8.9,7.2,9.3,21.2,1.1,31.4c-8.3,10.2-22.1,12.7-31,5.5c-8.9-7.2-9.3-21.2-1.1-31.4
		S104.6,126.8,113.5,134 M183.5,69.8c0.7,8.2-5.9,12.7-11.6,15.1c2.1-5.1-0.8-9.2-3.4-11.7c-6.9-6.8-18.6-10.2-30.6-12.1
		c-2,2.8-3.8,5.8-5.6,8.7c3.5,2,7.8,3.3,12.3,5.1c3,1.2,6.2,2.4,9.5,3.6c1.8,0.7,3.7,1,4.3,2.5c0.4,1.1,0.1,2.6-0.5,3.8
		c-1-0.5-2-0.9-3.3-1.4c-1.2-0.4-2.4-0.7-3.7-1c-2.4-0.6-4.8-1.5-7.1-2.1c-9.9-2.6-19.2-5.1-31.8-5.6c-5.9-0.3-12.1,1-14.9,4.5
		c-0.7,0.8-1.4,2.1-1.6,3.2c-0.7,3.6,2,6.1,4.5,7.5c2.9,1.7,6.1,2.5,9.4,3.2c3.3,0.7,6.3,2.1,9.1,3.5c2.9,1.4,5.6,2.9,8.1,4.4
		c2.6,1.5,5.2,3.2,7.4,5c4.4,3.6,8.2,8.1,11.2,13c3.8,6.1,6.6,13.6,6.7,22.8c0,1.9-0.2,3.8-0.5,5.9c-0.3,2.2-0.3,4.2-0.7,6.2
		c-1.1,6-3,11-5.5,15.7c-3.2,6.1-7.2,11.6-12,15.8c-4.8,4.2-10.4,7.9-16.6,10.6c-6.6,3-13.1,4.8-21.6,5.2
		c-8.2,0.3-15.1-1.6-21.1-4.2c-4.3-1.9-8.3-4.2-11.4-7.3c-5.1-4.9-9.4-11-11.4-18.6c-1.6-6.1-1.9-14.5,0.9-22.3
		c2.5-6.8,6.5-12.6,11.1-16.8c4.8-4.5,10.7-7.5,18.2-8.8c7.9-1.3,15.7-0.1,22.6,2.1c-1.5,0.2-2.9,0.1-4.3,0.2
		c-9.3,0.8-16.8,5.5-21.8,11.5c-3,3.6-5.3,7.8-6.6,13.2c-2.5,11.2,2.1,19.8,8.1,24.6c3.3,2.6,7.4,4.5,12.5,5.1
		c6,0.7,11.1-0.5,15.7-2.5c4.4-2,7.9-4.6,11-8.1c3.2-3.6,5.6-7.5,7-12.7c1.5-5.7,1.3-11.2,0.1-15.6c-2.3-8.5-8.4-14.3-15.8-18.2
		c-6.8-3.5-15.5-5.4-26.1-4.8c-1.4,0.1-2.7,0.2-4.1,0.3c-9.8,0.5-18.3-4.3-23.6-11.9c-5.4-2.5-9.3,5.1-9.3,5.1
		c-1.5-3.9,2.4-9.6,2.4-9.6s-3.6-0.2-6.6,2.6c1.6-6.3,6.2-11.2,8.1-13c-0.5-4.8,0.1-10,1.9-15.3c-3.1-2-8-0.5-8-0.5
		c1.7-3.8,8.4-5,8.4-5s-2.4-2.8-6.5-2.9c4.1-2.5,8.9-3.1,12.2-3.3c3-4.1,6.8-8.2,11.6-12c-1-4.6-7.8-5.5-7.8-5.5
		c3.1-2.8,9.7-1,9.7-1s-1-3.5-4.7-5.4c7-0.7,13.7,2.7,15.4,3.6c0.8-0.4,1.6-0.9,2.5-1.3c4.4-1.9,8.7-3.4,13-4.6
		c0.1-0.1,0.2-0.2,0.3-0.3c4.9-4.8-2-11-2-11c4.1-0.5,8.6,4.7,8.6,4.7s1.1-3.5-0.9-7.1c5.2,2.8,8.7,8,10.2,10.6
		c5.9-0.6,11.5-0.6,16.8-0.1c5.6-3.2,1-11,1-11c4.1,0.8,6.8,7.1,6.8,7.1s2.1-3,1.2-7.1c4.6,4.8,6.3,11.7,6.8,14.1
		C170.2,45.1,183.9,61.4,183.5,69.8 M186.2,66c-1.8-7.8-6.4-13.1-11.3-17.7c-7-6.5-15.4-11.4-24.2-15.5c-1.3-5-2.7-10-4.5-14.7
		c-0.5-1.3-1.3-3.6-2.6-4c-0.5-0.1-1.1-0.1-1.7-0.1c-4.7,0-9.3-0.3-13.6-0.5h-3.2c0.2,5.6,0.6,11.1,0.9,16.6c-1-0.1-2.3,0.1-3.3,0.1
		c-0.3,0-0.8,0-0.9,0c-0.5-0.1-0.6-0.7-1.1-1.3c-3.9-4.9-8.2-9.1-14.1-12.3c-1.4-0.8-3.2-1.7-5.1-2.3c-1.4-0.5-2.1-0.5-3.6,0
		c-8.1,2.5-16.3,5.3-24.5,7.7c0.6,0.7,1.5,1,2.4,1.5c2.3,1.4,4.5,3.1,6.6,4.8c2.7,2.3,5.3,4.9,7.6,7.5c-1.2,0.3-2.2,0.8-3.3,1.3
		c-3.9-2.6-8-5.2-14-6.2c-1.9-0.3-4.2-0.7-6.2,0c-1.1,0.4-2.2,1.8-3.2,2.7c-2.9,2.8-5.5,5.2-8.4,8c-2.2,2.1-4.6,4.4-6.8,6.5
		c-2.1,2-4.2,3.8-6,5.9c7,0.2,13,1.3,19.2,2.2c-0.9,1.4-1.8,2.8-2.7,4.3c-4.1,0.6-8.1,1.6-11.6,2.9c-3.5,1.3-6.7,3.1-9,5.8
		c-1.4,9.2-2.4,18.3-3.9,27.2c-0.2,1.7-0.4,3.4-0.6,5.2c2.2-3,4.3-6,6.8-8.7c2.5-2.7,5.3-5,8.3-6.9c-0.1,0.7-0.2,1.5-0.2,2.1
		c-5.1,3.7-9.6,8.2-12.2,14.9c2.8,6.3,5.7,12.7,8.6,18.9c0.4,0.9,0.6,1.9,1.3,2.6c3-4.4,6.1-8.6,10.1-11.9c4.2,4.3,10.2,7,17.2,8.7
		c-9.3,4.1-16.7,10.7-21.6,20.1c-2.4,4.7-4.5,10.7-5,16.6c-0.6,6.2,0.1,11.3,1.6,16.1c2.8,9.1,7.8,16.2,14.8,21.8
		c6.9,5.5,15.8,9.6,27.5,10.4h6.4c18.7-1.6,31.7-9.2,42.3-20.1c5.1-5.2,9.8-11.9,13-19.4c3.3-7.7,5.2-17.3,5-26.7
		c-0.3-12.6-5-22.6-11-30.2c-2.1-2.7-4.6-4.9-7.1-7.1c-5-4.3-11-7.9-18-10.7c-3.4-1.3-6.6-2.4-11-3.5c-1.7-0.4-3.6-1.1-5.4-1.9
		c-1.4-0.7-3.8-1.8-3.6-3.5c0.1-1.2,1.7-2.5,2.7-2.9c0.9-0.4,2.3-0.5,3.5-0.7c4-0.6,8.4-0.2,11.9,0.3c15,1.8,28.2,5.7,40.2,9.7
		c1.9,0.5,1.9,0.5,2.6,0.5c3.2-0.2,6-0.2,8.7-0.8c5.3-1.2,9.3-3.6,12.3-7.4c1.5-1.9,2.9-4.4,3.5-6.9C187.1,71.8,186.8,68.6,186.2,66
		"/>
	<path class="st1" d="M82.9,68.7c4.5-1.8,9.5-3.4,14.9-4.5c4.5-0.9,10.1-1.6,15.2-1.1c0.7,0.1,1.4,0.1,2,0.4
		c-10.5,2-20.4,4.6-29.5,8.3c13.3-1.7,31.3-2.8,43.1,0.5c0.7-4.7,1.8-9.5,4.1-12.7C115.3,56.3,91.7,56.8,82.9,68.7"/>
	<path class="st1" d="M90.8,91.8c-0.6,0.6-1.3,1.1-2.1,1.6c-2,1.4-4.1,2.4-6.4,3.3c-7.4,2.7-16.2,2.2-22.9-0.1
		c-0.1,6,1.4,10.2,5,13.1c2.5,2,6.5,3.3,11.5,3.1c2.8-0.1,5-0.7,7-1.5c2.4-0.9,4.8-2.1,6.8-3.3c2.7-1.6,6-3.9,7.1-6.6
		c0.3-0.6,0.5-1.7,0.5-2.5C97.3,95.6,93.3,93.1,90.8,91.8"/>
	<path class="st1" d="M132.9,46.1c-1.9-0.6-4.8-0.6-7.1-0.5c-1.1,0.1-2,0.2-3.1,0.5c-0.7,0.2-2,0.7-2,1.5c-0.1,0.8,1.5,1.5,2.6,1.7
		c2.6,0.6,5.8,0.6,8.5,0c1.1-0.2,2.9-0.8,3-1.8C134.8,47,133.8,46.4,132.9,46.1"/>
	<path class="st1" d="M103.2,52.6c-1.3-2.2-1.1-6,0.1-9.3h-0.2c-7.9,2.2-12.1,8.4-15.1,16c4.2-2.7,9.5-5.1,16.3-5.3
		C104,53.6,103.6,53.2,103.2,52.6"/>
</g>
</svg>
