<?xml version="1.0" encoding="utf-8"?>
<!-- Generator: Adobe Illustrator 26.2.1, SVG Export Plug-In . SVG Version: 6.00 Build 0)  -->
<svg version="1.1" id="Calque_1" xmlns="http://www.w3.org/2000/svg" xmlns:xlink="http://www.w3.org/1999/xlink" x="0px" y="0px"
	 viewBox="0 0 113.4 113.4" style="enable-background:new 0 0 113.4 113.4;" width="512" height="512" xml:space="preserve">
<style type="text/css">
	.st0{fill:#FFFFFF;}
</style>
<g transform="translate(0,0)">
	<path class="st0" d="M42.9,3.3l-6.3,19c-5,2.9-9.3,6.9-12.5,11.5L9.3,28.5l9,17.9c-1.4,5.4-1.8,11.2-0.8,17L3.3,70.1l18.9,6.3
		c2.9,5,6.9,9.3,11.5,12.6l-5.2,14.8l17.8-8.9c5.4,1.5,11.2,1.8,17.1,0.8l6.8,14.1l6.2-18.8c5.1-2.9,9.4-6.9,12.6-11.6l14.8,5.2
		l-8.9-17.8c1.5-5.4,1.8-11.3,0.7-17.1l14.2-6.8l-18.9-6.2c-2.9-5.1-6.9-9.3-11.6-12.6l5.2-14.8l-17.8,9c-2.8-0.7-5.6-1.2-8.6-1.3
		c-2.8-0.1-5.6,0.1-8.4,0.6L42.9,3.3L42.9,3.3z M56.6,21c0.4,0,0.9,0,1.3,0c3.8,0.2,7.5,0.9,11,2.2l-7,7.9l7.4,5.9L66,41.3
		c1.2,0.7,2.3,1.6,3.3,2.6l5.9-7.4L68,30.7l5-5.6c6.9,3.6,12.5,9.4,15.9,16.8l-10.6,0.6l1.1,9.4L74,52.4c0.3,1.4,0.5,2.8,0.5,4.1
		l9.4-1l-1-9.1l7.5-0.5c0.1,0.5,0.3,0.9,0.4,1.4c2,7.5,1.5,15-1.1,21.7l-8-7.1l-5.9,7.4L71.8,66c-0.7,1.2-1.6,2.3-2.6,3.3l7.4,5.9
		l5.7-7.2l5.7,5c-3.6,6.9-9.4,12.5-16.8,15.8l-0.6-10.6l-9.4,1.1l-0.6-5.2c-1.4,0.3-2.8,0.5-4.1,0.5l1,9.4l9.1-1l0.5,7.6
		c-0.4,0.1-0.9,0.3-1.4,0.4c-7.5,2-15,1.5-21.7-1.1l7.1-8l-7.4-5.9l3.3-4.1c-1.2-0.7-2.3-1.6-3.2-2.6l-5.9,7.4l7.2,5.7l-5,5.7
		c-6.8-3.6-12.5-9.4-15.8-16.8l10.6-0.6l-1.1-9.4l5.2-0.6c-0.3-1.4-0.5-2.8-0.5-4.1l-9.4,1.1l1,9.1l-7.5,0.5
		c-0.1-0.4-0.3-0.9-0.4-1.4c-2-7.5-1.5-15,1.1-21.7l7.9,7l5.9-7.4l4.2,3.3c0.7-1.2,1.6-2.3,2.6-3.2l-7.4-5.9L30.7,45l-5.6-5
		c3.6-6.8,9.4-12.5,16.8-15.8l0.6,10.6l9.4-1.1l0.6,5.3c1.4-0.3,2.8-0.5,4.1-0.5l-1.1-9.4l-9.1,1l-0.5-7.5c0.5-0.1,0.9-0.3,1.4-0.4
		C50.5,21.4,53.6,21,56.6,21L56.6,21z M58.4,42.2v6.2c3.6,0.9,6.2,4.1,6.2,8c0,3.8-2.7,7.1-6.2,8v6.6c0.6-0.1,1.3-0.2,1.9-0.4
		c7.7-2.1,12.3-10,10.2-17.7C68.9,46.9,64,42.9,58.4,42.2L58.4,42.2z M54.2,42.2c-0.5,0.1-1,0.2-1.5,0.3c-7.7,2.1-12.3,10-10.2,17.7
		c1.5,5.7,6.2,9.7,11.7,10.6v-6.7c-3.5-1-6-4.2-6-7.9c0-3.7,2.6-6.9,6-7.9V42.2L54.2,42.2z M56.4,52.2c-2.3,0-4,1.8-4,4
		c0,2.3,1.8,4,4,4c2.3,0,4-1.8,4-4C60.5,54,58.7,52.2,56.4,52.2L56.4,52.2z"/>
</g>
</svg>
