<?xml version="1.0" encoding="utf-8"?>
<!-- Generator: Adobe Illustrator 25.2.3, SVG Export Plug-In . SVG Version: 6.00 Build 0)  -->
<svg version="1.1" id="Calque_1" xmlns="http://www.w3.org/2000/svg" xmlns:xlink="http://www.w3.org/1999/xlink" x="0px" y="0px"
	 viewBox="0 0 113.4 113.4" style="enable-background:new 0 0 113.4 113.4;" xml:space="preserve">
<style type="text/css">
	.st0{fill:#FFFFFF;}
</style>
<g transform="translate(0,0)">
	<path class="st0" d="M44.6,9.1l-5.7,17.2c-4.5,2.6-8.4,6.2-11.3,10.4L14.1,32l8.1,16.2C21,53,20.7,58.3,21.6,63.5L8.7,69.6
		l17.1,5.7c2.6,4.6,6.2,8.4,10.4,11.4l-4.7,13.4L47.7,92c4.9,1.3,10.2,1.6,15.5,0.7l6.1,12.8l5.6-17.1c4.6-2.7,8.5-6.3,11.4-10.5
		l13.4,4.7l-8.1-16.1c1.3-4.9,1.6-10.2,0.7-15.5l12.8-6.1L88,39.4c-2.7-4.6-6.3-8.4-10.5-11.4l4.8-13.4l-16.2,8.1
		c-2.5-0.7-5.1-1.1-7.8-1.2c-2.5-0.1-5.1,0.1-7.6,0.5L44.6,9.1L44.6,9.1z M57.1,25.2c0.4,0,0.8,0,1.2,0c3.5,0.1,6.8,0.8,10,2
		l-6.4,7.2l6.7,5.3l-3,3.8c1.1,0.7,2.1,1.4,2.9,2.3l5.3-6.7L67.3,34l4.5-5.1c6.2,3.2,11.3,8.5,14.4,15.2l-9.6,0.6l1,8.5l-4.7,0.5
		c0.3,1.3,0.4,2.5,0.4,3.7l8.5-0.9l-0.9-8.3l6.8-0.4c0.1,0.4,0.3,0.9,0.4,1.3c1.8,6.8,1.3,13.6-1,19.6l-7.2-6.4l-5.3,6.7l-3.7-3
		c-0.7,1.1-1.4,2.1-2.3,2.9l6.7,5.3l5.2-6.5l5.1,4.6c-3.3,6.2-8.5,11.3-15.2,14.4L69.6,77l-8.5,1l-0.5-4.7c-1.3,0.3-2.5,0.4-3.7,0.4
		l0.9,8.5l8.3-0.9l0.4,6.8c-0.4,0.1-0.8,0.2-1.2,0.4c-6.8,1.8-13.6,1.3-19.7-1l6.4-7.2l-6.7-5.3l3-3.7c-1.1-0.7-2.1-1.5-2.9-2.4
		L40,75.5l6.5,5.2L42,85.8c-6.2-3.3-11.3-8.5-14.3-15.2l9.6-0.6l-1-8.5l4.8-0.5c-0.3-1.3-0.4-2.5-0.4-3.7l-8.5,1l0.9,8.3l-6.8,0.4
		c-0.1-0.4-0.2-0.8-0.4-1.2c-1.8-6.8-1.3-13.6,1-19.6l7.2,6.4l5.3-6.7l3.8,3c0.7-1.1,1.5-2.1,2.4-2.9l-6.7-5.4l-5.2,6.5l-5.1-4.5
		c3.3-6.2,8.5-11.3,15.2-14.3l0.6,9.6l8.5-1l0.5,4.8c1.3-0.3,2.5-0.4,3.7-0.4l-1-8.5l-8.3,0.9l-0.4-6.8c0.4-0.1,0.8-0.3,1.3-0.4
		C51.5,25.6,54.3,25.2,57.1,25.2L57.1,25.2z M58.6,44.3v5.6c3.2,0.8,5.7,3.7,5.7,7.2c0,3.5-2.4,6.4-5.7,7.2v6
		c0.6-0.1,1.1-0.2,1.7-0.3c7-1.9,11.2-9,9.3-16.1C68.2,48.7,63.7,45,58.6,44.3L58.6,44.3z M54.9,44.4c-0.4,0.1-0.9,0.2-1.3,0.3
		c-7,1.9-11.2,9-9.3,16.1c1.4,5.2,5.6,8.8,10.6,9.6v-6c-3.1-0.9-5.4-3.8-5.4-7.2c0-3.4,2.3-6.3,5.4-7.2V44.4L54.9,44.4z M56.9,53.5
		c-2,0-3.7,1.6-3.7,3.7c0,2,1.6,3.7,3.7,3.7s3.7-1.6,3.7-3.7C60.5,55.1,58.9,53.5,56.9,53.5L56.9,53.5z"/>
</g>
</svg>
