<?xml version="1.0" encoding="utf-8"?>
<!-- Generator: Adobe Illustrator 25.2.3, SVG Export Plug-In . SVG Version: 6.00 Build 0)  -->
<svg version="1.1" id="Calque_1" xmlns="http://www.w3.org/2000/svg" xmlns:xlink="http://www.w3.org/1999/xlink" x="0px" y="0px"
	 viewBox="0 0 113.4 113.4" style="enable-background:new 0 0 113.4 113.4;" width="512" height="512" xml:space="preserve">
<style type="text/css">
	.st0{fill:#FFFFFF;}
</style>
<g transform="translate(0,0)">
	<path class="st0" d="M4.2,3.9v21c46.4,0,83.9,37.6,83.9,84h21C109.2,50.9,62.2,3.9,4.2,3.9z M4.2,39.3v20.4
		c27.2,0,49.2,22,49.2,49.2c0,0,0,0,0,0h20.4C73.8,70.5,42.6,39.3,4.2,39.3C4.2,39.3,4.2,39.3,4.2,39.3L4.2,39.3z M18.2,80.1
		c-7.8,0.2-14,6.6-14,14.4c0.2,7.9,6.8,14.2,14.7,14.1c7.7-0.2,13.9-6.4,14.1-14.1c0-7.9-6.4-14.4-14.4-14.4
		C18.5,80.1,18.3,80.1,18.2,80.1L18.2,80.1z"/>
</g>
</svg>
