<?xml version="1.0" encoding="utf-8"?>
<!-- Generator: Adobe Illustrator 26.5.0, SVG Export Plug-In . SVG Version: 6.00 Build 0)  -->
<svg version="1.1" id="Calque_1" xmlns="http://www.w3.org/2000/svg" xmlns:xlink="http://www.w3.org/1999/xlink" x="0px" y="0px"
	 viewBox="0 0 113.4 113.4" style="enable-background:new 0 0 113.4 113.4;" xml:space="preserve">
<style type="text/css">
	.st0{fill:#FFFFFF;}
</style>
<g transform="translate(0,0)">
	<path class="st0" d="M56.8,4.6c-7.4,0-14.3,5.3-19.2,15c0,0,0,0.1-0.1,0.1L5.6,75.1l-0.1,0.1c-5.9,9.3-7.1,18-3.5,24.4
		c3.6,6.4,11.8,9.7,22.6,9.2h64.1c10.9,0.5,19-2.8,22.6-9.2c3.6-6.4,2.4-15.1-3.5-24.4l-0.1-0.1L76.2,19.9c0,0,0-0.1,0-0.1
		C71.1,10,64.2,4.6,56.8,4.6L56.8,4.6z M56.8,9.1c3.3,0,6.4,1.7,9.2,4.4c2.8,2.7,5.5,6.6,8.1,11.7c0,0,0,0.1,0,0.1L102,74
		c0,0,0,0,0,0l0,0.1c3.1,4.9,5.2,9.2,6.1,13c0.9,3.9,0.7,7.4-0.9,10.3c-1.7,2.8-4.6,4.7-8.4,5.8c-3.7,1-8.3,1.4-13.9,1.1H28.4
		c-6,0.3-10.8-0.1-14.6-1.2c-3.8-1.2-6.7-3.3-8.2-6.2c-1.5-3-1.4-6.5-0.4-10.3c1-3.8,3.1-7.9,6-12.5l0.1-0.1l28.2-48.9
		c0,0,0-0.1,0.1-0.1c2.6-5.1,5.2-8.9,8-11.6C50.4,10.7,53.5,9.1,56.8,9.1L56.8,9.1z M68.3,24.1l-6.9,54.2H51.3l-6.7-53
		c-0.3,0.6-0.7,1.3-1,1.9l0,0.1l0,0.1L15.3,76.4l0,0l0,0c-2.8,4.4-4.7,8.2-5.5,11.3c-0.9,3.1-0.8,5.4,0.1,7c0.8,1.6,2.4,3,5.4,3.9
		c3,0.9,7.4,1.3,13.2,1l0.1,0H85l0.1,0c5.3,0.3,9.5-0.1,12.5-0.9c3-0.9,4.8-2.1,5.7-3.7c0.9-1.6,1.2-3.8,0.4-6.9
		c-0.8-3.1-2.6-7.1-5.6-11.8l0,0l0-0.1l-28-48.9l0,0l0,0C69.5,26.2,68.9,25.1,68.3,24.1L68.3,24.1z M51.1,83.6h10.6v10.6H51.1V83.6
		L51.1,83.6z"/>
</g>
</svg>
