<?xml version="1.0" encoding="utf-8"?>
<!-- Generator: Adobe Illustrator 26.0.1, SVG Export Plug-In . SVG Version: 6.00 Build 0)  -->
<svg version="1.1" id="Calque_1" xmlns="http://www.w3.org/2000/svg" xmlns:xlink="http://www.w3.org/1999/xlink" x="0px" y="0px"
	 viewBox="0 0 512 512" style="enable-background:new 0 0 512 512;" width="512" height="512" xml:space="preserve">
<style type="text/css">
	.st0{fill:#FFFFFF;}
</style>
<path d="M0,0h512v512H0V0z"/>
<g>
	<path class="st0" d="M389.2,235.3c-13.5,17.9-28.2,21.3-45.4,10.1c-12.9-8.4-24.4-19.1-37.5-27.2c-9.7-6-20.6-11.1-31.6-13.8
		c-34.7-8.6-61.2,15.7-57,51.2c0.3,2.7,0.8,5.3,1.3,8.6c-18.6-2-31.2,9.4-44,19.8c-22.5,18.5-44.8,37.3-67.1,56.1
		c-1.1,0.9-2,2-3.5,3.5c8,10.3,17.8,16.8,30.4,19.1c16.6,3,32.9,0.8,47.9-6.5c18.3-9,36.1-19.1,54.5-29
		c-25.3,20.4-49.3,42.3-81.7,50.2c-8,2-17.1,0.5-25.4-0.9c-6.9-1.2-13.5-4.4-20.2-7c-33.9-13.1-53.7-7.5-75.6,21
		c13.1-34,41-53.9,70.5-74c0.2,3.4,0.4,6,0.7,11.5c9.6-7.1,17.8-12.6,25.4-18.9c14.3-12.1,28.1-24.8,42.3-37.1
		c17.4-15,30.2-33.5,41.8-53c21.8-36.7,53.2-62.3,93-77c22.8-8.5,46.4-14.8,69.7-22c1.6-0.5,3.3-0.4,5.7,1
		c-17.8,12.8-35.6,25.7-53.5,38.2c-8.4,5.9-17.9,7.8-28.1,5.1c-13.1-3.6-24.1,1.4-34,9.1c-2.8,2.2-5.3,6.8-5.1,10
		c0.1,2,5.7,4.7,9,5.1c39.4,5.1,75.1-2.8,104.8-31c23.5-22.3,47.1-44.5,71.5-67.6c-4.6,6.8-8.5,12.9-12.7,18.8
		c-4.5,6.3-9,12.6-13.9,18.6c-7.8,9.4-16.4,18.1-23.9,27.7c-2.9,3.7-6.2,11.4-4.5,13.4c4.3,5.1,11.6,8.4,18.4,4.2
		c8.8-5.4,17.2-11.7,25.3-18.1c5.1-4,9.2-9.2,14.5-13.2c-10.8,16.1-22.8,30.9-38.9,42.1c-12.4,8.6-26.5,7.8-40.5,7.4
		c-10.6-0.3-25.2,7.7-28.7,17.3c-1.3,3.5-0.5,9.2,1.7,12.2C356.9,237.1,368.1,240.8,389.2,235.3z"/>
	<path class="st0" d="M211.7,154c-20.8,17.1-40.8,34.7-56.1,57.1c-1.7,2.5-3.1,5.1-4.8,7.5c-4.1,6.3-1.7,10.5,4.8,11.9
		c8.7,1.9,17.6,2.6,26.4,3.9c3.5,0.5,6.9,1,12.3,1.7c-7.4,18-22.3,27.8-35.2,42.3c0.8-8.6,12.1-12.6,3.8-21.5
		c-5.7,4.8-11.4,9.7-17.1,14.5c-1.7-8.1,3.8-18.8,11.5-22.5c5.7-2.7,8.4-1.6,14.6,6.1c5.9-7.2,4.9-11.1-3.5-13.9
		c-21.7-7.3-36.1-3.5-51.1,13.7c-10.2,11.7-17.9,25-19.9,40.3c-1.9,14.3-7.9,24.4-21.6,30.5c0.2-2,0.2-4.1,0.6-6.2
		c6.5-31.3,21.3-58.6,41.4-83c25.5-30.9,54.2-58.4,88.4-79.7C207.9,155.7,209.8,154.9,211.7,154z"/>
	<path class="st0" d="M231.3,234.1c0.6,6.8,1.2,13.6,1.8,20.4c3.3-13.2,7.2-24.9,21.9-29.2c-14.3,13-14,28.4-6.4,43.9
		c9.4,19.2,22.9,34.6,46.6,34.5c24.9-0.1,38.8-14.8,46-38.6c4.3,27.5-16.9,50.9-45.6,52.1c-31.8,1.3-66.9-29.5-69-61.4
		c-0.5-7.2,1.7-14.6,2.6-22C229.9,233.9,230.6,234,231.3,234.1z"/>
	<path class="st0" d="M49.3,395.3c13.6-8.4,28.1-8.7,42-3.4c13.7,5.3,26.8,12.6,39.7,19.9c11.8,6.7,11.8,7.1,23.4-1.6
		c32.1-24,64.2-47.9,97.3-70.6c-12.8,11.2-25.7,22.3-38.5,33.5c-22.4,19.5-45,38.8-67.2,58.5c-4.9,4.3-7.6,5-13.1,0.3
		c-11.9-10.2-24.3-20-37.5-28.4C81.4,394.7,65.9,390.8,49.3,395.3z"/>
	<path class="st0" d="M320.5,98.1c21.1-5.9,39.8-11.1,58.6-16.3c0.2,0.7,0.4,1.4,0.5,2c-16.4,6.7-33.3,12.4-49.1,20.3
		c-15.8,8-30.5,18.2-45.3,27.2c37.2-50.9,86.2-80.3,150.5-81.3c0.3,0.8,0.7,1.5,1,2.3c-13.1,2.9-26.5,5-39.3,8.9
		c-13.3,4-26.5,8.8-39.1,14.9C345.7,82.1,334.1,90,320.5,98.1z"/>
	<path class="st0" d="M43.3,424.5c3.2-6.1,6.3-12,9.3-17.8c0.8,0.4,1.5,0.8,2.3,1.2c-3.3,22,6.9,38.9,30.4,50.1
		c18.4,8.8,29.6,6.5,44-9.4c0.3,9.4-5.5,17.3-16,21.5c-11.4,4.6-22.8,3.5-33.9-0.9c-17.9-7.1-31.3-19.4-39.1-37
		c-2.7-6.1-2.8-13.3-4.1-20c0.8-0.2,1.6-0.3,2.5-0.5C40.3,416.2,41.9,420.7,43.3,424.5z"/>
	<path class="st0" d="M76.5,296.7c-11.8,14.3-23.5,28.7-35.3,43c0.4,0.9,0.9,1.8,1.3,2.8c6.2-1.4,12.3-2.8,21-4.8
		C49.4,349,42,365.3,23.9,368.1c-4.1,0.6-8.5,0-12.8-0.1c1.5-4.2,2.2-9.1,4.8-12.5c5-6.6,11-12.5,16.8-18.4
		c13.9-14.2,27.9-28.3,41.9-42.5C75.2,295.3,75.9,296,76.5,296.7z"/>
	<path class="st0" d="M464.6,53.7c9.7,11.7,21.7,19.8,36,24.6c6.7,2.2,6.9,8.4,4.1,13.4c-8,14.5-16.2,28.9-25.4,42.6
		c-4.7,7-11.8,12.3-18.4,18.1c5.1-7.3,10.8-14.3,15.2-21.9c7.2-12.3,13.6-25,20.2-37.6c2.8-5.3,1.6-8.4-4.4-10.7
		C478.7,77,469.6,67.3,464.6,53.7z"/>
</g>
</svg>
