<?xml version="1.0" encoding="utf-8"?>
<!-- Generator: Adobe Illustrator 25.1.0, SVG Export Plug-In . SVG Version: 6.00 Build 0)  -->
<svg version="1.1" id="Calque_1" xmlns="http://www.w3.org/2000/svg" xmlns:xlink="http://www.w3.org/1999/xlink" x="0px" y="0px"
	 viewBox="0 0 113.4 113.4" style="enable-background:new 0 0 113.4 113.4;" width="512" height="512" xml:space="preserve">
<style type="text/css">
	.st0{fill:#FFFFFF;}
</style>
<g transform="translate(0,0)">
	<path class="st0" d="M19.3,27.2c-1.8,0-3.3,1.5-3.3,3.3v54.6c0,1.8,1.5,3.3,3.3,3.3h75c1.8,0,3.3-1.5,3.3-3.3V30.5
		c0-1.8-1.5-3.3-3.3-3.3H19.3z M20.2,31.4h73.2v3.3H20.2V31.4z M20.2,37.3h38.2v47H20.2V37.3z M23.5,40.5V81h1.3
		c0.1-4.4,3.3-13.5,8.6-17.8c1.7,1.4,3.7,2.2,6,2.2s4.3-0.8,6-2.2c5.2,4.3,8.5,13.4,8.6,17.8h1.3V40.5H23.5z M63.9,43.1h26.6v3.3
		H63.9V43.1z M39.3,44.9c3.8,0,7.1,3.7,7.1,8.6S43.1,62,39.3,62s-7.1-3.7-7.1-8.6S35.5,44.9,39.3,44.9z M63.9,48.9h20.8v3.3H63.9
		V48.9z M63.9,54.7H73V58h-9.1V54.7z M78.5,54.7h12V58h-12V54.7z M75.5,72.2h17.8v3.3H75.5V72.2z M69.7,78h23.7v3.3H69.7V78z"/>
</g>
</svg>
