<?xml version="1.0" encoding="utf-8"?>
<!-- Generator: Adobe Illustrator 25.1.0, SVG Export Plug-In . SVG Version: 6.00 Build 0)  -->
<svg version="1.1" id="Calque_1" xmlns="http://www.w3.org/2000/svg" xmlns:xlink="http://www.w3.org/1999/xlink" x="0px" y="0px"
	 viewBox="0 0 113.4 113.4" style="enable-background:new 0 0 113.4 113.4;" xml:space="preserve">
<style type="text/css">
	.st0{fill:#FFFFFF;}
</style>
<g transform="translate(0,0)">
	<path class="st0" d="M61.9,14.3c5.5,3.4,10,8.1,13.5,13.4c-13.1-11.8-37-14.7-53.7-1.4c7.9-3.5,16.5-3.6,24.8-1.6
		c-15,0.7-29.6,10.4-32.4,27.1c5.1-8.2,13-14.4,21.7-17.9C19.3,43.1,10.6,65.8,23,83.2c-2.1-9.1-1-18.6,2.4-27
		c-3.2,18,7.4,36.9,26,42.9c-17.5-14.5-22.5-31.5-20-44.9c1-12.9,11.8-23.1,25-23.1c13.8,0,25.1,11.2,25.1,25.1
		c0,13.8-11.2,25.1-25.1,25.1c-6,0-11.5-2.1-15.8-5.7c2,3.2,4.5,5.7,7.3,7.7c7.7,7.6,21.9,14.5,33.1,12.3c-4.5-1.7-8.4-3.6-11.3-6.2
		c9.3,0.5,19.7-1.6,26.2-7.2c-3.7,0.6-7.2,0.9-10.3,0.6c7-4.7,12.3-11.9,13.8-21.2c-5.1,8.2-13,14.4-21.7,17.9
		c16.5-9.2,25.2-31.9,12.8-49.3c2.1,9.1,1,18.6-2.4,27C92.5,39.1,82.6,17.7,61.9,14.3L61.9,14.3z M56.3,34.5c-0.3,0-0.7,0-1,0
		L55,37.9c-1.4,0.1-2.7,0.4-4,0.8l-1.5-3.1c-1.7,0.6-3.4,1.3-4.9,2.3l1.5,3.2C45,41.8,44,42.7,43,43.7l-2.9-2
		c-1.2,1.3-2.2,2.8-3.1,4.4l2.9,2c-0.6,1.3-1.1,2.6-1.4,3.9l-3.6-0.3c-0.3,1.4-0.4,2.8-0.4,4.3c0,0.4,0,0.7,0,1l3.6,0.3
		c0.1,1.4,0.4,2.7,0.8,4.1L35.7,63c0.6,1.7,1.4,3.3,2.3,4.8l3.2-1.6c0.8,1.2,1.7,2.2,2.7,3.1l-2,2.9c1.3,1.2,2.8,2.2,4.4,3l2-2.9
		c1.3,0.6,2.6,1.1,3.9,1.4l-0.3,3.5c1.4,0.3,2.8,0.4,4.2,0.4c0.4,0,0.8,0,1.2,0l0.3-3.4c1.4-0.1,2.8-0.4,4.2-0.8l1.5,3.1
		c1.7-0.6,3.3-1.4,4.8-2.4l-1.5-3c1.2-0.8,2.2-1.7,3.2-2.7l2.8,1.9c1.2-1.3,2.2-2.8,3-4.5L73,64.1c0.6-1.3,1.1-2.6,1.4-3.9l3.3,0.2
		c0.3-1.4,0.4-2.8,0.4-4.2c0-0.4,0-0.8,0-1.1l-3.3-0.2c-0.1-1.4-0.4-2.8-0.8-4.1l3-1.4c-0.6-1.7-1.4-3.3-2.3-4.8l-3,1.4
		c-0.8-1.2-1.7-2.2-2.8-3.2l1.9-2.8c-1.3-1.2-2.8-2.2-4.4-3l-1.9,2.8c-1.3-0.6-2.6-1.1-3.9-1.4l0.3-3.4
		C59.3,34.6,57.8,34.5,56.3,34.5L56.3,34.5z M56.5,42c3,0,5.8,1,8.2,2.8l-6,5.2c-0.5-0.2-1.1-0.3-1.6-0.3c-1.6-0.1-3.2,0.4-4.5,1.5
		c-1.7,1.5-2.4,3.7-2,5.8l-6.7,5.7c-0.7-1.2-1.1-2.6-1.4-4c-1.5-7.6,3.6-15,11.2-16.5C54.6,42.1,55.5,42,56.5,42L56.5,42z
		 M68.8,49.8c0.6,1.1,1,2.4,1.3,3.7c1.5,7.6-3.6,15-11.2,16.5c-3.9,0.7-7.7-0.2-10.7-2.3l6.8-5.9c1.9,0.5,4,0.1,5.6-1.3
		s2.3-3.4,2.1-5.4L68.8,49.8L68.8,49.8z M56.5,53c0.1,0,0.2,0,0.3,0c0.7,0.1,1.4,0.4,1.9,1c1,1.2,0.9,2.9-0.3,4
		c-1.2,1-2.9,0.9-4-0.3c-1-1.2-0.9-2.9,0.3-4C55.2,53.2,55.9,53,56.5,53L56.5,53z"/>
</g>
</svg>
