<?xml version="1.0" encoding="utf-8"?>
<!-- Generator: Adobe Illustrator 25.1.0, SVG Export Plug-In . SVG Version: 6.00 Build 0)  -->
<svg version="1.1" id="Calque_1" xmlns="http://www.w3.org/2000/svg" xmlns:xlink="http://www.w3.org/1999/xlink" x="0px" y="0px"
	 viewBox="0 0 113.4 113.4" style="enable-background:new 0 0 113.4 113.4;" width="512" height="512" xml:space="preserve">
<style type="text/css">
	.st0{fill:#FFFFFF;}
</style>
<g transform="translate(0,0)">
	<path class="st0" d="M15.7,23.1l-0.2,8.3l25.4,8.5l1.6,0.5L41.9,42c-2.6,7.6-3.1,16.3-0.6,24.2c0.7,3.1,2,5.8,3.8,8.1l-1.6,1.9
		l-1,1.1l1,1.1L55.6,92l1.2,1.4L58,92l12.1-13.8l0.9-1.1L70.1,76l-1.7-1.9c1.7-2.3,3-5,3.7-8c2.5-7.9,2-16.6-0.6-24.2L71,40.4
		l1.6-0.5L98,31.4l-0.2-8.3l-35.1,14c2.7,3.6,4.5,9.6,4.5,16.3c0,6.1-1.4,11.5-3.7,15.2L58,62.3l-1.2-1.4l-1.2,1.4L50,68.6
		c-2.3-3.6-3.7-9.1-3.7-15.2c0-6.7,1.8-12.7,4.5-16.3L15.7,23.1L15.7,23.1z M98.2,34.8l-23.1,7.7c0.4,1.5,0.8,3,1.1,4.5l21.6-2.2
		C98.1,41.5,98.2,38.1,98.2,34.8z M15.5,34.9c0,3.4,0.1,6.7,0.4,10L37.2,47c0.3-1.5,0.7-3,1.1-4.5L15.5,34.9L15.5,34.9z M16.3,48.2
		c0.4,3.1,0.9,6,1.6,8.9l18.5-1.7c0-1.7,0.1-3.4,0.3-5.1L16.3,48.2L16.3,48.2z M97.5,48.2l-20.7,2.1c0.2,1.7,0.3,3.4,0.3,5L95.9,57
		C96.6,54.2,97.1,51.2,97.5,48.2L97.5,48.2z M77,58.6c-0.1,1.3-0.3,2.5-0.5,3.8l15.3,5.3c1.2-2.3,2.3-4.7,3.1-7.4L77,58.6L77,58.6z
		 M36.5,58.6l-17.7,1.6c0.8,2.6,1.9,5.1,3.1,7.4L37,62.4C36.8,61.1,36.6,59.9,36.5,58.6L36.5,58.6z M75.8,65.5
		c-0.4,1.3-0.8,2.6-1.3,3.9l9.6,7.2c2.3-1.7,4.3-3.8,6-6.2L75.8,65.5L75.8,65.5z M37.7,65.6l-14.1,4.8c1.7,2.4,3.7,4.5,6,6.2
		l9.4-7.1C38.5,68.3,38.1,66.9,37.7,65.6L37.7,65.6z M56.6,66v11.6h9.7l-9.5,10.8l-10-11.3L56.6,66L56.6,66z"/>
</g>
</svg>
