<?xml version="1.0" encoding="utf-8"?>
<!-- Generator: Adobe Illustrator 25.1.0, SVG Export Plug-In . SVG Version: 6.00 Build 0)  -->
<svg version="1.1" id="Calque_1" xmlns="http://www.w3.org/2000/svg" xmlns:xlink="http://www.w3.org/1999/xlink" x="0px" y="0px"
	 viewBox="0 0 113.4 113.4" style="enable-background:new 0 0 113.4 113.4;" width="512" height="512" xml:space="preserve">
<style type="text/css">
	.st0{fill:#FFFFFF;}
</style>
<g transform="translate(0,0)">
	<path class="st0" d="M38.5,14.3l2.6,23l-8.2-4.5l6.7,12.9c3.3-4.8,8.8-7.9,15.1-7.9C64.8,37.8,73,46,73,56.2
		c0,5.5-2.4,10.4-6.2,13.7l12.1,5.2l-4.7-10.7l24.5-2.8l-22.5-7.9l14.5-9.5H74.1l18.6-29.6l-23.1,19l-0.5-12.9l-12.4,15l-3.4-15.1
		l-4,12.2L38.5,14.3L38.5,14.3z M14.6,36.4l8.6,9.7L36,50.7l-9.2-10.3L14.6,36.4z M36.3,56.5l-8.8,4.9l7.8,0.8L21.7,79.1l16.1-8.6
		L23.1,99l22.2-22.7L46.4,89l4.8-14.9C42.8,72.5,36.5,65.3,36.3,56.5L36.3,56.5z M64,72c-2.1,1.3-4.6,2.1-7.2,2.4l13.3,24.2L64,72
		L64,72z M54.6,77.7L54.6,77.7l-2,10.6L56,99.1l2.2-11.3L54.6,77.7L54.6,77.7z M77.9,80.1l6.1,8.6l9.3,2.2l0,0l-5.8-8L77.9,80.1
		L77.9,80.1z"/>
</g>
</svg>
