<?xml version="1.0" encoding="utf-8"?>
<!-- Generator: Adobe Illustrator 25.1.0, SVG Export Plug-In . SVG Version: 6.00 Build 0)  -->
<svg version="1.1" id="Calque_1" xmlns="http://www.w3.org/2000/svg" xmlns:xlink="http://www.w3.org/1999/xlink" x="0px" y="0px"
	 viewBox="0 0 113.4 113.4" style="enable-background:new 0 0 113.4 113.4;" xml:space="preserve">
<style type="text/css">
	.st0{fill:#FFFFFF;}
</style>
<g transform="translate(0,0)">
	<path class="st0" d="M50.6,14.8L47.4,18l-1.1-1l-1.2-1.2L43.9,17L20.2,40.7L19,41.9l1.2,1.2l1.1,1.1l-3.2,3.2l-0.5,0.5v7h3.3v-5.6
		l2.7-2.7L30,53l-3.2,3.2l-0.5,0.5v7h3.3V58l2.7-2.7l6.3,6.3l-3.2,3.2L35,65.2v7h3.3v-5.6l2.7-2.7l6.6,6.6l-3.2,3.2l-0.5,0.5v7h3.3
		v-5.6l2.7-2.7l6.4,6.4l-3.2,3.2L52.6,83v7H56v-5.6l2.7-2.7L65,88l-3.2,3.2l-0.5,0.5v7h3.3V93l2.7-2.7l1,1l1.2,1.2l1.2-1.2
		l23.7-23.7l1.2-1.2l-1.2-1.2l-1-1l3.2-3.2l-2.4-2.4L91,61.8l-6.3-6.3l3.2-3.2l-2.4-2.4l-3.2,3.2L76,46.8l3.2-3.2l-2.4-2.4l-3.2,3.2
		L67,37.8l3.2-3.2L68,32.2l-3.2,3.2l-6.3-6.3l3.2-3.2l-2.4-2.4l-3.2,3.2l-6.4-6.4l3.2-3.2L50.6,14.8L50.6,14.8z M45.3,26.8
		l37.5,37.5L69.7,77.5L32.2,40L45.3,26.8L45.3,26.8z M39.5,38.5l-2.4,2.4l31.1,30.9l1.2,1.2l1.2-1.2l6.2-6.1l-2.4-2.4l-5,5
		L39.5,38.5L39.5,38.5z M29,41.6l39.1,39.1v5.5L23.9,42L29,41.6z M86.2,65.7l4.6,0.6l0.1,0.1L71.4,85.9v-5.4L86.2,65.7L86.2,65.7z"
		/>
</g>
</svg>
