<?xml version="1.0" encoding="utf-8"?>
<!-- Generator: Adobe Illustrator 25.1.0, SVG Export Plug-In . SVG Version: 6.00 Build 0)  -->
<svg version="1.1" id="Calque_1" xmlns="http://www.w3.org/2000/svg" xmlns:xlink="http://www.w3.org/1999/xlink" x="0px" y="0px"
	 viewBox="0 0 113.4 113.4" style="enable-background:new 0 0 113.4 113.4;" xml:space="preserve">
<style type="text/css">
	.st0{fill:#FFFFFF;}
</style>
<g transform="translate(0,0)">
	<path class="st0" d="M56.7,16.3l-9.5,15.9l-17.5-6.1l3,18.3L15.4,51l14,12.1l-9.1,16.1l18.5,0.2l3.4,18.2l14.3-11.7L71,97.5
		l3.4-18.2L93,79.1L83.9,63l14-12.1l-17.3-6.6l3-18.3l-17.5,6.1C66.2,32.2,56.7,16.3,56.7,16.3z M57.7,33.2c6.5,0,12.3,2.5,16.8,6.5
		c-1.5-0.6-3.1-1-4.8-1.2c-0.3,0-0.7,0-1,0s-0.7,0-1,0c-1.2,0-2.3,0.1-3.5,0.3c-0.3-1.5-1.6-2.7-3.2-2.7c-1.8,0-3.2,1.5-3.2,3.2
		c0,0.6,0.1,1.1,0.4,1.6c-1.4,0.7-2.6,1.7-3.8,2.7c0.1,0,0.2,0,0.2,0c2.3,0,4.1,1.8,4.1,4.1s-1.8,4.1-4.1,4.1
		c-2.1,0-3.9-1.6-4.1-3.6c-0.9-2.1-3-3.5-5.4-3.5c-3.3,0-6,2.7-6,6s2.7,6,6,6c0.9,0,1.8-0.2,2.6-0.6l0,0c0.6-0.7,1.5-1.2,2.5-1.2
		c1.8,0,3.2,1.5,3.2,3.2c0,1.8-1.5,3.2-3.2,3.2c-0.7,0-1.4-0.2-1.9-0.6c-0.6-0.6-1.4-1-2.4-1c-1.8,0-3.2,1.5-3.2,3.2
		c0,1.8,1.5,3.2,3.2,3.2c1.3,0,2.4-0.7,2.9-1.8c1.1,3.3,3,6.2,5.5,8.4c0.1-1.6,1.4-3,3-3.1c-0.1-0.4-0.1-0.8-0.1-1.3
		c0-3.3,2.7-6,6-6c3.3,0,6,2.7,6,6s-2.7,6-6,6c-0.9,0-1.7-0.2-2.5-0.5c-0.3,0.9-0.9,1.7-1.8,2c2.6,1.3,5.6,2,8.7,2
		c2.5,0,4.9-0.5,7.1-1.4c-4.5,4.1-10.4,6.7-17,6.7c-13.8,0-25-11.2-25-25C32.7,44.4,43.9,33.2,57.7,33.2L57.7,33.2z M68,44
		c1.8,0,3.2,1.5,3.2,3.2c0,1.8-1.5,3.2-3.2,3.2c-1.8,0-3.2-1.5-3.2-3.2S66.2,44,68,44z M45.1,47.9c1.5,0,2.7,1.2,2.7,2.7
		s-1.2,2.7-2.7,2.7s-2.7-1.2-2.7-2.7S43.6,47.9,45.1,47.9L45.1,47.9z M63.2,65.7c-1.5,0-2.7,1.2-2.7,2.7s1.2,2.7,2.7,2.7
		c1.5,0,2.7-1.2,2.7-2.7C65.9,66.9,64.7,65.7,63.2,65.7L63.2,65.7z M46.4,68.9c-1.5,0-2.7,1.2-2.7,2.7s1.2,2.7,2.7,2.7
		s2.7-1.2,2.7-2.7C49.1,70.2,47.9,68.9,46.4,68.9L46.4,68.9z"/>
</g>
</svg>
