<?xml version="1.0" encoding="utf-8"?>
<!-- Generator: Adobe Illustrator 25.1.0, SVG Export Plug-In . SVG Version: 6.00 Build 0)  -->
<svg version="1.1" id="Calque_1" xmlns="http://www.w3.org/2000/svg" xmlns:xlink="http://www.w3.org/1999/xlink" x="0px" y="0px"
	 viewBox="0 0 113.4 113.4" style="enable-background:new 0 0 113.4 113.4;" xml:space="preserve">
<style type="text/css">
	.st0{fill:#FFFFFF;}
</style>
<g transform="translate(0,0)">
	<path class="st0" d="M87.3,12.7c6.8,8.9,3.5,15.8-7.1,16.3c2.8-4.2,3.3-9.1-0.3-12.9c2.8,6.7-2.6,11.3-9,12
		c-0.8-0.2-1.6-0.4-2.4-0.6C57.7,24.7,48,31.6,43.9,41.6c-0.1-6.2,1.7-12.3,5.3-18.3c-9,6.3-13.6,16-13,29.8L25.5,41.4L28,76.3
		l29.5,21.4L82.3,79l9.4-35.3L75,56.7c-4.2-4.6-2.3-9.9,6-9c-6.8-4-11.6-0.4-13.6,4.4c-1-5,3.3-11.3,9-10.5
		C90.2,43.4,103.7,22.2,87.3,12.7L87.3,12.7z M33.4,57.9l17,13.1l-18.5-3.8l5.2-0.5L33.4,57.9L33.4,57.9z M79.2,60.1l-1.9,4.5l5-0.1
		l-2.2,4.2l-17.3,2.6L79.2,60.1L79.2,60.1z M48.6,73.7l7.6,11.2l2-7.9l3.2,5.8l10.1-8.7l-1.3,4.4l9.3-3.8l-9.8,11.1l1.7-5.4
		L57.8,93.2l-8.5-9.9l0.6,4.9L36.4,74.4l11,5.4L48.6,73.7L48.6,73.7z"/>
</g>
</svg>
