<?xml version="1.0" encoding="utf-8"?>
<!-- Generator: Adobe Illustrator 25.2.3, SVG Export Plug-In . SVG Version: 6.00 Build 0)  -->
<svg version="1.1" id="Calque_1" xmlns="http://www.w3.org/2000/svg" xmlns:xlink="http://www.w3.org/1999/xlink" x="0px" y="0px"
	 width="113.4px" height="113.4px" viewBox="0 0 113.4 113.4" style="enable-background:new 0 0 113.4 113.4;" xml:space="preserve"
	>
<style type="text/css">
	.st0{fill:#FFFFFF;}
</style>
<g transform="translate(0,0)">
	<path class="st0" d="M71.4,13c-6.8,0.2-15.3,11.3-21.4,27.3h0c5.6-12.1,13.2-19.7,18-18.4c5.2,1.4,6.9,12.8,4.6,27.4
		c-0.2-0.1-0.3-0.1-0.5-0.2c0.2,0.1,0.3,0.1,0.5,0.2c-0.6,3.6-1.3,7.3-2.4,11.1c-0.5,1.9-1.1,3.8-1.7,5.6c-4.6-0.7-9.7-1.8-14.9-3.2
		c-19.6-5.2-34.4-13.3-33.1-18c0.8-2.9,7.8-4.4,17.7-3.7c-13.8-1.6-23.8-0.4-25,3.8c-1.7,6.2,16.5,16.5,40.5,22.9
		c4.5,1.2,8.9,2.2,13.1,3c-5.4,14-12.6,23.3-17.9,21.9c-4-1.1-6.7-8.4-6.7-18.5c-0.9,13.9,1.7,24.4,7.5,25.9
		c7.2,1.9,16.9-10.2,23.6-28.3c14.8,2,25.7,0.8,26.9-3.6c1.2-4.4-7.6-10.8-21.3-16.5c3.8-20.1,1.6-36.7-5.9-38.7
		C72.5,13,71.9,13,71.4,13L71.4,13z M78.9,52.4c8.3,4.2,13.1,8.7,12.4,11.5c-0.7,2.8-7,3.8-16.1,3c0.6-2,1.2-4,1.8-6
		C77.7,58,78.3,55.1,78.9,52.4L78.9,52.4z"/>
</g>
</svg>
