<?xml version="1.0" encoding="utf-8"?>
<!-- Generator: Adobe Illustrator 26.0.1, SVG Export Plug-In . SVG Version: 6.00 Build 0)  -->
<svg version="1.1" id="Calque_1" xmlns="http://www.w3.org/2000/svg" xmlns:xlink="http://www.w3.org/1999/xlink" x="0px" y="0px"
	 viewBox="0 0 113.4 113.4" style="enable-background:new 0 0 113.4 113.4;" xml:space="preserve">
<style type="text/css">
	.st0{fill:#FFFFFF;}
</style>
<g>
	<path class="st0" d="M7.3,72c0-13.9,0-27.7,0-41.6c1.9-5.6,5.8-7.7,11.6-7.4c4.9,0.3,9.8,0,14.6,0.1c1.7,0,2.2-0.6,2.2-2.2
		c-0.1-2.6-0.1-5.1,0-7.7C35.7,6.6,39.3,3,45.8,3c12,0,24,0,35.9,0c7.1,0,10.5,3.4,10.5,10.5c0,9.2,0,18.5,0,27.7
		c0,3.8,0,4.1,3.7,3.8c6.3-0.4,10.2,4.7,10.1,10.3c-0.2,12.1-0.1,24.1-0.1,36.2c0,6.7-3.9,10.4-10.6,10.3c-6.2-0.1-12.3,0.1-18.5,0
		c-1.5,0-2.6,0.5-3.6,1.4c-2.7,2.5-5.5,4.9-8.3,7.3c-0.6,0.6-1.3,1.1-2.3,0.8c-1.1-0.4-1.1-1.4-1.2-2.4c0-1.6-0.1-3.3,0-4.9
		c0.2-1.8-0.5-2.3-2.3-2.3c-6.5-0.1-9.9-3.6-10-10.1c0-3.3-0.1-6.5,0-9.8c0.1-1.8-0.5-2.3-2.3-2.3c-9.5,0.1-19,0.1-28.5,0.1
		C12.1,79.7,9.7,78.1,7.3,72z M65.4,105.4c2.4-2,4.6-4,6.8-5.9c1-0.9,2.1-1.3,3.5-1.3c7,0.1,14,0.1,21,0c3.5,0,5.6-2.1,5.7-5.6
		c0.1-12.8,0-25.5,0-38.3c0-3.3-2.2-5.6-5.4-5.6c-12.7-0.1-25.5-0.1-38.2,0c-3.8,0-5.7,2.3-5.7,6.1c0,4.6,0,9.2,0,13.9
		c0,7.9,0,15.8,0,23.6c0,3.7,2,5.7,5.6,5.9c1.4,0.1,2.7,0.1,4.1,0.1c1.6,0,2.3,0.7,2.3,2.3C65.1,102,64.7,103.6,65.4,105.4z
		 M64.1,6.4c-6.2,0-12.5-0.1-18.7,0c-3.9,0-6.1,2.4-6.1,6.1c0,2.7,0.1,5.3-0.1,8c-0.1,1.9,0.3,2.7,2.5,2.6c4.2-0.2,8.4-0.1,12.6-0.1
		c6,0,9.6,3.6,9.6,9.5c0,3.5,0.1,7,0,10.5c0,1.6,0.5,2.1,2.1,2c2.1-0.1,4.3-0.2,6.4,0c1.7,0.1,2.2-0.5,2.2-2.1
		c-0.1-6.8,0-13.5,0-20.3c0-3.5-1.2-4.7-4.8-4.7c-5.8,0-11.6,0-17.5,0c-1.3,0-2.8,0-2.8-1.8c0.1-1.8,1.5-1.8,2.8-1.8
		c5.8,0,11.6,0,17.5,0c5.6,0,8.3,2.8,8.3,8.4c0,6.8,0,13.5,0,20.3c0,1.5,0.3,2.2,2,2.1c2-0.2,4-0.2,5.9,0c2.1,0.2,2.8-0.4,2.8-2.6
		c-0.1-9.8,0-19.7-0.1-29.5c0-4.3-2.1-6.5-6.4-6.6C76.3,6.4,70.2,6.4,64.1,6.4z M49.1,68.9c0.9-2.4-0.1-3.6-2.2-4.4
		c-2.7-1.1-5.1-2.8-7.4-4.6c-1.4-1-1.7-1.8-0.4-3.2c2.9-3.1,5-6.7,6.2-10.8c0.7-2.6,1.8-3.8,4.5-3.2c0.2,0.1,0.5,0,0.8,0
		c1.2,0,2.7,0.1,2.7-1.5c0-1.8-1.6-1.6-2.9-1.6c-3,0-6,0-9,0c-4,0-4,0-4.3-4.1c0-0.3,0-0.5-0.1-0.8c-0.2-0.8-0.7-1.4-1.6-1.4
		c-0.8,0.1-1.4,0.6-1.5,1.5c0,0.6-0.2,1.2,0,1.8c0.5,2.4-0.7,3-2.8,2.9c-1.1,0-2.2,0-3.3,0c-2.7,0-5.5,0-8.2,0c-1,0-2,0.5-1.9,1.6
		c0.1,1.1,0.9,1.6,2,1.5c0.6,0,1.2,0,1.8,0c6.5,0,13,0,19.5,0c1.7,0,2,0.4,1.4,2c-1.3,3.9-3.5,7.2-6,10.3c-0.9,1.2-1.5,1-2.3,0
		c-1.2-1.6-2.5-3.2-3.7-4.9c-0.7-0.9-1.5-1.6-2.6-0.9c-1.1,0.8-0.7,1.8-0.1,2.7c1.3,1.7,2.5,3.5,4,5c1.3,1.3,1.1,2-0.3,2.9
		c-3.2,2.4-6.7,4.4-10.4,5.9c-1.1,0.4-2.2,0.9-1.7,2.3c0.5,1.4,1.7,1.1,2.8,0.6c4.1-1.7,8.1-3.8,11.4-6.7c1.4-1.2,2.2-1.2,3.6,0
		C40.8,65.1,44.8,67.2,49.1,68.9z"/>
	<path class="st0" d="M90.9,87.5c-0.2,0.8-0.5,1.5-1.3,1.7c-1,0.2-1.7-0.3-2-1.1c-0.8-2-1.7-3.9-2.4-5.9c-0.5-1.5-1.3-2.2-3-2.1
		c-3.2,0.2-6.3,0.1-9.5,0c-1.2,0-1.8,0.4-2.3,1.5c-0.7,2-1.6,3.9-2.4,5.9c-0.5,1.1-1,2.1-2.4,1.6c-1.6-0.6-1.2-1.8-0.8-3
		c3.6-9,7.3-18,10.9-27c0.3-0.8,0.6-1.7,1.7-1.6c1,0,1.6,0.4,2,1.3c3.7,9.3,7.5,18.6,11.3,27.9C90.8,87,90.9,87.3,90.9,87.5z
		 M77.7,63.8c-1.9,4.6-3.4,8.5-5.1,12.7c3.5,0,6.7,0,10.2,0C81.1,72.4,79.6,68.5,77.7,63.8z"/>
</g>
</svg>
