<?xml version="1.0" encoding="utf-8"?>
<!-- Generator: Adobe Illustrator 26.0.1, SVG Export Plug-In . SVG Version: 6.00 Build 0)  -->
<svg version="1.1" id="Calque_1" xmlns="http://www.w3.org/2000/svg" xmlns:xlink="http://www.w3.org/1999/xlink" x="0px" y="0px"
	 viewBox="0 0 113.4 113.4" style="enable-background:new 0 0 113.4 113.4;" width="512" height="512" xml:space="preserve">
<style type="text/css">
	.st0{fill:#FFFFFF;}
</style>
<g transform="translate(0,0)">
	<path class="st0" d="M28.2,4.9C22.1,4.9,17,10.2,16,21.8c4.2-8.8,12.3-8.3,19.9-2.4c-4.7,0.7-9.9,4.5-14.3,12
		c12.1-7.3,20.9-3,27.7,7.7c0.3,0.9,0.6,1.8,0.9,2.8c0.2,1.4,0.5,2.9,0.8,4.4c-5.9-6.4-16.4-8.1-24.1-1c7.2-0.4,13.1,1.7,18.1,5.6
		c3.4-0.8,6.9-1.3,10.4-1.4c0.2,0,0.5,0,0.7,0c0.7-22.7,8.4-35.1,19.1-29.2c5.1,2.8,4.3,9.9-1.6,11.9c12.2-2.5,14.3-13.7,2.7-20.4
		C66.4,6,51.8,13.2,49.9,31.2C45.9,14.4,36.2,5,28.2,4.9L28.2,4.9z M98.8,5.4c-0.1,0-0.3,0-0.4,0c-2.4,0-5.2,0.6-8.3,1.9
		c17.8-3,11.8,24-2.3,27.3c8.7-6.5,6.9-12.6,3.5-18.3C90,34.6,69.1,39.2,59.5,49.6c2.1,0.2,4.2,0.5,6.3,1c4.3-3.2,9.7-5.6,16.1-7
		C112.8,36.5,116.5,5.6,98.8,5.4L98.8,5.4z M70.9,22.8c-6.4-0.1-8.1,10.7,0.8,9.3c-3.3-1.2-3.5-6.1,0.1-9.2
		C71.6,22.8,71.3,22.8,70.9,22.8L70.9,22.8z M5.2,38.1c-5.2,15.3,8.3,20.3,18,9.4C14,49.3,7.3,47.2,5.2,38.1z M56.6,53.7
		c-0.4,0-0.7,0-1.1,0c-5.7,0.1-11.4,1.3-16.1,3.4c4.5,7.6,7.9,17.4,7.9,28.4v1.7l-1.6,0.3c-9.4,2-14.9,10-16.7,20.8h42.4
		c-0.5-7.3-3.1-12.9-9.8-17.4c9.4,0.6,14.9,10.4,16.1,17.4H82C80.2,97.7,74.4,89.7,65,87.6l-1.6-0.4v-1.7c0-11.8,3.6-21.1,8.2-28.6
		c-1.6-0.8-3.3-1.5-5-2C63,63.3,60,73.4,59.3,86.3c-0.7-12.9,0.1-24,1.7-32.3C59.6,53.8,58.1,53.7,56.6,53.7L56.6,53.7z"/>
</g>
</svg>
