<?xml version="1.0" encoding="utf-8"?>
<!-- Generator: Adobe Illustrator 26.0.1, SVG Export Plug-In . SVG Version: 6.00 Build 0)  -->
<svg version="1.1" id="Calque_1" xmlns="http://www.w3.org/2000/svg" xmlns:xlink="http://www.w3.org/1999/xlink" x="0px" y="0px"
	 viewBox="0 0 512 512" style="enable-background:new 0 0 512 512;" xml:space="preserve">
<style type="text/css">
	.st0{fill:#FFFFFF;}
</style>
<path d="M0,0h512v512H0V0z"/>
<g>
	<path class="st0" d="M82.4,276.3c-12-0.4-23.7-0.4-35.3-1.3c-6-0.4-11.8-2.4-17.7-3.7c-0.9-0.2-1.9-0.6-2.5-1.2
		c-1.1-1.2-2.8-2.5-2.8-3.9c0-1,1.9-2.8,3.2-3.1c5-1.3,10.1-2.7,15.3-3.2c13.6-1.2,27.3-1.5,40.9,0c0.8,0.1,1.8-0.6,2.6-1
		c0.3-0.2,0.5-0.6,0.8-0.9c6.1-6.1,12.4-5.9,18.1,0.5c1.1,1.2,2,1.5,3.7,1.4c17-1.5,34-1.6,50.9,1.7c2,0.4,4,1.1,5.8,2
		c2.9,1.5,3.2,4.3,0.3,5.6c-4.2,2-8.7,3.6-13.3,4.5c-14.2,2.9-28.6,2.6-43.2,1.6c0,2.8,0,5.5,0,8.6c3.7,0.2,7.4,0.6,11.2,0.6
		c14.4,0.3,28.8,0,42.6-4.6c3.1-1,6.1-2.6,8.6-4.6c6.8-5.1,6.3-14.4-0.9-18.8c-2.6-1.6-5.7-2.6-8.9-4c5.6-2.4,11-4.8,16.4-7.1
		c0.4-0.2,0.7-0.4,1.1-0.5c7.1-2.4,12.1-6.4,16.1-13.4c9.3-16.5,24.8-25.3,43.1-28.8c20.6-3.9,40.3-1.4,58.3,10.1
		c9.3,5.9,16.4,13.9,20.9,24c0.5,1.1,1.6,2.1,2.7,2.5c10.3,4.6,20.7,9,31.3,13.6c-2.2,0.9-4.3,1.6-6.1,2.6
		c-8.8,4.4-9.7,14.3-1.8,20.2c5.7,4.3,12.4,5.8,19.2,6.9c13.4,2.2,27,2.3,40.5,1.3c0.7-0.1,1.4-0.3,2.2-0.4c0-2.8,0-5.5,0-8
		c-9.4,0-18.6,0.5-27.8-0.1c-7.8-0.5-15.6-2.3-23.3-3.7c-1.9-0.3-3.7-1.4-5.3-2.4c-3-1.9-2.9-4.9,0.5-5.9c5.7-1.7,11.5-3.1,17.4-3.6
		c13.3-1.2,26.6-1.4,40,0.2c0.6,0.1,1.3-0.3,1.9-0.7c0.3-0.2,0.5-0.6,0.8-0.9c7.9-7,10.6-6.9,18.3-0.1c1.4,1.2,2.4,1.7,4.2,1.5
		c16.9-1.4,33.8-1.6,50.6,1.7c2.2,0.4,4.3,1.3,6.3,2.3c2.3,1.3,2.5,3.4,0.3,4.9c-2,1.4-4.3,2.5-6.6,3.2c-13.3,3.9-26.9,4.2-40.6,3.9
		c-3.2-0.1-6.3,0-10,0c0,3.5,0,7.4,0.1,11.4c0,0.5,0.8,1.1,1.3,1.5c7.9,5.6,10.4,13.9,6.3,21.7c-4.1,7.9-12.5,10.8-21.6,7.4
		c-16.7-6.3-33.4-12.6-50-19c-28-10.6-55.9-21.3-84-31.7c-2.8-1-6.4-0.2-9.7,0.1c-14.7,1.4-29.3,1.2-44-0.4c-1.3-0.1-2.7,0-3.9,0.5
		c-44,16.7-88,33.4-132,50.1c-10.3,3.9-19.3,0.9-23.2-7.8c-3.7-8.4-0.2-17.8,8.3-21.7c1.7-0.8,2.5-1.7,2.4-3.6
		C82.3,281.5,82.4,278.6,82.4,276.3z"/>
	<path class="st0" d="M294.5,198.2c17.9-6.5,35-12.8,52.2-19c13.4-4.9,26.7-9.9,40.2-14.5c3.8-1.3,8-1.3,12.2-1.9c0-2.7,0-5.4,0-7.8
		c-8,0-15.9,0.5-23.7-0.1c-8.8-0.7-17.5-2.2-26.1-3.6c-2.2-0.4-4.3-1.4-6.2-2.6c-3.3-2-3.2-4.5,0.3-6.1c2.2-1,4.6-1.8,7-2.2
		c15.9-2.6,31.9-3,47.9-1.4c2.3,0.2,4.1,0,5.9-2c1.7-1.9,4.3-3.1,6.7-4.2c1-0.5,2.6-0.3,3.8,0.1c1.5,0.5,3.3,1.1,4.3,2.3
		c3.2,3.8,7.1,3.8,11.7,3.4c14.8-1.1,29.6-0.9,44.2,1.7c2.3,0.4,4.6,1.1,6.7,2.1c1.2,0.6,2.8,2.1,2.8,3.2c0,1.1-1.4,2.9-2.6,3.3
		c-4.4,1.7-8.8,3.4-13.4,4.2c-13.1,2.4-26.3,2.6-39.6,1.5c-0.8-0.1-1.6,0-2.6,0c0,2.8,0,5.5,0,8.5c2.7,0.2,5.4,0.7,8,0.6
		c2.5-0.1,3.1,1,3.4,3.2c1.1,8.1-2.6,14.9-10.2,18.1c-21,8.8-42,17.5-63,26.3c-12.7,5.3-25.3,10.6-38.2,16
		C318.6,214.5,308.1,205.1,294.5,198.2z"/>
	<path class="st0" d="M81.1,163c0-2.8,0-5.4,0-8.4c-1.5,0.1-2.8,0.2-4.2,0.3c-15.4,0.8-30.8,0.7-45.8-3.5c-2.2-0.6-4.5-1.6-6.4-2.8
		c-2.9-1.8-2.8-4.7,0.4-5.8c4.7-1.6,9.6-3,14.6-3.5c13.9-1.4,27.9-1.8,41.8-0.3c1.2,0.1,2.6-1,3.9-1.5c0.1,0,0.1-0.1,0.2-0.2
		c7.8-6.6,10.2-6.5,17.7,0c1.8,1.5,3.2,2,5.4,1.8c16.1-1.6,32.2-1.3,48.2,1.3c2.2,0.4,4.5,1,6.4,2c1.3,0.6,2.8,2.1,3,3.3
		c0.1,1-1.4,2.8-2.6,3.3c-4.4,1.7-8.8,3.3-13.4,4.2c-13.1,2.4-26.3,2.6-39.6,1.5c-0.8-0.1-1.6,0-2.6,0c0,2.8,0,5.5,0,8.5
		c3.5,0.2,7,0.3,10.4,0.7c3.6,0.5,7.3,0.9,10.7,2.1c28.8,10.3,57.5,20.8,86.2,31.2c0.2,0.1,0.3,0.2,0.3,0.2
		c-5.7,4.1-11.9,7.7-17.2,12.4c-5.3,4.7-9.7,10.5-14.8,16.2c-6.7-2.8-14-5.8-21.4-8.9c-25.5-10.6-50.9-21.3-76.4-31.8
		c-6.3-2.6-10.1-7.2-11-14C73.8,165.4,75.2,163.7,81.1,163z"/>
	<path class="st0" d="M176.4,366.7c3.7-2.1,7.3-4.1,10.8-6.1c16.1,25.5,38.7,39.9,69,39.9c30.2,0,52.7-14.4,68.8-39.9
		c1.8,1,3.6,2.1,5.5,3.1c1.8,1,3.5,2,5.7,3.2c-18.3,29.1-43.8,45.4-78.3,46.5C221.6,414.5,190.6,393,176.4,366.7z"/>
	<path class="st0" d="M211.8,286.4c6.6-2.5,12.9-5.3,19.4-7.2c3.2-0.9,6.9-0.2,11.2-0.2c-4.5,5.3-5.7,10.6-4.6,16.3
		c0.8,4,3.1,7.3,6.4,9.9c6.6,5.1,16.1,4.7,22.4-1c6.9-6.3,7.5-15,1.7-24.3c11-4.1,20,2.4,29.7,5.5c-2.8,13.7-17,30-37.3,32.2
		C238.2,320.2,218.1,307.2,211.8,286.4z"/>
	<path class="st0" d="M214.2,345.7c18.7,32,64.5,32.5,83.7-0.5c3.6,1.9,7.1,3.9,11.1,6.1c-10.6,18-25.9,28.8-46.5,31.1
		c-24.6,2.7-48.9-10.1-59.3-30.5C207,349.8,210.6,347.7,214.2,345.7z"/>
	<path class="st0" d="M198.7,290.9c-8.3,11.1-13.1,22.6-14.9,35.3c-0.2,1.4-0.5,2.9-0.3,4.3c0.1,1.1,0.6,2.5,1.4,3.2
		c2.3,2.2,2.3,4.2-0.3,6c-3.9,2.7-12.4,2.6-16.2-0.1c-2.6-1.9-2.7-4.2,0-5.9c1.8-1.1,2.1-2.4,2.2-4.3c0.7-10.2,3.3-20,7.6-29.3
		c0.4-0.8,1.1-1.9,1.9-2.2C186,295.8,191.9,293.5,198.7,290.9z"/>
	<path class="st0" d="M317.3,292.4c6.4,2.4,12,4.5,17.4,6.7c1,0.4,2,1.4,2.4,2.4c4,9,6.5,18.3,7.1,28.1c0.1,1.9,0.5,3.1,2.3,4.2
		c2.8,1.7,2.6,3.9-0.1,5.8c-3.8,2.7-12.3,2.7-16.2,0.1c-2.7-1.8-2.7-3.8-0.4-6c0.9-0.8,1.6-2.3,1.5-3.5c-0.9-12.7-5.1-24.4-12.2-35
		C318.8,294.6,318.3,293.8,317.3,292.4z"/>
	<path class="st0" d="M81.2,196.2c8.7,3.6,17.1,7,25.2,10.7c0.8,0.3,1.1,3.1,0.6,4.4c-0.4,1.2-2,2.4-3.3,2.9
		c-6.1,2.6-12.4,2.5-18.6,0.1c-2.7-1.1-4.2-3-4-6.2C81.3,204.4,81.2,200.6,81.2,196.2z"/>
	<path class="st0" d="M82.7,331.1c9.5,1.8,17.5-3.2,26.3-6c0,3.7,0.3,7.1-0.1,10.4c-0.2,1.6-1.7,3.6-3.2,4.3
		c-6.5,3.2-13.3,3.1-19.9,0C81.8,338.2,82.2,334.9,82.7,331.1z"/>
	<path class="st0" d="M406,326.1c4.6,1.6,8.6,3.6,12.9,4.4c4.2,0.9,8.7,0.6,13.2,0.9c1.5,5.1,0,7.9-5.5,9.6
		c-5.4,1.6-10.7,1.5-16-0.4c-3.1-1.1-5-3-4.7-6.6C406.2,331.6,406,329.1,406,326.1z"/>
	<path class="st0" d="M398.5,209.9c9.6-4,18.2-7.6,27.2-11.3c0,4.4,0.2,8.4-0.1,12.4c-0.1,1.1-1.7,2.4-2.9,2.9
		c-6.6,3.1-13.3,3.1-19.9,0.1C401.3,213.2,400.2,211.6,398.5,209.9z"/>
	<path class="st0" d="M250.9,283c4.4-2,8.7-0.9,11.4,2.6c2.7,3.5,2.7,8.2,0,11.7c-2.6,3.4-7.6,4.6-11.6,2.7
		c-3.8-1.8-5.7-5.7-4.9-10.1C250.8,289.2,252,287.8,250.9,283z"/>
</g>
</svg>
