<?xml version="1.0" encoding="utf-8"?>
<!-- Generator: Adobe Illustrator 25.1.0, SVG Export Plug-In . SVG Version: 6.00 Build 0)  -->
<svg version="1.1" id="Calque_1" xmlns="http://www.w3.org/2000/svg" xmlns:xlink="http://www.w3.org/1999/xlink" x="0px" y="0px"
	 viewBox="0 0 113.4 113.4" style="enable-background:new 0 0 113.4 113.4;" xml:space="preserve">
<style type="text/css">
	.st0{fill:#FFFFFF;}
</style>
<g transform="translate(0,0)">
	<path class="st0" d="M56.2,18.3L49,37l-20,6.1l17.9-0.7l-6.1,15.9l17.3-24.9l8.4,10.8L56.2,18.3L56.2,18.3z M64.7,29l6.1,17.2
		l-17.2-1.1l28.9,9.1l-7.8,11.3L96.3,48l-19.7-1.3L64.7,29L64.7,29z M44,45.7l-27.8,1.8l14.8,12l-0.1,21.4l4.7-17.6l13.8,11.2
		L31.1,50.3L44,45.7L44,45.7z M55.9,48.8c-3.8,0-7.5,4.4-11.3,13.1c7.3,13,14.8,14.5,22.6,0C63.5,53.2,59.7,48.8,55.9,48.8
		L55.9,48.8z M56,51.5c1.9,1.4,3.2,5.1,3.2,9.5s-1.3,8-3.2,9.5c-1.9-1.4-3.2-5.1-3.2-9.5S54.1,52.9,56,51.5L56,51.5z M69.9,53.3
		l0.9,30.3l-13.2-3.7l23.6,14.7L76,75.8l12.4-17.4L74.5,70.1L69.9,53.3L69.9,53.3z M38.4,67.4l-7.3,26.8l16.6-10.3L68,90.5
		l-15.2-9.8l14.6-9.1l-28.8,9.5L38.4,67.4L38.4,67.4z"/>
</g>
</svg>
