<?xml version="1.0" encoding="utf-8"?>
<!-- Generator: Adobe Illustrator 25.1.0, SVG Export Plug-In . SVG Version: 6.00 Build 0)  -->
<svg version="1.1" id="Calque_1" xmlns="http://www.w3.org/2000/svg" xmlns:xlink="http://www.w3.org/1999/xlink" x="0px" y="0px"
	 viewBox="0 0 113.4 113.4" style="enable-background:new 0 0 113.4 113.4;" width="512" height="512" xml:space="preserve">
<style type="text/css">
	.st0{fill:#FFFFFF;}
</style>
<g transform="translate(0,0)">
	<path class="st0" d="M85.3,14.2c-3.7,4.6-8.8,9-14.9,12.5c-6.4,3.8-13.2,6-19.4,6.8c0.4,1.1,0.8,2.1,1.2,3.2c2.8,0,5.2-0.1,6.4-0.3
		l1.7-0.3l1.5-0.2v1.8c0,1.1-0.1,2.2-0.2,3.3l10,1.6c0.2,0,0.3,0,0.5,0c2,0,3.8,1.3,4.3,3.3c0.1,0.4,0.2,0.9,0.1,1.3
		c1.1-0.4,2.1-0.8,3.1-1.2l1.7-0.7l0.4,1.8c0.6,2.7,1.1,5.5,1.3,8.5c5.8-2.9,11.1-6.8,15.4-11.8C97.8,37.3,95.5,30,91.5,23
		c-0.1-0.2-0.3-0.4-0.4-0.7l-4.9,12.6c0.9,0.1,1.8,0.6,2.5,1.3c1.7,1.7,1.7,4.5,0,6.3c-1.7,1.7-4.5,1.7-6.3,0
		c-1.6-1.6-1.7-4-0.4-5.7L88.9,19C87.8,17.2,86.6,15.7,85.3,14.2L85.3,14.2z M20.5,29.8c-1.5,3.1-2.8,6.4-3.7,10
		c-2.5,9.3-2.5,18.3-0.5,25.3c2.3-0.5,4.7-0.7,6.9-0.7c0.3,0,0.7,0,1,0c3.7,0.1,7.2,0.8,10.6,2c-0.2-2-0.3-4-0.3-6
		c0-4.9,0.6-9.6,1.6-13.9l0.4-1.8l1.7,0.8C43.4,48,49.9,49.6,57,50c0.9-3.5,1.4-7,1.7-10.4C52.4,40.4,45.3,40,38.1,38
		C31.3,36.2,25.3,33.3,20.5,29.8L20.5,29.8z M61.3,44.3c-0.3,1.8-0.6,3.7-1.1,5.6c2.8,0,5.5-0.3,8.1-0.7c-0.2-0.3-0.3-0.7-0.4-1.1
		c-0.3-1-0.2-1.9,0.2-2.8L61.3,44.3L61.3,44.3z M29.9,44.4l0.7,3.2l-3.8,0.9c1.5,0.9,2.4,2.8,1.9,4.6c-0.6,2.2-2.8,3.5-5,2.9
		s-3.5-2.8-2.9-5c0.1-0.4,0.3-0.9,0.6-1.2l-3.7,0.8L17,47.4L29.9,44.4L29.9,44.4z M98.6,48.4c-4.5,4.5-9.8,8-15.4,10.7
		c0,0.4,0,0.8,0,1.3c0,1.6-0.1,3.2-0.2,4.8c2.9,0.2,5.7-0.3,8-1.7C95.6,60.9,98.2,55.5,98.6,48.4L98.6,48.4z M38.7,49
		c-0.7,3.5-1.1,7.3-1.1,11.2v-0.1c5.4,1.8,11.1,3.1,16.8,3.8l1.3,0.2l0.1,1.3l1,10.6l-3.3,0.3l-0.4-4.7c-0.8,0.3-1.7,0.4-2.6,0.2
		c-2.2-0.6-3.5-2.8-2.9-5c0.1-0.2,0.1-0.4,0.2-0.5c-3.5-0.7-6.8-1.5-10.1-2.6c0.5,8.8,2.9,16.6,6.4,22.4c4,6.5,9.2,10.2,14.8,10.2
		s10.9-3.7,14.8-10.2c3.5-5.6,5.8-13.3,6.3-21.8c-2.8,0.8-5.6,1.5-8.5,2.1c0.3,0.8,0.4,1.7,0.2,2.6c-0.6,2.2-2.8,3.5-5,2.9
		c-0.1,0-0.3-0.1-0.4-0.1l-0.4,4.7L62.6,76l1-10.6l0.1-1.3l1.3-0.2c5.2-0.6,10.2-1.7,15.1-3.2v-0.3c0-3.8-0.4-7.5-1.1-10.9
		C73.4,51.7,66.7,53,59.5,53C51.8,53,44.6,51.5,38.7,49L38.7,49z M23.2,67.7c-1.9,0-3.9,0.2-5.9,0.6c2.2,5.6,5.9,9.4,10.4,10.6
		c3,0.8,6.2,0.4,9.3-0.9c-0.8-2.5-1.4-5.1-1.8-7.8C31.5,68.5,27.5,67.6,23.2,67.7L23.2,67.7z M47.5,81.9h23.1
		C63.6,89.7,54.3,89.4,47.5,81.9L47.5,81.9z"/>
</g>
</svg>
