<?xml version="1.0" encoding="utf-8"?>
<!-- Generator: Adobe Illustrator 26.0.1, SVG Export Plug-In . SVG Version: 6.00 Build 0)  -->
<svg version="1.1" id="Calque_1" xmlns="http://www.w3.org/2000/svg" xmlns:xlink="http://www.w3.org/1999/xlink" x="0px" y="0px"
	 viewBox="0 0 113.4 113.4" style="enable-background:new 0 0 113.4 113.4;" xml:space="preserve">
<style type="text/css">
	.st0{fill:#FFFFFF;}
</style>
<g>
	<path class="st0" d="M3.3,86.2c1.5-5.5,5.3-9.1,10.3-11.1c5.7-2.3,11.6-3.9,17.5-5.8c0.4-0.1,1.3,0.1,1.6,0.5
		c1.6,2.4,3.2,4.9,4.8,7.3c-4.6,1.2-9.1,2.1-13.4,3.5c-3.2,1.1-6.3,2.6-9.2,4.4c-3.1,1.9-3.2,3.9,0,5.7c3.7,2.1,7.6,4,11.6,5.2
		c13.5,4,27.3,4.2,41.2,3.3c8.3-0.5,16.5-1.9,24.3-5c2.3-0.9,4.6-2.1,6.7-3.5c3.1-2.1,3.2-4,0-5.7c-3.9-2.2-8.1-3.9-12.3-5.4
		c-3.2-1.1-6.6-1.6-10.3-2.4c1.7-2.6,3.3-5.1,5-7.7c0.2-0.3,1-0.4,1.4-0.3c5.9,1.9,11.8,3.4,17.5,5.8c4.9,2,8.8,5.6,10.3,11.1
		c0,1.1,0,2.2,0,3.3c-1.3,4.8-4.6,8-8.8,10.4c-6.3,3.6-13.1,5.5-20.1,6.8c-14.5,2.7-29.1,2.9-43.8,0.9c-8.1-1.1-16.1-2.9-23.4-6.5
		c-5-2.5-9.3-5.7-10.9-11.5C3.3,88.4,3.3,87.3,3.3,86.2z"/>
	<path class="st0" d="M58.5,4.1c13.3,0.6,27.1,10.7,29.3,27.6c0.8,6-0.9,11.5-3.3,16.8c-5.8,12.8-13.6,24.4-22,35.7
		c-2.8,3.7-8.7,3.9-11.4,0.2c-9.2-12.6-18-25.4-23.8-40.1c-6.6-16.8,6-38.3,26.4-40C55.4,4.2,57,4.1,58.5,4.1z M56.7,47.7
		c7.3,0,13.1-5.7,13.1-12.8c0.1-7.2-5.9-13.2-13.1-13.2c-7.1,0-13,5.9-13,13.1C43.7,41.9,49.5,47.7,56.7,47.7z"/>
</g>
</svg>
