<?xml version="1.0" encoding="utf-8"?>
<!-- Generator: Adobe Illustrator 26.1.0, SVG Export Plug-In . SVG Version: 6.00 Build 0)  -->
<svg version="1.1" id="Calque_1" xmlns="http://www.w3.org/2000/svg" xmlns:xlink="http://www.w3.org/1999/xlink" x="0px" y="0px"
	 viewBox="0 0 113.4 113.4" style="enable-background:new 0 0 113.4 113.4;" xml:space="preserve">
<style type="text/css">
	.st0{fill:#FFFFFF;}
</style>
<g transform="translate(0,0)">
	<path class="st0" d="M56.5,6.1l-3.7,13.7c-0.2,0.5-0.4,1.1-0.4,1.7c0,2.3,1.8,4.1,4.1,4.1c2.3,0,4.1-1.8,4.1-4.1c0-0.2,0-0.3,0-0.5
		h0l0,0c0-0.4-0.2-0.8-0.3-1.2L56.5,6.1L56.5,6.1z M81.7,12.9l-9.9,9.8c-1.3,0.7-2.2,2.1-2.2,3.6c0,2.3,1.8,4.1,4.1,4.1
		c0.1,0,0.3,0,0.4,0c1.6,1.1,3.2,2.4,4.6,3.8c12.3,12.3,12.3,32.3,0,44.7c-1.4,1.4-3,2.7-4.6,3.8c-0.1,0-0.3,0-0.4,0
		c-2.3,0-4.1,1.8-4.1,4.1c0,1.5,0.8,2.8,2,3.5l10,9.9l-4-15.1c1.4-1,2.7-2.2,4-3.4l1.4-1.4L83,80.1c0.7-0.8,1.3-1.6,2-2.4l15.2,4
		l-11-11.1c1.4-3.2,2.3-6.6,2.7-10l15.1-4.1l-15.1-4.1c-0.4-3.4-1.3-6.7-2.6-9.9l10.9-11l-15,3.9c-1-1.4-2.2-2.7-3.4-4
		c-1.2-1.2-2.5-2.4-3.9-3.4L81.7,12.9L81.7,12.9z M31.3,12.9L35,26.8c0,0.4,0.1,0.7,0.3,1.1l0,0.1c-1.4,1-2.7,2.1-3.9,3.4
		c-1.3,1.3-2.4,2.6-3.4,4l-15-3.9l10.9,11.1c-1.4,3.2-2.2,6.5-2.6,9.9L6.1,56.5l15.1,4.1c0.4,3.4,1.3,6.8,2.7,10l-11,11.1l15.1-4
		c1,1.3,2.1,2.6,3.3,3.9c1.2,1.2,2.6,2.4,3.9,3.4c-0.2,0.5-0.3,1-0.4,1.5l-3.6,13.5l10.4-10.3l0,0c0.8-0.8,1.3-1.8,1.3-3
		c0-2.3-1.8-4.1-4.1-4.1c-0.1,0-0.2,0-0.3,0c-1.6-1.1-3.2-2.4-4.6-3.8c-12.3-12.3-12.3-32.3,0-44.7c1.4-1.4,3-2.7,4.6-3.8
		c0.1,0,0.2,0,0.3,0c2.3,0,4.1-1.8,4.1-4.1c0-1.3-0.6-2.5-1.6-3.3L31.3,12.9L31.3,12.9z M58.5,32v10.5l7.2,4.1l9.9-5.3L58.5,32
		L58.5,32z M54.5,32.1l-17,9.2l9.9,5.3l7.1-4.1L54.5,32.1L54.5,32.1z M35.5,44.7V69l9.9-5.3V50L35.5,44.7z M77.5,44.7l-9.9,5.4v13.6
		l9.9,5.4V44.7L77.5,44.7z M56.5,46l-7.2,4.1v13.7l7.2,4.1l7.1-4.1V50L56.5,46L56.5,46z M65.7,67.2l-7.2,4.1v10l16.7-9.1L65.7,67.2
		L65.7,67.2z M47.3,67.2l-9.5,5.1l16.7,9v-10L47.3,67.2L47.3,67.2z M56.5,87.3c-2.3,0-4.1,1.8-4.1,4.1c0,0.6,0.1,1.1,0.3,1.6
		l3.8,13.8L60.3,93c0.1-0.3,0.2-0.6,0.3-0.9l0,0h0c0-0.2,0-0.4,0-0.6C60.6,89.1,58.8,87.3,56.5,87.3L56.5,87.3z"/>
</g>
</svg>
