<?xml version="1.0" encoding="utf-8"?>
<!-- Generator: Adobe Illustrator 26.0.1, SVG Export Plug-In . SVG Version: 6.00 Build 0)  -->
<svg version="1.1" id="Calque_1" xmlns="http://www.w3.org/2000/svg" xmlns:xlink="http://www.w3.org/1999/xlink" x="0px" y="0px"
	 viewBox="0 0 113.4 113.4" style="enable-background:new 0 0 113.4 113.4;" width="512" height="512" xml:space="preserve">
<style type="text/css">
	.st0{fill:#FFFFFF;}
</style>
<g>
	<path class="st0" d="M110.7,57.1c-0.4,0.9-1.1,1.3-2.2,1.2c-1-0.1-1.9,0-2.9,0c-0.4,0-0.6,0.1-0.6,0.6C104.3,72,99.2,83.1,89.6,92
		c-7.6,7.1-16.7,11.3-27,12.6c-1.1,0.1-2.2,0.2-3.3,0.4c-1.7,0-3.5,0-5.2,0c-1.1-0.1-2.3-0.2-3.4-0.4c-9.8-1.2-18.4-5.1-25.8-11.6
		c-0.7-0.6-1.4-1.3-2.1-1.9c-0.3-0.2-0.3-0.4,0-0.6c0.6-0.5,1.1-1.1,1.7-1.7c0.3-0.4,0.5-0.4,0.9,0c2.8,2.7,5.9,5.1,9.3,7
		c7.9,4.4,16.3,6.3,25.3,5.7c17.7-1.3,32.9-12.7,39.1-29.3c1.8-4.7,2.7-9.6,2.8-14.7c0-0.3,0-0.5,0-0.8c0.1-1.1,0.7-1.7,1.7-1.7
		c0.8,0,1.5,0,2.3,0c0,0,0.1,0,0.2-0.1c-2.4-4-4.8-8.1-7.2-12.1c-0.3,0.1-0.3,0.3-0.4,0.4c-2.2,3.7-4.4,7.4-6.7,11.2
		C91.3,55,91.3,55,92,55c0.5,0,1.1,0,1.6,0c0.9,0.1,1.5,0.8,1.5,1.7c-0.1,4.3-0.6,8.5-2.2,12.5c-5.3,13.9-15.2,22.3-29.7,25.3
		c-2,0.4-4,0.5-6,0.6c-0.5,0-0.7-0.2-0.6-0.7c0-0.7,0-1.4,0-2c0-0.6,0.1-0.7,0.7-0.7c4.2,0,8.3-0.8,12.1-2.4
		C81.7,84.1,89,75,91.3,62c0.2-1,0.2-2,0.4-3c0.1-0.4-0.1-0.6-0.5-0.6c-0.9,0-1.8,0-2.7,0c-1.5,0-2.3-1.3-1.5-2.6
		c3.4-5.7,6.8-11.4,10.2-17.1c0.7-1.2,2.2-1.2,3,0c3.4,5.7,6.8,11.4,10.2,17.1c0.1,0.2,0.2,0.3,0.3,0.5
		C110.7,56.5,110.7,56.8,110.7,57.1z"/>
	<path class="st0" d="M7.4,58.4c2.5,4.2,4.9,8.2,7.3,12.2c0.3-0.1,0.3-0.3,0.4-0.4c2.2-3.7,4.4-7.4,6.6-11.2
		c0.1-0.2,0.3-0.3,0.2-0.5c-0.1-0.2-0.4-0.1-0.6-0.1c-0.5,0-1,0-1.5,0c-1,0-1.6-0.7-1.6-1.7C18.4,37.2,32.4,22.1,49.6,19
		c2.2-0.4,4.3-0.6,6.6-0.7c0.4,0,0.6,0.1,0.5,0.5c0,0.7,0,1.4,0,2.2c0,0.5-0.1,0.7-0.7,0.7c-5.2,0.1-10.1,1.2-14.7,3.5
		c-10.7,5.5-17.2,14.2-19.3,26.1c-0.2,1-0.2,2-0.4,3c-0.1,0.5,0,0.7,0.6,0.7c0.9,0,1.7,0,2.6,0c1.6,0,2.3,1.3,1.5,2.7
		c-3.4,5.7-6.7,11.3-10.1,17c-0.8,1.3-2.3,1.3-3.1,0C9.8,69,6.5,63.4,3.1,57.7C2.3,56.3,3,55,4.6,55c0.9,0,1.8,0,2.7,0
		c0.4,0,0.6-0.1,0.6-0.6c0.7-13,5.8-24,15.3-33c7.1-6.7,15.6-11,25.3-12.4c15.9-2.4,29.7,2,41.5,13c0.4,0.4,0.5,0.7,0,1
		c-0.5,0.4-1,0.9-1.4,1.4c-0.3,0.4-0.5,0.4-0.9,0c-2.1-2.1-4.5-4-7-5.6c-6-3.8-12.5-6.1-19.5-6.8C40.5,10,21.6,21.6,14.2,40.9
		c-1.9,5-2.8,10.2-2.9,15.6c0,1.3-0.6,1.9-2,1.9C8.7,58.4,8.1,58.4,7.4,58.4z"/>
	<path class="st0" d="M56.7,31.5c1.4,0,2.9,0,4.3,0c1.2,0,1.8,0.7,1.8,1.8c0,1,0,2.1,0,3.1c0,0.4,0.1,0.6,0.5,0.7
		c0.9,0.3,1.8,0.6,2.6,1.1c0.3,0.2,0.5,0.1,0.8-0.1c0.7-0.7,1.4-1.5,2.2-2.2c0.9-0.9,1.8-0.9,2.7,0c2,2,4,4,6,6
		c0.9,0.9,0.9,1.8,0,2.7c-0.7,0.7-1.4,1.5-2.2,2.2c-0.3,0.2-0.3,0.4-0.1,0.8c0.4,0.8,0.8,1.7,1.1,2.6c0.1,0.3,0.3,0.4,0.6,0.4
		c1,0,2,0,3.1,0c1.3,0,1.9,0.6,1.9,1.9c0,2.8,0,5.7,0,8.5c0,1.2-0.6,1.9-1.8,1.9c-1,0-2,0-3.1,0c-0.4,0-0.6,0.1-0.7,0.5
		c-0.3,0.9-0.6,1.7-1,2.5c-0.2,0.3-0.1,0.5,0.1,0.8c0.8,0.7,1.5,1.5,2.2,2.2c0.8,0.8,0.8,1.8,0,2.6c-2,2-4.1,4.1-6.1,6.1
		c-0.8,0.8-1.8,0.8-2.6,0c-0.7-0.7-1.5-1.5-2.2-2.2c-0.2-0.2-0.4-0.3-0.7-0.1c-0.8,0.4-1.7,0.8-2.6,1.1c-0.4,0.1-0.5,0.3-0.5,0.7
		c0,1,0,2,0,3.1c0,1.2-0.7,1.8-1.8,1.8c-2.9,0-5.8,0-8.7,0c-1.1,0-1.8-0.7-1.8-1.8c0-1.1,0-2.1,0-3.2c0-0.3-0.1-0.5-0.4-0.6
		c-0.9-0.3-1.8-0.6-2.6-1.1c-0.3-0.2-0.5-0.1-0.7,0.1c-0.7,0.7-1.5,1.5-2.2,2.2c-0.8,0.8-1.8,0.8-2.6,0c-2.1-2-4.1-4.1-6.1-6.1
		c-0.8-0.8-0.8-1.8,0-2.5c0.7-0.8,1.5-1.5,2.3-2.3c0.2-0.2,0.3-0.4,0.1-0.7c-0.4-0.8-0.8-1.7-1.1-2.6c-0.1-0.4-0.3-0.5-0.7-0.5
		c-1,0-2,0-3.1,0c-1.2,0-1.9-0.7-1.9-1.9c0-2.8,0-5.7,0-8.5c0-1.2,0.6-1.9,1.9-1.9c1,0,2,0,3,0c0.4,0,0.6-0.1,0.8-0.5
		c0.3-0.9,0.6-1.7,1-2.5c0.2-0.3,0.1-0.5-0.1-0.7c-0.8-0.7-1.5-1.5-2.2-2.2c-0.8-0.8-0.8-1.8,0-2.6c2-2,4-4,6.1-6
		c0.9-0.9,1.8-0.9,2.7,0c0.7,0.7,1.5,1.4,2.2,2.2c0.3,0.3,0.5,0.3,0.8,0.1c0.8-0.4,1.7-0.8,2.5-1c0.4-0.1,0.5-0.3,0.5-0.7
		c0-1,0-2.1,0-3.1c0-1.1,0.7-1.8,1.8-1.8C53.8,31.5,55.3,31.5,56.7,31.5z M56.7,78.5c0.7,0,1.5,0,2.2,0c0.5,0,0.6-0.2,0.6-0.6
		c0-0.9,0-1.7,0-2.6c0-1,0.4-1.6,1.4-1.8c1.7-0.4,3.3-1.1,4.8-2c0.8-0.5,1.6-0.4,2.2,0.3c0.7,0.6,1.3,1.3,1.9,1.9
		c0.3,0.3,0.4,0.3,0.7,0c1.1-1.1,2.2-2.2,3.3-3.3c0.3-0.3,0.2-0.4,0-0.7c-0.7-0.6-1.3-1.3-1.9-1.9c-0.7-0.7-0.8-1.4-0.3-2.2
		c0.9-1.5,1.5-3.1,2-4.8c0.2-0.9,0.8-1.3,1.8-1.3c0.9,0,1.8,0,2.7,0c0.4,0,0.5-0.1,0.5-0.5c0-1.5,0-3,0-4.6c0-0.4-0.2-0.5-0.5-0.5
		c-0.9,0-1.8,0-2.7,0c-1,0-1.6-0.4-1.8-1.4c-0.4-1.7-1.1-3.2-1.9-4.7c-0.5-0.9-0.4-1.6,0.3-2.3c0.6-0.7,1.3-1.3,1.9-1.9
		c0.3-0.3,0.3-0.4,0-0.7c-1.1-1.1-2.2-2.2-3.3-3.3c-0.3-0.3-0.4-0.2-0.7,0c-0.6,0.6-1.3,1.3-1.9,1.9c-0.7,0.7-1.5,0.8-2.4,0.3
		c-1.5-0.9-3-1.5-4.6-1.9c-1.1-0.3-1.5-0.8-1.5-1.9c0-0.9,0-1.8,0-2.7c0-0.3-0.1-0.4-0.5-0.4c-1.5,0-3.1,0-4.6,0
		c-0.4,0-0.5,0.2-0.5,0.5c0,0.9,0,1.8,0,2.7c0,1-0.4,1.6-1.4,1.8c-1.7,0.4-3.3,1.1-4.7,2c-0.8,0.5-1.6,0.4-2.3-0.3
		c-0.7-0.6-1.3-1.3-1.9-1.9c-0.3-0.3-0.4-0.3-0.7,0c-1.1,1.1-2.1,2.2-3.2,3.2c-0.3,0.3-0.3,0.4,0,0.7c0.7,0.7,1.4,1.3,2,2
		c0.6,0.6,0.7,1.3,0.3,2.1c-0.9,1.5-1.6,3.2-2,4.9c-0.2,0.9-0.8,1.3-1.7,1.3c-0.9,0-1.9,0-2.8,0c-0.4,0-0.5,0.1-0.5,0.5
		c0,1.5,0,3,0,4.6c0,0.5,0.2,0.5,0.6,0.5c0.9,0,1.8,0,2.7,0c1,0,1.5,0.4,1.8,1.4c0.4,1.7,1.1,3.3,2,4.7c0.5,0.8,0.4,1.5-0.3,2.3
		c-0.7,0.7-1.3,1.3-2,2c-0.2,0.2-0.3,0.4,0,0.6c1.1,1.1,2.2,2.2,3.3,3.3c0.3,0.3,0.4,0.2,0.6,0c0.6-0.7,1.3-1.3,1.9-1.9
		c0.7-0.7,1.4-0.8,2.3-0.3c1.5,0.9,3,1.5,4.7,1.9c1.1,0.3,1.5,0.8,1.5,1.9c0,0.9,0,1.7,0,2.6c0,0.4,0.1,0.5,0.5,0.5
		C55.2,78.4,55.9,78.5,56.7,78.5z"/>
	<path class="st0" d="M66.7,56.7c0,5.5-4.5,10-9.9,10c-5.5,0-10-4.4-10-9.9c0-5.5,4.4-10,9.9-10C62.2,46.7,66.7,51.2,66.7,56.7z
		 M63.3,56.7c0-3.6-3-6.6-6.6-6.6c-3.6,0-6.6,3-6.6,6.6c0,3.6,3,6.6,6.6,6.6C60.3,63.3,63.3,60.3,63.3,56.7z"/>
</g>
</svg>
