<?xml version="1.0" encoding="utf-8"?>
<!-- Generator: Adobe Illustrator 25.1.0, SVG Export Plug-In . SVG Version: 6.00 Build 0)  -->
<svg version="1.1" id="Calque_1" xmlns="http://www.w3.org/2000/svg" xmlns:xlink="http://www.w3.org/1999/xlink" x="0px" y="0px"
	 viewBox="0 0 113.4 113.4" style="enable-background:new 0 0 113.4 113.4;" xml:space="preserve">
<style type="text/css">
	.st0{fill:#FFFFFF;}
</style>
<g transform="translate(0,0)">
	<path class="st0" d="M72.4,17.8l-6.2,14.3l6.6,2.9L79,20.7L72.4,17.8L72.4,17.8z M41,17.9l-6.7,2.7L40.2,35l6.7-2.7L41,17.9
		L41,17.9z M46.2,18.9l-1.4,0.6l4.8,11.7l1.1,2.7L48,35l-6.7,2.7l-2.7,1.1l-1.1-2.7l-4.8-11.6l-1.9,0.8c6,8,4.7,19.3-3,25.7v6.1
		h15.6v13H27.9v2.4h15.6v13H27.9v6.4c2.8,2.8,15.8,4.2,28.8,4.2s26-1.4,28.8-4.2v-6.4H69.9v-13h15.6v-2.4H69.9v-13h15.6V51
		c-7.7-6.4-9-17.7-3-25.7l-1.9-0.8l-5,11.6l-1.1,2.7l-2.7-1.1l-6.6-2.8l-2.7-1.1l1.1-2.7l4.9-11.5l-1.3-0.5
		C64,24.9,56.6,27,50.8,23.8C48.9,22.5,47.3,20.9,46.2,18.9L46.2,18.9z M25,60v7.2h15.6V60H25z M72.8,60v7.2h15.6V60H72.8z M25,75.4
		v7.2h15.6v-7.2H25L25,75.4z M72.8,75.4v7.2h15.6v-7.2H72.8L72.8,75.4z"/>
</g>
</svg>
