<?xml version="1.0" encoding="utf-8"?>
<!-- Generator: Adobe Illustrator 26.0.1, SVG Export Plug-In . SVG Version: 6.00 Build 0)  -->
<svg version="1.1" id="Calque_1" xmlns="http://www.w3.org/2000/svg" xmlns:xlink="http://www.w3.org/1999/xlink" x="0px" y="0px"
	 viewBox="0 0 113.4 113.4" style="enable-background:new 0 0 113.4 113.4;" width="512" height="512" xml:space="preserve">
<style type="text/css">
	.st0{fill:#FFFFFF;}
</style>
<g>
	<path class="st0" d="M13.6,59.2c0-1.6,0-3.2,0-4.8c0.1-0.7,0.3-1.5,0.3-2.2c1.9-20.1,18.5-37.4,40.6-38.5
		C76,12.6,93.7,27.2,98.4,46c0.6,2.6,0.8,5.2,1.4,7.8c0,1.9,0,3.8,0,5.7c-0.6,3.4-1,6.8-2,10.1C92,88,74.6,100.3,55.4,99.7
		c-19.5-0.6-36-14.1-40.6-33C14.3,64.3,14.1,61.7,13.6,59.2z M78.9,89.3c0.3,0,0.4,0,0.4,0c0.6-0.4,1.1-0.8,1.7-1.2
		C91.3,79.7,96.5,69,96.3,55.7C96.1,34.4,77.5,16.5,56.2,17C44,17.4,35.5,29.6,39.5,41c2.6,7.5,9.2,12.1,17.6,12.4
		c15.3,0.4,26.4,13.7,24,28.8C80.7,84.7,79.8,87,78.9,89.3z M56.7,75.6c-3.3,0-6.1,2.8-6.1,6.1c0,3.3,2.8,6,6.1,6c3.3,0,6-2.7,6-6
		C62.8,78.3,60,75.6,56.7,75.6z"/>
	<path class="st0" d="M49,33.1c0-3.4,2.9-6.2,6.3-6.2c3.5,0,6.2,2.9,6.1,6.3c-0.1,3.5-2.8,6.1-6.4,6.1C51.7,39.2,49,36.5,49,33.1z"
		/>
</g>
</svg>
