<?xml version="1.0" encoding="utf-8"?>
<!-- Generator: Adobe Illustrator 25.1.0, SVG Export Plug-In . SVG Version: 6.00 Build 0)  -->
<svg version="1.1" id="Calque_1" xmlns="http://www.w3.org/2000/svg" xmlns:xlink="http://www.w3.org/1999/xlink" x="0px" y="0px"
	 viewBox="0 0 113.4 113.4" style="enable-background:new 0 0 113.4 113.4;" width="512" height="512" xml:space="preserve">
<style type="text/css">
	.st0{fill:#FFFFFF;}
</style>
<g transform="translate(0,0)">
	<path class="st0" d="M46.3,22.1c-0.8,0-1.7,0.4-2.2,1s-0.7,1.2-0.8,1.8C43.1,26,43.2,27,43.4,28c0.1,0.4,0.2,0.8,0.2,1.2h4.2
		c-0.2-0.6-0.3-1.2-0.4-1.9c-0.1-0.5-0.1-0.9-0.1-1.2h19.6c0,0.3,0,0.8-0.1,1.2c-0.1,0.7-0.3,1.3-0.4,1.9h4.2
		c0.1-0.4,0.2-0.8,0.2-1.2c0.2-1,0.3-2,0.1-3.1c-0.1-0.6-0.3-1.2-0.8-1.8c-0.5-0.6-1.4-1-2.2-1H46.3z M22.7,25.7v4H34v-4H22.7z
		 M80.2,25.7v4h11.2v-4H80.2z M21.1,33.4c-1.1,0-2.5,0.6-3.5,1.7c-1,1-1.7,2.4-1.7,3.5v46.7c0,1.1,0.6,2.5,1.7,3.5
		c1,1,2.4,1.7,3.5,1.7h5.2V33.4H21.1z M30.4,33.4v57.1h53.5V33.4H30.4z M87.9,33.4v57.1h5.2c1.1,0,2.5-0.6,3.5-1.7
		c1-1,1.7-2.4,1.7-3.5V38.6c0-1.1-0.6-2.5-1.7-3.5c-1-1-2.4-1.7-3.5-1.7C93.1,33.4,87.9,33.4,87.9,33.4z"/>
</g>
</svg>
