<?xml version="1.0" encoding="utf-8"?>
<!-- Generator: Adobe Illustrator 26.0.3, SVG Export Plug-In . SVG Version: 6.00 Build 0)  -->
<svg version="1.1" id="Calque_1" xmlns="http://www.w3.org/2000/svg" xmlns:xlink="http://www.w3.org/1999/xlink" x="0px" y="0px"
	 viewBox="0 0 113.4 113.4" style="enable-background:new 0 0 113.4 113.4;" width="512" height="512" xml:space="preserve">
<style type="text/css">
	.st0{fill:#FFFFFF;}
</style>
<g>
	<path class="st0" d="M21.9,46.7c-0.5,1.2-1.2,2.4-1.6,3.7c-1.1,4.3-1.1,8.5,0,12.8c0.6,2.6,1.5,5,2.6,7.4c1.4,2.8,3.6,4.9,6.1,6.7
		c4.2,3.1,8.8,5.5,13.4,7.9c1.1,0.6,2.2,1.1,3.2,1.7c2.1,1.2,4.4,1.7,6.8,2c1.4,0.2,2.7,0.3,4.1,0.6c1.1,0.2,2.2,0.3,3.4,0.1
		c1.5-0.2,3-0.3,4.5-0.4c0.3-1.7,0.5-3.5,0.2-5.2c-0.2-1.5-0.5-3-0.9-4.5c-0.4-1.8-0.2-3.5,0.8-5c0.7-1.1,0.8-2.1,0.5-3.3
		c-0.3-1.1-0.7-2.3-1.1-3.4c-0.5-1.3-0.7-2.7-0.6-4.2c0-0.6,0.1-1.2,0.1-1.8c0-0.2-0.1-0.4-0.2-0.5c-0.2-0.3-0.5-0.6-0.8-0.9
		c-0.7-0.7-0.8-0.8-0.2-1.7c1-1.5,1-3.1,1.1-4.7c0-0.9,0-1.8,0.1-2.7c0.1-0.8-0.3-1.5-1.1-1.7c-1-0.3-2.1-0.6-3.1-0.7
		c-1.1-0.1-2.3-0.1-3.4-0.6c-0.5-0.2-1.3-0.1-1.9,0c-0.4,0.1-0.6-0.1-0.6-0.4c0-0.1,0-0.2,0-0.3c-0.1-1.1-0.5-1.9-1.7-2.6
		c-2.3-1.4-4.2-3.3-5.9-5.3c-0.2-0.3-0.5-0.5-0.8-0.7c-1.3-0.7-2.5-1.5-3.8-2.1c-0.6-0.3-1.4-0.3-2-0.3c-1.6-0.1-3-0.7-3.9-2.2
		c-1.9-3-4.8-4.9-7.7-6.6c-0.4-0.2-1-0.3-1.5-0.3c-1.1,0-1.6-0.4-2-1.4c-0.2-0.5-0.5-0.9-0.9-1.2c-0.6-0.4-1.2-0.7-1.9-1
		c-0.9-0.4-1.4-1-1.7-1.8c-0.1-0.4-0.4-0.7-0.7-1c-0.6-0.5-0.5-1.1,0.3-1.7c0.5-0.4,1.1-0.8,1.7-1.2c0.1-0.1,0.4-0.1,0.5-0.1
		c1.1,0.5,2.1,1.1,2.7,2.2c0.4,0.9,1.1,1.6,1.9,2.2c4.1,3.4,8.9,5.3,13.7,7.3c1,0.4,1.9,1,2.9,1.5c0.7,0.3,1.5,0.4,2.3,0.6
		c0.6,0.2,1.3,0.4,1.9,0.7c0.6,0.2,1.1,0.6,1.6,0.8c1.4,0.4,2.8,0.8,4.2,1.1c1,0.3,1.1,0.2,1.9-0.6c3.5,1.9,7.4,3.3,10.7,5.3
		c0.5-0.1,0.9-0.1,1.3-0.2c0,0,0.1,0,0.1,0c0.5-0.3,1-0.6,1.4-0.9c0.1-0.1,0.3-0.2,0.4-0.2c1-0.2,1.5-0.9,2-1.6
		c0.3-0.4,0.7-0.8,1-1.2c0.2-0.2,0.4-0.5,0.5-0.8c0.3-0.7,0.6-1.5,0.9-2.2c0.2-0.5,0.3-1.1,0.4-1.6c0.4-1.3,0.9-2.6,1.3-3.9
		c-0.4,0-0.9,0.1-1.5,0.1c-1,0-2-0.1-3-0.1c-0.4,0-0.6,0.1-0.7,0.5c-0.2,0.7-0.3,1.4,0.2,2.1c0.3,0.5,0.6,0.9,0.9,1.4
		c0.1,0.3,0.1,0.7,0.1,1c-0.5-0.2-0.7-1.1-1.3-0.1c-0.1-1.3-0.3-2.5-0.4-3.7c-1.1,1.3-1,3.1,0.1,4.3c-0.4,0-0.9,0-1.5,0
		c-0.5-1-0.6-2.2,0.1-3.4c0.3-0.5,0.6-1.1,1-1.6c0.3-0.5,0.1-0.8-0.4-0.9c-2.6-0.8-5.3-1-8-0.2c-0.8,0.2-1.8-0.1-2.7-0.2
		c-1-0.1-2-0.2-3.1-0.3c-0.3,0-0.5-0.1-0.7-0.3c-0.8-0.5-1.6-0.4-2.3,0.2c-0.5,0.4-0.9,0.9-1.4,1.4c-1.3,1.1-3,0.6-3.8-0.9
		c-0.4-0.7-0.2-1.2,0.1-1.9c0.2-0.5,0.4-1,0.5-1.4c0.1-0.4,0.4-0.7,0.9-0.7c1.5-0.1,3.1-0.2,4.6-0.4c1.1-0.1,2.2-0.3,3.3-0.4
		c0.1,0,0.3,0,0.3-0.1c1-0.8,2-0.3,3-0.2c1.3,0.2,2.6,0.5,3.9,0.7c0.7,0.1,1.4-0.1,2.1-0.1c1-0.1,2-0.2,3-0.2c1.9,0,3.9-0.1,5.6-0.9
		c2.2-1.1,4.3-0.9,6.5-0.1c0.9,0.4,1.8,0.6,2.8,0.9c0.5-1.4,0.3-2.5-0.4-3.7c0.3-0.3,0.7-0.6,1.1-0.8c0.7-0.4,1.1-0.9,1.2-1.8
		c0-0.4,0.2-0.8,0.4-1.2c-0.2,0-0.3,0-0.5,0c-0.1-0.3-0.2-0.6-0.2-0.9c0.5-0.4,0.8-0.9,0.9-1.6c0.3-0.2,0.6-0.3,1-0.5
		c0.6,0,1.4,0.1,2.2,0.1c1.9,0.2,3.8,0.6,5.2,2c0.4,0.4,0.8,0.9,1.1,1.3c0.2,0.3,0.4,0.6,0.4,1c0,1.1,0,2.1-0.2,3.2
		c-0.1,0.6-0.6,1.3-1,1.6c-0.7,0.6-1.7,1-2.5,1.4c-0.2,0.1-0.3,0.3-0.4,0.4c-0.3,1-0.3,1.9,0.1,2.9c0.7,1.7,1.9,2.9,3.1,4.1
		c1.1,1.1,2.1,2.2,2.3,3.9c0.1,0.7,0.1,1.4,0.2,2.1c0.1,0.7,0.3,1.4,0.5,2c0.3,0.9,0.8,1.8,1.2,2.8c0.6-0.5,1-1.2,1.2-2
		c0.1-0.5,0.5-0.7,0.7-1.1c0.4-0.6,1.3-1,1.4-1.9c0-0.4,0.5-0.8,0.7-1.2c0.1-0.2,0.2-0.5,0.1-0.7c-0.4-1-0.5-1.9-0.1-2.9
		c0.1-0.3,0-0.7,0.1-1.1c0-0.2-0.1-0.3,0-0.5c0.2-0.3,0.4-0.7,0.7-1c0.2,0.3,0.4,0.5,0.6,0.9c0.2-0.3,0.5-0.6,0.8-1
		c-0.2-0.1-0.3-0.1-0.4-0.2c-0.1-0.1-0.2-0.3-0.2-0.5c0-0.1,0.3-0.2,0.4-0.2c0.7,0,1.4,0,1.9,0.8c0.3,0.6,0.9,1.1,1.2,1.7
		c0.2,0.3,0.3,0.7,0.2,0.9c-0.4,1-0.9,2-1.3,2.9c-0.3,0.5-0.8,1-0.2,1.4c-0.1,0.9-0.1,1.7-0.3,2.5c-0.1,0.5-0.3,0.9-0.5,1.3
		c-0.1,0.2-0.1,0.4-0.2,0.5c-0.1,0.2-0.1,0.5-0.2,0.6c-0.7,0.7-0.5,1.6-0.9,2.3c-0.8,1.5,0.2,2.6,0.6,3.8c0,0.1,0.1,0.2,0.1,0.3
		c-0.5,0.2-0.6-0.1-0.7-0.5c-0.2-0.6-0.5-1.2-0.7-1.8c-0.1,0-0.1,0-0.2,0c-0.1,0.2-0.2,0.4-0.3,0.6c-0.7,1.8-2,3.1-4,3.3
		c-1.5,0.2-2-0.1-2.7-1.2c-0.4-0.5-0.8-1.1-1.4-1.5c-2.2-1.5-3.4-3.6-3.9-6.1c0-0.2-0.1-0.4-0.1-0.6c-0.2-0.8-0.4-0.9-1.1-0.4
		c-0.8,0.5-1.7,0.8-2.3,1.4c-1.1,1.3-2.5,2.3-3.9,3.3c-1.1,0.8-2,1.8-3.2,2.6c-0.4,0.3-0.6,1-1,1.3c-1.1,0.9-1.3,2.1-1.5,3.3
		c-0.1,0.6-0.3,1.2-1,1.5c-0.2,0.1-0.3,0.4-0.4,0.7c-0.4,0.9-0.8,1.8-1.2,2.8c-0.1,0.2-0.2,0.4-0.2,0.6c0.1,1.4,0,2.7-0.3,4
		c-0.2,1.3-0.2,2.6-0.3,3.9c0,0.2,0,0.5,0,0.8c-0.5,0-1,0-1.5,0c-0.1,0.6-0.1,1.1-0.2,1.6c-0.2,1.4-0.7,2.6-1.4,3.8
		c-0.4,0.7-0.6,1.4-0.5,2.3c0.2,1.4,0.1,2.7-0.6,4c-0.2,0.3-0.2,0.8-0.2,1.2c-0.1,4-0.9,7.8-1.9,11.6c-0.7,2.8-0.6,5.7,0.3,8.4
		c0.3,0.9,0.6,1.8,0.9,2.8c0.2,0.5,0.4,1,0.7,1.5c0.5,0.8,0.3,1.2-0.6,1.3c-0.6,0.1-1.1,0.2-1.7,0.3c-0.2,0-0.4-0.1-0.5,0
		c-0.3,0.2-0.7,0.5-1,0.5c-0.5,0-0.9-0.3-1-0.8c-0.1-0.5-0.2-1.1-0.2-1.6c-0.1-1.5-0.5-3-1.3-4.3c-0.2-0.3-0.4-0.4-0.8-0.4
		c-4.2,0.9-8.5,1.2-12.8,1.5c-0.9,0.1-1.8,0.2-2.7,0.2c0,0.1,0,0.2,0,0.2c1.1,0.1,2.3,0.2,3.5,0.3c-1.3,0-2.4,0.1-3.6,0
		c-2.1-0.2-4.2-0.4-6.2-0.9c-6.1-1.4-11.8-4.1-16.8-7.8c-6.8-5-12.1-11.1-15.7-18.8c-1.6-3.4-2.5-6.9-3-10.6
		c-0.4-3.2-0.7-6.4-0.5-9.6c0.4-6.6,1.7-13,5.4-18.7c1.4-2.2,3-4.2,4.5-6.3c0.4-0.5,0.8-1,1.4-1.3c0.8-0.6,1.5-0.3,1.7,0.6
		c0.4,1.8,0.9,3.5,1.2,5.3c0.2,1.1,0.3,2.1,0.3,3.2c0,0.9-0.3,1-1,0.5c-0.1,0-0.1-0.1-0.2-0.2c-1-0.6-1.4-0.5-1.9,0.5
		c-2,4.2-3.7,8.4-4.4,13c-0.4,2.7-0.6,5.5-0.2,8.3c0.3,2.1,0.5,4.2,0.9,6.3c0.1,0.5,0.3,1,0.5,1.4c0.2,0.5,0.5,0.5,0.8,0
		c0.5-0.8,0.5-1.6,0.3-2.5c-0.4-1.3-0.9-2.6-1.1-3.9c-0.5-2.4-0.4-4.8,0-7.1c0.5-3.1,1.2-6.1,2.3-9.1c0.4-1.1,1.1-2.2,1.7-3.2
		c0.3-0.5,0.9-0.8,1.3-1.2c0.2-0.2,0.5-0.5,0.6-0.8c0.4-0.6,0.9-0.9,1.6-0.9c0.7,0,1.3,0.1,2,0c0.4,0,0.8-0.1,1.1-0.2
		c1-0.4,1.9-0.2,2.3,0.9c0.3,0.5,0.3,1.2,0.6,1.7c0.2,0.4,0.4,0.9,0.7,1.1c1.2,1,1.8,2.4,2.2,3.8c-0.6,0.3-1.3,0.7-1.9,1
		c0,0,0,0,0,0c-1.6,0.3-3,1-4.2,2.2C23,45.3,22.4,46,21.9,46.7z M20.9,82.7c-0.1,0.1-0.1,0.1-0.2,0.2c1.7,1.5,3.3,3,5.1,4.4
		c5.7,4.4,12,7,19.2,7.6c1.2,0.1,2.5,0.3,3.7,0.4c0,0.1,0,0.1,0,0.2c-1.2,0.2-2.4,0.3-3.5,0.5c0,0.1,0,0.2,0,0.3
		c6.1-0.5,12.1-1,17.9-1.4c0.4-1.7,0.8-3.3,1.1-4.8c-2.3,0-4.5,0-6.7,0c0,0.1,0,0.1,0,0.2c1.2,0.3,2.5,0.6,3.7,1
		c-6.6,0.9-13-0.8-19.5-1.6c1.2,0.6,2.7,0.6,3.9,1.5c-0.4,0.1-0.8,0.1-1.2,0.2c0,0.1,0,0.1,0,0.2c0.4,0.2,0.9,0.3,1.3,0.5
		c-1.1,0-2.2-0.1-3.2-0.3c-1.3-0.2-2.6-0.4-3.9-0.6c5.2,1.9,10.6,2.5,16.1,2.8c-2.9,0.1-5.8,0.2-8.7,0.2c0,0.1,0,0.1,0,0.2
		c0.8,0.1,1.6,0.1,2.3,0.2c-0.2,0-0.3,0.1-0.5,0.1c-3.9,0-7.6-0.8-11.2-2.4c-4.6-2-8.9-4.7-13-7.5C22.8,84,21.8,83.3,20.9,82.7z
		 M56.7,90c0-0.1,0-0.1,0-0.2c-1.7-0.2-3.5-0.5-5.2-0.7c0,0.1,0,0.1,0,0.2C53.3,89.5,55,89.8,56.7,90z M23.7,82.9
		c0,0-0.1,0.1-0.1,0.1c1.1,0.8,2.1,1.6,3.2,2.4c0,0,0.1-0.1,0.1-0.1C25.8,84.4,24.7,83.6,23.7,82.9z"/>
	<path class="st0" d="M21.9,46.7c0.6-0.7,1.2-1.4,1.7-2.1c1.4-0.7,2.8-1.5,4.2-2.2c0,0,0,0,0,0c0.1,0,0.2,0,0.3,0
		c0.2,0,0.5,0.1,0.7,0.2c-0.2,0.2-0.4,0.5-0.6,0.6c-1.4,0.3-2.7,0.8-3.8,1.7c-1.6,1.3-2.7,3.1-3.1,5.1c-0.3,1.5-0.5,3-0.7,4.5
		c-0.1,0.8-0.4,1.6-0.6,2.4c0-1,0-2,0-3C20.1,51.3,20.7,48.9,21.9,46.7z"/>
</g>
</svg>
