<?xml version="1.0" encoding="utf-8"?>
<!-- Generator: Adobe Illustrator 25.1.0, SVG Export Plug-In . SVG Version: 6.00 Build 0)  -->
<svg version="1.1" id="Calque_1" xmlns="http://www.w3.org/2000/svg" xmlns:xlink="http://www.w3.org/1999/xlink" x="0px" y="0px"
	 viewBox="0 0 113.4 113.4" style="enable-background:new 0 0 113.4 113.4;" width="512" height="512" xml:space="preserve">
<style type="text/css">
	.st0{fill:#FFFFFF;}
</style>
<g transform="translate(0,0)">
	<path class="st0" d="M56.9,16.5c-8.2,0-16.4,2.6-23.4,7.6c15.8-6.7,34.8-3.4,47.6,9.5c12.8,12.8,16,31.7,9.4,47.5
		c11.4-15.9,9.9-38.2-4.4-52.5C78,20.4,67.4,16.4,56.9,16.5L56.9,16.5z M90.5,81L90.5,81L90.5,81L90.5,81L90.5,81z M28.2,25.2
		c-2.5,0-4.4,2-4.4,4.4c0,2.5,2,4.4,4.4,4.4c2.5,0,4.4-2,4.4-4.4C32.7,27.2,30.7,25.2,28.2,25.2L28.2,25.2z M56.6,27.8
		c-7.8,0-15.6,3-21.5,8.9c-11.9,11.9-11.8,31.1,0,43c11.9,11.9,31.1,11.9,43,0s11.9-31.1,0-43C72.1,30.7,64.4,27.8,56.6,27.8z
		 M55.8,31.5l3.8,10.8c-2.6-0.5-5.3-0.3-7.8,0.6L55.8,31.5L55.8,31.5z M22.8,35L22.8,35L22.8,35L22.8,35L22.8,35z M22.8,35
		c-11.4,16-9.9,38.2,4.4,52.5s36.7,15.9,52.6,4.5C64,98.6,45,95.4,32.2,82.5C19.4,69.7,16.2,50.8,22.8,35L22.8,35z M37.3,39.1
		l11.1,5.3c-1,0.6-1.9,1.4-2.8,2.2l0,0c-1.1,1.1-2,2.3-2.7,3.6l-0.2,0.2L37.3,39.1L37.3,39.1z M74.4,39.2l-4.6,9.6
		c-0.5-0.7-1.1-1.4-1.7-2.1c-1.1-1.1-2.3-2-3.7-2.7L74.4,39.2L74.4,39.2z M57,47.2c2.8,0,5.5,1.1,7.7,3.2c4.2,4.2,4.2,11.1,0,15.3
		c-4.2,4.2-11.1,4.2-15.3,0s-4.2-11.1,0-15.3C51.4,48.2,54.2,47.2,57,47.2L57,47.2z M41.5,53.5V54c-0.6,2.5-0.6,5.2,0,7.7v0.1
		l-11.9-4.2L41.5,53.5z M72.2,54.3l9.8,3.4l-9.7,3.4C72.8,58.9,72.8,56.5,72.2,54.3L72.2,54.3z M42.7,65c0.7,1.5,1.7,2.8,2.9,4.1
		c0.7,0.7,1.6,1.4,2.4,2l-10.7,5.2L42.7,65z M69.9,67l4.5,9.3l-9.5-4.6c1.2-0.7,2.3-1.5,3.3-2.5C68.8,68.5,69.4,67.7,69.9,67z
		 M52,72.9c2.4,0.8,5,1,7.5,0.6l-3.6,10.4L52,72.9L52,72.9z M86.2,83.3c-2.5,0-4.4,2-4.4,4.4c0,2.5,2,4.4,4.4,4.4
		c2.5,0,4.4-2,4.4-4.4C90.6,85.2,88.6,83.3,86.2,83.3L86.2,83.3z"/>
</g>
</svg>
