<?xml version="1.0" encoding="utf-8"?>
<!-- Generator: Adobe Illustrator 25.1.0, SVG Export Plug-In . SVG Version: 6.00 Build 0)  -->
<svg version="1.1" id="Calque_1" xmlns="http://www.w3.org/2000/svg" xmlns:xlink="http://www.w3.org/1999/xlink" x="0px" y="0px"
	 viewBox="0 0 113.4 113.4" style="enable-background:new 0 0 113.4 113.4;" xml:space="preserve">
<style type="text/css">
	.st0{fill:#FFFFFF;}
</style>
<g transform="translate(0,0)">
	<path class="st0" d="M53.3,20c-1.5,0-3.1,0.1-4.5,0.3l4.1,1.3l4.6-1.3l-2.6,1.5l5.2,0.2l-5.5,0.3l1.4,0.9c2.2-0.2,4.5-0.8,7-1.6
		c-0.5-0.3-1.2-0.5-2.1-0.7C58.8,20.3,56.1,20,53.3,20L53.3,20z M48.8,20.3c-1.1,0.1-2.1,0.3-2.9,0.5c-0.9,0.2-1.6,0.5-2.1,0.7
		c0.5,0.2,1.1,0.4,1.6,0.6l5.7-0.3L48.8,20.3z M45.6,22.2c1.3,0.4,2.7,0.8,4.2,1l1.5-0.8L45.6,22.2z M52.8,22.6l-2.3,0.7
		c1.5,0.2,3,0.2,4.7,0L52.8,22.6z M63.8,24.6c-8.2,2.8-14.9,2.2-20.7,0.1v47.2c6.3,2.5,13.2,2.4,20.7-0.3
		C63.8,56,63.8,39.5,63.8,24.6L63.8,24.6z M68.5,53.5C68.5,53.5,68.4,53.5,68.5,53.5c0.1,0.2,0.3,0.4,0.5,0.7
		c1.4,1.9,2.6,4.3,3.5,6.9c0.4,1.1,0.7,2.2,1,3.3l0.6-3.1l0,0c0.1-0.4,0.1-0.7,0.2-1c-0.5-1.9-1.4-3.7-2.5-4.9
		C70.8,54.1,69.7,53.5,68.5,53.5L68.5,53.5z M85.8,54.5c-4.4,0-7.6,2.4-8.5,7.3l0,0l-0.7,3.8c2.8-1.7,5.7-2.8,9-2.7
		c3.7,0.1,7.8,1.2,10.9,3.2l-0.6-4.5l0,0C94.9,56.4,90.6,54.5,85.8,54.5L85.8,54.5z M67,56.9v14.8l3.5-1.2l0,0c0.1,0,0,0.1,0.2-0.2
		c0.1-0.3,0.2-0.9,0.2-1.8c0-1.7-0.6-4.1-1.4-6.4C68.8,60.2,67.9,58.3,67,56.9L67,56.9z M39.9,59.8c-4.8,1.1-9.7,2.2-13.3,3
		c-0.6,0.1-1,0.2-1.5,0.3c0.4,0.3,0.8,0.7,1.2,1c2.3,2.2,3.9,5.2,4.7,8.4c0.9,3.2,1.1,6.6,0.3,9.6c-0.1,0.6-0.3,1.1-0.5,1.6l9.1-3
		V59.8z M19.4,64.4h-0.1h-0.1c-0.4,0.1-0.8,0.2-0.6,0.1l0,0l0,0c-0.6,0.1-1,0.4-1.4,1s-0.7,1.5-0.9,2.6c-0.4,2.2-0.1,5.2,0.7,8
		c0.8,2.8,2.2,5.5,3.8,7.2c1.4,1.5,2.9,2.3,4.6,2c1.5-0.8,2.4-2.2,2.9-4.2c0.6-2.3,0.5-5.2-0.3-7.9c-0.7-2.7-2.1-5.3-3.9-6.9
		C22.6,65.1,21.1,64.4,19.4,64.4L19.4,64.4z M85.4,66.1c-3.8,0-7.3,1.2-9.8,4.1l-0.6,3c2.7-2.9,6.6-4.7,10.9-4.7
		c4.7,0,8.9,2.1,11.6,5.5L97,70.7c-2.8-2.7-7.1-4.4-11.2-4.6C85.7,66.1,85.6,66.1,85.4,66.1L85.4,66.1z M18.5,68.4l3.3,5.1l2.4-3.9
		L23,74.9l4.8,2.8l-4.4-0.8l1.9,4.9l-3.1-4.6l-2.3,3.6l1-4.9l-4.5-2.6l4.3,1L18.5,68.4z M85.9,71.4c-6.8,0-12.2,5.5-12.2,12.2
		c0,6.8,5.5,12.2,12.2,12.2c6.8,0,12.2-5.5,12.2-12.2S92.6,71.4,85.9,71.4L85.9,71.4z M63.8,75c-7.3,2.3-14.2,2.5-20.7,0.3v7.1
		c6.3,2.5,13.2,2.4,20.7-0.2V75z M85.9,79.3c2.4,0,4.4,1.9,4.4,4.4c0,2.4-1.9,4.4-4.4,4.4s-4.4-1.9-4.4-4.4
		C81.5,81.2,83.5,79.3,85.9,79.3L85.9,79.3z M64.3,85.4c-7.6,2.5-14.9,2.7-21.6,0.3l-0.6,2.4c6.9,3.4,15.1,3.4,22.9,0L64.3,85.4z"/>
</g>
</svg>
