<?xml version="1.0" encoding="utf-8"?>
<!-- Generator: Adobe Illustrator 26.0.1, SVG Export Plug-In . SVG Version: 6.00 Build 0)  -->
<svg version="1.1" id="Calque_1" xmlns="http://www.w3.org/2000/svg" xmlns:xlink="http://www.w3.org/1999/xlink" x="0px" y="0px"
	 viewBox="0 0 113.4 113.4" style="enable-background:new 0 0 113.4 113.4;" width="512" height="512" xml:space="preserve">
<style type="text/css">
	.st0{fill:#FFFFFF;}
</style>
<path class="st0" d="M70.8,74.1c-0.3,3.6-0.6,7.1-1,10.7c2.9,0.7,5.7,1.4,8.5,2.1c3.2,0.8,6.4,1.6,9.7,2.3c2.4,0.5,4.2,1.5,4.6,4.1
	c0.4,2.8-0.5,5.3-3,6.6c-1.9,1-4,1.4-6.1,1.8c-6.6,1.1-13.2,2.1-19.8,3.1c-0.2,0-0.3-0.1-0.6-0.1c1.4-2.5,2-5,0.9-7.8
	c-1.1-2.5-2.9-4.3-5.6-4.6c-4.1-0.5-8.2-2.2-12.5,0c1.2,0.2,2.2,0.4,3.2,0.6c2.8,0.4,5.6,0.8,8.4,1.2c3.1,0.4,5.4,3.1,5.2,6.1
	c-0.3,3.4-2.7,5.7-6,5.3c-6-0.6-12.1-1.5-18.1-2.4c-4.2-0.6-8.4-1.4-12.5-2c-3.4-0.5-5.4-2.3-5.8-5.2c-0.4-2.8,1.3-5.6,4.5-6.6
	c3.6-1.2,7.3-2,11-3c2.3-0.6,4.5-1.1,7-1.7c-0.3-3.4-0.6-6.9-0.9-10c-3.7,2.3-7.4,4.7-11.1,6.9c-2.2,1.3-4.4,2.4-6.7,3.5
	c-2.5,1.2-5.2,0.3-6.4-2.1c-1.2-2.5-0.3-5.1,2.3-6.5c4.4-2.5,8.7-5.1,13.1-7.6c1.3-0.7,1.8-1.8,2.1-3.2c1.3-6,2.8-12.1,4.1-18.1
	c0.6-2.5,2-4.1,4.6-4.6c8.4-1.6,16.7-1.6,25.1,0c2.6,0.5,4,2,4.5,4.5c1.5,6.3,2.9,12.7,4.5,19c0.2,0.8,0.9,1.7,1.6,2.2
	c4.6,2.8,9.2,5.4,13.8,8.1c1.8,1,2.6,2.7,2.3,4.7c-0.3,2-1.5,3.6-3.6,4c-1.1,0.2-2.4,0.1-3.4-0.4c-5.4-3-10.8-6.1-16.1-9.3
	C71.9,75.4,71.5,74.8,70.8,74.1z M55.9,62.1c3.3-2.2,6.2-4,8-7c1.8-3.1,0.3-7-3.1-7.5c-1.5-0.2-3.1,0.7-5,1.1
	c-0.9-0.9-2.4-1.7-4.2-1.1c-3.6,1.1-4.9,5.1-2.4,8.1C51,58.1,53.6,60,55.9,62.1z"/>
<path class="st0" d="M95.8,74.7c-0.4-0.3-0.8-0.6-1.2-0.7c-1.2-0.5-1.3-1.2-1-2.4c4.8-18.4-3.5-36.5-20.6-44.9
	c-1.4-0.7-1.6-1.1-1.4-3.9C92.9,30.6,103.1,54.9,95.8,74.7z"/>
<path class="st0" d="M41.9,22.8c0.1,2-0.4,3.4-2.5,4.4c-14,6.9-22.2,21.9-20.8,37.5c0.3,2.7,0.8,5.3,1.3,8.2
	c-0.6,0.3-1.5,0.7-2.4,1.2C10.5,55.3,20.3,30.6,41.9,22.8z"/>
<g>
	<path class="st0" d="M53.9,37.4v-8.7h-7.7v-2.5h7.7v-3.6h-7.7v-2.5h6.5l-8.3-15H49l5.2,10.2c0.8,1.7,1.4,3,2,4.5h0.1
		c0.5-1.4,1.1-2.9,2-4.6l5.4-10.1h4.6l-8.9,15h6.5v2.5H58v3.6h7.7v2.5H58v8.7H53.9z"/>
</g>
</svg>
