<?xml version="1.0" encoding="utf-8"?>
<!-- Generator: Adobe Illustrator 25.1.0, SVG Export Plug-In . SVG Version: 6.00 Build 0)  -->
<svg version="1.1" id="Calque_1" xmlns="http://www.w3.org/2000/svg" xmlns:xlink="http://www.w3.org/1999/xlink" x="0px" y="0px"
	 viewBox="0 0 113.4 113.4" style="enable-background:new 0 0 113.4 113.4;" xml:space="preserve">
<style type="text/css">
	.st0{fill:#FFFFFF;}
</style>
<g transform="translate(0,0)">
	<path class="st0" d="M34.7,15.9v81.6h44V15.9H34.7z M26.7,16c-7.9,7.4-13.2,21-13.2,36.8c0,15.9,5.4,29.7,13.4,37
		c-5.3-8.4-8.7-21.8-8.7-37C18.1,37.9,21.4,24.5,26.7,16z M86.7,16c5.2,8.5,8.6,21.9,8.6,36.9c0,15.2-3.4,28.5-8.7,37
		c7.9-7.3,13.4-21.1,13.4-37S94.6,23.4,86.7,16L86.7,16z M52.9,19.5h7.5c0.8,0,1.4,0.6,1.4,1.4s-0.6,1.4-1.4,1.4h-7.5
		c-0.8,0-1.4-0.6-1.4-1.4S52.1,19.5,52.9,19.5L52.9,19.5z M33.2,24.9c-6.8,4.5-11.7,15.4-11.7,28c0,12.7,4.9,23.6,11.8,28
		c-4.6-5.5-7.7-16-7.7-28C25.5,40.8,28.6,30.3,33.2,24.9z M80.2,24.9c4.6,5.4,7.7,16,7.7,28s-3.1,22.5-7.7,28
		c6.9-4.4,11.8-15.3,11.8-28C91.9,40.3,87,29.4,80.2,24.9z M37.4,25.5h38.2v62H37.4V25.5z M56.5,88.6c1.9-0.1,3.5,1.4,3.6,3.3V92
		c0,1.9-1.6,3.5-3.5,3.5s-3.5-1.6-3.5-3.5C53.2,90.2,54.6,88.7,56.5,88.6L56.5,88.6z"/>
</g>
</svg>
