<?xml version="1.0" encoding="utf-8"?>
<!-- Generator: Adobe Illustrator 25.4.1, SVG Export Plug-In . SVG Version: 6.00 Build 0)  -->
<svg version="1.1" id="Calque_1" xmlns="http://www.w3.org/2000/svg" xmlns:xlink="http://www.w3.org/1999/xlink" x="0px" y="0px"
	 viewBox="0 0 113.4 113.4" style="enable-background:new 0 0 113.4 113.4;" width="512" height="512" xml:space="preserve">
<style type="text/css">
	.st0{fill:#FFFFFF;}
</style>
<g transform="translate(0,0)">
	<path class="st0" d="M69.1,7.9c-1.1,0-2.2,0.1-3.3,0.4C59.2,10.1,55.1,17,57,23.6c5.2,19.1,3.5,13.1,8.5,31.9
		c1.8,6.6,8.7,10.6,15.3,8.8c6.6-1.8,10.7-8.7,8.8-15.3c-4.7-17.3-4-15-7.9-29.5h0l-0.6-2.4c-1.4-5.4-6.3-9-11.6-9.3
		C69.4,7.9,69.2,7.9,69.1,7.9L69.1,7.9z M68.9,11.7c3.9-0.1,7.4,2.5,8.5,6.4l0,0.1c3.1,11.5,3.8,14.2,4.9,18.4
		c-3.4,3.6-12.6,6.3-16.8,4.2c-1.1-4.1-1.8-6.9-4.9-18.2c-1.3-4.6,1.5-9.4,6.1-10.6c0.6-0.2,1.2-0.2,1.7-0.3
		C68.7,11.7,68.8,11.7,68.9,11.7L68.9,11.7z M40,30.3c-2.8,0-5.7,1.1-7.8,3.2h0c-0.8,0.8-0.6,0.6-1.3,1.3l-2,2h0
		c-6.5,6.6-6.9,7-16.9,16.9c-4.3,4.3-4.3,11.3,0,15.6c4.3,4.3,11.3,4.3,15.6,0c11.8-11.9,8-8.1,20.1-20.1c4.3-4.3,4.3-11.3,0-15.6
		C45.7,31.4,42.9,30.3,40,30.3L40,30.3z M40,34.1c1.8,0,3.7,0.7,5.1,2.1c2.8,2.8,2.9,7.4,0,10.2c-7.3,7.3-9,8.9-11.7,11.6
		C29.6,57.5,24.4,52,23.2,48c2.7-2.7,4.3-4.4,11.7-11.7C36.3,34.8,38.2,34.1,40,34.1L40,34.1z M90.9,67.9c-1.1,0-2.2,0.1-3.4,0.4
		C68,73.6,74.2,72,54.4,77.2c-6.9,1.8-11,9-9.1,15.8c1.8,6.9,9,11,15.8,9.1c19.8-5.3,13.6-3.8,33.1-8.9c6.9-1.8,11-9,9.1-15.8
		c-1.5-5.6-6.5-9.3-12-9.6C91.2,67.9,91,67.9,90.9,67.9L90.9,67.9z M71.4,76.7c-2.6,4.4-0.2,14.3,4,17.7c-3.1,0.8-6.6,1.8-15.4,4.2
		c-4.9,1.3-9.8-1.6-11.1-6.4c-1.3-4.9,1.6-9.9,6.4-11.1C64.7,78.5,68.2,77.5,71.4,76.7L71.4,76.7z"/>
</g>
</svg>
