<?xml version="1.0" encoding="utf-8"?>
<!-- Generator: Adobe Illustrator 25.1.0, SVG Export Plug-In . SVG Version: 6.00 Build 0)  -->
<svg version="1.1" id="Calque_1" xmlns="http://www.w3.org/2000/svg" xmlns:xlink="http://www.w3.org/1999/xlink" x="0px" y="0px"
	 viewBox="0 0 113.4 113.4" style="enable-background:new 0 0 113.4 113.4;" xml:space="preserve">
<style type="text/css">
	.st0{fill:#FFFFFF;}
</style>
<g transform="translate(0,0)">
	<path class="st0" d="M51.2,19.4l-0.3,26c-1.9,0.4-3.7,0.9-5.4,1.6l-6-9.4L41.3,49c-1.9,1.1-3.8,2.4-5.4,3.8L21,40.2l10.6,17
		c-1.9,2.3-3.4,4.8-4.6,7.6l-6.6-1.7l5.6,4.2c-0.9,2.6-1.5,5.3-1.7,8.1l-9.1,0.3l26.2,10.1c-1-2.3-1.6-4.8-1.6-7.4
		c0-10,8.1-18.1,18.1-18.1S76,68.4,76,78.4c0,2.5-0.5,5-1.5,7.2c0,0.1,0,0.2,0,0.3l24-10.3l-7-0.7c-0.4-3.6-1.3-7.1-2.8-10.3l5.2-6
		l-7.2,2.3c-1.6-2.6-3.5-4.9-5.7-7l10-23L74.9,49.4c-2.3-1.4-4.7-2.4-7.3-3.2L68,34.7l-4.3,10.5c-1.9-0.3-3.9-0.5-6-0.5
		c-0.4,0-0.8,0-1.2,0L51.2,19.4z M57.8,47.9c1.6,0,3.2,0.1,4.7,0.4l-3.4,8.4l-1.9-8.8C57.4,47.9,57.6,47.9,57.8,47.9L57.8,47.9z
		 M50.8,48.7l-0.1,6.7l-3.5-5.6C48.4,49.4,49.6,49,50.8,48.7L50.8,48.7z M67.5,49.5c1.9,0.6,3.6,1.4,5.3,2.4l-5.6,6.4L67.5,49.5
		L67.5,49.5z M41.8,52.4l1,6.4L38.3,55C39.4,54,40.6,53.2,41.8,52.4L41.8,52.4z M79.4,56.9c1.5,1.5,2.8,3.1,3.9,4.9l-7,2.2
		L79.4,56.9L79.4,56.9z M33.4,60.1l4.6,7.5l-7.9-2C31,63.7,32.1,61.8,33.4,60.1L33.4,60.1z M57.8,63.5c-8.2,0-14.8,6.6-14.8,14.8
		s6.6,14.8,14.8,14.8s14.8-6.6,14.8-14.8C72.6,70.2,66,63.5,57.8,63.5L57.8,63.5z M86.2,67.2c0.9,2.3,1.5,4.7,1.9,7.3l-7.5-0.7
		L86.2,67.2z M28.7,69.4l7.6,5.7l-8.8,0.3C27.7,73.3,28.1,71.3,28.7,69.4L28.7,69.4z"/>
</g>
</svg>
