<?xml version="1.0" encoding="utf-8"?>
<!-- Generator: Adobe Illustrator 24.0.1, SVG Export Plug-In . SVG Version: 6.00 Build 0)  -->
<svg version="1.1" id="Calque_1" xmlns="http://www.w3.org/2000/svg" xmlns:xlink="http://www.w3.org/1999/xlink" x="0px" y="0px"
	 viewBox="0 0 113.4 113.4" style="enable-background:new 0 0 113.4 113.4;" width="512" height="512" xml:space="preserve"
	>
<style type="text/css">
	.st0{fill:#95046F;}
	.st1{fill:#FFFFFF;}
</style>
<path class="st0" d="M97.2,108.6h-81c-6.6,0-12-5.4-12-12v-81c0-6.6,5.4-12,12-12h81c6.6,0,12,5.4,12,12v81
	C109.2,103.2,103.8,108.6,97.2,108.6z"/>
<title>Fichier 8</title>
<g>
	<path class="st1" d="M88.9,27.1v55.2h-9.2V42.5l-23,28.8l-23-28.8v39.8h-9.2V27.1h8.7l23.5,29.4l23.6-29.4H88.9z"/>
</g>
<rect x="11.3" y="96.9" class="st1" width="8" height="8"/>
<rect x="11.3" y="85.6" class="st1" width="8" height="8"/>
<rect x="11.3" y="74.4" class="st1" width="8" height="8"/>
<rect x="11.3" y="63.1" class="st1" width="8" height="8"/>
<rect x="11.3" y="51.9" class="st1" width="8" height="8"/>
<rect x="11.3" y="40.6" class="st1" width="8" height="8"/>
<rect x="11.3" y="29.4" class="st1" width="8" height="8"/>
<rect x="11.3" y="18.1" class="st1" width="8" height="8"/>
<rect x="11.3" y="6.9" class="st1" width="8" height="8"/>
<rect x="25" y="85.6" class="st1" width="8" height="8"/>
<rect x="25" y="96.9" class="st1" width="8" height="8"/>
<rect x="38.6" y="96.9" class="st1" width="8" height="8"/>
<rect x="38.6" y="85.6" class="st1" width="8" height="8"/>
<rect x="38.6" y="74.4" class="st1" width="8" height="8"/>
<rect x="52.3" y="96.9" class="st1" width="8" height="8"/>
<rect x="52.3" y="85.6" class="st1" width="8" height="8"/>
<rect x="38.6" y="63.1" class="st1" width="8" height="8"/>
<rect x="79.7" y="96.9" class="st1" width="8" height="8"/>
<rect x="79.7" y="85.6" class="st1" width="8" height="8"/>
<rect x="93.3" y="96.9" class="st1" width="8" height="8"/>
<rect x="66" y="96.9" class="st1" width="8" height="8"/>
<rect x="66" y="85.6" class="st1" width="8" height="8"/>
<rect x="52.3" y="74.4" class="st1" width="8" height="8"/>
</svg>
