<?xml version="1.0" encoding="utf-8"?>
<!-- Generator: Adobe Illustrator 24.0.1, SVG Export Plug-In . SVG Version: 6.00 Build 0)  -->
<svg version="1.1" id="Calque_1" xmlns="http://www.w3.org/2000/svg" xmlns:xlink="http://www.w3.org/1999/xlink" x="0px" y="0px"
	 width="113.4px" height="113.4px" viewBox="0 0 113.4 113.4" style="enable-background:new 0 0 113.4 113.4;" xml:space="preserve"
	>
<style type="text/css">
	.st0{fill:#FFFFFF;}
</style>
<title>Fichier 8</title>
<path d="M97.2,109.2h-81c-6.6,0-12-5.4-12-12v-81c0-6.6,5.4-12,12-12h81c6.6,0,12,5.4,12,12v81C109.2,103.8,103.8,109.2,97.2,109.2z
	"/>
<g>
	<path d="M-79.3,27.8l23,55.2h-9.8l-29.4-17l-7.1,17h-9.8l23-55.2H-79.3z M-71.7,69.1L-84.2,39l-7.6,18.4L-71.7,69.1z"/>
</g>
<g>
	<path class="st0" d="M55,32.1L35.7,53.4l28.2,36l-12.4-3.7L30.5,59l-5.1,5.6v12.6h-7.5v-45h7.5v21.3l19.5-21.3H55z"/>
	<path class="st0" d="M76.6,32.2c6.2,0,11.5,2.2,15.9,6.6c4.4,4.4,6.6,9.7,6.6,15.9s-2.2,11.5-6.6,15.9c-4.4,4.4-9.7,6.6-15.9,6.6
		S65.1,75,60.6,70.6c-4.4-4.4-6.6-9.7-6.6-15.9s2.2-11.5,6.6-15.9C65.1,34.4,70.4,32.2,76.6,32.2z M76.6,69.7c2,0,4-0.4,5.9-1.2
		l-17.7-23c-2.1,2.7-3.2,5.8-3.2,9.2c0,4.1,1.5,7.7,4.4,10.6C68.9,68.2,72.4,69.7,76.6,69.7z M88.4,63.9c2.1-2.7,3.2-5.8,3.2-9.2
		c0-4.1-1.5-7.7-4.4-10.6c-2.9-2.9-6.5-4.4-10.6-4.4c-2,0-4,0.4-5.9,1.2L88.4,63.9z"/>
</g>
<rect x="17.9" y="81.1" class="st0" width="25.9" height="4.8"/>
<rect x="17.9" y="90.3" class="st0" width="55.3" height="4.8"/>
<rect x="17.9" y="99.5" class="st0" width="81.2" height="4.8"/>
</svg>
