<svg xmlns="http://www.w3.org/2000/svg" viewBox="0 0 512 512" style="height: 113px; width: 113px;" width="512" height="512" xml:space="preserve"><g class="" transform="translate(0,0)" style=""><path d="M196 136c-61.174 0-111.656 45.834-119.063 105H16v30h60.938C84.344 330.166 134.825 376 196 376h15c8.31 0 15-6.69 15-15v-30h45v-30h-45v-90h45v-30h-45v-30c0-8.31-6.69-15-15-15h-15zm210 0c-8.31 0-15 6.69-15 15v30h30v30h-30v90h30v30h-30v30c0 8.31 6.69 15 15 15h90V136h-90z" fill="#fff" fill-opacity="1"></path></g></svg>