<?xml version="1.0" encoding="utf-8"?>
<!-- Generator: Adobe Illustrator 24.0.1, SVG Export Plug-In . SVG Version: 6.00 Build 0)  -->
<svg version="1.1" id="Calque_1" xmlns="http://www.w3.org/2000/svg" xmlns:xlink="http://www.w3.org/1999/xlink" x="0px" y="0px"
	 width="113.4px" height="113.4px" viewBox="0 0 113.4 113.4" style="enable-background:new 0 0 113.4 113.4;" xml:space="preserve"
	>
<style type="text/css">
	.st0{fill:#FFFFFF;}
</style>
<title>Fichier 8</title>
<path d="M97.2,109.2h-81c-6.6,0-12-5.4-12-12v-81c0-6.6,5.4-12,12-12h81c6.6,0,12,5.4,12,12v81C109.2,103.8,103.8,109.2,97.2,109.2z
	"/>
<g>
	<path d="M-168.9-177.2l23,55.2h-9.8l-29.4-17l-7.1,17h-9.8l23-55.2H-168.9z M-161.3-135.9l-12.5-30.1l-7.6,18.4L-161.3-135.9z"/>
</g>
<g>
	<path class="st0" d="M12.6,41.7H8.3l3-7.2h19.4c4.2,0,7.8,1.5,10.8,4.5c3,3,4.5,6.6,4.5,10.8c0,3.2-0.9,6.1-2.8,8.8
		c-1.8,2.6-4.1,4.4-7.1,5.5l20.1,25.5l-12-3.5l-16.5-21h-7.9v12.6h-7.2V41.7z M19.9,58h10.8c2.2,0,4.1-0.8,5.7-2.4s2.4-3.5,2.4-5.7
		c0-2.3-0.8-4.2-2.4-5.8c-1.6-1.6-3.5-2.4-5.7-2.4H19.9V58z"/>
	<path class="st0" d="M54,34.6h7.2v43.3H54V34.6z"/>
	<path class="st0" d="M89.8,34.6c4.2,0,7.8,1.5,10.8,4.5c3,3,4.5,6.6,4.5,10.8c0,4.2-1.5,7.8-4.5,10.8c-3,3-6.6,4.5-10.8,4.5H78.9
		v12.6h-7.2V41.8h-4.3l3-7.2H89.8z M89.8,58c2.2,0,4.1-0.8,5.7-2.4s2.4-3.5,2.4-5.7c0-2.3-0.8-4.2-2.4-5.8s-3.5-2.4-5.7-2.4H78.9V58
		H89.8z"/>
</g>
<rect x="54" y="11.9" class="st0" width="7.2" height="32.8"/>
<rect x="54" y="6.4" transform="matrix(6.123234e-17 -1 1 6.123234e-17 33.718 81.6012)" class="st0" width="7.2" height="35"/>
<polyline class="st0" points="71.7,90.1 71.7,55.1 78.9,55.1 78.9,82 "/>
</svg>
