<?xml version="1.0" encoding="utf-8"?>
<!-- Generator: Adobe Illustrator 26.4.1, SVG Export Plug-In . SVG Version: 6.00 Build 0)  -->
<svg version="1.1" id="Calque_1" xmlns="http://www.w3.org/2000/svg" xmlns:xlink="http://www.w3.org/1999/xlink" x="0px" y="0px"
	 viewBox="0 0 113.4 113.4" style="enable-background:new 0 0 113.4 113.4;" xml:space="preserve">
<style type="text/css">
	.st0{fill:#FFFFFF;}
</style>
<g transform="translate(0,0)">
	<path class="st0" d="M56.7,3.5C28.2,3.5,5,26.7,5,55.2C5,67.7,9.4,79,16.7,87.9L12.1,96h29.5L26.8,70.4l-5,8.7
		c-4.7-6.8-7.4-15-7.4-23.9C14.4,31.9,33.4,13,56.7,13C80,13,99,31.9,99,55.2c0,8.7-2.6,16.9-7.1,23.6l-4.9-8.4L72.1,96h29.5
		l-4.8-8.4c7.2-8.9,11.5-20.1,11.5-32.4C108.4,26.7,85.2,3.5,56.7,3.5L56.7,3.5L56.7,3.5z M56.6,20.3c-11,0-24.6,6.5-28.6,23.4
		l13.6,3.2c6-17,20.3-15.8,25.3-6.4c6,11.2-20,23.9-18.8,42.5h17.3c1.4-21.9,26.5-27.6,13.3-51.2c-4-7.1-12.2-11.1-21-11.5v0
		C57.3,20.4,56.9,20.3,56.6,20.3L56.6,20.3z M56.9,87.5c-6,0-10.8,4.8-10.8,10.8c0,6,4.8,10.8,10.8,10.8c6,0,10.8-4.8,10.8-10.8
		C67.7,92.3,62.9,87.5,56.9,87.5L56.9,87.5z"/>
</g>
</svg>
