<?xml version="1.0" encoding="utf-8"?>
<!-- Generator: Adobe Illustrator 24.0.1, SVG Export Plug-In . SVG Version: 6.00 Build 0)  -->
<svg version="1.1" id="Calque_1" xmlns="http://www.w3.org/2000/svg" xmlns:xlink="http://www.w3.org/1999/xlink" x="0px" y="0px"
	 width="113.4px" height="113.4px" viewBox="0 0 113.4 113.4" style="enable-background:new 0 0 113.4 113.4;" xml:space="preserve"
	>
<style type="text/css">
	.st0{fill:#97B79F;}
	.st1{fill:#FFFFFF;}
</style>
<title>Fichier 8</title>
<g>
	<path class="st0" d="M97.2,109.2h-81c-6.6,0-12-5.4-12-12v-81c0-6.6,5.4-12,12-12h81c6.6,0,12,5.4,12,12v81
		C109.2,103.8,103.8,109.2,97.2,109.2z"/>
	<g>
		<path class="st1" d="M61.7,29.1l23,55.2H75l-29.4-17l-7.1,17h-9.8l23-55.2H61.7z M69.3,70.4L56.8,40.3l-7.6,18.4L69.3,70.4z"/>
	</g>
</g>
<g transform="translate(0,0)">
	<path class="st1" d="M57.1,4.2l-1.4,1.4L41.9,19.4H20.5v21.4L5.4,56l15.2,15.2v21.4H42l15.2,15.2l15.2-15.2h21.4V71.1L108.9,56
		L93.7,40.8V19.4H72.3C72.3,19.4,57.1,4.2,57.1,4.2z M57.1,9.7l9.7,9.7H47.5L57.1,9.7z M24.4,23.3h13.6L24.4,36.9V23.3z M43.6,23.3
		h27.1l19.1,19.1v27.1L70.7,88.7H43.6L24.4,69.5V42.4C24.4,42.4,43.6,23.3,43.6,23.3z M76.2,23.3h13.6v13.6L76.2,23.3z M93.7,46.3
		l9.7,9.7l-9.7,9.7V46.3L93.7,46.3z M20.5,46.3v19.3L10.9,56L20.5,46.3z M89.8,75v13.6H76.2L89.8,75z M24.4,75l13.6,13.6H24.4V75z
		 M47.5,92.6h19.3l-9.7,9.7L47.5,92.6z"/>
</g>
</svg>
