<?xml version="1.0" encoding="utf-8"?>
<!-- Generator: Adobe Illustrator 26.0.3, SVG Export Plug-In . SVG Version: 6.00 Build 0)  -->
<svg version="1.1" id="Calque_1" xmlns="http://www.w3.org/2000/svg" xmlns:xlink="http://www.w3.org/1999/xlink" x="0px" y="0px"
	 viewBox="0 0 113.4 113.4" style="enable-background:new 0 0 113.4 113.4;" xml:space="preserve">
<style type="text/css">
	.st0{fill:#FFFFFF;}
</style>
<g transform="translate(0,0)">
	<path class="st0" d="M30.1,4.8C14,14,3.2,31.2,3.2,51c0,19.9,11,37.1,27.1,46.3C19.6,86.7,12.6,70,12.6,51
		C12.6,32.1,19.4,15.4,30.1,4.8L30.1,4.8z M83.9,5.3C94.2,16,100.8,32.4,100.8,51c0,18.6-6.7,35-17.1,45.6c15.6-9.3,26-26.2,26-45.6
		C109.8,31.5,99.4,14.7,83.9,5.3L83.9,5.3z M43.3,15.9c-13.9,5.6-23.8,19.1-23.8,35c0,15.9,10,29.5,23.9,35C34,79.2,27.7,66,27.7,51
		C27.7,35.9,34,22.8,43.3,15.9L43.3,15.9z M75.5,17.9c8,7.2,13.1,19.4,13.1,33.1c0,13.8-5.2,26-13.4,33.2
		C87.1,77.8,95.1,65.3,95.1,51C95.1,36.7,87.2,24.3,75.5,17.9L75.5,17.9z M49.5,27.9C39.8,31.1,32.9,40.2,32.9,51
		c0,10.8,7,20,16.8,23.2C43.6,70,39.3,61.2,39.3,51C39.3,40.9,43.5,32.2,49.5,27.9L49.5,27.9z M67.1,28.6C72.5,33.2,76,41.5,76,51
		c0,9.6-3.6,18-9.2,22.5C75.6,69.7,81.7,61,81.7,51C81.7,41,75.7,32.4,67.1,28.6z M58.1,43.9c-4.6,0-8.3,3.7-8.3,8.3
		c0,3.5,2.2,6.5,5.2,7.7v48.3h6.2V59.9c3.1-1.2,5.2-4.2,5.2-7.7C66.4,47.6,62.7,43.9,58.1,43.9z"/>
</g>
</svg>
