<?xml version="1.0" encoding="utf-8"?>
<!-- Generator: Adobe Illustrator 26.0.2, SVG Export Plug-In . SVG Version: 6.00 Build 0)  -->
<svg version="1.1" id="Calque_1" xmlns="http://www.w3.org/2000/svg" xmlns:xlink="http://www.w3.org/1999/xlink" x="0px" y="0px"
	 viewBox="0 0 113.4 113.4" style="enable-background:new 0 0 113.4 113.4;" xml:space="preserve">
<style type="text/css">
	.st0{fill:#FFFFFF;}
</style>
<path class="st0" d="M80.6,24.7c9.4-7.4,13.3-6.2,16.5,0c-2.7-10.1-1.7-11,7.4-19.2c-11.1,5.9-15.9,5.6-21.6-1.2
	C88.7,13,88,16.7,80.6,24.7L80.6,24.7z"/>
<path class="st0" d="M109.7,36c-5.6-4.6-5.8-7.1-5.1-14.5C101.5,30.4,100,32.6,94,35C100.5,33.5,103.3,33.2,109.7,36L109.7,36z"/>
<path class="st0" d="M80.9,12.7c-4.1-4.5-4.4-7.2-4-11.9c-2.4,5.7-3.6,7.5-9.2,10.6C73.4,9.6,75.2,9.7,80.9,12.7z"/>
<g transform="translate(0,0)">
	<path class="st0" d="M27.5,3L6.7,16.3c0.8,6.1,2,12.1,3.7,18.1L52.7,7.2l-4.4-2.8C41.2,4.1,34.2,3.7,27.5,3L27.5,3z M84.9,3.1
		C75.7,4,66,4.5,56.3,4.5l46.3,30.1c1.6-5.9,2.8-11.8,3.6-17.7L84.9,3.1L84.9,3.1z M56.6,9.7l-44.9,29c1.8,6,4,11.9,6.7,17.7
		l55.1-35.8L56.6,9.7L56.6,9.7z M77.3,23.1l-16.9,11l34.3,22.4c2.7-5.8,4.9-11.8,6.7-17.7L77.3,23.1L77.3,23.1z M56.5,36.6
		L20.1,60.3c2.8,5.7,5.9,11.3,9.5,16.9L74,48L56.5,36.6L56.5,36.6z M77.9,50.6L60.3,62.1l23,15.2c3.6-5.6,6.8-11.2,9.6-17L77.9,50.6
		z M56.5,64.6L31.9,80.7c3.1,4.5,6.4,9,10,13.4l29.9-19.3L56.5,64.6L56.5,64.6z M75.7,77.3l-15.4,9.9L71,94.2
		c3.6-4.4,6.9-8.8,10-13.3L75.7,77.3L75.7,77.3z M56.5,89.8l-11.8,7.6c3.7,4.3,7.6,8.5,11.8,12.6c4.2-4.1,8.1-8.3,11.7-12.6
		L56.5,89.8L56.5,89.8L56.5,89.8z"/>
</g>
</svg>
