<?xml version="1.0" encoding="utf-8"?>
<!-- Generator: Adobe Illustrator 26.0.2, SVG Export Plug-In . SVG Version: 6.00 Build 0)  -->
<svg version="1.1" id="Calque_1" xmlns="http://www.w3.org/2000/svg" xmlns:xlink="http://www.w3.org/1999/xlink" x="0px" y="0px"
	 viewBox="0 0 113.4 113.4" style="enable-background:new 0 0 113.4 113.4;" xml:space="preserve">
<style type="text/css">
	.st0{fill:#FFFFFF;}
</style>
<g>
	<path class="st0" d="M17.9,46.5c2.2,0,3.7,0,5.4,0c0-1.8,0-3.4,0-5.3c-1.7,0-3.5,0-5.3,0c0-3.9,0-7.5,0-11.4c1.7,0,3.4,0,5.4,0
		c0-2,0-3.7,0-5.6c1.9,0,3.6,0,5.5,0c0-1.9,0-3.5,0-5.3c2.1,0,3.8,0,5.8,0c0,1.7,0,3.4,0,5.1c1.9,0,3.5,0,5.4,0c0-1.8,0-3.5,0-5.4
		c2.1,0,3.9,0,5.9,0c0,1.9,0,3.6,0,5.5c1.9,0,3.5,0,5.5,0c0,3.7,0,7.2,0,10.9c1.9,0,3.5,0,5.3,0c0-1.6,0-3.3,0-5.4
		c1.3,0,2.3-0.1,3.3,0c2,0.3,2.6-0.7,2.4-2.5c-0.1-0.9,0-1.8,0-2.9c-2,0-3.7,0-5.5,0c0-2,0-3.8,0-5.7c1.9,0,3.6,0,5.7,0
		c0,1.8,0,3.5,0,5.4c1.9,0,3.6,0,5.4,0c0-3.7,0-7.2,0-10.9c2,0,3.8,0,5.8,0c0,3.6,0,7.1,0,10.8c1.8,0,3.5,0,5.4,0c0-1.7,0-3.5,0-5.3
		c2,0,3.8,0,5.8,0c0,1.7,0,3.4,0,5.3c2,0.1,3.7,0.2,5.6,0.3c0,1.9,0,3.6,0,5.5c2,0,3.7,0,5.6,0c0.1,0.8,0.1,1.4,0.1,2
		c0,10.8,0,21.5,0,32.3c0,5-1.7,9.3-5,13c-0.5,0.6-1.1,1.2-1.7,1.9c-3.6,4.2-3.6,4.2-1.2,9.1c1.4,2.8-0.9,8.5-3.9,9.3
		c-0.4,0.1-1-0.3-1.5-0.5c-2.5-1.3-4.9-2.8-7.4-3.8c-2.9-1.2-3.8-0.6-4,2.6c-0.3,3.8-0.1,7.5-0.2,11.3c0,1.1,0,2.2,0,3.5
		c-2.2,0-4.1,0-6.4,0c0-4.1,0-8.1,0-12.2c0-0.6,0.1-1.3,0-1.9c-0.1-0.5-0.4-0.8-0.7-1.3c-0.3,0.4-0.8,0.9-0.8,1.3
		c-0.1,3.8,0,7.7,0,11.5c0,0.7,0,1.5,0,2.5c-1.8,0-3.3,0.1-4.8-0.1c-0.5-0.1-1.1-1.1-1.1-1.7c-0.1-3.7-0.1-7.4-0.1-11.1
		c0-0.8,0-1.5,0-2.3c-0.2-0.1-0.4-0.2-0.7-0.3c-0.3,0.6-0.8,1.1-0.8,1.7c-0.1,3.8,0,7.6,0,11.3c0,0.7-0.1,1.5-0.1,2.5
		c-1.7,0-3.2,0.1-4.7-0.1c-0.5-0.1-1.1-1.1-1.1-1.7c-0.1-3.7,0-7.4,0-11.1c0-0.8,0-1.5,0-2.3c-0.2-0.1-0.4-0.2-0.6-0.3
		c-0.3,0.6-0.8,1.1-0.8,1.7c-0.1,3.8,0,7.6,0,11.3c0,0.8,0,1.5,0,2.4c-2.2,0-4.1,0-6.3,0c0-0.9,0-1.8,0-2.7c-0.1-4.3-0.1-8.7-0.3-13
		c-0.1-2-1-2.7-2.9-2c-2.7,1.1-5.4,2.3-7.8,3.8c-1.5,1-2.4,0.8-3.5-0.4c-3-3.2-4.4-5.8-1.5-9.7c1.2-1.6,1.1-3.4-0.1-5.1
		c-0.7-1-1.5-1.9-2.3-2.7c-4.1-4.3-6.5-9.2-6.2-15.4C18.1,57.7,17.9,52.2,17.9,46.5z M25.3,57.8c3.5,1.1,3.5,1.1,3.1,4.5
		c-0.2,2.1-0.4,4.2-0.2,6.3c0.2,2.8,1,5.7,4,6.5c2.9,0.8,6,0.9,9.1,0.9c1.6,0,3.2-0.6,5.3-1c-1.1,1.3-1.9,2.3-2.8,3.4
		c3.9-0.8,7.1-5.3,9.4-12c-3.7,0.3-7-1-10.1-2.9c-2.5-1.6-4.9-3.5-7.5-4.9C32.4,56.8,29.1,55.7,25.3,57.8z M61,66.5
		c2.5,6.2,5.1,11.3,9.6,12c-0.9-1-1.8-2.1-2.7-3.1c4.5,1,8.7,1.5,13,0.2c2.4-0.7,4-2,4.5-4.4c0.4-2.4,0.6-4.8,0.6-7.2
		c0-1.8-0.4-3.7-0.6-5.4c1-0.3,1.8-0.5,2.6-0.7c-0.7-0.4-1.4-0.6-2.1-0.7c-4.9-0.7-8.6,2.1-12.2,4.7C70,64.4,66.1,66.6,61,66.5z
		 M59.7,87.1c2.2-1.2,2.8-2.2,2.2-4.5c-0.8-3.1-2.5-5.7-4.8-8.1c-2.3,2.4-4,5-4.8,8.1c-0.6,2.4,0,3.6,2.3,4.4
		c0.7-1.7,1.5-3.4,2.2-5.2c0.2,0,0.5,0.1,0.7,0.1C58.2,83.5,58.9,85.2,59.7,87.1z M68.2,46c-1.8,0-3.5,0-5.2,0c0,1.9,0,3.7,0,5.7
		c1.8-0.2,3.5-0.3,5.2-0.5C68.2,49.3,68.2,47.7,68.2,46z M68.7,24.5c-0.9,5.2,0.1,6.2,4.9,4.9c0-1.7,0-3.3,0-4.9
		C71.9,24.5,70.3,24.5,68.7,24.5z M84.9,30.1c-1.9,0-3.4,0-5.1,0c0,1.8,0,3.4,0,5c1.8,0,3.4,0,5.1,0C84.9,33.4,84.9,31.8,84.9,30.1z
		 M34.6,24.9c-1.9,0-3.5,0-5.2,0c0,1.6,0,3.1,0,4.7c1.8,0,3.5,0,5.2,0C34.6,28,34.6,26.5,34.6,24.9z M40.1,35.9c-1.8,0-3.4,0-5,0
		c0,1.8,0,3.3,0,5c1.7,0,3.3,0,5,0C40.1,39.2,40.1,37.6,40.1,35.9z M40.7,35.2c5.5,0.5,6.1-0.1,4.8-4.9c-1.5,0-3.1,0-4.8,0
		C40.7,31.9,40.7,33.5,40.7,35.2z M79.2,40.7c0-1.9,0-3.4,0-5c-1.7,0-3.3,0-4.9,0c0,1.7,0,3.3,0,5C75.9,40.7,77.5,40.7,79.2,40.7z
		 M23.9,51.4c1.8,0,3.4,0,4.9,0c0-1.7,0-3.2,0-4.8c-1.7,0-3.3,0-4.9,0C23.9,48.3,23.9,49.8,23.9,51.4z"/>
	<path class="st0" d="M17.9,18.8c0-1.9,0-3.7,0-5.7c1.8,0,3.6,0,5.6,0c0,1.9,0,3.7,0,5.7C21.6,18.8,19.8,18.8,17.9,18.8z"/>
	<path class="st0" d="M90.7,18.8c0-2,0-3.8,0-5.7c1.8,0,3.6,0,5.7,0c0,1.6,0.1,3.2,0,4.7c0,0.4-0.6,0.9-1,0.9
		C93.9,18.9,92.3,18.8,90.7,18.8z"/>
	<path class="st0" d="M73.9,7.6c-1.9,0-3.6,0-5.5,0c0-1.8,0-3.5,0-5.4c1.7,0,3.5,0,5.5,0C73.9,3.9,73.9,5.6,73.9,7.6z"/>
	<path class="st0" d="M28.9,8c1.9,0,3.6,0,5.6,0c0,1.6,0.1,3.1-0.1,4.6c0,0.4-0.7,1-1.1,1.1c-1.4,0.1-2.9,0.1-4.5,0.1
		C28.9,11.7,28.9,10,28.9,8z"/>
	<path class="st0" d="M51.5,14.5c0-1.8,0-3.2,0-4.5c0-0.3,0.1-0.7,0.1-1.1c1.8,0,3.5,0,5.7,0c0,1.6,0.1,3.2-0.1,4.7
		c0,0.3-0.7,0.8-1.1,0.9C54.7,14.5,53.2,14.5,51.5,14.5z"/>
</g>
</svg>
