<?xml version="1.0" encoding="utf-8"?>
<!-- Generator: Adobe Illustrator 26.5.0, SVG Export Plug-In . SVG Version: 6.00 Build 0)  -->
<svg version="1.1" xmlns="http://www.w3.org/2000/svg" xmlns:xlink="http://www.w3.org/1999/xlink" x="0px" y="0px"
	 viewBox="0 0 512 512" style="enable-background:new 0 0 512 512;" width="512" height="512" xml:space="preserve">
<style type="text/css">
	.st0{display:none;}
	.st1{display:inline;}
	.st2{fill:#1D1D1B;}
	.st3{fill:#FFFFFF;}
</style>
<g id="Calque_1" class="st0">
	<g transform="translate(0,0)" class="st1">
		<path class="st2" d="M256,19.7c-19.8,17.3-50.8,36.1-83.8,53.6c-33.9,17.9-68.8,33.6-95.1,43.1c2.1,12.1,9.3,35.4,20.7,62.9
			c13.6,32.7,32.3,71.8,52.6,109.2c20.3,37.4,42.2,73.2,61.9,99.2c9.9,13,19.2,23.6,27.1,30.5c7.9,6.9,14.4,9.5,16.6,9.5
			c2.2,0,8.7-2.6,16.6-9.5c7.9-6.9,17.3-17.5,27.1-30.5c19.7-26,41.6-61.8,61.9-99.2c20.3-37.4,39-76.5,52.6-109.2
			c11.4-27.4,18.5-50.7,20.7-62.9c-26.3-9.4-61.3-25.1-95.1-43.1C306.8,55.8,275.8,37,256,19.7z M113.8,30.2
			C79.4,47.4,44.7,64.6,10.4,81.9L5,84.6v6c0,11.8,4.7,28.5,11.3,48.3c6.6,19.8,15.3,41.6,24.2,59.4l17.3-8.7
			C49.5,173,41,151.7,34.7,132.7c-4.9-14.6-8.3-28.4-9.6-36.5C57.4,79.9,90,63.8,122.5,47.5L113.8,30.2L113.8,30.2z M398.2,30.2
			l-8.7,17.3c32.5,16.2,65.1,32.4,97.4,48.7c-1.3,8.1-4.7,21.9-9.6,36.5c-6.3,19-14.8,40.2-23.2,56.9l17.3,8.7
			c8.9-17.8,17.6-39.6,24.2-59.4c6.6-19.8,11.3-36.5,11.3-48.3v-6l-5.3-2.7C467.3,64.6,432.6,47.4,398.2,30.2L398.2,30.2z M256,69.3
			l7.3,8.4c7.9,9.1,29.8,21.7,53.1,32.1c23.3,10.4,48,19.5,63.7,25.5l6.2,2.4v6.7c0,6.8-2,13.9-5,22.9c-3,9-7.2,19.5-12.3,31
			c-10.1,23-23.7,50.1-37.8,76.2c-14.1,26-28.7,50.9-41.1,69.7c-6.2,9.4-11.8,17.1-16.7,23c-2.5,2.9-4.7,5.3-7.1,7.3
			c-2.4,2-4.6,4.3-10,4.5l-0.5,0l-0.5,0c-5.4-0.3-7.6-2.5-10-4.5c-2.4-2-4.6-4.4-7.1-7.3c-4.9-5.8-10.5-13.6-16.7-23
			c-12.4-18.7-27-43.6-41.1-69.7c-14.1-26-27.7-53.1-37.8-76.2c-5.1-11.5-9.3-22-12.3-31c-3-9-5-16.1-5-22.9v-6.7l6.2-2.4
			c15.6-6,40.4-15.1,63.7-25.5c23.3-10.4,45.2-23.1,53.1-32.1L256,69.3z M256,97.5c-13.2,11.4-32.4,21-52.5,30
			c-21.1,9.5-42,17.3-57.5,23.2c0.7,2.9,1.6,6.5,3,10.5c2.7,8.1,6.7,18.2,11.6,29.4c9.8,22.3,23.2,49.1,37.1,74.7
			c13.9,25.6,28.4,50.2,40.2,68.2c5.9,9,11.3,16.3,15.3,21.1c1.2,1.4,1.8,2,2.7,2.9c0.9-0.9,1.6-1.5,2.7-2.9
			c4-4.8,9.4-12.1,15.3-21.1c11.9-18,26.3-42.6,40.2-68.2c13.9-25.6,27.3-52.4,37.1-74.7c4.9-11.2,8.9-21.2,11.6-29.4
			c1.2-3.4,2.1-6.9,3-10.5c-15.5-5.8-36.3-13.7-57.5-23.2C288.4,118.5,269.2,108.9,256,97.5L256,97.5z M194.7,424.9l-15.3,11.9
			c0,0,10.4,13.4,24.7,26.9c14.3,13.5,31.7,28.5,51.9,28.5s37.6-15,51.9-28.5c14.3-13.5,24.7-26.9,24.7-26.9l-15.3-11.9
			c0,0-9.7,12.4-22.7,24.8c-13,12.3-30,23.2-38.6,23.2s-25.5-10.9-38.6-23.2C204.4,437.4,194.7,424.9,194.7,424.9z"/>
	</g>
</g>
<g id="Calque_2">
	<g>
		<path class="st3" d="M256,5.5L66.1,124.3L256,507.1l189.9-382.8L256,5.5z M94.5,133.4L256,32.3l161.5,101.1L256,459L94.5,133.4z"
			/>
		<polygon class="st3" points="256,65.4 127.1,146 256,405.8 384.9,146 		"/>
	</g>
	<path class="st3" d="M85.9,281.3L10,434.4l75.9,47.5l75.9-47.5L85.9,281.3z M85.9,471.2l64.6-40.4L85.9,300.6l0,0l64.6,130.2
		L85.9,471.2L85.9,471.2z"/>
	<path class="st3" d="M425.9,281.3L350,434.4l75.9,47.5l75.9-47.5L425.9,281.3z M425.9,471.2l64.6-40.4l-64.6-130.2l0,0l64.6,130.2
		L425.9,471.2L425.9,471.2z"/>
</g>
</svg>
