<?xml version="1.0" encoding="utf-8"?>
<!-- Generator: Adobe Illustrator 26.0.2, SVG Export Plug-In . SVG Version: 6.00 Build 0)  -->
<svg version="1.1" id="Calque_1" xmlns="http://www.w3.org/2000/svg" xmlns:xlink="http://www.w3.org/1999/xlink" x="0px" y="0px"
	 viewBox="0 0 113.4 113.4" style="enable-background:new 0 0 113.4 113.4;" width="512" height="512" xml:space="preserve">
<style type="text/css">
	.st0{fill:#FFFFFF;}
</style>
<g transform="translate(0,0)">
	<path class="st0" d="M24.7,4.7c-11.2,0-20.3,9.1-20.3,20.3c0,3.7,1,7.2,2.8,10.2c-0.4,1.5-0.7,3.1-0.7,4.7c0,7,4.4,13,10.7,15.4
		C15.8,56.9,15,58.9,15,61c0,2.6,1.1,4.9,2.9,6.6c-8,1.7-14.1,8.8-14.1,17.3c0,9.7,7.9,17.7,17.7,17.7c3.6,0,6.9-1.1,9.7-2.9
		c3,4.1,7.8,6.8,13.3,6.8c7.4,0,13.5-4.9,15.6-11.6c0,0,0.1,0,0.1-0.1c5-0.5,9.6-2,13.7-4.4c2.3,3.5,6.1,6,10.5,6.5
		c0,0.2,0,0.5,0,0.7c0,5.9,4.8,10.7,10.7,10.7s10.7-4.8,10.7-10.7c0-4.3-2.6-8.1-6.3-9.7c0.5-1.2,0.8-2.5,1-3.9
		c3.4-3,5.5-7.4,5.5-12.2c0-3.3-1-6.5-2.7-9.1c3.6-2.6,5.9-6.9,5.9-11.6c0-6.4-4.3-11.9-10.1-13.8c0.2-1.1,0.3-2.2,0.3-3.3
		c0-1.1-0.1-2.1-0.3-3.2c2-2,3.2-4.7,3.2-7.7c0-6-4.9-10.8-10.8-10.8c-2.2,0-4.3,0.7-6,1.8c-1.2-3.3-4.4-5.7-8.2-5.7
		c-4.8,0-8.7,3.9-8.7,8.7c0,2.2,0.9,4.3,2.3,5.8c-2.1,2.3-3.5,5.2-4,8.5c-3-0.9-6.2-1.5-9.5-1.5c-1.4,0-2.8,0.1-4.2,0.3
		c-0.2-6.7-4.5-12.4-10.4-14.8C39.2,9.1,32.4,4.7,24.7,4.7L24.7,4.7z M24.7,8.9c1.7,0,3.3,0.3,4.8,0.7c-0.3,0-0.6,0-0.9,0
		c-5.6,0-10.1,4.5-10.1,10.1s4.5,10.1,10.1,10.1c5.6,0,10.1-4.5,10.1-10.1c0-1.4-0.3-2.7-0.8-3.9c1.8,2.6,2.9,5.8,2.9,9.3
		c0,9-7.2,16.2-16.2,16.2S8.5,34,8.5,25.1C8.5,16.1,15.8,8.9,24.7,8.9L24.7,8.9z M77.3,12.5c0.2,0,0.4,0,0.6,0
		c-1.1,0.3-1.9,1.3-1.9,2.6c0,1.5,1.2,2.7,2.7,2.7c1.5,0,2.7-1.2,2.7-2.7c0-0.1,0-0.2,0-0.3c0.4,0.7,0.6,1.4,0.6,2.3
		c0,2.6-2,4.6-4.6,4.6c-2.6,0-4.6-2-4.6-4.6S74.7,12.5,77.3,12.5L77.3,12.5z M91.5,16.3c0.8,0,1.5,0.1,2.1,0.3c-2.2,0.1-4,1.9-4,4.1
		c0,2.3,1.8,4.1,4.1,4.1c2.2,0,4-1.8,4.1-4c0.2,0.7,0.4,1.4,0.4,2.2c0,3.7-3,6.7-6.7,6.7c-3.7,0-6.7-3-6.7-6.7S87.7,16.3,91.5,16.3
		L91.5,16.3z M70.4,35.9c0.8,0,1.6,0.1,2.3,0.3c-3.4,0-6.2,2.8-6.2,6.2c0,3.5,2.8,6.3,6.3,6.3c3.5,0,6.3-2.8,6.3-6.3
		c0-0.9-0.2-1.8-0.5-2.6c1.3,1.7,2.1,3.8,2.1,6.2c0,5.6-4.5,10.1-10.1,10.1c-5.6,0-10.1-4.5-10.1-10.1
		C60.3,40.4,64.8,35.9,70.4,35.9L70.4,35.9z M94.6,40.7c0.3,0,0.5,0,0.8,0c-2.3,1.1-3.8,3.4-3.8,6.1c0,3.8,3.1,6.8,6.8,6.8
		c3,0,5.5-1.9,6.4-4.5c0.1,0.6,0.2,1.3,0.2,1.9c0,5.8-4.6,10.4-10.4,10.4c-5.8,0-10.4-4.6-10.4-10.4C84.2,45.3,88.9,40.7,94.6,40.7
		L94.6,40.7z M49.5,54.1c0.1,0,0.3,0,0.4,0c-5.8,1.5-10.1,6.8-10.1,13.1c0,7.5,6.1,13.5,13.5,13.5c7.5,0,13.5-6.1,13.5-13.5
		c0-1.1-0.1-2.1-0.4-3.1c1.6,2.8,2.5,6.1,2.5,9.5c0,10.8-8.7,19.5-19.5,19.5C38.7,93.2,30,84.5,30,73.7C30,62.9,38.7,54.1,49.5,54.1
		L49.5,54.1z M23.9,56.3c0.7,0,1.4,0.2,2,0.4c-0.1,0-0.2,0-0.3,0c-1.5,0-2.7,1.2-2.7,2.7c0,1.5,1.2,2.7,2.7,2.7
		c1.5,0,2.7-1.2,2.7-2.7c0.2,0.5,0.2,1,0.2,1.5c0,2.6-2.1,4.7-4.7,4.7c-2.6,0-4.7-2.1-4.7-4.7C19.2,58.4,21.3,56.3,23.9,56.3
		L23.9,56.3z M21.6,71.4c1.1,0,2.2,0.1,3.2,0.4c-0.1,0-0.2,0-0.2,0c-5.2,0-9.4,4.2-9.4,9.4s4.2,9.4,9.4,9.4c2.4,0,4.6-0.9,6.2-2.4
		c0.8,1.1,1.8,2.1,2.8,3c-2.3,4.3-6.8,7.3-12,7.3c-7.5,0-13.5-6-13.5-13.5C8,77.4,14.1,71.4,21.6,71.4L21.6,71.4z M86.1,72.1
		c0.5,0,1,0,1.4,0.1c-2.7,0.9-4.7,3.4-4.7,6.5c0,3.7,3,6.8,6.8,6.8c3.3,0,6-2.3,6.6-5.4c0.2,0.8,0.3,1.6,0.3,2.4
		c0,1.6-0.4,3.1-1,4.4c-0.1,0-0.2,0-0.3,0c-4.2,0-7.8,2.4-9.6,6c-5.5-0.3-9.8-4.8-9.8-10.4C75.7,76.7,80.3,72.1,86.1,72.1L86.1,72.1
		z M95.1,91c0.4,0,0.9,0,1.3,0.1c-1.6,0.4-2.9,1.9-2.9,3.6c0,2.1,1.7,3.7,3.7,3.7c2.1,0,3.7-1.7,3.7-3.7c0-0.1,0-0.1,0-0.2
		c0.5,0.9,0.7,1.9,0.7,3c0,3.7-2.9,6.6-6.6,6.6c-3.7,0-6.6-2.9-6.6-6.6C88.6,93.9,91.5,91,95.1,91L95.1,91z"/>
</g>
</svg>
