<?xml version="1.0" encoding="utf-8"?>
<!-- Generator: Adobe Illustrator 26.0.2, SVG Export Plug-In . SVG Version: 6.00 Build 0)  -->
<svg version="1.1" id="Calque_1" xmlns="http://www.w3.org/2000/svg" xmlns:xlink="http://www.w3.org/1999/xlink" x="0px" y="0px"
	 viewBox="0 0 113.4 113.4" style="enable-background:new 0 0 113.4 113.4;" xml:space="preserve">
<style type="text/css">
	.st0{fill:#FFFFFF;}
</style>
<g>
	<path class="st0" d="M42.3,37.1c-1.1,2.2-2.2,4.3-3.5,6.7C52.7,49.8,59.4,61.2,63.3,75c1.1-5.5,2.2-10.9,3.4-16.7
		c3.9,1.9,7.5,3.7,11.1,5.5c4.5-4.4,8.9-8.6,13.6-13c0,3.5,0,6.9-1.5,10c-3.5,7-7,14.1-10.3,21.1c-0.7,1.4-1.1,3.1-1.1,4.7
		c-0.1,7.5-0.1,14.9-0.1,22.6c-13.6,0-26.9,0-40.6,0c0.8-5.6,1.6-11,2.4-16.4c0.6-3.9,1.3-7.7,1.7-11.6c0.1-1-0.4-2.3-1-3.2
		C34,68.1,27.3,58.3,20.3,48.5c-2-2.8-2.1-5.1-0.1-7.9c4.3-6.3,8.5-12.8,12.5-19.3c1.5-2.4,2.9-2.7,5.4-1.4
		c6.7,3.4,13.4,6.6,20.2,9.6c2.5,1.1,2.4,2.6,1.4,4.6c-2,3.9-6.6,6-11.5,4.9C46.3,38.6,44.4,37.8,42.3,37.1z M69.1,85.4
		c-5.1-0.7-9.7-1.3-15-2c1.1,0.9,2,1.6,3,2.3c2.5,1.8,3.3,4.2,3.2,7.3c-0.1,3.7,0.3,7.5,0.5,11.2c0.8-2,1.1-4.1,1.5-6.1
		C63.2,93.1,62.8,87.4,69.1,85.4z"/>
	<path class="st0" d="M87,31.5c-0.5,0.7-0.8,1.2-1.2,1.7C80.9,38.6,76,44,71.2,49.5c-1.3,1.4-2.2,1.3-3.6,0.3
		c-7.4-5.4-7.5-5.8-2.3-12.9c3.2-4.4,6.6-8.8,9.7-13.3c1.3-1.9,2.6-2.1,4.2-0.6c2.3,2.2,4.6,4.4,6.8,6.7
		C86.4,30.1,86.7,30.9,87,31.5z"/>
	<path class="st0" d="M62,36.9c0-0.2,0-0.4,0-0.5c1.2-6.1,0.8-6.9-4.5-9.7c-1.3-0.7-2.5-1.4-4-2.2c2.6-4.4,5-8.6,7.7-12.7
		c0.4-0.7,2.3-1.1,2.9-0.8c3.3,1.9,6.5,4,9.5,6.3c0.5,0.4,0.9,2,0.5,2.5c-3.8,5.9-7.8,11.6-11.7,17.4C62.2,37.1,62.1,37,62,36.9z"/>
	<path class="st0" d="M88,34.3c2.2,2.9,4.3,5.3,6,8c0.4,0.6,0.1,2.2-0.4,2.7c-4.8,4.5-9.8,8.8-14.6,13.2c-1.1,1-2,0.9-3.1,0
		c-4.9-3.7-5.1-5.1-1-9.5C79.1,44.2,83.3,39.6,88,34.3z"/>
	<path class="st0" d="M51.2,23.5c-4.2-2-8.2-3.9-12.4-5.9c2.5-4.4,4.8-8.7,7.3-12.9c0.3-0.5,1.5-1,2-0.8c3.4,1.5,6.7,3.1,9.9,5
		c0.5,0.3,0.8,2,0.4,2.7C56.1,15.5,53.7,19.3,51.2,23.5z"/>
</g>
<path class="st0" d="M80.6,24.7c9.4-7.4,13.3-6.2,16.5,0c-2.7-10.1-1.7-11,7.4-19.2c-11.1,5.9-15.9,5.6-21.6-1.2
	C88.7,13,88,16.7,80.6,24.7L80.6,24.7z"/>
<path class="st0" d="M109.7,36c-5.6-4.6-5.8-7.1-5.1-14.5c-3.1,8.9-4.6,11.1-10.6,13.5C100.5,33.5,103.3,33.2,109.7,36L109.7,36z"/>
<path class="st0" d="M80.9,12.7c-4.1-4.5-4.4-7.2-4-11.9c-2.4,5.7-3.6,7.5-9.2,10.6C73.4,9.6,75.2,9.7,80.9,12.7z"/>
</svg>
