<?xml version="1.0" encoding="utf-8"?>
<!-- Generator: Adobe Illustrator 26.0.2, SVG Export Plug-In . SVG Version: 6.00 Build 0)  -->
<svg version="1.1" id="Calque_1" xmlns="http://www.w3.org/2000/svg" xmlns:xlink="http://www.w3.org/1999/xlink" x="0px" y="0px"
	 viewBox="0 0 113.4 113.4" style="enable-background:new 0 0 113.4 113.4;" xml:space="preserve">
<style type="text/css">
	.st0{fill:#FFFFFF;}
</style>
<g transform="translate(0,0)">
	<path class="st0" d="M24.3,7.2c10.1,13.3,15.8,28,20.1,45.8H28.3l2.6,3.2l5.9,7.2L56.4,88l4.8-6.1l21-25.7l2.6-3.2H69.4
		c4.3-17.8,10-32.4,20.1-45.8H73c-8.8,14.7-11.4,30.4-13.7,49.6h17.4L56.6,81.4L36.5,56.8h17.9c-2.2-19.3-5.2-35.1-13.9-49.6
		C40.5,7.2,24.3,7.2,24.3,7.2z M25.3,82.6c-1.4,0.3-2.7,0.7-3.9,1.1c-4.5,1.4-8.1,3.1-10.4,4.8c-2.3,1.7-3.2,3.3-3.2,4.7
		c0,1.4,0.9,3,3.2,4.7s5.9,3.4,10.4,4.8c9,2.8,21.7,4.6,35.6,4.6c14,0,26.6-1.8,35.6-4.6c4.5-1.4,8.1-3.1,10.4-4.8
		c2.3-1.7,3.2-3.3,3.2-4.7s-0.9-3-3.2-4.7c-2.3-1.7-5.9-3.4-10.4-4.8c-1.2-0.4-2.5-0.8-3.9-1.1c3.9,1.9,6.2,4.2,6.2,6.6
		c0,6.7-17,12.1-37.9,12.1s-37.9-5.4-37.9-12.1C19.1,86.7,21.4,84.5,25.3,82.6L25.3,82.6z M38.6,83.8c-1,0.2-2,0.5-2.9,0.8
		c-2.7,0.8-4.8,1.8-6.1,2.8c-1.3,1-1.6,1.7-1.6,2.2s0.4,1.2,1.6,2.2c1.3,1,3.4,2,6.1,2.8c5.3,1.7,12.9,2.7,21.3,2.7s16-1.1,21.3-2.7
		c2.7-0.8,4.8-1.8,6.1-2.8c1.3-1,1.6-1.7,1.6-2.2s-0.3-1.2-1.6-2.2s-3.4-2-6.1-2.8c-0.9-0.3-1.9-0.5-2.9-0.8c1.8,1,2.8,2.2,2.8,3.4
		c0,3.7-9.5,6.8-21.3,6.8c-11.7,0-21.3-3-21.3-6.8C35.7,85.9,36.8,84.8,38.6,83.8L38.6,83.8z"/>
</g>
</svg>
