<?xml version="1.0" encoding="utf-8"?>
<!-- Generator: Adobe Illustrator 26.3.1, SVG Export Plug-In . SVG Version: 6.00 Build 0)  -->
<svg version="1.1" id="Calque_1" xmlns="http://www.w3.org/2000/svg" xmlns:xlink="http://www.w3.org/1999/xlink" x="0px" y="0px"
	 viewBox="0 0 113.4 113.4" style="enable-background:new 0 0 113.4 113.4;" width="512" height="512" xml:space="preserve">
<style type="text/css">
	.st0{fill:#FFFFFF;}
</style>
<g transform="translate(0,0)">
	<path class="st0" d="M43.1,18.7c0,4.6,1.6,8.7,4,11.5l2.3,2.8l-3.6,0.7c-3.1,0.6-5.4,2.2-7.4,4.9c-0.7,0.9-1.3,2-1.9,3.2
		c6.1,1.2,12.7,1.9,19.7,1.9c6.4,0,12.5-0.6,18.2-1.6c-0.6-1.4-1.4-2.6-2.2-3.7c-1.9-2.6-4.4-4.3-7.9-4.8l-3.6-0.6l2.3-2.9
		c2.3-2.8,3.8-6.9,3.8-11.4C67,9.8,61.4,3,55.1,3C46.9,3.1,43.3,13.7,43.1,18.7L43.1,18.7z M69.9,10.8c0.9,2.4,1.3,5.1,1.3,7.9
		c0,1.9-0.2,3.8-0.7,5.6C82,25.6,92,28.7,99.5,33c1.6-1,3-2.1,4.2-3.2c0.9,1.4,1.5,2.7,1.8,4.1c-10,8.6-28.2,13.8-49.1,13.8
		c-20.8,0-38.9-5.2-48.9-13.7c0.3-1.6,0.9-3,1.7-4.2c1.2,1.1,2.6,2.1,4.1,3.1c6.9-4,16-6.9,26.4-8.5c-0.5-1.9-0.7-3.8-0.7-5.9
		c0-2.7,0.4-5.3,1.2-7.6c-2.8,0.4-5.5,0.8-8,1.6C20.8,16.1,6.4,21.4,3.4,32.7c-0.7,3,0,6.7,1.1,9c1.9,3.2,4,5.9,6.9,7.9
		c5.1,3.8,12.1,6.9,20.4,8.9l0,0c5.7,1.4,12.2,2.4,18.9,2.7c1.7,0.1,3.6,0,5.5,0c8.7,0,16.9-1,24.1-2.7v0.1c8.5-2,15.6-5,20.8-8.9
		c5.2-3.8,8.6-8.7,8.6-14.1c0-5.5-3.4-10.3-8.6-14.2C90.7,14.9,81.3,12.2,69.9,10.8L69.9,10.8z M98.2,56.5
		c-5.1,2.6-10.9,4.6-15.6,5.8c0,0.4,0,1.2,0,1.6c6.5,1.6,12.2,3.4,17,6.1c1.6-1,3-2.1,4.2-3.2c0.9,1.3,1.5,2.7,1.8,4.1
		c-10.1,8.6-28.3,13.8-49.1,13.8c-20.8,0-38.8-5.2-48.9-13.7c0.2-1.4,0.8-2.8,1.7-4.2c1.2,1.1,2.6,2.1,4.1,3.1
		c4.1-2.4,9.1-4.4,14.5-6l0.1-2.3c-4.9-1.4-9.4-3.2-13.3-5.3c-3.1,1.9-6.5,4.5-8.4,7.2c-2.4,3-3.1,6-3.1,9
		c0.3,6.2,3.7,10.5,8.4,14.1c5.1,3.8,12.1,6.9,20.4,8.9l0-0.1c5.7,1.4,12.2,2.4,18.9,2.7c9.7,0,21-0.4,29.6-2.7
		c7.4-2.1,15.3-4.8,20.8-8.8c5.2-3.8,8.6-8.7,8.6-14.1s-3.4-10.3-8.6-14.1C100.3,57.9,99.2,57.2,98.2,56.5L98.2,56.5z M32.2,62.9
		c-0.2,3.7-0.3,7.5-0.3,11h10l0.4,5.7c4.5,0.6,9.2,1,14.1,1c4.2,0,8.2-0.2,12.1-0.7c0.1-2,0.3-4,0.4-6h9.5c0-3.4,0-7-0.2-10.7
		c-6.7,1.4-14.1,2.1-21.9,2.1c-1.8,0-3.8,0.1-5.7,0C44.1,65.1,37.9,64.3,32.2,62.9L32.2,62.9z M43.9,102l0.6,7.9h22l0.5-7.9
		C59,102.7,51.6,102.8,43.9,102L43.9,102z"/>
</g>
</svg>
