<?xml version="1.0" encoding="utf-8"?>
<!-- Generator: Adobe Illustrator 26.0.3, SVG Export Plug-In . SVG Version: 6.00 Build 0)  -->
<svg version="1.1" id="Calque_1" xmlns="http://www.w3.org/2000/svg" xmlns:xlink="http://www.w3.org/1999/xlink" x="0px" y="0px"
	 viewBox="0 0 113.4 113.4" style="enable-background:new 0 0 113.4 113.4;" width="512" height="512" xml:space="preserve">
<style type="text/css">
	.st0{fill:#FFFFFF;}
</style>
<path class="st0" d="M80.6,24.7c9.4-7.4,13.3-6.2,16.5,0c-2.7-10.1-1.7-11,7.4-19.2c-11.1,5.9-15.9,5.6-21.6-1.2
	C88.7,13,88,16.7,80.6,24.7L80.6,24.7z"/>
<path class="st0" d="M109.7,36c-5.6-4.6-5.8-7.1-5.1-14.5C101.5,30.4,100,32.6,94,35C100.5,33.5,103.3,33.2,109.7,36L109.7,36z"/>
<path class="st0" d="M80.9,12.7c-4.1-4.5-4.4-7.2-4-11.9c-2.4,5.7-3.6,7.5-9.2,10.6C73.4,9.6,75.2,9.7,80.9,12.7z"/>
<g>
	<g>
		<path class="st0" d="M41.3,76c0-0.5,0-0.9,0-1.3c0.1-3.1-0.1-6.2,0.3-9.2c0.7-6.2,5.7-11.3,11.8-12.6c9.5-1.9,18.3,5.2,18.3,14.9
			c0,2.7,0,5.3,0,8.1c1.1,0,2.2,0,3.2,0c3,0,4.9,2,4.9,4.9c0,7.6,0,15.3,0,22.9c0,3-1.9,5-5,5c-12.3,0-24.7,0-37,0
			c-2,0-3.4-0.9-4.3-2.6c-0.3-0.6-0.5-1.4-0.5-2.1c0-7.8,0-15.5,0-23.3c0-2.8,2-4.8,4.8-4.8C39,76,40.1,76,41.3,76z M65.8,76
			c0-0.1,0.1-0.3,0.1-0.4c0-2.7,0.1-5.5-0.1-8.2c-0.1-1.3-0.5-2.6-1-3.7c-1.9-3.8-6-5.7-10.1-4.9c-3.8,0.7-7.2,4.2-7.4,8.3
			c-0.1,2.5-0.1,5-0.1,7.5c0,0.5,0,1,0,1.5C53.4,76,59.6,76,65.8,76z M56.5,100.6c0.6,0,1.2,0,1.8,0c1.2,0,1.9-0.8,1.7-2
			c-0.2-1.6-0.5-3.1-0.8-4.7c-0.1-0.7,0-1.2,0.5-1.7c1.9-1.7,1.9-4.7,0.1-6.6c-1.9-1.9-4.8-1.8-6.7,0.1c-1.7,1.8-1.6,4.9,0.3,6.5
			c0.6,0.5,0.6,0.9,0.5,1.5c-0.3,1.6-0.5,3.1-0.8,4.7c-0.2,1.2,0.5,2,1.8,2.1C55.4,100.6,55.9,100.6,56.5,100.6z"/>
	</g>
	<g>
		<path class="st0" d="M58.9,4.2c16.6,0.2,33,6.8,46.7,20c0.8,0.8,1.5,1.8,1.8,2.8c0.5,1.8-0.4,3.6-2,4.5c-1.7,0.9-3.5,0.6-5.1-0.7
			c-2.9-2.5-5.8-5.2-9-7.4C67,6.7,34.5,9.6,13.2,30.1c-0.8,0.7-1.7,1.4-2.7,1.7c-1.8,0.5-3.7-0.4-4.6-2.1c-0.9-1.7-0.6-3.6,0.9-5.1
			c4-4,8.5-7.5,13.4-10.5C31.4,7.5,43.5,4.2,58.9,4.2z"/>
		<path class="st0" d="M58.6,21.1c12.2,0.2,24.5,5.1,34.9,14.9c2.4,2.3,2.7,4.7,1,6.7c-1.4,1.5-4.2,1.9-6.8-0.6
			c-17.7-17-45.1-16.8-62.8,0.3c-2,1.9-4.6,2-6.3,0.3c-1.8-1.8-1.6-4.4,0.5-6.4C28.9,26.5,42.4,21.1,58.6,21.1z"/>
		<path class="st0" d="M56.6,37.9c10,0.1,18.6,3.6,25.7,10.6c1.6,1.5,1.8,3.4,0.9,5.2c-0.9,1.6-2.6,2.5-4.4,2.1
			c-0.8-0.2-1.7-0.6-2.3-1.2c-11.1-10.9-28.9-10.9-39.9,0c-1.8,1.8-4.4,1.7-6.1,0c-1.6-1.7-1.6-4.3,0.3-6.1
			C37.9,41.5,46.6,38,56.6,37.9z"/>
	</g>
</g>
</svg>
