<?xml version="1.0" encoding="utf-8"?>
<!-- Generator: Adobe Illustrator 26.3.1, SVG Export Plug-In . SVG Version: 6.00 Build 0)  -->
<svg version="1.1" id="Calque_1" xmlns="http://www.w3.org/2000/svg" xmlns:xlink="http://www.w3.org/1999/xlink" x="0px" y="0px"
	 viewBox="0 0 113.4 113.4" style="enable-background:new 0 0 113.4 113.4;" xml:space="preserve">
<style type="text/css">
	.st0{fill:#FFFFFF;}
</style>
<path class="st0" d="M80.6,24.7c9.4-7.4,13.3-6.2,16.5,0c-2.7-10.1-1.7-11,7.4-19.2c-11.1,5.9-15.9,5.6-21.6-1.2
	C88.7,13,88,16.7,80.6,24.7L80.6,24.7z"/>
<path class="st0" d="M109.7,36c-5.6-4.6-5.8-7.1-5.1-14.5C101.5,30.4,100,32.6,94,35C100.5,33.5,103.3,33.2,109.7,36L109.7,36z"/>
<path class="st0" d="M80.9,12.7c-4.1-4.5-4.4-7.2-4-11.9c-2.4,5.7-3.6,7.5-9.2,10.6C73.4,9.6,75.2,9.7,80.9,12.7z"/>
<g transform="translate(0,0)">
	<path class="st0" d="M44.7,3.4l9.1,4.1V29l2.5,4l2.9-4V7.5l9.1-4.1L44.7,3.4L44.7,3.4z M26.4,10.6L9.7,27.3l9.4-3.5l15.1,15.1
		l4.9,0.8L38,35.2L22.8,20L26.4,10.6L26.4,10.6z M85.6,10.6l3.5,9.4L74,35.2l-1.1,4.6l4.9-0.8l15.1-15.1l9.4,3.5L85.6,10.6
		L85.6,10.6z M56.4,36.3c-4.2,0-8.1,2.2-11,5.9c-2.9,3.7-4.8,9-4.8,14.9c0,6.1,2.1,11.5,5.2,15.3l2.3,2.7l-3.5,0.7
		c-8.9,1.7-13.1,5.1-15.5,10.8c-2.3,5.3-2.8,13.1-2.8,23.1h60.6c0-10-0.1-18-2.2-23.4c-2.2-5.8-6.2-9.2-16-10.7l-3.5-0.6l2.2-2.8
		c3-3.7,4.8-9.1,4.8-15c0-5.9-1.9-11.1-4.8-14.9C64.4,38.4,60.6,36.3,56.4,36.3L56.4,36.3z M6.4,45.1v23.6l4.1-9.1H32l4-2.8l-4-2.5
		H10.6L6.4,45.1L6.4,45.1z M106.6,45.1l-4.1,9.1H81l-4,2.5l4,2.8h21.4l4.1,9.1L106.6,45.1L106.6,45.1z"/>
</g>
</svg>
