<?xml version="1.0" encoding="utf-8"?>
<!-- Generator: Adobe Illustrator 26.0.3, SVG Export Plug-In . SVG Version: 6.00 Build 0)  -->
<svg version="1.1" id="Calque_1" xmlns="http://www.w3.org/2000/svg" xmlns:xlink="http://www.w3.org/1999/xlink" x="0px" y="0px"
	 viewBox="0 0 113.4 113.4" style="enable-background:new 0 0 113.4 113.4;" xml:space="preserve">
<style type="text/css">
	.st0{fill:#FFFFFF;}
</style>
<g transform="translate(0,0)">
	<path class="st0" d="M32.2,3.8l10.1,6l-5.7,13.9C29.8,27.9,24.4,34,21.1,41.3l-9.1-4l5.7-8.9l-14-11.3v5.4l8.5,6.9L6,39.2l13.7,6.1
		c-1.3,3.9-1.9,8-1.9,12.2c0,0.7,0,1.4,0.1,2.1L12,61.2l-8.2-5.7v5.1l7.5,5.2l7-1.9c0.6,3.4,1.5,6.7,2.9,9.8L6.2,78.1l4.9,9.9
		l-7.3,1.3v4.2l13.6-2.4l-5.2-10.4l10.9-3.3c3.5,6.1,8.7,11.2,14.8,14.7l1.1,7.6L28,101.9l4.8,7.4h5l-2.9-4.5l8.8-1.9l-1.2-8.6
		c4.6,1.9,9.7,3,15,3c3.4,0,6.6-0.4,9.8-1.2l17.9,6.4l5.2,6.9h5.2l-6.8-9.1l8.1-7.3l-10.2-8.4c4.3-4.7,7.6-10.4,9.2-16.8l2.6,3.9
		L109.2,57v-7L98.6,64.3l-1.7-2.5c0.2-1.4,0.2-2.9,0.2-4.4c0-7.2-1.9-13.9-5.2-19.7l4.8-6.2L93,21.1h6.7L96.4,3.8h-4.2l2.5,13.1H79
		l-2.9,5.5c-5.6-3-12-4.7-18.7-4.7c-1.3,0-2.6,0.1-3.9,0.2l-7.4-6.5l1.4-3.3l-7.2-4.3L32.2,3.8L32.2,3.8z M44.4,15.5l3.8,3.3
		c-2.1,0.5-4,1.1-6,1.9L44.4,15.5L44.4,15.5z M81.6,21.1h7.1l3.4,9.8l-2.5,3.2c-2.7-3.7-6-6.9-9.8-9.5L81.6,21.1L81.6,21.1z
		 M57.5,21.9C77.1,21.9,93,37.8,93,57.5C93,77.1,77.1,93,57.5,93c-4.2,0-8.3-0.7-12.1-2.1c-0.3-0.1-0.6-0.2-0.9-0.3l0,0
		c-0.3-0.1-0.5-0.2-0.8-0.3c-0.7-0.3-1.3-0.6-1.9-0.9l0,0c-1.6-0.8-3.1-1.7-4.6-2.7l0,0c-4.1-2.9-7.6-6.6-10.2-10.8l0-0.1
		c-0.6-1.1-1.2-2.2-1.8-3.3l0,0c-1.4-3-2.4-6.3-2.9-9.7l0,0c-0.2-1.4-0.3-2.8-0.4-4.2l0,0c0-0.3,0-0.7,0-1c0-3.7,0.6-7.2,1.6-10.5
		l0,0c0.4-1.3,0.9-2.6,1.5-3.9l0,0c2.4-5.5,6.2-10.2,10.9-13.8l0,0c1.3-1,2.7-1.9,4.1-2.7l0,0c0.9-0.5,1.9-1,2.8-1.4c0,0,0,0,0,0
		C47.2,23,52.2,21.9,57.5,21.9L57.5,21.9z M57.5,26c-9.2,0-17.4,3.9-23.1,10.1l3,6.1l14.5-12.5l12.9,11.2l-13.5-5.8l-8.8,8.9
		l7.7,2.6l1.9,11.8l22.2,17.4l-25-12.1l-15.1,1.7l16.5,13.2l-14,2.3c5.5,4.9,12.8,7.9,20.8,7.9c3,0,5.9-0.4,8.6-1.2L43,82.6h0
		l22.7,1.5l-8.7-11.2l16.5,11.6c4.3-2.5,7.9-6,10.6-10.2l-27.1-22l22.4-4.4l-15-17.7l22.6,16C82.3,34.4,70.9,26,57.5,26L57.5,26z
		 M31.4,39.8C28,44.9,26,50.9,26,57.5c0,1.2,0.1,2.4,0.2,3.6l19-3L44.4,50l-11.6-2.9L31.4,39.8L31.4,39.8z M88.2,50.9l-19.7,3.3
		l16.6,18.3c2.4-4.5,3.8-9.6,3.8-15C88.9,55.2,88.6,53,88.2,50.9L88.2,50.9z M27.3,66.2c1.3,4.5,3.6,8.6,6.6,12l5.9-2.2L27.3,66.2
		L27.3,66.2z M83.6,87.3l6.8,5.6L85,97.8l-11.5-4.1C77.2,92.1,80.6,89.9,83.6,87.3L83.6,87.3z"/>
</g>
</svg>
