<?xml version="1.0" encoding="utf-8"?>
<!-- Generator: Adobe Illustrator 26.0.1, SVG Export Plug-In . SVG Version: 6.00 Build 0)  -->
<svg version="1.1" id="Calque_1" xmlns="http://www.w3.org/2000/svg" xmlns:xlink="http://www.w3.org/1999/xlink" x="0px" y="0px"
	 viewBox="0 0 113.4 113.4" style="enable-background:new 0 0 113.4 113.4;" xml:space="preserve">
<style type="text/css">
	.st0{fill:#FFFFFF;}
</style>
<path class="st0" d="M80.6,24.7c9.4-7.4,13.3-6.2,16.5,0c-2.7-10.1-1.7-11,7.4-19.2c-11.1,5.9-15.9,5.6-21.6-1.2
	C88.7,13,88,16.7,80.6,24.7L80.6,24.7z"/>
<path class="st0" d="M109.7,36c-5.6-4.6-5.8-7.1-5.1-14.5C101.5,30.4,100,32.6,94,35C100.5,33.5,103.3,33.2,109.7,36L109.7,36z"/>
<path class="st0" d="M80.9,12.7c-4.1-4.5-4.4-7.2-4-11.9c-2.4,5.7-3.6,7.5-9.2,10.6C73.4,9.6,75.2,9.7,80.9,12.7z"/>
<g transform="translate(0,0)">
	<path class="st0" d="M56.5,2.2c-8.8,0-17.2,2.1-24.5,5.9l2.8,4.8C41.4,9.4,49,7.5,57.1,7.5c8.3,0,16.1,2.1,23,5.7l2.5-4.3
		C74.8,4.7,65.9,2.2,56.5,2.2L56.5,2.2z M28.2,10.2C13.2,19.4,3,35.7,2.3,54.5h6C8.9,37.9,17.8,23.4,31,15L28.2,10.2L28.2,10.2z
		 M86.3,11.1l-2.5,4.3c12.9,8.4,21.5,22.7,22.1,39.1h4.8C110.1,36.3,100.5,20.5,86.3,11.1L86.3,11.1z M55.4,11.8
		c-15,0.6-28.1,8.5-35.7,20.3l10.6,6.1c-0.8,1.2-1.5,2.4-2.2,3.7l-10.6-6.1c-3.2,6.1-5,13.1-5,20.5c0,7.5,1.8,14.5,5.1,20.7
		l10.6-6.1c0.6,1.3,1.4,2.5,2.2,3.7l-10.6,6.1c7.7,11.7,20.7,19.6,35.6,20.1v-12c0.6,0,1.2,0.1,1.9,0.1c0.8,0,1.6,0,2.4-0.1v12
		C74.4,100,87.2,92,94.7,80.3l-10.3-5.9c0.8-1.2,1.5-2.4,2.1-3.7l10.3,5.9c3.1-6.1,4.9-13,4.9-20.3c0-7.2-1.7-14.1-4.8-20.1l-10.3,6
		c-0.6-1.3-1.3-2.5-2.1-3.7l10.3-6c-7.5-11.8-20.3-19.8-35-20.6V24c-0.8-0.1-1.6-0.1-2.4-0.1c-0.6,0-1.3,0-1.9,0.1L55.4,11.8
		L55.4,11.8z M46.9,27.8l4.7,8.1c1.8-0.5,3.7-0.8,5.7-0.8c2,0,3.9,0.3,5.7,0.8l4.7-8.1l9.3,5.3l-4.7,8.1C75,44,77,47.4,78,51.2h9.4
		v10.6H78c-1,3.8-3,7.2-5.7,9.9l4.7,8.1l-9.3,5.3L63,77.1c-1.8,0.5-3.7,0.8-5.7,0.8c-2,0-3.9-0.3-5.7-0.8l-4.7,8.1l-9.3-5.3l4.7-8.1
		c-2.7-2.7-4.7-6.1-5.7-9.9h-9.4V51.2h9.4c1-3.8,3-7.2,5.7-9.9l-4.7-8.1L46.9,27.8L46.9,27.8z M2.3,58.8c0.8,18.7,11,34.9,26,44.1
		l2.9-5.1c-13.2-8.2-22.1-22.5-23-39L2.3,58.8L2.3,58.8z M105.9,58.8c-0.8,16.2-9.5,30.4-22.4,38.6l2.6,4.5
		c14.2-9.3,23.8-25.1,24.6-43.2L105.9,58.8L105.9,58.8z M79.8,99.6c-6.8,3.6-14.5,5.6-22.7,5.6c-8,0-15.5-1.9-22.1-5.3l-2.9,5.1
		c7.3,3.7,15.6,5.8,24.4,5.8c9.4,0,18.2-2.4,25.9-6.6L79.8,99.6z"/>
</g>
</svg>
