<?xml version="1.0" encoding="utf-8"?>
<!-- Generator: Adobe Illustrator 26.4.1, SVG Export Plug-In . SVG Version: 6.00 Build 0)  -->
<svg version="1.1" id="Calque_1" xmlns="http://www.w3.org/2000/svg" xmlns:xlink="http://www.w3.org/1999/xlink" x="0px" y="0px"
	 viewBox="0 0 512 512" style="enable-background:new 0 0 512 512;" xml:space="preserve">
<style type="text/css">
	.st0{fill:#FFFFFF;}
</style>
<g transform="translate(0,0)">
	<path class="st0" d="M293.4,19.1c17.5,71.1,24.2,245.1-34.8,319.1l11.3,19.4l0.1,0.3c1.7,3.4,2.2,7,2,10.5l0.1-0.1l-15.8,95.8
		l-19.4-52.5v81.3h7.1c55.2-17.2,98.1-24.2,174.5-3.7c55.5,14.9,95.8-25.9,67.1-107.3c-39.2-111.2-35.7-258.3,1.9-362.9L293.4,19.1
		L293.4,19.1z M165.2,166c-13.2,0-30,4.5-46.2,13.8c-16.2,9.3-28.5,21.5-35.1,32.9s-7.2,20.7-3.6,26.9c3.6,6.2,12.1,10.4,25.3,10.4
		s30-4.5,46.2-13.8c16.2-9.3,28.5-21.5,35.1-32.9c6.6-11.4,7.2-20.7,3.6-26.9C186.9,170.1,178.4,166,165.2,166L165.2,166z
		 M179.8,239.4c-5.6,4.7-11.9,9-18.7,13c-5.6,3.2-11.2,5.9-16.8,8.2l73.6,126.7l0.1,0.2c0.7,1.4,0.9,1.6,4.8,1.4
		c3.9-0.2,9.9-2.2,15.4-5.5c5.5-3.2,10.4-7.6,13-11.3c2.5-3.6,2.4-5.1,2.1-5.9L179.8,239.4L179.8,239.4z M192,379.9
		c-5.6,3.4-11.2,6.9-17,10.5c-33.8,21.3-68.2,38.5-93.9,45.1c-64.5-14.7-91.2,57.4-28.7,57.4l0,0h165.8v-84.8l-14.1,35.8l-4.7-51.2
		L192,379.9L192,379.9z"/>
</g>
</svg>
