<?xml version="1.0" encoding="utf-8"?>
<!-- Generator: Adobe Illustrator 26.4.1, SVG Export Plug-In . SVG Version: 6.00 Build 0)  -->
<svg version="1.1" id="Calque_1" xmlns="http://www.w3.org/2000/svg" xmlns:xlink="http://www.w3.org/1999/xlink" x="0px" y="0px"
	 viewBox="0 0 512 512" style="enable-background:new 0 0 512 512;" width="512" height="512" xml:space="preserve">
<style type="text/css">
	.st0{fill:#FFFFFF;}
</style>
<g transform="translate(0,0)">
	<path class="st0" d="M256,18c-42.7,0-81.9,25.5-110.9,68.4C116,129.3,97.6,189.4,97.6,256c0,66.5,18.3,126.6,47.4,169.6
		c29.1,43,68.3,68.5,110.9,68.5s81.9-25.5,111-68.5c29.1-43,47.4-103.1,47.4-169.6c0-66.5-18.4-126.6-47.4-169.6
		C337.9,43.4,298.7,18,256,18z M127,259.3c18.4,18.1,37.5,26.8,55.7,27.6c18.2,0.8,35.9-6.1,52.1-21.5l12.9,13.5
		c-19.2,18.3-42.2,27.7-65.8,26.6c-23.6-1-47.1-12.3-68-32.9L127,259.3L127,259.3z M391.8,259.3l13.1,13.3
		c-20.9,20.6-44.5,31.9-68,32.9c-23.6,1-46.6-8.3-65.8-26.6l12.9-13.5c16.2,15.4,33.9,22.3,52.1,21.5
		C354.3,286,373.4,277.4,391.8,259.3L391.8,259.3z M258.5,371.4c36.4-0.2,73,19.1,77.4,58.4c-51.3,13.3-102.7,12.8-154,0
		C185.7,391.1,222,371.5,258.5,371.4L258.5,371.4z"/>
</g>
</svg>
