<?xml version="1.0" encoding="utf-8"?>
<!-- Generator: Adobe Illustrator 26.3.1, SVG Export Plug-In . SVG Version: 6.00 Build 0)  -->
<svg version="1.1" id="Calque_1" xmlns="http://www.w3.org/2000/svg" xmlns:xlink="http://www.w3.org/1999/xlink" x="0px" y="0px"
	 viewBox="0 0 113.4 113.4" style="enable-background:new 0 0 113.4 113.4;" width="512" height="512" xml:space="preserve">
<style type="text/css">
	.st0{fill:#FFFFFF;}
</style>
<g transform="translate(0,0)">
	<path class="st0" d="M56.5,3.2c-24.4,0-44.2,20.4-44.2,45.6c0,19,11.2,35.3,27.2,42.1v-3.7c0-5.8-1.4-9-3.1-10.9
		c-1.7-1.9-3.9-2.6-6.2-2.7c-4.1-0.2-7.3-2.8-9.2-6.1c-1.5-2.5-1.3-5.6-0.1-8.3c1.2-2.7,3.5-5.3,6.6-7.6c6.2-4.6,15.7-8,27.5-8
		c11.8,0,22.1,3.5,29.1,8.1c3.5,2.3,6.1,4.9,7.7,7.6c1.6,2.7,2,5.9,0.5,8.6c-0.9,1.6-2.5,2.7-4.2,3.6c-1.7,0.9-3.6,1.5-5.5,1.5
		c-2.7,0-4.6,0.5-6.2,2.3s-2.8,5.3-2.8,11.8v3.7c16-6.9,27.3-23.1,27.3-42.1C100.7,23.6,80.9,3.2,56.5,3.2L56.5,3.2z M39.3,22.7
		c0.3,0,0.7,0,1,0c3.3,0.2,6.4,1,9.2,2.2l3.9,1.7l-3.7,2L30.8,39l-2-3.7l14.6-8C38,26.1,32,26.9,25,31.3l-2.2-3.6
		C28.6,24.1,34.1,22.6,39.3,22.7L39.3,22.7z M73,22.7c5.2-0.1,10.7,1.4,16.5,5l-2.2,3.6c-7-4.4-13-5.2-18.4-3.9l14.6,8l-2,3.7
		L62.7,28.7l-3.7-2l3.9-1.7c2.9-1.3,6-2.1,9.2-2.2C72.4,22.7,72.7,22.7,73,22.7L73,22.7z M56.5,61c-15.5,0-25.4,3.5-26.3,8.5l0.1,0
		c3,0.2,6.5,1.2,9.1,4c2.6,2.8,4.2,7.3,4.2,13.7v22.5h25.6V87.2c0-7.1,1.3-11.6,3.8-14.6c2.5-2.9,6.1-3.8,9.4-3.8c0.1,0,0.2,0,0.3,0
		C81.2,63.8,71.5,61,56.5,61L56.5,61z"/>
</g>
</svg>
