<?xml version="1.0" encoding="utf-8"?>
<!-- Generator: Adobe Illustrator 26.0.2, SVG Export Plug-In . SVG Version: 6.00 Build 0)  -->
<svg version="1.1" id="Calque_1" xmlns="http://www.w3.org/2000/svg" xmlns:xlink="http://www.w3.org/1999/xlink" x="0px" y="0px"
	 viewBox="0 0 113.4 113.4" style="enable-background:new 0 0 113.4 113.4;" xml:space="preserve">
<style type="text/css">
	.st0{fill:#FFFFFF;}
</style>
<g transform="translate(0,0)">
	<path class="st0" d="M39,17.1c-14.2,0-27.5,5-37.6,15.4V39C13,24.4,30.6,19.1,49,22.3c-17.9-0.2-35.3,7-47.6,21.7v7.1
		C13,34.5,30.7,26.4,49,26.6C26.2,31.7,9.4,44.9,1.7,62.9c14.2,16.1,38.2,27.4,57.5,30.7c18.9,3,38.1,0.5,52.4-8.7v-5.3
		c-13.3,9.8-32.5,12.8-51.7,9.7c-2.2-0.3-4.3-0.8-6.5-1.3c21,2.5,42.7-1.9,58.2-13.9v-5.6C101.1,77.8,86.7,82.9,71.4,84
		C84.2,81,97,74.3,109.7,64.2l1.6-1.3c-3.1-4.3-6.6-8.7-9.7-12.2C87.9,33.3,69.9,22.3,52.1,18.5c-3.9-0.8-7.8-1.3-11.6-1.4
		C40,17.1,39.4,17.1,39,17.1L39,17.1z M57.3,28.4c1.7,2,3.1,4.2,4.3,6.5c-3,1.1-5.2,4.1-5.2,7.5c0,4.4,3.6,8,8,8
		c0.5,0,0.9,0,1.3-0.1c1.1,12.6-2.4,25.9-8.4,33.8C47.2,70.3,45.5,43.9,57.3,28.4L57.3,28.4z M46.6,31.4c-9.7,4.1-16.5,13.8-16.5,25
		c0,10.8,6.3,20.1,15.4,24.5c-10.3-1.6-20.3-5.7-30.2-12.6c-1.8-5.3-2.1-10.6-0.7-16C24.5,40.8,35.3,33.8,46.6,31.4L46.6,31.4z
		 M73.9,34.9c8,3.6,16.1,9.7,24,18.4c1.2,4.8,1,9.6-0.5,14.5c-8.6,5.6-17.2,9.5-25.7,11.7c7.7-4.8,12.8-13.3,12.8-23.1
		C83.4,47.8,79.5,39.4,73.9,34.9L73.9,34.9z"/>
</g>
</svg>
