<?xml version="1.0" encoding="utf-8"?>
<!-- Generator: Adobe Illustrator 26.0.2, SVG Export Plug-In . SVG Version: 6.00 Build 0)  -->
<svg version="1.1" id="Calque_1" xmlns="http://www.w3.org/2000/svg" xmlns:xlink="http://www.w3.org/1999/xlink" x="0px" y="0px"
	 viewBox="0 0 512 512" style="enable-background:new 0 0 512 512;" width="512" height="512" xml:space="preserve">
<style type="text/css">
	.st0{fill-opacity:0;}
	.st1{fill:#FFFFFF;}
</style>
<path class="st0" d="M0,0h512v512H0V0z"/>
<path class="st1" d="M188.8,316.7c-0.7,1.9-1.6,2.4-3,1.4c-0.7,1.5-1.3,3.2-1.7,4.8c-0.8,5-1,10.1-0.6,15.2c0.1,0.6,0.4,1.1,0.5,1.7
	c0.1,0.3-0.2,0.7-0.1,1c0.7,1.8,1.6,3.5,2.3,5.2c0.1,0.3-0.1,0.8,0,1c0.3,0.5,0.8,0.9,1.3,1.2c2.4,0.4,4.6,1.6,6.4,3.3
	c1.3,1.5,1.9,3.4,1.8,5.4c-0.2,2.3-1,4.6-2.3,6.5c-0.5,1.1-1,2.2-1.3,3.3c-0.1,0.2-0.1,0.4-0.2,0.6c-1.5,1.4-0.9,3.1-0.4,4.7
	c2,5.9,3.9,11.7,6.2,17.5c1.2,3.1,3.5,5.8,4.7,8.9c1.4,3.1,3.2,6,5.2,8.7c1.4,2.1,3.1,4,4.6,5.9c0.1,0.1,0.2,0.3,0.3,0.3
	c1.8,0,2.3,1.7,3.5,2.5c1.4,0.9,2.6,2.1,4,3c2.5,1.5,5.1,2.9,7.6,4.4c1.3,0.7,2.6,1.4,3.9,2.2c1.6,1,2.2,3,1.6,4.8
	c-0.2,0.5-0.3,1.1-0.3,1.7c0.2,2.3-0.9,4.5-2.9,5.6c-1.8,1.1-3.2,2.6-4.9,3.7c-2.2,1.4-4.5,2.6-6.9,3.6c-3.7,1.6-7.3,3.2-11.1,4.6
	c-5,1.9-10.1,3.5-15.2,5.2c-0.2,0.1-0.5,0.1-0.7,0.1c-2.1-0.8-3.4,0.8-4.9,1.5c-0.3,0.1-0.4,0.6-0.5,0.9c-0.2,0.7-0.6,0.8-1.3,0.9
	c-0.9,0.3-1.7,0.6-2.5,1.1c-3.6,1.5-7.3,2.9-10.9,4.4c-4.7,2-9.4,4-14,6c-2.9,1.2-5.7,2.6-8.5,3.9c-2.1,0.8-4.3,1-6.5,0.6
	c-0.5,0-1-0.7-1.4-1.1c-0.6-0.6-1.2-1.4-1.8-2c-1.6-1.6-3.2-3.3-4.7-4.9c-0.7-0.7-1.4-1.4-1.9-2.1c-0.6-0.7-1-1.6-1.6-2.3
	c-0.4-0.5-0.8-1-1.2-1.4c-0.5-0.5-1.2-0.7-0.8-1.6c0-0.1-0.5-0.6-0.8-0.7c-2.5-0.9-4.7-2.3-6.7-4s-4.1-3.2-6-5.1
	c-0.7-0.9-1.2-2-1.5-3.1c-0.5-1.2-0.8-2.5-1.4-3.7c-1.2-2.5-1.9-5.2-2.1-7.9c0-0.4,0.1-0.8,0.3-1.1c0.3-0.7,0.4-1.5,0.4-2.2
	c-0.4-2.4-0.9-4.7-1.7-7c-1.9-5.1-2.3-10.7-4.5-15.7c-0.7-1.8-1.1-3.7-1.4-5.6c0-0.7,0.1-1.4,0.3-2.1c0-0.3,0-0.6-0.1-0.8
	c-1.2-1.2-1.3-3-2.3-4.2c-1.1-1.3-0.7-2.5-0.8-3.8c-0.2-1.2-0.6-2.5-1-3.7c-0.7-3.4-1.4-6.7-2.1-10.1c-0.2-0.7-0.3-1.5-0.4-2.2
	c-0.1-1.2,0.1-1.7,1.2-3.7c0.4-0.7,0.7-1.3,1-2c2-3.9,3.6-7.9,4.7-12.1c0.3-1.5,0.4-3.1,0.6-4.6c0.3-3-0.3-5.9-1.7-8.5
	c-1-1.9-2.3-3.5-3.9-4.9c-3.3-3.2-7.3-5.6-11.6-7.1c-2.4-0.6-4.8-0.9-7.2-1.1c-4.9,0.9-9.8,1.4-14.7,1.4c-3.6,0.5-7.2,0.7-10.9,0.7
	c-1.4-0.2-2.7-0.6-4-1.1c-1.7-0.4-3.4-0.9-5.2-1.2c-3.1-0.6-5.5-3.1-6.1-6.1c-0.1-0.5-0.1-1,0.2-1.5c1.7-2.4,4.3-3.9,7.2-4.4
	c1.3-0.3,2.5-0.8,3.7-1.3c0.3-0.2,0.7-0.3,1.1-0.5c2.9-0.5,5.8-1.4,8.4-2.8c0.6-0.4,1.2-0.8,1.8-1.1c1.9-1.1,3.8-2.2,5.6-3.4
	c2.7-1.7,4.8-4.3,5.9-7.3c0.5-1.4,0-2.9-1.1-3.7c-1.2-1.3-2.2-2.7-3.1-4.2c-1-1-1.1-2.4-0.4-3.6c-0.7-2.3,1.4-3.5,2.1-5.2
	c0.2-0.3,0.4-0.7,0.5-1.1c0-0.4-0.1-0.7-0.4-1c-1.7-1-3.6-1.9-5.3-3c-1.5-0.5-3.1-0.2-4.4,0.8c-0.7,0.5-1.5,0.9-2.3,1
	c-0.9,0.1-1.8,0.3-2.7,0.6c-2.4,1.3-4.7,2.7-6.9,4.3c-2.4,2.1-4.3,4.6-5.7,7.5c-0.5,0.1-1,0.1-1.5,0.2c-0.2,0-0.3-0.1-0.4-0.2
	c-1.7-1.2-3.4-2.4-5-3.6c-0.7-0.4-1.4-1-1.9-1.6c-1.1-1.3-1.4-3.1-0.7-4.6c1.7-4.2,2.7-8.6,4.3-12.9c1.1-3.3,2.5-6.4,4.2-9.4
	c0.8-1.5,1.8-2.6,1.1-4.3c-0.1-0.2,0.3-0.8,0.5-1c1.4-1.1,3.3-1.2,4.8-0.3c0.2,0.1,0.4,0.2,0.6,0.3c-0.4-1.6,0.6-2.2,1.7-2.5
	c1.4-0.4,2.8-0.9,3.9,0.7c0.3,0.4,0.7,0.7,1,1c0.2-0.9-0.8-1.8,0.3-2.2c1.1-0.5,2.4-0.8,3.6-1c0.4,0,0.9,1.1,1.4,1.7
	c0.4,0.5,0.8,1,1.1,1.5c0.3,0.4,0.5,0.9,0.7,1.4c0.5,1.9,2.4,3.1,4.3,2.7l-0.6-0.2l-0.1-0.3c0.6-0.1,1.3-0.3,1.9-0.6
	c0.3-0.2,0.6-0.6,0.6-1c-0.1-1.6-0.2-3.2-0.4-4.7c-0.1-0.6-0.3-1.2-0.7-1.8c-0.8-1.2-0.4-2.7,0.7-3.5c0.1,0,0.1-0.1,0.2-0.1
	c1.2-0.6,2.4-1.2,3.5-1.8c0.3-0.2,0.4-0.5,0.6-0.8l-0.3-0.2c-0.7,0.3-1.3,0.7-2,1c-0.8,0.5-1.7,0.2-2.2-0.5l-0.1-0.1
	c-0.7-1.1-1.3-2.3-2-3.4c-2.1-3.9-4.3-7.7-6.4-11.6c-0.1-0.1-0.1-0.2-0.2-0.3c-1.1-1.7-1-2.3,0.8-3.3c4.7-2.7,9.4-5.4,14.1-8.1
	c2.3-1.4,4.5-2.8,6.6-4.3c3.1-1.9,6.4-3.5,9.8-4.7c2.2-0.9,4.2-2.1,6.4-2.9c3.9-1.4,7.9-2.7,11.9-3.8c3.5-0.9,7-1.6,10.8-2.4
	l-0.8-0.5c1.7-0.3,3.3-0.6,4.8-0.9c1.9-0.2,3.7-0.6,5.5-1.2c3.2-1,6.5-1.3,9.8-1c1,0,1.5,0.8,1.7,1.8c0,0.4,0.2,0.9,0.4,1.2
	c1,1.5,2,3.1,3,4.6c0.2,0.6,0.9,0.9,1.5,0.6c0.1,0,0.2-0.1,0.3-0.2c2.4-1.2,2.6-1.2,3.9,1.3c0.2,0.3,0.4,0.6,0.7,1.1l59.1-31.1
	c-0.3-0.9-0.6-1.6-0.8-2.4c-0.6-1.2-0.1-2.7,1.1-3.3c0.4-0.2,0.8-0.3,1.2-0.2c1.2-0.1,1-0.6,0.8-1.4c-0.4-1.1-0.6-2.2-0.7-3.3
	c0-0.5,0.5-1.1,0.9-1.4c3.7-3.2,7.6-6,11.7-8.6c3.5-2.4,7-5,10.5-7.5c2.6-1.8,5.2-3.7,7.9-5.4c1.6-1.1,3.3-1.9,5.2-2.4
	c1.3-0.3,3-1.2,4.4,0.4c0.2,0.2,0.7,0.1,0.9,0.1c0.8-2.2,2.3-4.1,4.3-5.4c2.9-1.8,5.7-3.8,8.7-5.6c2.4-1.5,4.9-2.8,7.4-4.1
	c5.6-3,11.2-6,16.8-8.9c3.1-1.6,6.3-3.1,9.4-4.8c4.8-2.6,9.5-5.3,14.4-7.8c5.7-3,11.5-5.8,17.2-8.7c7.4-3.9,14.8-7.8,22.1-11.7
	c4.3-2.3,8.7-4.5,13-6.8c2.9-1.6,5.7-3.3,8.7-4.9c1.2-0.5,2.4-0.9,3.6-1.3c0.3-0.1,0.5-0.5,0.6-0.9c0.1-0.7,0.3-1.4,0.6-2.1
	c1.4-2.1,2.9-4.2,4.5-6.1c1.1-1.1,2.2-2.2,3.4-3.2c2.4-1.8,4.5-3.8,6.4-6.1c1.8-2.4,4.1-4.4,6.9-5.6c6.6-3.6,13.3-7.2,19.9-10.8
	c0.8-0.4,1.4-0.7,1.9,0.4c0.1,0.2,0.2,0.3,0.4,0.4c1.3-0.1,1.6,1,2.1,1.8c0.7,1.3,1.3,2.5,2,3.8c3-0.7,3.1-0.7,4.6,1.9
	c0.8,1.3,1.4,2.7,2,4.1c0.5,0.9,0.3,2-0.4,2.8c-0.3,0.4-0.4,0.9-0.3,1.4s0.3,1,0.5,1.5l-1.2,0.8l0.7,1.3c1.2,2.2,1.2,2.2,3.5,1.2
	c1-0.4,2.2,0.1,2.6,1.2c0,0.1,0.1,0.1,0.1,0.2c0.1,0.4,0.3,0.7,0.5,1.1c5.5,10.4,10.9,20.8,16.4,31.2c0.9,1.1,0.7,2.8-0.4,3.7
	c-0.3,0.2-0.6,0.4-0.9,0.5c-0.6,0.3-1.2,0.7-1.8,1c-1.4,0.7-0.4,1.5-0.1,2.3c0.2,0.8,0.8,1,1.6,0.6c0.6-0.2,1.2-0.2,1.8-0.2
	c1.1,0.1,2.1,0.2,3.2,0.5c0.7,0.2,1.2,0.6,1.6,1.2c1,1.6,1.9,3.2,2.8,4.9c2,3.8,4.1,7.6,5.9,11.5c0.7,1.8,1.2,3.7,1.6,5.7
	c1.5,5.3,3,10.7,4.3,16.1c0.8,3.3,1.3,6.6,1.9,10.1c-1.6-0.2-1.8,0.7-1.9,2c-0.2,0.8-0.7,1.5-1.4,1.9c-4,2.4-8,4.7-12.1,6.9
	c-4.8,2.6-9.7,5-14.6,7.5c-3.7,1.9-7.4,3.7-11.1,5.7s-7.3,4.2-11,6.1c-6.2,3.3-12.5,6.3-18.7,9.7c-4.1,2.3-8.1,4.9-12.1,7.4
	c-0.2,0.1-0.3,0.2-0.5,0.3c-4,2.1-8,4.3-12,6.3c-1.1,0.7-2.5,1.1-3.8,1c-0.9-0.1-1.8,0.9-2.8,1.3c-4.6,2.3-9.2,4.6-13.7,6.9
	c-0.1,0-0.2,0-0.4,0l0.4-0.3l-0.1-0.3c-4.8-0.2-9.5,0.7-13.9,2.6c0.8,0.9,1.9,1.5,3.2,1.5c0.3,0.1,0.8,0.1,0.9,0.4
	c0.9,2.1,1.9,4.2,2.7,6.3c0.1,0.3-0.3,0.9-0.6,1.2c-1.3,1.1-2.7,2.1-4,3.2c-0.5,0.4-0.8,0.5-1.2-0.1c-0.3-0.6-0.7-1.3-1.1-2.1
	l-3.6,2.7c-0.1,0.1-0.2,0.1-0.3,0.2c-1.6,0.8-1.6,0.8-0.9,2.5c0,0.1,0.1,0.2,0.1,0.3c-1.1,0.8-2.1,1.7-3.3,2.5
	c-0.9,0.6-2.2,0.4-2.8-0.5c-0.1-0.1-0.1-0.2-0.1-0.3c-0.2-0.3-0.4-0.6-0.7-1.1l-6.5,3l1.6,2.1c-1.1,1.6-3,2.6-5,2.7l-1-1.5l-5.6,2.2
	l0.7,1.5c0.4,0.7,0.1,1.6-0.6,1.9c-0.1,0-0.2,0.1-0.2,0.1c-1.4,0.5-2.7,1.2-4.2,1.8c-0.1-0.2-0.3-0.3-0.4-0.5
	c-0.3-0.7-1.1-1.1-1.9-0.8c-0.1,0-0.1,0-0.2,0.1c-1.7,0.7-3.4,1.3-5.2,2l2.2,2.8c-0.3,0.2-0.5,0.4-0.8,0.6c-1.2,0.7-2.4,1.3-3.6,1.9
	c-0.7,0.5-1.6,0.3-2.1-0.4c-0.1-0.1-0.1-0.3-0.2-0.4c-0.4-1-0.9-1.9-1.4-2.8c-0.3-0.6-0.7-0.6-1.1-0.1c-0.1,0.1-0.2,0.2-0.2,0.3
	c-1.8,2.5-4.4,4.2-7.4,4.9c-0.2,0-0.3,0.1-0.4,0.2c-2.3,1.5-4.8,2.6-7.4,3.4c-1.4,0.6-2.6,1.5-3.9,2.3c-0.7,0.5-1.4,0.9-2.2,1.2
	c-1.9,0.6-3.2,2.5-3,4.5c-0.1,1-0.4,2.1-0.8,3c-0.4,1.1-0.9,2.1-1.2,3.2c-0.9,2.6-1.8,5.2-2.6,7.8c-0.6,2.1-2.1,3.9-4.1,4.8
	c-5.1,2.5-10.2,5.1-15.2,7.7c-10.2,5.4-20.4,10.9-30.5,16.3c-2.3,1.3-4.7,2.5-7.1,3.6c-1.5,0.4-3,0.6-4.5,0.7c-3.3,0.6-6.7,1.3-10,2
	c-0.7,0.1-1.4,0.3-2.1,0.4c-2.1,0.1-4,1.3-5,3.2c-0.4,0.6-0.9,1.2-1.4,1.7c-0.2,0.1-0.5,0.2-0.7,0.1
	C189.9,317.8,189.4,317.3,188.8,316.7z M204.7,298.6c1.2,1,2.7,1.5,4.3,1.5c1.2,0,2.4-0.4,3.6-0.3c1.6,0.3,3.2,0,4.6-0.7
	c1.8-1.1,3.8-1.9,5.7-2.9c9.5-5,19-9.9,28.4-15c1.6-0.9,3.7-1.5,4.1-3.8c0-0.3,0.4-0.5,0.6-0.7c0.3-0.3,0.6-0.6,0.8-1
	c0.7-2,0.7-4.2,0.1-6.3c-0.8-3.7-2.1-7.2-3.9-10.5c-2.1-4.5-5.2-8.5-9.2-11.6c-1-0.8-1.9-1.9-3.4-1.5c-1,0.3-1.9,0.6-2.8,1.1
	c-9.1,4.8-18.2,9.6-27.3,14.4c-2,1.1-4.1,2.1-6.1,3.2c-2.2,1.2-4.4,2.3-6.7,3.5v0.4c0.4,0,0.8,0,1.2,0c1.1-0.3,2.1-0.8,3.1-1.1
	c1.8-0.4,3.7,0.6,4.4,2.3c0.9,3.6,2.3,7,3.9,10.3c0.1,0.2,0.1,0.4,0.2,0.6c0.6,1.9,1.7,3.6,3.2,4.8c3.4,2.8,7.5,4.5,11.9,4.9
	c0.6,0,1.1,0.6,1.1,1.2c0,0.2-0.1,0.5-0.3,0.7c-0.3,0.6-0.8,1.1-1.3,1.5c-1.1,0.7-2.3,1.2-3.5,1.8c-1.4,0.9-3.1,1.3-4.8,1.2
	c-2.2-0.2-4.4,0.1-6.4,0.9c-0.1,0-0.1,0-0.2,0l0.4-0.4l-0.1-0.2L204.7,298.6z"/>
</svg>
