<?xml version="1.0" encoding="utf-8"?>
<!-- Generator: Adobe Illustrator 26.0.2, SVG Export Plug-In . SVG Version: 6.00 Build 0)  -->
<svg version="1.1" id="Calque_1" xmlns="http://www.w3.org/2000/svg" xmlns:xlink="http://www.w3.org/1999/xlink" x="0px" y="0px"
	 viewBox="0 0 512 512" style="enable-background:new 0 0 512 512;" width="512" height="512" xml:space="preserve">
<style type="text/css">
	.st0{fill-opacity:0;}
	.st1{fill:#FFFFFF;}
</style>
<path class="st0" d="M0,0h512v512H0V0z"/>
<g>
	<path class="st1" d="M182.8,17.9c11.8,3.8,23.9,6.9,35.4,11.6c43.7,17.8,72.6,49.1,84.6,95.2c6.4,28.4,17.8,55.4,33.7,79.7
		c16.6,24.1,20.6,54.1,20.7,83.7c-0.8,18,3.5,35.9,12.5,51.6c-4-21.5,5.3-21.3,17.4-16.7c8,3,16.1,5.7,24,8.9
		c45.8,18.6,56.9,55.7,45.3,99.7c-2.5,9.5-6.8,18.6-11.4,30.6c13.3-10.7,17.3-23.9,23-38.5c8.5,17.7,6.9,35.1,13.7,50.1
		c3.4,15.5-2.5,19.2-18.1,18.6C427.5,491,391.2,492,355,492c-0.6-6.4,4.2-9.9,7.5-14.2c10-11.3,17.9-24.4,23.4-38.5
		c4.9-15.1,6.4-30-8.7-40.7c-4.8-3.4-3.8-5.8-0.7-9.5c9.5-11,3.9-18.4-6.6-23.6c-9.4-4.7-19.1-8.5-30.2-13.4
		c4-3.3,11.8-1.2,8.3-10.1c-33.8-84.1-115.4-138.2-199.4-121.1c-33.9,6.9-62.2,24.4-88.3,48.3c12.8-41.7,74.7-74.8,143.5-77
		c-11.8-8.4-25.6-13.3-40.1-14.3c-16.3-1-22.7-11.1-26.4-24.4c-3.5-12.2-1.8-25-2-37.5c-0.1-9,6.5-7.4,11.7-7.2
		c37.2,0.4,72.6,15.9,98.1,43c2.7,2.9,5.3,6,10.9,12.3c-7.6-21.1-21.8-39.2-40.5-51.8C195.8,98.9,174,89.3,150.9,84
		c-16.4-4.1-23.4-12.9-25-30.7c-1.5-16,4.8-26.2,20.1-33c1.3-0.7,2.5-1.5,3.6-2.4H182.8z M332.3,285.5c-5.3-37-43.1-72.8-81.6-76.2
		C282.8,228.8,310.6,254.7,332.3,285.5z M290.4,134.4c-9.7-41.3-51.8-82.3-92.7-88.8C237.3,68.6,265.1,98.4,290.4,134.4z"/>
	<path class="st1" d="M140.6,492.1c-4.3-17.9-13.1-34.5-16-56.4c12.9,12.1,25,21.1,33.7,32.6c3.6,5.1,9.2,8.6,15.4,9.5
		c31.1,6.5,51.3-9,66.8-33.1c7.3-11.4,12.8-23.9,19.7-35.5c3-5.1,7.5-11.3,14.3-7.9c5.4,2.7,2.1,9.2,1,13.8
		c-5.8,25.9-10.2,52.3-20.2,77.1L140.6,492.1z"/>
	<path class="st1" d="M288.5,492.1c7.2-28.8,12.1-58.2,14.6-87.8c9.6,7.6,15,17.4,27.2,20.6c-2.8-7.4-7.9-12.6-8.4-19.2
		c4.9-3.3,8.6,3.6,13,0.3c-5.3-6.5-13-11.3-15.2-21.2c9.3-0.9,17.1,7.6,27.8,3.9c-14.6-13.5-28.8-26.3-36.7-47.3
		c13,9,24.2,16.4,35,24.5c7.5,5.7,21.4,3.4,23.7,13.3c2.1,9.2-8.6,16.1-13.1,24.4c-12.2,22.4-22.9,45.7-31.8,69.7
		c-2.4,6.5-6,12.6-9,18.9L288.5,492.1z"/>
	<path class="st1" d="M25.8,377.4c21-7.8,40.6-19,57.9-33.2c-5.4,19.1-19.2,31.2-33.8,44.3c10.4,2.9,17.6-2.5,26.6-4.4
		c0.2,11-8.8,15.6-14.6,22.2c4.9,2.9,8.7-3.7,13.5-0.4c0.3,6.8-5.2,11.4-8.1,19.6c11.6-4.1,17.7-12.3,26.5-22
		c4.1,31.6,7.6,60.7,16.5,88.7H80.2c-2.2-5-4.6-10-6.5-15.2c-12.2-34.1-25.5-67.6-47.9-96.6V377.4z"/>
	<path class="st1" d="M270.4,492.1c-0.5-30.8,6.8-60.1,16-92.6c4.9,11.6-2.8,19.3,0.4,27.7l6.3-16l4.1,1
		c-6.3,26.7-6.6,54.8-20.7,79.8L270.4,492.1L270.4,492.1z"/>
	<path class="st1" d="M209.7,330.9c-21.4-0.2-23-2.2-13.7-18.7c-7.4,1.8-15.3-0.7-20.2-6.6c-6.5-7.5,0.9-12.6,2.3-18.9
		c2.7-12.1,3.6-24.6,5.4-37.7c10.7,2.6,11.9,15.2,22.5,18.8c10.9,3.6,21.6,7,32.8,9.7c15.4,3.6,22,12.5,18.8,27.3
		c-6.1,26.7-21.7,50.3-44,66.2c-3.9,2.3-8.1,3.9-12.6,4.6c-6.1,1.7-12.6,2-15.8-4.6c-2.9-5.9,0.9-10.6,5.5-14.2
		c5.4-4.3,11.3-7.6,0.4-13.2c-4.5-2.3,0.1-5.9,3.2-7.4C198.9,334,204.5,335.8,209.7,330.9z M207.9,281.1c-2.4,15,9.7,18.5,18.2,28.3
		C226.3,293.4,216.3,288.2,207.9,281.1z"/>
	<path class="st1" d="M263.4,371.5c-11.1,29.9-16.7,57.5-35,79.7c-3.7,6.4-11.5,9.1-18.4,6.3c-13.6-3.6-28.8-0.9-43.4-0.8
		c-14.1-0.5-26.7-8.8-32.6-21.6c-2.1-6-2.6-12.2,2.8-16.6c5-3.9,12.2-3.4,16.6,1.2c4.5,4,8.7,8.2,12.7,12.7c2.2,2.2,4.7,4.5,7.9,2.6
		c3.9-2.3,1.1-4.9-0.1-7.6c-7.7-17.5-7.6-17.7,12.1-17c20.4,1.7,40.3-6.4,53.8-21.8C246.7,381.6,254.6,375.9,263.4,371.5z"/>
</g>
</svg>
