<?xml version="1.0" encoding="utf-8"?>
<!-- Generator: Adobe Illustrator 26.0.2, SVG Export Plug-In . SVG Version: 6.00 Build 0)  -->
<svg version="1.1" id="Calque_1" xmlns="http://www.w3.org/2000/svg" xmlns:xlink="http://www.w3.org/1999/xlink" x="0px" y="0px"
	 viewBox="0 0 512 512" style="enable-background:new 0 0 512 512;" width="512" height="512" xml:space="preserve">
<style type="text/css">
	.st0{fill:#FFFFFF;}
</style>
<g transform="translate(0,0)">
	<path class="st0" d="M230,18.5l-20.1,69.4c-51.7,15-93.3,51.9-115.2,99.1l-73.4,9.8l58,43.1c-1.8,13.8-2.1,28.1-0.6,42.6
		c1.9,18.7,6.6,36.4,13.5,52.8l-33.6,63.2l62.7-16c10,11.8,21.5,22.3,34.2,31.2l4.1,72l44.7-47.5c3.5,1.2,7.1,2.2,10.7,3.2v51.1
		h18.7v-47.2c9.4,1.4,19.1,2.1,28.9,2v45.2h18.7v-46.3c16.7-1.8,32.7-5.9,47.7-11.8l48.3,30.5l1.8,2.2v25.4h18.7v-32.1l-2.1-2.6
		l-12.6-15.4l-8.5-34.3c19.6-15.5,35.9-34.8,47.8-56.7l67.4,2.7l-49.3-51.4c4-18.3,5.1-37.5,3.2-57.2c-1.8-17.9-6.1-34.9-12.6-50.8
		l0.8,1.1l45.1-59.1l-73.1,12c-33.7-41.5-84.9-67.6-141-68.1L230,18.5L230,18.5z M261.4,99.3c18.8,0,37,3.2,54,9.2L320,149l34.2-21
		c38.6,26.4,65.7,69,70.8,119.3c0.2,1.8,0.3,3.5,0.5,5.3l-48.3,16.1l45.2,29c-8.8,42.1-33.9,78.9-69,102.6V235.7
		c1-6.2,1.2-12.6,0.4-19c-7.2-58.1-80.5-59.5-100.8-6.8c-36.4-45.1-100.8-20-93.7,37.2c3.6,28.7,29.1,49.7,55.6,67.2v107.8
		c-54.9-16-98.7-60-113.3-117.2l29.7-25l-34.8-21.4c1-31.4,10.9-60.9,27.5-85.8l41.3,3.8l-15.8-33.6c25.3-23.4,58.1-39,95.1-42.8
		C250.2,99.6,255.8,99.3,261.4,99.3z M334.7,278.2v133.1c-16.4,8.2-34.4,13.7-53.5,16.1l0-79.1C291.4,328.2,316.7,304.8,334.7,278.2
		L334.7,278.2z M233.5,326.2c10.9,6.8,21,13.2,28.9,19.5v82.9c-9.8,0.1-19.5-0.7-28.9-2.3L233.5,326.2L233.5,326.2z"/>
</g>
</svg>
