<?xml version="1.0" encoding="utf-8"?>
<!-- Generator: Adobe Illustrator 26.0.2, SVG Export Plug-In . SVG Version: 6.00 Build 0)  -->
<svg version="1.1" id="Calque_1" xmlns="http://www.w3.org/2000/svg" xmlns:xlink="http://www.w3.org/1999/xlink" x="0px" y="0px"
	 viewBox="0 0 512 512" style="enable-background:new 0 0 512 512;" width="512" height="512" xml:space="preserve">
<style type="text/css">
	.st0{fill:#FFFFFF;}
</style>
<g transform="translate(0,0)">
	<path class="st0" d="M239.2,17l-15.2,34.8c-7.9,0.5-15.7,1.5-23.5,3l-23.3-30.1l-25.1,8.5L152,71.4c-10.6,5.5-20.8,12.1-30.4,19.8
		l-35.5-16L67.9,94.5L86.1,129c-5.9,8.3-10.9,17.1-15.2,26.1l-38.9,1.1L24,181.4l31.4,23.2c-1.5,9.4-2.2,18.9-2.3,28.3l-34.9,17.7
		l3.7,26.2l38.3,7.5c2.3,8,5.1,15.8,8.5,23.5l-25.2,31.3l14.1,22.4l39.2-9.2c2.5,2.9,5,5.8,7.7,8.5c5.6,5.8,11.6,11.2,17.7,16.1
		l-7.6,39.3l22.9,13.2l30-26.1c8.6,3.5,17.4,6.2,26.4,8.3l9.8,38.4l26.4,2.2l15.9-36.2c11-0.7,21.9-2.3,32.7-4.9l25.2,29.2l24.6-9.8
		l-0.7-14.8l-57.4-43.5c-16.7,4.2-34,5.4-51.1,3.4c-31.8-3.6-62.3-17.9-86.2-42.7c-54.7-56.6-53.2-146.7,3.4-201.4
		c27.4-26.5,62.7-40,98-40.3c37.6-0.4,75.2,14,103.4,43.2c45.9,47.5,52.2,119,19.6,173.1l32,24.2c4-6.3,7.6-12.8,10.8-19.4l38.7-1.1
		l7.9-25.3l-31.2-23c1.5-9.5,2.3-19,2.3-28.6l34.7-17.6l-3.7-26.2l-38.3-7.5c-3.2-11-7.4-21.8-12.8-32.1l22.8-31.6l-15.2-21.7
		l-37.6,10.9c-0.5-0.5-0.9-1-1.4-1.5c-6-6.2-12.3-11.9-18.9-17.1l7.2-37.1l-22.9-13.2l-28.5,24.8c-9.2-3.7-18.7-6.6-28.3-8.8
		l-9.3-36.7L239.2,17z M181,170.5c-10.3,0.1-20.6,2.7-30,7.3l45.2,34.3c13.7,10.4,17.6,30.1,7.1,43.9c-10.5,13.9-30.7,15.9-44.5,5.4
		l-45.2-34.3c-4.6,24.8,4.1,51.1,25.6,67.3c19.2,14.6,43.9,17.3,65.2,9.7l4.8-1.7l4,3.1l135.2,102.6l4,3.1l-0.3,5.1
		c-1.6,22.5,7.6,45.6,26.8,60.2c21.5,16.3,49.1,17.6,71.8,6.5l-45.2-34.3c-13.9-10.5-17.3-30.5-6.8-44.3c10.5-13.8,30.5-15.4,44.2-5
		l45.2,34.3c4.6-24.8-4.1-51.1-25.6-67.3c-19.3-14.7-43.8-17.6-65-10l-4.8,1.7l-4-3.1L253.6,252.2l-4-3.1l0.3-5
		c1.6-22.4-7.9-45.2-27.2-59.8C210.2,174.8,195.6,170.3,181,170.5L181,170.5z M224.6,260.7l163.9,124.3L377.2,400L213.3,275.6
		L224.6,260.7z"/>
</g>
</svg>
