<?xml version="1.0" encoding="utf-8"?>
<!-- Generator: Adobe Illustrator 26.0.2, SVG Export Plug-In . SVG Version: 6.00 Build 0)  -->
<svg version="1.1" id="Calque_1" xmlns="http://www.w3.org/2000/svg" xmlns:xlink="http://www.w3.org/1999/xlink" x="0px" y="0px"
	 viewBox="0 0 512 512" style="enable-background:new 0 0 512 512;" width="512" height="512" xml:space="preserve">
<style type="text/css">
	.st0{fill-opacity:0;}
	.st1{fill:#FFFFFF;}
</style>
<path class="st0" d="M0,0h512v512H0V0z"/>
<g transform="translate(0,0)">
	<path class="st1" d="M309.5,17.9l-14.9,55.7c-13.1-2.8-26.2-4.2-39.1-4.2v18.7c11.3,0,22.8,1.2,34.2,3.6l-14.5,54.1
		c3,0.5,5.9,1.2,8.9,2c3.1,0.8,6.2,1.8,9.1,2.9l14.5-54.1c11.1,3.6,21.6,8.4,31.4,14l9.3-16.2c-11.2-6.5-23.2-11.8-35.9-15.9
		l16.2-60.6L309.5,17.9L309.5,17.9z M207.4,75.9C175.9,84.4,147.1,101,124,124l13.1,13.1c8.1-8.2,17.1-15.4,26.7-21.7l27.9,48.4
		c5.1-3.6,10.5-6.7,16.2-9.3L180,106.1c10.2-5.2,21-9.3,32.1-12.3L207.4,75.9L207.4,75.9z M387,124l-13.2,13.2
		c8.2,8.2,15.4,17.1,21.7,26.7L346.9,192c3.5,5.1,6.7,10.6,9.3,16.2l48.7-28.1c5.2,10.2,9.3,21,12.3,32.1l18-4.8
		C426.7,175.9,410,147.1,387,124L387,124z M94.5,162.5c-6.4,11.2-11.8,23.2-15.9,35.9l-60.7-16.3v19.3l55.9,15
		c-2.8,13.1-4.1,26.1-4.1,39h18.7c0-11.3,1.2-22.7,3.6-34.2l53.8,14.4c0.6-3.1,1.2-6.2,2.1-9.2c0.8-3,1.7-5.9,2.8-8.8l-53.8-14.4
		c3.6-11.1,8.3-21.6,14-31.4L94.5,162.5L94.5,162.5z M256.5,183c-0.9,0-1.8,0-2.7,0.1c-30.9,1.3-58.8,22.4-67.2,53.7
		c-10.3,38.6,12.7,78.5,51.3,88.9c38.6,10.3,78.5-12.7,88.9-51.3c10.3-38.6-12.7-78.5-51.3-88.9C269.1,183.8,262.8,183,256.5,183
		L256.5,183z M256.5,201.7c1.3,0,2.6,0,3.9,0.1l-5.5,20.4c0.9-0.1,1.8-0.1,2.7-0.1c5.6,0,11,1.4,15.6,3.9l5.3-19.6
		c21.3,9.4,34.1,31.4,31.8,54.5l-19.1-5.2c0,0,0,0,0,0.1c0,6.6-1.9,12.7-5.2,17.9l19.3,5.2c-9.8,20.7-31.7,33-54.6,30.4l5.4-20
		c-6.6-0.3-12.7-2.5-17.7-6l-5.6,20.7c-19.8-9.7-31.7-30.7-29.8-52.8l21.1,5.7c0-0.4,0-0.8,0-1.2c0-6.2,1.7-12,4.6-16.9l-20.9-5.6
		c8.5-18.6,26.7-30.6,46.8-31.4C255.2,201.7,255.8,201.7,256.5,201.7L256.5,201.7z M422.8,255.5c0,11.3-1.2,22.8-3.6,34.2
		l-54.3-14.6c-0.5,3-1.2,6-2,9c-0.8,3.1-1.8,6.1-2.8,9l54.3,14.6c-3.6,11.1-8.4,21.6-14,31.4l16.2,9.3c6.5-11.2,11.8-23.2,15.9-35.9
		l60.7,16.3v-19.3l-55.8-15c2.8-13.1,4.2-26.1,4.2-39L422.8,255.5L422.8,255.5z M94,298.8l-18,4.8c8.5,31.4,25.1,60.2,48.1,83.3
		l13.2-13.2c-8.1-8.1-15.4-17.1-21.7-26.7l48.4-27.9c-3.6-5.1-6.7-10.5-9.4-16.2l-48.4,27.9C101.1,320.7,97,309.9,94,298.8L94,298.8
		z M319,346.7c-5.1,3.6-10.5,6.7-16.2,9.4l28.1,48.7c-10.2,5.2-21,9.3-32.1,12.3l4.8,18c31.5-8.5,60.3-25.1,83.3-48.1l-13.2-13.1
		c-8.2,8.1-17.1,15.4-26.7,21.7L319,346.7L319,346.7z M217.8,360.2l-14.5,54.1c-11.1-3.6-21.6-8.4-31.4-14l-9.3,16.2
		c11.2,6.4,23.1,11.8,35.9,15.9l-16.3,60.8h19.4l15-56c13.1,2.8,26.1,4.2,39,4.2v-18.7c-11.3,0-22.7-1.2-34.2-3.6l14.5-54.1
		c-3.1-0.6-6.2-1.2-9.3-2.1C223.5,362.1,220.6,361.2,217.8,360.2L217.8,360.2z"/>
</g>
</svg>
