<?xml version="1.0" encoding="utf-8"?>
<!-- Generator: Adobe Illustrator 25.1.0, SVG Export Plug-In . SVG Version: 6.00 Build 0)  -->
<svg version="1.1" id="Calque_1" xmlns="http://www.w3.org/2000/svg" xmlns:xlink="http://www.w3.org/1999/xlink" x="0px" y="0px"
	 width="213px" height="195.4px" viewBox="0 0 213 195.4" style="enable-background:new 0 0 213 195.4;" xml:space="preserve">
<style type="text/css">
	.st0{fill:#95046F;}
</style>
<g>
	<path class="st0" d="M161.8,138.6c-0.6,0.1-1.1,0.1-1.7,0.1c0.3,0.6,0.6,1.1,1,1.8C161.3,139.9,161.5,139.3,161.8,138.6
		 M19.9,104.9c0.1-0.5-0.1-0.7-0.5-0.7c-0.6,0-1.2,0-1.8,0c-0.6,0-0.6,0.3-0.4,0.7H19.9z M107.7,125.7c0.8,0,1.5,0,2.3,0
		c0.2,0,0.3-0.2,0.5-0.2c-0.2-0.1-0.3-0.3-0.5-0.3c-1.5,0-3,0-4.5,0c-0.2,0-0.3,0.2-0.5,0.2c0.2,0.1,0.3,0.3,0.5,0.3
		C106.2,125.7,106.9,125.7,107.7,125.7 M113,157.4c2-0.1,3.9-0.2,5.7-0.2c-0.5-0.2-1.1-0.1-1.5-0.4c-0.9-0.6-1.8-0.4-2.7-0.4
		C113.8,156.3,113.3,156.7,113,157.4 M88.1,30.9c0,0.1-0.1,0.1-0.1,0.2c0.3,0.3,0.6,0.7,0.9,0.7c1.6,0.1,3.3,0,5,0v-1H88.1z
		 M71.2,145.4c0,0.5-0.4,1,0.4,1.1c1.3,0.1,2.6,0.4,4,0c0.7-0.2,1-0.5,0.9-1.1H71.2z M141,183.4c-1.5,0-3.1,0-4.6,0
		c-0.3,0-0.6,0-0.6,0.5c0,0.5,0.2,0.6,0.6,0.6c1.3,0,2.6,0,3.9,0C141.1,184.4,141.2,184.4,141,183.4 M146.1,179.4
		c-0.4,1.2-0.7,2.3-1,3.4c0,0.1,0.2,0.5,0.3,0.5c0.9,0,1.8,0,2.7,0C147.4,182,146.8,180.8,146.1,179.4 M14.1,120.6
		c1.2-1.1,2.3-2,3.4-3c0-0.1-0.1-0.1-0.1-0.2h-4.8C13.2,118.5,13.6,119.5,14.1,120.6 M125.7,173.4c0.3,0.7,0.4,1.1,0.6,1.6
		c0.2,0.4,0.4,0.7,1,0.7c1-0.1,2,0,3,0c0.3,0,0.5-0.1,0.8-0.1c-0.2-0.7-0.4-1.3-0.6-1.8c-0.1-0.2-0.4-0.3-0.6-0.3
		C128.6,173.4,127.2,173.4,125.7,173.4 M132.6,176c0.2,0.9,0.3,1.6,0.4,2.3h5.1c-0.2-0.7-0.4-1.3-0.7-2c-0.1-0.2-0.3-0.4-0.4-0.4
		C135.6,176,134.2,176,132.6,176 M89,156.2c0.5,0.8,1.1,1.3,2.1,1.2c2.3-0.1,4.7-0.1,7,0c1,0,1.5-0.4,2.1-1.2H89z M15.9,91.1
		c0-0.1-0.1-0.1-0.1-0.2c-1.4,0-2.8,0-4.2,0c-0.1,0-0.2,0-0.2,0.1c-0.8,1.1-1.8,2.1-2.2,3.4c-0.3,1,0.1,2.2,0.2,3.6
		C11.7,95.5,13.8,93.3,15.9,91.1 M20,97c-1.6,0.3-7.5,5.3-8.2,7.2c0.9,0,1.8,0,2.7,0c0.1,0,0.3-0.1,0.4-0.2c1.6-1.2,3.2-2.5,4.8-3.7
		c0.2-0.1,0.3-0.3,0.4-0.5C20,98.8,20,97.9,20,97 M13.7,104.9c-1.2,0-2.2,0-3.1,0c-0.1,0-0.2,0.1-0.2,0.1c-0.7,0.7-1.5,1.4-2.1,2.2
		c-1.2,1.6-2.3,3.2-3.4,4.8c-0.3,0.5-0.5,1.1-0.9,1.8c1.2,0,2.1,0,3.1,0c0.5,0,0.7-0.1,0.9-0.5c1.7-2.7,3.2-5.6,5.4-7.9
		C13.4,105.5,13.5,105.3,13.7,104.9 M113.3,126.3L113.3,126.3c-0.6,0-1.3,0-1.9-0.1c-0.4,0-0.6,0.1-0.8,0.5
		c-0.7,1.7-1.5,3.4-2.2,5.1c-0.4,1-0.2,1.7,0.8,1.8c1.4,0.2,2.9,0.3,4.4,0.4c0.1,0,0.4-0.1,0.4-0.2c0.4-0.9,0.8-1.7,1.2-2.6
		c0.2-0.5,0.2-1.1,0.4-1.7c0.4-0.9,0.6-1.8,0.3-2.7c-0.1-0.2-0.4-0.4-0.6-0.5C114.6,126.2,113.9,126.3,113.3,126.3 M97.6,125.7
		c0,0.1,0,0.1,0,0.2c-0.7,0-1.4,0-2,0c-0.2,0-0.5,0-0.5,0.1c-0.5,0.7-1.2,1.3-1.3,2.1c-0.3,1.4-0.2,2.9,0.5,4.2
		c0.3,0.6,1,0.9,1.7,0.8c0.4-0.1,0.8-0.1,1.2-0.2c0.5-0.1,0.7,0,0.8,0.5c0.1,0.3,0.3,0.6,0.5,0.7c0.8,0.2,1.7,0.3,2.3-0.4
		c1.1-1.3,2.7-2.6,1.7-4.7c-0.1-0.1,0-0.3-0.1-0.4c-0.5-0.8-1-1.6-1.5-2.4c0-0.1-0.2-0.1-0.3-0.1C99.5,125.9,98.6,125.8,97.6,125.7
		 M71.4,126c-0.3,0-0.5,0-0.8,0c-1.3,0.1-2.6,0.1-4,0.1c-0.2,0-0.5-0.1-0.7-0.3c-0.1-0.1-0.1-0.4,0-0.4c0.3-0.4,0.6-0.8,1.3-0.8
		c1.2,0,2.4,0,3.7-0.1c0.4,0,0.6-0.1,0.6-0.5c-0.2-1.7-0.3-3.4-2-4.6c-1.2-0.8-2.4-1.7-3.9-1.8c-1.7,0-3.3,0.6-4.5,1.7
		c-1.4,1.2-2.5,2.8-2.4,4.9c0,0.5-0.2,0.7-0.7,0.7c-1.5,0-3,0.1-4.5,0.1c-0.7,0-0.8,0.3-0.7,0.8c1.6,0,3.2,0,4.8,0
		c0.7,0,1.4-0.2,1.4,0.9c0,0.2,0.2,0.4,0.4,0.5c0.5,0.6,1,1.2,1.6,1.7c1.7,1.4,3.6,2.2,5.8,1.4c0.3-0.1,0.6-0.2,1-0.3
		C70.1,129.6,71.1,128.1,71.4,126 M136.3,173.3c-0.4-0.6-0.6-1-0.8-1.4c-0.5-0.6-0.3-1,0.3-1.6c1-1,2-2,2.8-3.1
		c0.6-0.9,1-1.9,1.5-2.9c0.2-0.4,0.3-0.7,0.5-1.1c-0.5-0.1-1-0.2-1.4-0.3c-0.2-0.1-0.5-0.2-0.6-0.3c-0.8-1.2-1.9-2.1-3.2-2.8
		c-1.2-0.6-1.8-0.6-2.7,0.4c-0.1,0.1-0.3,0.2-0.4,0.2c-1.3,0-2.4-0.4-3-1.6c-1.4-2.8-3.6-4.9-6-6.9c-0.3-0.2-0.7-0.3-1.1-0.3
		c-1.4,0-2.9,0-4.3,0.1c-0.8,0-1-0.4-1.1-1.1h4.6c-0.1-0.3-0.3-0.4-0.5-0.6c-1-0.7-2-1.5-3-2.3c-0.4-0.4-0.9-0.6-1.4-0.6
		c-4.5,0-9.1-0.1-13.6-0.1c-0.2,0-0.4,0-0.8,0.1c0.9,0.3,1.6,0.3,2.2,0.7c1.8,0.9,3.5,1.9,5.2,3c2.5,1.6,5,3.4,7.5,5
		c0.2,0.1,0.4,0.2,0.6,0.2c1.4,0.1,2.8,0.1,4.2,0.3c0.3,0,0.7,0.3,0.7,0.4c0,0.3-0.2,0.7-0.4,0.8c-0.5,0.3-1,0.4-1.7,0.7
		c0.7,0.6,1.3,1.2,2,1.6c0.2,0.2,0.7,0.2,1,0.1c1.3-0.5,1.3-0.5,2,0.7c0.2-0.2,0.3-0.4,0.5-0.5c0.1-0.1,0.4-0.1,0.6-0.1
		c0.3,0.1,0.6,0.3,0.9,0.3c1.2-0.1,2.2,0.2,2.7,1.5c0.1,0.2,0.3,0.4,0.5,0.6c0.1,0.2,0.3,0.5,0.5,0.9h-5.6c0.2,0.4,0.3,0.5,0.5,0.7
		c0.9,1.3,1.8,2.5,2.6,3.8c1,1.7,2,3.5,3,5.2c0.1,0.2,0.4,0.5,0.7,0.5C133.3,173.3,134.7,173.3,136.3,173.3 M87.7,160h3.8
		c0,0.1,0.1,0.1,0.1,0.2c-0.2,0.2-0.4,0.5-0.6,0.6c-1.9,1.3-3.9,2.4-6.4,2.4c-0.4,0-0.7,0-1.1-0.1c-1.2-0.4-2.3-0.4-3.4,0.4
		c-3,2-5.7,4.4-7.9,7.3c-0.6,0.8-1.2,1.6-1.9,2.3c-0.1,0.1-0.4,0.3-0.5,0.3c-1.6,0-3.1,0-4.8,0c0-1,0.3-1.8,0.8-2.4
		c2.7-4.1,6.3-7.4,10-10.6c0.3-0.3,0.8-0.4,1.3-0.4c1-0.1,2-0.1,3-0.2c0,0,0.1-0.1,0.2-0.2c-0.2-0.1-0.4-0.2-0.5-0.3
		c-0.2-0.1-0.4-0.2-0.6-0.3c0.2-0.1,0.3-0.3,0.5-0.4c0.6-0.3,1.4-0.4,1.6-1.2c0-0.1,0.1-0.3,0.1-0.4c0.1-1,0.1-0.9,1.1-0.9
		c1.2,0,2.4-0.1,3.6-0.5c2.5-0.8,5.2-1.1,7.8-1.7c2-0.4,3.9,0.1,5.8,0.1c0.3,0,0.6-0.1,1-0.2c0-0.1,0-0.2,0-0.3
		c-2.6-0.8-5.1-1.6-7.8-2.5h10.8c0-0.1,0-0.2,0-0.3c-0.3-0.1-0.6-0.2-0.9-0.2c-3.5,0-7-0.1-10.5,0c-2.4,0.1-4.7-0.5-7.1-0.8
		c-1-0.1-2-0.3-3-0.4c-2.1-0.1-4.3-0.3-6.4-0.1c-2.7,0.2-5.4,0.7-8,1c-0.6,0.1-1.1,0.2-1.7,0.2c-4.8,0-9.6,0-14.3-0.1
		c-0.2,0-0.4,0-0.6,0c0-0.1-0.1-0.1-0.1-0.2c1.9-1.1,3.8-2.2,5.7-3.3c0-0.1,0-0.2,0-0.3c-1-0.5-2-1-3-1.4c-1.9-0.7-4-1.2-5.8-2.1
		c-2.3-1.1-4.5-2.5-6.8-3.7c-0.4-0.2-0.9-0.4-1.3-0.4c-1.8,0-3.6,0-5.5,0c0.4-0.7,0.8-1.2,1.6-1.1c0.9,0.1,1.8,0,2.8,0
		c-1.9-1.5-3.6-2.9-5.3-4.3c-1.4,1.3-2.7,2.6-4.1,3.9c-0.3,0.2-0.6,0.5-1,0.5c-4.2,0-8.4,0-12.6,0c-0.5,0-0.8-0.2-1-0.7
		c-2-3.7-3.9-7.3-5.9-11c-0.3-0.5-0.6-0.7-1.2-0.7c-1.5,0.1-3,0-4.5,0.1c-0.8,0-1-0.2-0.9-1.1H8c-0.1-0.3-0.2-0.5-0.3-0.6
		c-0.6-1.1-1.3-2.2-2-3.3c-0.5-0.7-0.6-1.5-0.5-2.3c0.1-0.3,0.1-0.6,0.1-1H0c0.2-0.5,0.3-0.9,0.5-1.3c0.8-1.8,1-3.8,1.1-5.7
		c0.1-1.6,0.1-3.1,0.2-4.7c0-0.5,0.2-0.7,0.7-0.7c1.4,0,2.9,0,4.3,0c0.3,0,0.6-0.2,0.9-0.2c0-0.1,0-0.2,0-0.3
		c-0.5-0.2-0.9-0.4-1.4-0.5c-1.1-0.1-2.2,0-3.4,0c-0.6,0-0.7-0.2-0.7-0.8c0.1-1.4,0-2.8,0.1-4.2c0-0.2,0-0.5,0-0.8
		c1.2,0,2.4,0,3.5,0c0.3,0,0.6,0,0.9,0c1.2,0,1.4-0.2,1.4-1.4c0-2.1,0-2.1-2-2.1c-0.9,0-1.7,0-2.6,0c-0.6,0-0.9-0.1-0.8-0.8
		c0-0.8,0-1.7,0-2.5c0-0.5,0.2-0.7,0.7-0.7c1.6,0,3.3,0,4.9,0c0.5,0,0.7-0.1,0.7-0.7c0-1-0.1-1.9-0.1-2.9c0-0.5-0.2-0.7-0.7-0.7
		c-1.4,0-2.9,0-4.3,0c-0.5,0-0.7-0.2-0.7-0.7c0-2.1,0-2.1,2-2.1c1.1,0,2.2,0,3.4,0c0.4,0,0.7-0.1,0.7-0.6c0.1-1.2,0.2-2.4,0.3-3.6
		c-0.3,0-0.6,0-0.9,0c-1.5,0-3,0-4.5,0c-0.5,0-0.7-0.1-0.7-0.7c0.1-1.6,0.1-3.2,0.3-4.8c0.1-1,0.5-2,1.4-2.6c0.3-0.3,0.7-0.6,1-1
		H0.9c0.4-0.7,0.8-1,1.5-1c1.5,0,3,0,4.5,0c0.5,0,1-0.1,1.4-0.4c1.4-0.8,2.8-1.6,4.3-2.4c2.1-1.1,4.4-1.6,6.6-2.2
		c1.8-0.5,3.5-1.1,5.3-1.4c2-0.4,4-0.6,5.9-0.8c0.5-0.1,0.8-0.2,1.1-0.7c0.7-1.4,1.4-2.7,2.1-4c0.4-0.7,0.2-1-0.6-1
		c-1.6,0-3.2,0-5,0c0.1-0.4,0.2-0.8,0.4-1.3c-6.8-1.1-13.6-2.1-20.5-3.2c0.2-0.2,0.3-0.4,0.4-0.5c6.5-6.6,13-13.1,19.5-19.7
		c0.3-0.3,0.7-0.4,1.1-0.4c2,0,4,0,6,0c0.4,0,0.8,0.1,0.7-0.5c0-0.6-0.4-0.5-0.7-0.5c-1.7,0-3.3,0.1-5,0.1c-0.2,0-0.3,0-0.6,0
		c0.2-0.3,0.3-0.4,0.4-0.5c2.4-2.3,4.8-4.6,7.1-7c1.7-1.8,3.8-2,6-1.7c3.3,0.4,6.4,1.2,9.5,2.2c1.6,0.5,3.1,1.4,4.7,2.1
		c2.4,1,4.6,2.5,6.6,4c1.9,1.4,3.8,1.4,5.8,0.7c0.5-0.1,0.9-0.3,1.4-0.5c-0.1-0.2-0.1-0.3-0.2-0.4c-3.5-4.3-7.6-8.1-12-11.6
		c-3.3-2.6-6.7-4.9-10.1-7.4c-0.3-0.2-0.5-0.4-0.8-0.7C55.5,7.6,63.1,5.3,70.8,3c0-0.1,0-0.2,0-0.2c-0.2,0-0.4-0.1-0.6-0.1
		c-0.7,0-1.4,0-2.1,0c-0.4,0-0.6-0.1-0.7-0.6c-0.1-0.6,0.1-0.9,0.8-0.8c2,0.2,4,0.4,6.1,0.4c2.2,0,4.3-0.2,6.2-1.4
		c0.6-0.4,1.1-0.4,1.8-0.1c0.5,0.3,1.1,0.5,1.7,0.7c0.6,0.2,1,0.4,1.2,1c0.1,0.2,0.4,0.4,0.7,0.4c0.7,0.1,1.4,0.2,2.2,0.3
		c0.9,0.1,1.7,0.3,2.5,0.8c1.6,1,3.3,1.8,4.8,2.8c2.1,1.4,4,3,6.1,4.5c0.3,0.2,0.5,0.4,0.8,0.6c0.9,0.6,1.6,1.3,1,2.5
		c0,0.1,0.2,0.3,0.4,0.5c0,0,0,0,0.1,0c1.4-0.2,2.3,0.6,3.2,1.6c2.3,2.6,4.7,5.1,7,7.6c0.2,0.2,0.6,0.4,0.9,0.5
		c1.5,0.1,3,0.2,4.5,0.3c0.4,0,0.5-0.1,0.6-0.5c0-0.2,0.3-0.5,0.5-0.5c1.9,0,3.8,0,5.6,0c0.4,0,0.6,0.1,0.6,0.5c0,0,0,0,0,0.1
		c0.2,1.8,0.1,3.6,1.1,5.4c-1.3,0.2-2.3,0.4-3.5,0.4c-3.9,0.1-7.9,0.2-11.8,0.2c-0.3,0-0.8-0.1-1-0.4c-4.8-4.8-9.5-9.6-14.2-14.5
		c-0.1-0.1-0.3-0.3-0.4-0.5c0.2-0.1,0.4-0.2,0.6-0.3c-0.3-1.2-0.7-1.4-1.9-1.3c-0.4,0-0.8-0.1-1.1-0.3c-2.3-1.4-4.6-2.9-7-4.2
		c-1-0.6-2.2-0.9-3.4-0.7c-0.8,0.1-1.5,0.2-2.5,0.3c1,1.6,2,3.1,3,4.7c-1.1,0.1-2,0.2-3,0.2C79,13,76.6,13,74.2,13
		c-0.4,0-0.8-0.2-1.1-0.4c-0.9-0.6-1.7-1.2-2.8-1.4c-0.9-0.2-1.6-0.3-2.5,0c-1.7,0.5-3.3,0.9-5.2,1.4c0.4,0.5,0.7,1,1.2,1.4
		c0.9,0.7,1.8,1.4,2.7,2c3.2,2,5.8,4.7,8.5,7.3c1.9,1.9,3.5,4,5.2,6.1c0.9,1.1,1.7,1.7,3.1,1.3c0.5-0.2,1.1-0.1,1.7-0.1
		c0.4,0,0.5-0.1,0.5-0.5c0-0.4,0-0.8-0.1-1.2c-0.2-0.6,0.1-0.8,0.7-0.8c4.7-0.6,9.5-1.2,14.2-1.8c0.6-0.1,1,0,1.3,0.5
		c1,1.1,2,2.2,3,3.3c0.5,0.5,1,0.7,1.7,0.7c2.4,0.1,4.8,0.2,7.2,0.3c0.3,0,0.5,0.1,0.8,0.2c0,0.1,0,0.2,0,0.3
		c-0.3,0.1-0.5,0.1-0.8,0.1c-1.9,0-3.8-0.2-5.6,0.1c-2.7,0.5-5.3,0.2-7.9,0.4c-1.6,0.1-3.2,0.6-4.7,1c-2.5,0.6-4.7,1.7-6.8,3.2
		c-0.2,0.2-0.5,0.3-0.8,0.5c-0.1-0.2-0.2-0.4-0.3-0.6c-0.4-1.3-0.8-2.7-1.2-4c-0.1-0.2-0.4-0.5-0.6-0.5c-0.9,0-1.7,0-2.6,0
		c-0.5,0-0.7,0.2-0.6,0.7c0.1,0.3,0,0.7,0.1,1c-0.1,0.1-0.2,0.1-0.2,0.1c-5.2,0.2-9.6,2.5-13.8,5.3c-0.7,0.4-1.1,0.5-1.8,0.1
		c-3.2-1.8-6.3-3.5-9.5-5.3c-0.8-0.4-1.4-1-2.1-1.6h9.1c-0.2-0.3-0.4-0.6-0.5-0.6c-0.9-0.2-1.8-0.5-2.7-0.6
		c-1.8-0.1-3.7-0.1-5.5,0.1c-2.6,0.3-4.9-0.7-7.3-1.6c-1.7-0.7-3.4-1.2-5.3-0.9c-0.3,0.1-0.7,0.2-0.9,0.4c-0.7,0.7-1.4,1.4-2.2,2.2
		c0.4,0,0.6,0.1,0.8,0.1c2.1,0,4.1-0.1,6.2-0.1c0.3,0,0.8-0.2,0.8,0.4c0,0.6-0.4,0.6-0.8,0.6c-2.2-0.1-4.4-0.1-6.6-0.2
		c-0.2,0-0.5,0.1-0.7,0.2c0.1,0.3,0.2,0.6,0.3,0.7c2.9,2,4.5,5,5.9,8.1c0.4,1,0.3,2.1,0.2,3.3c-1.6-0.4-3.1-0.9-4.5-1.3
		c-0.3-0.1-0.6-0.1-0.9-0.1c-3.7-0.1-7.5-0.3-11.2-0.4c-0.7,0-1.4,0.1-2.1,0.2c-0.2,0-0.5,0.2-0.6,0.3c-1.7,1.6-3.3,3.3-5,4.9
		c-0.1,0.1-0.1,0.2-0.3,0.4c0.5,0.2,0.9,0.5,1.3,0.6c2.6,0.4,5.3,0.7,8,1.2c2.5,0.5,4.9,1,7.3,1.7c1.5,0.4,3,1,4.4,1.6
		c0.5,0.2,0.9,0.8,1.3,1.3c0.1,0.1,0.1,0.3,0,0.3c-0.7,0.7-1.1,1.7-2.4,1.6c-1.1-0.1-2.2-0.1-3.3,0c-0.4,0-0.8,0.2-1.2,0.4
		c0,0.1,0,0.2,0.1,0.3h4.7c0,0.2,0,0.2,0,0.3c-2,2.7-3.3,5.8-4.4,8.9c-0.2,0.7-0.6,0.9-1.3,1c-2.3,0.3-4.6,0.6-6.9,1
		c-1.6,0.3-3.1,0.7-4.6,1.2c-1.4,0.4-2.7,0.2-4.1,0.1c-1.2-0.1-2.3-0.1-3.5,0c-0.4,0-0.7,0.3-1.2,0.5c1.2,1.4,2.7,0.4,4.1,0.9
		c-0.3,0.2-0.6,0.3-0.8,0.4c-1.9,1.1-3.8,2.1-5.6,3.2c-0.6,0.4-1.1,0.9-1.7,1.3c-0.8,0.5-0.9,1.2-0.7,2.2c0.9-0.1,1.8-0.2,2.6-0.5
		c1.6-0.5,3.2-1,5-1c2,0,3.9,0.2,5.8,0.7c0.2,0.1,0.5,0.1,0.7,0.2c-0.2,1.1-1.4,1-2,1.7c1.6,0.2,3.2,0.3,4.9,0.5
		c-0.2,0.2-0.2,0.3-0.3,0.4c-1.2,1.2-2.5,2.3-3.8,3.5c-0.3,0.2-0.7,0.4-1.1,0.4c-1.5,0-3.1-0.1-4.6,0c-0.3,0-0.7,0.2-0.9,0.4
		c-0.7,0.6-1.3,1.3-2,2.2H20c0,2.1-1.9,3-2.8,4.5c0.2,0,0.4,0.1,0.6,0.1c1.4,0,2.9,0,4.3,0c0.3,0,0.6-0.1,0.9-0.3
		c1.1-0.7,2.1-1.4,3.2-2c0.4-0.2,0.9-0.3,1.3-0.3c1.5-0.1,3-0.4,4.4,0.4c0.4,0.2,0.7,0.4,0.6,1c-0.1,0.2-0.1,0.5-0.1,0.7
		c0,0.5-0.2,0.6-0.7,0.6c-1.4,0-2.8,0.1-4.2,0.1c-0.5,0-0.7,0.2-0.8,0.7c-0.8,2.2-0.4,4.3-0.2,6.5c0.1,0.9,0.3,1.9,0.3,2.8
		c0,0.3-0.2,0.6-0.4,0.8c-0.7,0.6-1.4,1.1-2.1,1.7c0,0.1,0.1,0.2,0.1,0.3h4.2c-0.1,0.7-0.3,0.9-0.9,0.9c-1.1-0.1-2.2,0-3.3-0.1
		c-1,0-1.8,0.1-2.6,0.8c-1.8,1.6-3.7,3.2-5.4,4.9c-0.7,0.6-1,1.7-1.4,2.5c-0.3,0.6-0.6,0.9-1.3,0.9c-1.5,0-3.1,0.1-4.6,0.1
		c-0.9,0-1.3,0.4-1.5,1.3c-0.2,0.8-0.4,1.5-0.6,2.4c0.9,0,1.7-0.1,2.5,0c1.6,0.2,3-0.1,4.4-1c1.7-1.2,3.6-1.1,5.6-0.9
		c-0.1,0.7-0.2,1.4-0.3,2.1h5.3c-0.1,0.2-0.1,0.4-0.2,0.6c-0.8,1.7-1.7,3.4-2.6,5c-0.2,0.3-0.6,0.5-0.9,0.6
		c-1.3,0.2-2.6,0.2-3.9,0.4c-0.7,0.1-1.4,0.4-2,0.6c-0.2,0.1-0.3,0.4-0.4,0.6c0.2,0.1,0.4,0.4,0.6,0.4c1.4-0.1,2.8-0.3,4.2-0.4
		c0.3,0,0.6,0,1,0c-0.2,0.5-0.2,0.9-0.4,1.3c-0.5,1-1,2.1-1.5,3.1c-0.1,0.2-0.2,0.6-0.1,0.8c0.9,1.9,1.9,3.7,2.9,5.7
		c0.2-0.3,0.4-0.5,0.5-0.7c1-1.5,2-3,3-4.6c1.6-2.5,4-3.9,6.4-5.4c0.2-0.1,0.5-0.1,0.7-0.1c0.8,0,1.6,0.1,2.3,0.1
		c0.8,0,1.5,0.2,2,0.8c1.4,1.5,2.8,3,4.1,4.6c1.7,2.2,4,3.6,6.2,5c1.4,0.9,2.8,1.8,4.3,2.4c1.8,0.8,3.7,1.5,5.6,2
		c1.8,0.5,3.6,0.9,5.4,1.3c3.2,0.7,6.5,0.5,9.8,0.5c4.6,0,9.3,0.1,13.9,0.8c2.6,0.4,5.2,0.9,7.8,1.3c3.6,0.6,7.1,1.3,10.7,1.1
		c2.7-0.1,5.4,0,8,0c0-0.1,0-0.1,0.1-0.2c-2.2-1.1-4.5-2.2-6.9-3.4c3.1-1.7,5.6-3.7,7.7-6.5c-0.3-0.1-0.5-0.1-0.7-0.1
		c-1.8-0.2-3.6-0.3-5.5-0.4c-0.3,0-0.7,0.2-0.8,0.4c-0.9,1.3-2,2.3-3.3,3.2c-1.4,1-2.9,1.6-4.7,1.6c-3.7,0-7.3-0.5-10.9-1.5
		c-0.7-0.2-1.4-0.6-2-1c-1.6-0.8-3.1-1.6-4.7-2.5c0-0.1,0-0.2,0-0.3c0.7-0.3,1.4-0.7,2.1-0.9c0.9-0.2,1.6-0.5,2.3-1.2
		c2.2-2.3,4.5-4.6,6.8-6.9c0.2-0.2,0.6-0.3,0.9-0.3c0.4,0,0.9,0.1,1.4,0c-0.3-0.3-0.6-0.6-0.8-1c-0.1-0.2-0.2-0.6-0.1-0.8
		c0.2-0.6,0.5-1.1,0.9-1.6c0.9-1.2,1.2-2.6,1.3-4c0-0.4-0.1-0.5-0.5-0.5c-1.5,0-2.9,0-4.4-0.1c-0.5,0-0.5,0.3-0.6,0.6
		c-0.3,1.6-0.8,3.2-1.7,4.7c-0.3,0.5-0.6,1-1,1.6h2.8c-0.2,0.8-0.3,1.3-1.1,1.2c-0.5,0-1,0-1.5,0c-0.7,0-1.3,0-1.8-0.7
		c-0.1-0.2-0.5-0.3-0.7-0.3c-1.1,0-2.2-0.1-3.4,0c-0.4,0-0.8,0.3-1.2,0.6c1.6,0.6,3.4-0.2,4.8,0.8c0,0.1,0.1,0.2,0.1,0.3
		c-0.1,0.1-0.3,0.2-0.4,0.2c-3.7,2.1-7.4,4.3-11.2,6.2c-2.2,1.1-4.7,1.8-7.2,2.2c-1.1,0.2-2.2,0.4-3.3,0.6c-0.2,0-0.6,0.3-0.6,0.4
		c0,0.3,0.2,0.6,0.4,0.7c0.5,0.4,1.3,0.6,1.6,1.4c-0.7,0.1-1.3,0.2-1.9,0.3c-1.6,0.1-3.2,0.1-4.8,0.2c-0.6,0-0.9-0.2-0.8-0.8
		c0.4-0.2,0.9-0.3,1.4-0.5c0.2-0.1,0.4-0.3,0.6-0.4c-0.2-0.3-0.3-0.7-0.6-0.9c-0.2-0.2-0.6-0.3-0.9-0.5c-0.4-0.2-0.9-0.3-0.7-1
		c0-0.1-0.3-0.4-0.5-0.4c-1.2-0.3-2.4-0.5-3.6-0.8c-0.7-0.2-1.4-0.5-2.1-0.8c-3.1-1.4-5.5-3.6-7.6-6.2c-0.2-0.2-0.6-0.4-0.9-0.4
		c-1.6,0-3.1,0-4.7,0c-0.5,0-0.7-0.1-0.7-0.7c0-0.5,0.2-0.7,0.7-0.7c1.2,0,2.4,0,3.7,0c0.2,0,0.5,0,0.8,0c-0.4-0.9-0.8-1.6-1.1-2.4
		c-0.5-1.3-1-2.5-1.4-3.8c-0.2-0.4-0.4-0.6-0.8-0.6c-1.3,0-2.6,0-3.9,0c0.6,0.8,1.3,1.7,2,2.7c-1.3,0.4-2.5,0.7-3.7,1
		c-0.1,0-0.5-0.2-0.5-0.3c-0.1-1.3-0.7-2.4-1.5-3.4c0,0,0-0.1,0-0.3c0.6,0,1.1,0,1.7,0c0.4,0,0.5-0.1,0.5-0.5c0-0.7,0-1.5,0-2.2
		c0-0.4-0.2-0.6-0.6-0.6c-0.7-0.1-1.4-0.2-2.1-0.3c-0.2-0.1-0.5-0.3-0.6-0.5c-0.9-2-1.7-4-2.5-6.1c1.5-0.7,2.9-1.4,4.4-2.1
		c0,0.3,0.1,0.5,0.1,0.7c0.1,2,0.1,3.9,0.2,5.9c0,0.2,0,0.4,0,0.7c0.1,1,0.5,1.4,1.5,1.3c1.5,0,3.1-0.1,4.6-0.1
		c0.6,0,0.8-0.2,0.8-0.8c0-0.4,0-0.8,0-1.4c1,0.3,1.8,0.6,2.6,0.9c1.2,0.5,2.5,1.2,3.7,1.7c1,0.5,2,0.9,3.1,0.8c3-0.1,6-0.2,9-0.2
		c1,0,1.7-0.4,2.6-0.8c0.4-0.2,0.8-0.3,1.2-0.3c1.2,0,2.3-0.1,3.5,0c2.4,0.2,4.6-0.5,6.8-1.5c3.2-1.4,6.2-3.1,8.9-5.3
		c0.3-0.3,0.5-0.2,0.8,0c1.6,1.2,3.2,2.3,4.7,3.6c1.1,1,2,2.4,3,3.6c0,0.1-0.1,0.2-0.1,0.3h-5.2c0,0.1-0.1,0.2-0.1,0.3
		c0.4,0.7,0.7,1.4,1.1,2.1c0.1,0.2,0.4,0.2,0.6,0.2c1.2,0,2.5,0.1,3.7,0.1c0.3,0,0.8-0.2,1-0.4c0.6-0.5,1.2-0.7,2-0.7
		c2.7,0,5.2,0.6,7.8,1.1c1.1,0.2,2.3,0.1,3.4,0.2c1,0.1,2,0.2,3,0.3c0.3,0,0.6,0.2,0.8,0.3c0.5,0.3,0.9,0.7,1.3,1
		c1.1,0.7,1.9,1.6,2.3,2.9c0.1,0.6,0.3,1.2,0.3,1.8c0,0.5,0.1,0.7,0.7,0.8c1,0,2,0.2,3,0.3c0.3,0,0.6,0,0.8,0.2
		c1.2,0.8,2.6,0.8,4,0.7c3-0.2,5.5,0.6,7.9,2.3c2.7,1.9,5.6,3.5,8.4,5.3c0.2,0.1,0.4,0.3,0.7,0.5c-0.5,0.3-1,0.6-1.4,0.9
		c0.3,0.6,0.7,0.8,1.2,0.6c0.9-0.3,1.6,0.1,2.3,0.7c2.6,2.4,5.1,5,7.4,7.7c0.1,0.1,0.3,0.2,0.3,0.4c0.6,1.3,1.6,1.4,2.9,1.4
		c2.5-0.1,5,0,7.5,0c0.2,0,0.6,0.1,0.6-0.1c0.7-1,1.7-0.6,2.5-0.6c0.1,0,0.3,0,0.5,0c-0.1-0.2-0.2-0.3-0.3-0.5
		c-1.2-1.6-2.5-3.2-3.7-4.8c-0.3-0.3-0.5-0.4-0.9-0.3c-0.5,0.2-1.1,0.3-1.7,0.3c-0.1,0-0.4-0.3-0.4-0.5c0-0.2,0.3-0.6,0.4-0.6
		c0.8,0.1,1.3-0.2,1.5-1c0-0.1,0.3-0.2,0.5-0.2c0.9,0,1.9,0,2.8,0c0.2,0,0.5,0.2,0.6,0.5c0.2,0.6,0.6,0.5,1,0.3
		c0.3-0.1,0.5-0.3,0.7-0.5c0.3-0.4,0.6-0.4,1.1-0.4c0.9,0,1.5,0.4,1.8,1.3c0.2,0.6,0.6,0.9,1.2,0.8c0.7-0.1,1.1,0.3,1.5,0.8
		c0.7,1,1.5,1.9,2.3,2.8c0.1,0.1,0.2,0.3,0.4,0.5h-4.9c0-0.6-0.3-1.3,0.7-1.2c0.1,0,0.3-0.2,0.2-0.3c0-0.1-0.2-0.3-0.3-0.3
		c-0.8,0-1.6,0-2.6,0c0.9,1.3,1.6,2.4,2.5,3.6c1.1-1.9,2.8-1.2,4.2-1.3c0,0.1,0.1,0.2,0.1,0.3c-0.2,0.1-0.4,0.2-0.6,0.2
		c-1,0.2-1.9,0.5-2.9,0.7c0.1,0.6,0.3,0.8,0.8,0.7c0.4,0,0.7-0.1,1.1-0.1c0.3,0,0.7,0.1,0.9,0.4c0.1,0.1-0.2,0.6-0.3,0.9
		c0,0.1-0.1,0.2-0.4,0.4h2c0.5,0,0.9,0,1.4,0c0.4,0,0.6,0.1,0.6,0.5c0,0.4-0.1,0.7-0.6,0.6c-0.4,0-0.7-0.1-1.2-0.1
		c0.6,0.7,1.1,1.3,1.7,2.1c-1,0.1-1.9,0.3-2.6,0.1c-0.7-0.2-1.4-0.8-2.1-1.4c-0.2,0.7-0.3,1.2-1.1,1.2c-0.6,0-1.1,0.1-1.6-0.4
		c-0.2-0.1-0.4-0.2-0.6-0.3c-0.6-0.2-1.2-0.3-0.9-1.3c0.1-0.5-0.2-1-0.9-1.1c-0.6-0.1-1.3,0.1-1.7-0.6c-0.1-0.1-0.4-0.1-0.6-0.1
		c-3.4,0-6.7,0-10.1,0c-0.5,0-0.8,0-0.8,0.6c0,0.1-0.2,0.3-0.4,0.3c-0.4,0-0.8,0.1-1.2,0c-1-0.2-2-0.3-2.9-0.6
		c-1.9-0.5-3.9-0.4-5.8-0.4c-0.4,0-0.9,0.2-1.3,0.4c1,0.6,2,0.3,3,0.3c0.9,0,0.9,0,0.9,0.9c0,0.5-0.2,0.6-0.6,0.6
		c-1.1,0-2.2,0-3.3,0c-0.6,0-0.8,0.1-0.8,0.7c0.1,1.2-0.1,1-1.1,1c-1.5,0-3,0-4.5,0c-0.2,0-0.4,0.2-0.6,0.3c0.2,0.1,0.4,0.3,0.5,0.3
		c1.7,0,3.4,0,5.1,0c1,0,1,0,1,1c0,2,0,4.1,0,6.1c0,0.6,0.2,0.8,0.8,0.8c0.7-0.1,1.4,0,2.1,0c0.1,0.3,0.1,0.5,0.2,0.8
		c0.5,0,1.1,0,1.6,0c0.5,0,0.8,0.1,0.7,0.7c0,0.8,0,1.5,0,2.4c1,0,2,0,2.9,0c2.1,0,2.1,0,2.9-1.9c0.2-0.4,0.3-0.8,0.5-1.2h-5.6
		c0.1-0.6,0.1-1.2,0.2-1.8c0.1-1.1,0.3-2.1,0.5-3.2c0.1-0.6,0.3-0.6,0.8-0.5c2.6,0.7,5,1.5,7.4,2.8c0.2,0.1,0.4,0.2,0.7,0.3
		c0.1-0.9,0.2-1.8,0.3-2.8c1.8,1,3.4,2,5.3,3.1c-1.4,0.8-2.8,0.2-4,0.5c-0.2,0.9-0.1,0.9,0.7,0.9c2,0,4.1,0,6.1,0c0.2,0,0.5,0,0.7,0
		c0.3,0.1,0.5,0.3,0.8,0.5c-0.2,0.2-0.4,0.4-0.7,0.7c0.2,0.5,0.4,1.2,0.8,1.9c0.6,1.2,1.2,2.4,1.9,3.6c0.1,0.2,0.4,0.3,0.5,0.4
		c0.1-0.2,0.2-0.4,0.2-0.6c0-1.7,0-3.4,0-5.1c0-0.5,0.2-0.7,0.7-0.7c1.3,0,2.7,0,4,0c0.2,0,0.5,0,0.9,0c-0.7-1-1.3-2-1.9-3h7.7
		c0,0.9,0,1.8,0,2.7c0,0.1-0.3,0.3-0.5,0.3c-0.5,0-0.9,0-1.3,0c0.2,1,0.4,1.9,0.6,2.8c0,0.1,0.4,0.3,0.5,0.3c0.9-0.1,1.2,0.3,1.4,1
		c0.1,0.6,0.4,1.2,0.6,2h-1.8c-0.9,0-1.9,0-2.8,0c-0.2,0-0.6,0.1-0.6,0.2c-0.1,0.8-0.6,0.6-1.1,0.6c-1.9,0-3.9,0-5.8,0
		c-0.5,0-0.8,0.1-0.9,0.6c-0.1,0.7-0.7,0.9-1.2,1c-0.4,0.1-0.8,0.1-1.1,0.2c-0.3,0.1-0.5,0.3-0.9,0.5c1.2,0.9,2.3,0.2,3.5,0.6v5
		c0.5,0,0.9,0,1.2,0c0.4,0,0.8-0.1,1.2-0.1c1.2,0,1.4,0.2,1.6,1.3c0.1,0.5-0.1,1.4,0.9,1.4c0.1,0,0.2,0.4,0.1,0.5
		c-0.2,0.2-0.4,0.3-0.7,0.5c0.2,1.3,0.3,2.7,0.5,4.1c0,0.2,0.4,0.4,0.7,0.4c2.1,0,4.2,0,6.3,0c0.6,0,0.8,0.1,0.8,0.8
		c0,0.6-0.1,0.9-0.8,0.9c-2.1,0-4.2,0-6.4,0c-0.7,0-0.9,0.3-0.9,0.9c0,2.4,0,4.8,0,7.2c0,0.6-0.2,0.8-0.7,0.8c-1.9,0-3.8,0-5.7,0
		c-0.6,0-0.7-0.2-0.7-0.7c0-2.4,0-4.8,0-7.2c0-1,0-1-0.9-1c-1.6,0-3.1,0-4.7,0c-0.7,0-0.7-0.4-0.7-0.8c0-0.5,0-0.8,0.6-0.8
		c1.6,0,3.2,0,4.8,0c0.5,0,0.7-0.1,0.7-0.7c0-1.2,0-2.3,0-3.5c0-0.5,0.2-0.7,0.7-0.7c0.3,0,0.7,0,1,0c0.5,0,0.8-0.2,0.8-0.8
		c-0.7-0.1-1.4-0.3-2.1-0.4c-0.6-0.1-0.9-0.3-1-0.9c-0.1-1.1-0.2-2.3-0.4-3.4c-0.2-1-0.4-2-0.7-2.9c-0.3-0.8-0.1-1.2,0.7-1.6
		c0.4-0.2,0.7-0.4,0.9-0.8c0.2-0.3,0-0.7-0.5-0.6c-0.2,0-0.4,0-0.7,0c-0.6,0.1-1-0.1-1.3-0.7c-0.3-0.7-0.9-0.9-1.6-0.8
		c-1.5,0-3.1,0-4.6,0c-0.5,0-0.7,0.1-0.7,0.7c0,0.9,0,1.8,0,2.8c0.8,0,1.5,0,2.1,0c0.2,0,0.5,0.2,0.6,0.4c0.1,0.4-0.2,0.5-0.6,0.5
		c-0.5,0-1,0-1.6,0c0.2,1.2,0.4,2.2,0.6,3.3c0.5,2.6,0.9,5.1,1.3,7.7c0.1,0.6,0.1,1.3,0,2c0,0.2-0.3,0.4-0.5,0.4
		c-0.6,0.1-1.3,0-1.9,0c-0.7,0-0.5,0.5-0.5,0.8c0,0.4-0.2,0.8,0.5,0.8c0.5,0,1.1,0,1.6,0c1,0,1,0,1.1,1c0.1,2,0.1,4,0.2,6
		c0,0.6,0,1.1,0,1.7c-0.7,0.1-0.9-0.3-1.1-0.7c-1.3-2.5-2.7-4.9-4-7.4c-0.4-0.7-0.8-1-1.6-0.9c-1.2,0.1-2.4,0-3.7,0
		c-0.5,0-0.8,0.2-1.1,0.6c-0.5,0.7-1,1.3-1.5,1.9c-0.8,1.1-1.7,2.3-2.4,3.4c-0.3,0.4-0.6,0.6-1.1,0.6c-1.1,0-2.2-0.1-3.4,0
		c-0.6,0-0.9-0.2-1-0.8c-0.3-1.8-0.7-3.6-1-5.5h-2.9c0-0.4,0-0.8,0-1.1c0-0.5,0.2-0.6,0.6-0.6c0.7,0,1.5,0,2.3,0
		c-0.1-0.5-0.1-0.9-0.2-1.3c-0.2-1-0.5-2-0.8-2.9c-0.1-0.2-0.5-0.5-0.8-0.5c-1.2-0.1-2.4-0.1-3.7-0.1c-0.3,0-0.6-0.3-0.8-0.5
		c-0.3-0.4-0.5-0.9-0.7-1.3c-0.3-0.7-0.8-0.9-1.4-0.9c-1.4,0-2.9,0-4.3,0.1c-0.7,0-1.1-0.2-1.4-0.9c-0.2-0.5-0.4-1-0.7-1.7h5.7
		c-0.6-1-1-1.9-1.7-2.6c-2.3-2.3-4.8-4.4-7.1-6.6c-0.2-0.2-0.4-0.4-0.6-0.6c0-0.1,0.1-0.2,0.1-0.3h4.1c0-0.1,0.1-0.2,0.1-0.3
		c-0.6-0.4-1.2-0.7-1.8-1.1c-1.4-0.8-3.1-1.2-4.2-2.4c-0.1-0.1-0.2-0.1-0.3-0.1c-1.7,0-3.5-0.4-5.1,0.7c-0.5,0.4-1.1,0.3-1.6,0
		c-1.2-0.8-2.6-1.2-4-1.1c-4.3,0.1-8.6,0.3-12.9,0.5c-0.2,0-0.5,0-0.7,0C87.8,159.1,87.7,159.4,87.7,160"/>
	<path class="st0" d="M153.5,30.5c-0.5,0-1,0-1.5,0c-0.5,0-0.5,0.3-0.5,0.6c0,0.4,0,0.6,0.5,0.6c1,0,1.9,0,2.9,0
		c0.5,0,0.5-0.3,0.6-0.6c0-0.4-0.1-0.6-0.6-0.6C154.4,30.5,153.9,30.5,153.5,30.5 M201.3,97.7c1.3-1.3,2.6-2.5,3.9-3.9
		c-1.2,0-2.4,0-3.6,0c-0.1,0-0.3,0.2-0.3,0.3C201.3,95.4,201.3,96.6,201.3,97.7 M188.1,102.1c0.4-0.2,0.6-0.2,0.8-0.4
		c2.4-1.5,4.8-2.9,7.1-4.5c1.6-1.1,2.6-2.8,3.7-4.3c2.4-3.4,2.8-7.1,2.3-11.1c-0.4-2.6-1.4-5-2.7-7.2c-2.3-4-4.8-7.8-7.7-11.4
		c-2-2.4-4-4.9-6.2-7.1c-3-3-6.3-5.7-9.7-8.3c-4.1-3.2-8.6-5.8-13.1-8.4c-0.8-0.5-1.6-1-2.4-1.6h5.5c-0.4-1.1-1.3-1.7-2.3-1.7
		c-1.8,0-3.7,0-5.5,0c-1,0-1.9-0.2-2.8-0.6c-1.8-0.8-3.6-1.6-5.3-2.5c-0.6-0.3-1.1-0.7-1.6-1.1c-0.7-0.6-1.4-1-2.3-0.8
		c-0.2,0-0.4-0.3-0.6-0.4c0.2-0.1,0.4-0.3,0.6-0.4c0.3-0.1,0.6,0,1.1,0c-0.4-1.3-0.7-2.5-1-3.7c-0.3-1.1-0.6-2.1-0.9-3.2
		c-0.2-0.5,0.1-0.6,0.5-0.7c2.1,0,4.1,0,6.2,0c0.2,0,0.5,0.3,0.6,0.5c0.5,1.4,0.9,2.9,1.6,4.2c0.7,1.3,1.7,2.6,3.5,2.7
		c2.3,0.1,4.6,0.1,7,0.1c0.2,0,0.4,0,0.7,0c0.7-0.1,0.8,0.3,0.6,0.9h-5.5c0,0.1,0,0.1,0,0.2c1.3,0.7,2.5,1.5,3.8,2.2
		c7.8,4.4,15.1,9.5,22.1,15.1c4.3,3.4,8.1,7.3,11.8,11.4c1.6,1.8,2.9,3.8,4.2,5.9c2.1,3.4,3.8,7.1,5,10.9c1.3,4.2,1.7,8.5,0.9,12.9
		c-0.1,0.8-0.6,1.6-1,2.4c-0.1,0.3-0.3,0.5-0.5,0.9h6.6c-0.1,0.3-0.1,0.4-0.2,0.6c-1.9,2.6-3.9,5.1-5.8,7.7
		c-0.3,0.4-0.7,0.6-1.2,0.5c-1.5,0-2.9,0.1-4.4,0c-1.2-0.1-1.7,0.8-2.4,1.4c0,0.1,0,0.1,0.1,0.2c1.1,0,2.1,0,3.2,0
		c0.3,0,0.6,0,0.6,0.5c0,0.4-0.1,0.7-0.6,0.7c-1.7,0-3.4,0-5.1,0c-0.4,0-0.9,0.1-1.3,0.3c-3,1.6-6.2,2.6-9.5,2.9
		c-3,0.2-5.9,0.3-8.9,0.4c-0.3,0-0.5,0-1-0.1c0.2-0.4,0.4-0.7,0.6-1c0-0.1,0.2-0.1,0.2-0.2c1.5-1.6,3.4-2.1,5.6-1.9
		c0.9,0.1,1.9,0,2.9,0c0.5,0,0.6-0.2,0.6-0.6c0-0.4-0.1-0.6-0.6-0.6c-1.3,0-2.6,0-4,0h-0.9c0.1-0.3,0.2-0.5,0.3-0.7
		c1.2-2,1.2-4.3,1.2-6.5c-0.1-1.8-1-3.4-2.2-4.8c-2.1-2.5-4.7-4.6-7.3-6.6c-1.5-1.1-3.3-1.7-4.9-2.6c-3.8-2.1-8-3.4-12.1-4.9
		c-3.7-1.4-7.4-2.5-11.1-3.8c-0.4-0.1-0.6-0.1-0.9,0.3c-0.7,1-1.4,2-2.2,3.1c1,0.5,2,0.9,3,1.3c10.2,4.3,20.4,8.6,30.6,12.9
		c1.3,0.5,1.6,1.7,1.9,2.8c0.2,0.9,0.4,1.9,0.2,2.8c-0.2,1.2-0.6,2.5-1.2,3.6c-0.9,1.9-2,3.7-3,5.6c-0.6,1.1-0.8,1.2-2,0.8
		c-1.6-0.6-3.1-1.1-4.7-1.7c-0.1,0-0.2-0.1-0.3-0.1c0-0.1,0-0.1,0-0.2c0.6,0,1.3,0,1.9,0c0.7,0.1,0.9-0.2,0.9-0.9
		c0-0.5-0.2-0.6-0.6-0.6c-1.4,0-2.8,0.1-4.2,0c-1.2-0.1-2.5-0.4-3.7-0.8c-4.5-1.3-8.9-2.5-13.3-3.9c-3.8-1.1-7.6-2.4-11.5-3.5
		c-2-0.6-4-0.8-6-1.2c-4.8-0.9-9.6-1.9-14.4-2.8c-0.9-0.2-1.8-0.3-2.7-0.4c-2.5-0.1-5.1-0.2-7.6-0.2c-2.4,0-4.8,0-7.2,0.2
		c-1.4,0.1-2.7,0.7-3.7,1.8c-0.4,0.4-0.7,0.8-1,1.2c-0.9,1.1-0.7,2.9,0.4,3.8c2.6,2.3,5.8,3.4,9.1,4.6c5,1.7,10.1,3.3,15,5.3
		c5.1,2.1,10.2,4.4,15,7.2c4.6,2.7,9,5.6,13.1,8.9c0.1,0.1,0.2,0.2,0.3,0.3c0,0,0.1,0.1,0.1,0.3c-0.9,0-1.6,0-2.4,0
		c-0.5,0-1,0-1.5,0c-0.4,0-0.6,0.1-0.6,0.6c0,0.5,0.2,0.6,0.6,0.6c1.8,0,3.6,0,5.3,0c0.3,0,0.7,0.1,0.9,0.3c1.9,1.9,3.8,3.7,5.7,5.6
		c0,0,0.1,0.1,0.2,0.3c-0.4,0-0.8,0-1.1,0c-0.1,0-0.3,0.2-0.4,0.3c0.1,0.1,0.2,0.3,0.4,0.3c0.3,0,0.6,0.1,0.9,0c1-0.2,1.6,0.3,2,1.2
		c-0.2,0-0.4,0.1-0.6,0.1c-2.5,0-5,0.1-7.5,0c-1.1-0.1-2.3-0.3-3.3-1.2c-2.5-2.2-5.1-4.2-7.6-6.2c-0.2-0.2-0.6-0.3-0.9-0.3
		c-1.6,0-3.2-0.1-4.8,0c-0.8,0-1.3-0.2-1.7-0.9c-0.1-0.3-0.3-0.5-0.6-0.9h4.8c0-0.1,0-0.1,0-0.2c-0.9-0.5-1.7-1-2.6-1.6
		c-2.7-1.6-5.3-3.2-8-4.8c-0.3-0.2-0.8-0.3-1.2-0.3c-1.7,0-3.4,0-5.1,0c-0.2,0-0.5,0-0.6-0.1c-1.9-1-3.8-2.1-5.8-3.1
		c0-0.1,0-0.2,0.1-0.3h4.8c0-0.1,0.1-0.2,0.1-0.3c-0.5-0.3-0.9-0.8-1.4-1c-3.8-1.7-7.8-3-11.9-3.9c-4.1-0.9-7.9-2.6-11.2-5.1
		c-2-1.5-3.8-3.4-4.8-5.8c-0.6-1.7-0.9-3.4-0.3-5.3c0.6-2,1.9-3.3,3.4-4.5c1.9-1.5,4.1-2.5,6.4-3.1c1.7-0.4,3.6-0.7,5.3-0.8
		c2.5-0.1,5,0,7.5,0.2c2.3,0.2,4.6,0.7,6.9,1.1c4,0.7,8,1.5,11.9,2.3c4.1,0.9,8.2,1.9,12.3,3c8.1,2.2,16,5.1,23.9,7.8
		c2,0.7,4,1.5,5.9,2.2c1.1-1.5,1.3-3.5,0.4-5c-0.8-1.3-1.8-2.3-3.3-3c-9.3-3.8-18.5-7.7-27.7-11.6c-1.8-0.8-3.5-1.7-5.3-2.6
		c1.5-2.7,2.9-5.4,4.4-8.2h-3.5c-0.3,0-0.6,0-1,0c-0.8,0-1.1-0.5-0.8-1.2c0.1-0.2,0.4-0.3,0.6-0.3c1.6,0,3.3,0,4.9,0
		c0.4,0,0.7-0.1,0.9-0.5c0.4-1.6,1.7-1.7,2.9-1.4c2.2,0.6,4.4,0.9,6.4,2.3c0.5,0.3,1.1,0.5,1.7,0.5c3.8,0.5,7.5,1.5,11.1,2.9
		c3.7,1.5,7.5,3,11,4.9c3.7,2,7.2,4.4,10.2,7.4c1.8,1.8,3.4,3.9,4.8,6c1.7,2.6,1.9,5.5,1.5,8.5C188.2,100.6,188.2,101.3,188.1,102.1
		"/>
	<path class="st0" d="M54,90.9c-2,0-3.8,0-5.7,0c-0.5,0-0.6,0.1-0.6,0.6c0,1.1,0,2.2,0,3.4c0,1.3,0.4,2.5,1.4,3.3
		c0.7,0.6,1.6,1.1,2.3,1.7c0.8,0.6,1.6,0.9,2.6,0.9c1.8,0.1,3.5,0,5-1c0.7-0.4,1.3-1,1.9-1.5c0.9-0.8,1.4-1.9,1.4-3.2
		c0-1.2-0.1-2.4-0.2-3.7c0-0.5,0.1-0.7,0.6-0.7c1,0,1.9,0,2.9,0c0.5,0,1,0,1.8,0c-0.5-0.8-0.8-1.6-1.3-2.1c-0.8-0.8-1.7-1.5-3-1.5
		c-1.6,0-3.3-0.3-4.8,0C56.3,87.5,54.6,88.7,54,90.9 M81.8,84.8c0,0.3,0,0.6,0.1,1c0.1,2.7,0.3,5.3-0.4,7.9
		c-0.3,1.2-0.8,2.3-1.3,3.4c-0.7,1.5-1.7,2.8-2.9,4c-1.7,1.6-3.7,2.8-5.8,3.7c-1.3,0.6-2.8,0.8-4.2,1.2c-3,1-6.2,0.8-9.3,1
		c-1.5,0.1-3-0.3-4.4-0.5c-2.9-0.4-5.9-0.8-8.8-1.1c-0.3,0-0.7-0.2-1-0.3c0-0.1,0-0.2,0-0.3c0.6,0,1.3,0,1.9,0c0.3,0,0.8,0.3,1-0.3
		c-0.3-0.1-0.6-0.2-1-0.2c-0.6,0-1.2,0-1.8,0.1c-1.8,0.3-3.5-0.3-4.9-1.4c-1.2-0.9-2.3-2-2.8-3.4c-1-2.6-1.5-5.3-1.4-8.1
		c0-0.6,0.2-0.8,0.8-0.7c1.6,0,3.3,0,4.9,0c0.5,0,0.7-0.1,0.7-0.7c0-0.8,0-1.7,0-2.5c0-0.5-0.2-0.6-0.6-0.6c-1.4,0-2.8,0-4.2,0
		c-0.6,0-0.9-0.2-0.7-0.8c0.5-1.7,1-3.5,1.7-5.2c1.4-3.4,3-6.7,4.5-10c0.1-0.1,0.1-0.3,0.2-0.5h-5.7c0-0.6,0.3-0.7,0.7-0.7
		c1.6,0,3.2,0,4.8,0c0.7,0,1-0.2,1.3-0.8c0.9-1.9,1.8-3.7,2.7-5.6c0.7,0.6,2.6,4.7,2.8,6.2h-5.1c-0.2,0.7-0.1,0.9,0.6,0.9
		c1.4,0,2.9,0,4.3,0c0.5,0,0.8,0.1,1,0.6c0.3,0.5,0.6,0.9,0.9,1.4c1.5,2.8,3.5,5.1,5.8,7.3c0.2,0.2,0.4,0.4,0.6,0.5
		c2.5,1.7,5.1,3.1,8,3.9c2.2,0.6,4.5,1,6.7,1.2c2.1,0.2,4.3,0.1,6.4,0C79.1,85.4,80.4,85.1,81.8,84.8"/>
	<path class="st0" d="M106.9,46.1c0,0.1,0,0.1,0,0.2c2.7,1.5,5,3.5,7.9,4.6c3.5,1.3,7.1,2.6,10.9,3c2.4,0.2,4.7,0.1,7.1-0.3
		c3.5-0.7,6.9-1.4,10.4-2.1c0.6-0.1,1.1-0.5,1.8-0.9c-0.8-0.1-1.3-0.1-1.7-0.4c-1.8-0.8-3.6-1.6-5.3-2.6c-4.2-2.3-8.2-4.9-13.1-5.4
		c-2.5-0.3-5.1-0.3-7.5,0.5c-2,0.7-4,1.5-6,2.2C109.7,45.4,108.3,45.7,106.9,46.1 M152.6,56.7h-5.7c0.1-0.8-0.4-0.8-1-0.8
		c-1.3,0-2.5,0-3.8,0c-0.4,0-0.6,0.1-0.6,0.5c0,0.4,0.1,0.6,0.6,0.6c1.4,0,2.8,0,4.4,0c-0.2,0.2-0.3,0.4-0.4,0.5
		c-1.6,1.2-3.5,1.8-5.5,1.5c-2.1-0.4-4.2-1-6.3-1.3c-2.7-0.5-5.4-0.9-8.1-1.1c-2.6-0.3-5.2-0.3-7.7-1c-0.2-0.1-0.4,0-0.7,0
		c-5.2-0.1-10.3-0.2-15.5-0.3c-1.1,0-1.9-0.5-2.6-1.1c-1.9-1.6-3.3-3.5-4-5.9c-0.1-0.3,0-0.7,0-1c0.5-3.1,2.4-5.3,4.5-7.4
		c1.2-1.2,2.6-1.7,4.4-1.7c3.1,0,6.2-0.3,9.4-0.3c4,0,8,0.2,12,0.5c2,0.1,4,0.3,6,0.6c6.4,1.1,12.5,3.1,18.4,5.7
		c0.8,0.4,1.2,1.2,1.2,1.9c0.1,1.6,0.3,3.3-0.2,4.9c-0.5,1.4-1.3,2.6-2.2,3.6c-0.2,0.2-0.4,0.5-0.7,0.8c0.3,0,0.5,0.1,0.6,0.1
		c0.7,0,1.4-0.1,2,0c2.9,0.3,3.4-0.7,4.4-3.2c0.6-1.5,0.9-3.2,1.2-4.9c0.1-0.7,0.4-0.9,1-0.8c1.5,0.4,3,0.7,4.5,1.3
		c0.8,0.3,1.5,1,2.1,1.6c1.5,1.5,2.9,3.1,3.5,5.2c0.2,0.6,0,0.8-0.6,0.8c-1.5,0-3.1,0-4.6,0c-0.4,0-0.6,0.1-0.6,0.6
		c0,0.4,0.2,0.6,0.6,0.6c1.6,0,3.1,0,4.7,0c0.6,0,0.9,0.2,1,0.7c0.1,0.9,0.3,1.7,0.3,2.6c0,0.8-1,1.9-2,2.1c-2.9,0.5-5.9,1-8.9,1.6
		c-3.3,0.6-6.4-0.2-9.6-1.2c-0.8-0.2-1.5-0.7-2.3-1.1c-0.2-0.1-0.4-0.3-0.4-0.5c0-0.2,0.3-0.4,0.5-0.5c1.8-0.9,3.6-1.8,5.4-2.8
		c0.4-0.2,0.8-0.7,1.1-1.1C152.7,56.9,152.6,56.8,152.6,56.7"/>
	<path class="st0" d="M67.3,74.3c1-1.2,2-2.3,3-3.6h-5.1c0.3-0.6,0.6-0.9,1.2-0.8c1.4,0,2.7,0,4.1,0c0.5,0,1.1-0.1,1.4-0.4
		c3.5-2.6,7.6-4.1,11.6-5.8c1.2-0.5,2.7-0.5,4-0.9c4.8-1.2,9.8-1.4,14.7-1.6c1.3-0.1,2.5,0.1,3.8,0.2c3.7,0.2,7.4,0.4,11.1,0.8
		c2.6,0.2,5.3,0.6,7.9,1.1c2.3,0.4,4.6,0.9,6.9,1.3c0.1,0,0.2,0.1,0.4,0.2c-2.4,5.6-3.4,11.5-4,17.6c-0.5-0.2-0.9-0.3-1.2-0.5
		c-2.2-1.1-4.6-1.3-7-1.7c-3.8-0.6-7.7-1.2-11.5-1.6c-2.3-0.3-4.7-0.2-7-0.2c-6-0.1-12-0.2-18-0.1c-3,0-6,0.4-9,0.6
		c-0.5,0-1,0.1-1.6,0.1c0-0.1-0.1-0.2-0.1-0.3c0.4-0.3,0.7-0.7,1.1-0.8c5.4-1.7,10.7-3.4,16.1-5c3.6-1,7.2-1.7,10.8-2.6
		c2.1-0.6,4.2-0.7,6.4-0.9c0.2,0,0.5,0,0.7-0.1c0-0.1,0-0.2,0-0.2c-0.2-0.1-0.4-0.2-0.6-0.2c-2.4-0.2-4.9-0.5-7.3-0.7
		c-0.5,0-1,0-1.5,0.1C92.9,68.8,87,69.3,81.2,70c-1.5,0.2-2.9,0.8-4.3,1.3c-3.1,1-6.1,2-9.2,3C67.6,74.3,67.6,74.3,67.3,74.3"/>
	<path class="st0" d="M193.9,93.3c-1-2-1.9-4-3.1-5.7c-1.5-2.3-3.2-4.5-4.9-6.6c-2.6-3.3-6.2-5.4-9.8-7.4c-1.7-1-3.6-1.8-5.5-2.4
		c-1.1-0.4-2.5-0.3-3.7-0.3c-1.2,0-2.5,0-3.7,0c-1,0-1.2-0.1-1.4-1.2c0.3,0,0.7-0.1,1-0.1c1.6-0.2,3.3-0.3,4.9-0.5
		c1.8-0.2,3-1.3,4.3-2.4c2.1-1.7,3.2-4,4-6.5c0.3-0.9,0.3-1.9,0.5-2.8c0-0.3,0-0.6,0-0.8c1.5-0.5,2.4,0.3,3.3,1.1
		c4.4,4.1,8.6,8.5,12.1,13.4c1.4,2,2.9,4.1,4,6.3c0.9,1.7,1.4,3.6,1.4,5.5c0,1.2,0.1,2.5,0,3.7c-0.1,0.9-0.4,1.9-0.8,2.8
		C195.9,90.8,195.1,92.2,193.9,93.3"/>
	<path class="st0" d="M27.2,191c1.4,0,2.8,0,4.1,0c0.1,0,0.3-0.3,0.4-0.5c0.3-1.5,0.6-3,0.9-4.7H28c0.2-0.9,0.4-1.6,0.5-2.3
		c0.4-1.5,0-2-1.5-2c-0.6,0-1.1,0.2-1.6,0.5c-0.5,0.3-1.2,0.5-1.8,0.6c-1,0.1-2.1,0-3.1,0c-0.4,0-0.6-0.1-0.6-0.5
		c0-0.5,0.3-0.5,0.6-0.5c1.1,0,2.1,0,3.2,0c0.5,0,0.7-0.2,0.8-0.6c0.4-2,0.4-2,2.4-2c1.4,0,2.7,0,4.1,0c0.7,0,1,0.1,0.7,0.9
		c-0.2,0.8-0.1,1.4,0.6,1.8c0.5,0.2,1,0.3,1.6,0.4c0.4,0.1,0.8,0.1,1.2,0.2c0.5,0.1,0.8,0.3,0.5,0.9c-0.2,0.4-0.2,0.8-0.2,1.3
		c0,0.7,0.4,1.1,1.1,1.2c0.6,0.1,0.9,0.4,0.9,1.1c0.1,1.5,0.9,2.8,2.2,3.5c1.5,0.8,3,0.3,4.3-0.6c0.4-0.3,0.7-1,0.9-1.5
		c0.2-0.5,0.2-1.1,0.3-1.6c0.1-0.8-0.1-1-0.9-1c-1.2,0-2.4,0-3.7,0c0.1-0.3,0.2-0.6,0.2-0.8c0.1-0.3,0.2-0.5,0.3-0.8
		c0.6-1.7,0.3-2.2-1.5-2.2c-0.9,0-1.7,0-2.6,0c0,0-0.1,0-0.2-0.1c0.2-0.8,0.5-1.6,1.2-2.2c0.3-0.2,0.9-0.3,1.1-0.2
		c0.7,0.5,1.4,0.3,2.1,0.1c1.7-0.4,3.4-0.3,5.1,0.1c0.6,0.1,1.2,1.3,1,1.9c-0.1,0.2-0.4,0.4-0.6,0.4c-1.3,0.1-1.3,0.1-1.5,1.4
		c-0.1,0.5-0.2,1.1-0.3,1.6c-0.1,0.5,0.1,0.9,0.7,1c0.7,0.1,1.3,0.2,2,0.2c0.5,0,0.6,0.2,0.6,0.7c-0.1,1.3-0.1,2.5-0.2,3.8
		c0,0.5,0.1,0.7,0.6,0.6c1.5,0,2.9,0,4.4-0.1c0.2,0,0.5-0.3,0.6-0.5c0.3-1.7,0.6-3.4,0.9-5.1c0-0.1-0.2-0.5-0.4-0.5
		c-0.5-0.1-1.1-0.2-1.7-0.3c-0.6-0.1-0.7-0.5-0.7-1c0-0.1,0.6-0.3,0.9-0.2c0.8,0.2,1.5,0.6,2.2,0.8c0.3,0.1,0.5,0.2,0.8,0.2
		c0.8,0.1,1.6,0.1,2.3,0.2c0.4,0,0.6,0.2,0.6,0.6c-0.1,1.5-0.1,3-0.1,4.5c0,0.2-0.1,0.5-0.2,0.7c-0.1,0.6-0.4,0.8-1.1,0.8
		c-0.7-0.1-1.5,0-2.3-0.1c-0.5,0-0.8,0.1-0.7,0.6c0,0.6-0.3,0.7-0.8,0.7c-2.4,0-4.8,0-7.3,0c-0.2,0-0.4,0-0.7,0c0.3,1,0.6,1.9,1,2.9
		h-4.8c0-0.8,0-1.5,0-2.2c0-0.5-0.1-0.7-0.6-0.7c-1,0-2-0.1-3.1-0.1c-0.5,0-0.7-0.2-0.6-0.6c0.1-0.7-0.2-0.9-0.9-0.8
		c-1,0.1-2,0.1-2.9,0.1c-0.5,0-0.8,0.1-0.8,0.7c0,0.2-0.3,0.6-0.4,0.6c-2.2,0-4.5,0-6.7,0c-0.1-0.1-0.1-0.1-0.1-0.1
		c-0.1-1.1-0.1-1.1-1.3-1.1c-1.5,0-2.9-0.1-4.4-0.1c-0.2,0-0.4,0-0.7-0.1c0.2-1.1,0.4-2,0.6-3c0.1-0.7,0.3-1.3,0.4-2
		c0.1-0.4,0.3-0.6,0.7-0.5c1.9,0.1,3.7,0.2,5.6,0.3c0.5,0,0.6,0.2,0.6,0.7c-0.1,1.3-0.1,2.5-0.2,3.8C27.2,190.4,27.2,190.6,27.2,191
		"/>
	<path class="st0" d="M124.7,12.9c-2,0-3.9,0-5.8,0c-0.2,0-0.4-0.4-0.4-0.6c-0.3-2.4-0.6-4.8-0.9-7.3c-0.1-0.8-0.2-1.6-0.3-2.5
		c0.3,0,0.5,0,0.8,0c8,0,16.1,0,24.1,0.1c0.3,0,0.7,0.2,1,0.5c1.8,1.9,2.6,4.4,3.8,6.7c0.5,1,0.9,1.9,1.4,3c-0.3,0-0.5,0.1-0.8,0.1
		c-1.9,0-3.7,0-5.6,0c-0.5,0-0.8-0.2-1-0.7c-0.3-0.8-0.6-1.6-0.9-2.5c-0.1-0.4-0.3-0.6-0.7-0.5c-1.1,0-2.3,0-3.4,0
		c-0.4,0-0.6,0.1-0.6,0.6c0,0.8,0,1.6,0,2.4c0,0.4-0.1,0.7-0.6,0.7c-1.5,0-3,0-4.5,0c-0.3,0-0.6-0.3-0.8-0.5
		c-0.7-1.2-1.3-2.4-1.9-3.7c-0.2-0.4-0.5-0.6-0.9-0.5c-0.6,0-1.2,0-1.8,0c-0.5,0-0.7,0.1-0.6,0.7c0.2,1.1,0.3,2.3,0.5,3.4
		C124.7,12.4,124.7,12.6,124.7,12.9"/>
	<path class="st0" d="M91.7,40.7c-0.1,0.6-0.2,1.3-0.3,1.9c-0.1,0.7-0.3,1.4-0.4,2.1c-0.1,0.7,0,1.3-0.1,2c-0.4,2.2,0.4,4.2,1.4,6
		c0.5,0.9,1,1.7,1.5,2.5c0.5,0.8,0.3,1-0.5,1c-2.4,0-4.8,0-7.2,0c-0.3,0-0.6,0-0.9,0.1c-2.9,1.2-5.8,2.3-8.6,3.6
		c-1,0.4-1.9,1.2-2.8,1.8c-0.1,0.1-0.2,0.1-0.5,0.2c0-0.5,0-1,0.1-1.3c0.4-1.1,0.8-2.1,1.2-3.1c0.1-0.2,0.1-0.4,0.2-0.6
		c-0.3,0-0.5-0.1-0.8-0.1c-1.4,0-2.8,0-4.2,0c-0.2,0-0.6-0.2-0.6-0.4c-0.1-0.5,0.3-0.4,0.6-0.4c1.4,0,2.8,0,4.2,0
		c0.6,0,0.9-0.2,1.2-0.7c1.2-2,2.4-4,3.7-5.8c2.3-3.2,5.3-5.6,8.9-7.3c1.2-0.6,2.5-1.1,3.7-1.6C91.5,40.5,91.6,40.6,91.7,40.7"/>
	<path class="st0" d="M48.2,159.9c-0.8,1-1.4,2-2.2,2.7c-2.6,2.3-4.6,5.1-6.2,8.1c-0.3,0.6-0.6,1.2-1,1.8c-0.2,0.2-0.5,0.4-0.8,0.5
		c-1.8,0-1.9,0-2.7,1.6c-0.6,1.2-1.3,1.5-2.5,1.5c-2-0.1-4.1,0-6.1,0c-0.4,0-0.8,0-0.8-0.6c0-0.6,0.4-0.6,0.8-0.6c0.5,0,1.1,0,1.6,0
		c0.7,0.1,0.8-0.3,0.7-0.8c-0.2-0.7,0-1,0.7-0.8c1.1,0.2,1.4-0.8,1.7-1.4c1.7-3.8,4.2-7,6.5-10.4c0.7-1,1.5-1.6,2.8-1.5
		c2.2,0.1,4.4,0,6.7,0C47.5,159.9,47.8,159.9,48.2,159.9"/>
	<path class="st0" d="M55.4,170.2c0-1.4-0.7-2.2-1.8-2.8c-0.9-0.5-3,0.3-3.3,1.3c-0.4,1.4-0.5,2.7,1.3,3.6c0.7,0.3,1.4,0.6,2,0.3
		C54.5,172,55.4,171.4,55.4,170.2 M49.4,173.3c-0.7,0-1.4,0-2.1,0.1c-0.3,0-0.6,0.3-0.8,0.5c-0.4,0.4-0.7,0.9-1.1,1.3
		c-0.1,0.1-0.3,0.3-0.5,0.3c-1.3,0-2.5,0-3.8,0c0-1,0.2-1.6,0.7-2.2c2.8-3.1,5.6-6.2,8.5-9.3c0.9-0.9,2.1-1.1,3.4-1
		c0.6,0,1.1,0.1,1.7,0.2c1.8,0.3,3.3,1.2,4.2,2.8c0.4,0.7,0.5,1.6,0.7,2.3c0.5,1.6-0.6,2.7-1.3,4c-0.4,0.7-0.8,0.9-1.5,0.9
		c-1.4,0-2.9,0.2-4.3,0.2c-0.6,0-0.8,0.2-0.9,0.7c0,0.1,0,0.1-0.1,0.2c-0.3,1.1-0.3,1.1-1.6,1.1c-0.9,0-0.8-0.7-1-1.3
		C49.5,174,49.4,173.6,49.4,173.3"/>
	<path class="st0" d="M57.5,57c-0.5,0.5-1,1.1-1.6,1.7c1.3,1.2,2.6,2.3,3.9,3.5c1.3-1.5,2.7-3.2,4.2-4.8c0.3-0.3,0.7-0.5,1.1-0.5
		c1-0.1,2.1,0,3.3,0c-0.5,1.3-0.8,2.4-1.3,3.5c-0.6,1.3-1.2,2.6-2,3.6c-0.9,1.2-2,2.3-3.2,3.2c-2,1.5-4.2,1.8-6.5,0.5
		c-0.6-0.3-1.1-0.9-1.4-1.5c-1-1.7-1.3-3.6-1.3-5.6c0-1.1,0.3-2.1,0.4-3.2c0.1-0.5,0.3-0.6,0.8-0.6c1.1,0,2.2,0,3.3,0
		C57.5,56.8,57.5,56.9,57.5,57"/>
	<path class="st0" d="M53.8,55.9c0.2-0.6,0.3-1.1,0.5-1.5c0.9-1.5,1.7-3.2,2.7-4.6c1.2-1.6,2.9-3,4.7-3.7c2.7-1,5.1-0.2,6.4,2.7
		c0.9,2.1,0.8,4.3,0.5,6.5c0,0.2-0.3,0.5-0.5,0.5c-0.9,0.1-1.9,0-3,0c0.5-0.6,0.1-1-0.3-1.4c-0.9-0.8-1.7-1.7-2.6-2.6
		c-0.8,0.9-1.7,1.7-2.4,2.5c-0.9,1.1-1.9,1.6-3.3,1.4C55.8,55.8,54.9,55.9,53.8,55.9"/>
	<path class="st0" d="M50.5,55.7c0.4,0,0.6-0.1,0.9,0c0.2,0.1,0.4,0.2,0.5,0.4c0.1,0.3-0.1,0.6-0.5,0.5c-0.8-0.1-1.5,0-1.2,1.2
		c-0.3-0.3-0.5-0.4-0.6-0.5c-0.3-0.8-0.9-0.8-1.5-0.7c-0.4,0-0.7-0.1-0.6-0.5c0-0.2,0.3-0.4,0.6-0.4c0.2-0.1,0.5,0,0.9,0
		c-0.4-1.3-0.7-2.4-1.1-3.6c-0.1-0.5-0.2-0.9,0.2-1.4c2.9-3.9,5.8-7.8,8.7-11.8c0.1-0.1,0.2-0.3,0.4-0.5c1.4,1.3,2.9,2.6,4.4,4
		c-3,1.1-5.4,2.8-7.3,5.1C52.4,49.9,51,52.5,50.5,55.7"/>
	<path class="st0" d="M37.4,71.4c-0.6,1.3-1.2,2.6-1.7,4c-1,3.2-2.6,6.3-2.7,9.8c0,0.4-0.1,0.7-0.6,0.7c-1.2,0-2.5,0.1-3.7,0.1
		c-0.5,0-0.6-0.1-0.6-0.6c0-2-0.3-1.6,1.5-1.6c1.9,0,1.9,0,2-1.9c0-0.5,0-1,0.1-1.5c0.1-0.7-0.1-1-0.9-0.9c-0.5,0.1-1.1,0-1.7,0
		c0.3-1.2,0.6-2.4,0.9-3.5c0.1-0.4,0.3-0.8,0.3-1.2c0.1-1.1,0.7-1.6,1.8-2c1.7-0.5,3.4-1.2,5.1-1.8C37.3,71.2,37.4,71.3,37.4,71.4"
		/>
	<path class="st0" d="M143.1,30.5c-0.4,0-0.8,0.1-1.2,0.1c-0.4,0-0.6,0.1-0.6,0.5c0,0.4,0.1,0.6,0.6,0.6c1.5,0,1.5,0.1,1.9,1.6
		c0.2,0.9,0.4,1.7,0.6,2.6c0,0.2,0,0.3,0,0.6c-1.4-0.7-2.8-1.3-4.1-2.1c-2-1.2-4.1-1.2-6.3-0.8c-1.5,0.3-3.1,0.6-4.7,0.9
		c0.3-0.9,0.5-1.7,0.8-2.4c0.1-0.2,0.5-0.3,0.7-0.3c2.3,0,4.5,0,6.8,0c0.4,0,0.7,0,0.7-0.6c0-0.6-0.3-0.7-0.8-0.6
		c-2.1,0-4.2,0-6.3,0c-0.8,0-0.8-0.1-0.5-0.9c0.3-0.7,0.7-1,1.5-1c3.1,0.1,6.3,0,9.4,0c1.1,0,1.1,0,1.3,1.1
		C143,30,143.1,30.2,143.1,30.5"/>
	<path class="st0" d="M62.4,151.4c-1.2,0.6-2.5,1.1-3.7,1.7c-1.6,0.8-3.1,1.7-4.7,2.5c-0.4,0.2-0.8,0.4-1.2,0.4c-3.1,0-6.2,0-9.2,0
		c-0.1,0-0.2,0-0.5-0.1c0.2-0.3,0.4-0.4,0.5-0.6c1.4-1.2,2.8-2.3,4.2-3.5c0.6-0.5,1.2-0.7,2-0.7c4,0,8,0,11.9,0c0.2,0,0.4,0,0.5,0.1
		C62.4,151.3,62.4,151.4,62.4,151.4"/>
	<path class="st0" d="M15.7,139.4h12.1c-0.5,0.7-1,1.4-1.5,2c-0.9,1.2-1.7,2.5-2.7,3.7c-0.2,0.2-0.5,0.4-0.8,0.4c-1.1,0-2.2,0-3.3,0
		c-0.2,0-0.6-0.1-0.7-0.3C17.8,143.4,16.8,141.5,15.7,139.4"/>
	<path class="st0" d="M151.2,20.9h-1.9c-1.5,0-2.9,0-4.4,0c-0.2,0-0.6-0.1-0.7-0.3c-0.8-2-1.6-4.1-2.4-6.3c0.3,0,0.5-0.1,0.7-0.1
		c1.9,0,3.7,0,5.6,0c0.5,0,0.8,0.1,1,0.7c0.6,1.8,1.3,3.6,2,5.3C151.1,20.4,151.2,20.6,151.2,20.9"/>
	<path class="st0" d="M76.3,14.3c0.2,0,0.4-0.1,0.6-0.1c2.5,0,5.1,0,7.6-0.1c0.5,0,0.7,0.2,0.9,0.6c1,2.3,1.4,4.8,1.7,7.3
		c0.1,0.7,0.2,1.4,0.1,2.2c-1.7-1.8-3.3-3.7-5.2-5.3c-1.8-1.6-3.9-3-5.9-4.4C76.3,14.5,76.3,14.4,76.3,14.3"/>
	<path class="st0" d="M125.9,21c-2,0.4-4,0.3-6,0.1c-0.2,0-0.4-0.3-0.5-0.5c-0.2-1.9-0.4-3.8-0.6-5.7c-0.1-0.5,0.1-0.6,0.6-0.6
		c1.7,0,3.4,0,5.1,0c0.2,0,0.6,0.2,0.6,0.4c0.3,2.1,0.6,4.1,1,6.2C125.9,20.9,125.9,21,125.9,21"/>
	<path class="st0" d="M78.3,152.6c-0.5,0.3-1,0.7-1.5,1c-1.2,0.8-2.5,1.6-3.7,2.4c-0.3,0.2-0.6,0.3-1,0.1c-0.8-0.4-1.4,0-2.1,0.4
		c-0.4,0.2-0.8,0.4-1.3,0.4c-1.6,0.1-3.2,0.2-4.7,0.2c-0.7,0-1.4-0.3-2-0.6c-0.4-0.2-0.2-0.5,0.2-0.7c1.5-0.9,3.1-1.5,4.8-1.9
		c1.8-0.5,3.5-1.1,5.4-1.4c1.1-0.2,2.3-0.1,3.4-0.1c0.8,0,1.7,0,2.5,0C78.3,152.4,78.3,152.5,78.3,152.6"/>
	<path class="st0" d="M63.7,173.3c-0.5,0.8-0.8,1.5-1.2,2.1c-0.1,0.2-0.4,0.3-0.7,0.3c-1.1,0-2.3,0-3.4,0c-0.2,0-0.5,0-0.6,0.1
		c-0.4,0.8-0.8,1.6-1.2,2.6H61c-0.4,1.2-0.7,2.3-1,3.4c-0.5,1.5-0.5,1.5-2,1.4c-0.9,0-1.8,0-2.6,0c0,0-0.1,0-0.2-0.1
		c0.3-0.9,0.4-1.8,0.9-2.6c0.7-1.4,0.1-2.4-0.8-3.4c-0.3-0.3-0.6-0.5-0.8-0.8c-0.1-0.2-0.2-0.4-0.2-0.6c0-0.1,0.3-0.2,0.5-0.2
		c0.7,0,1.4,0,2,0c0.3,0,0.7-0.3,0.8-0.5c0.5-1.5,1.6-1.9,3.1-1.7C61.6,173.4,62.6,173.3,63.7,173.3"/>
	<path class="st0" d="M178.8,154.7c1.9,0,3.6,0,5.3,0c0.1,0,0.4,0.4,0.4,0.6c0,1,0.1,2,0,3.1c0,0.6,0.2,0.8,0.7,0.8
		c2.4,0,4.8,0,7.2,0c0.8,0,1.3,0.3,1.8,1.1c-0.3,0-0.5,0-0.7,0c-2.7,0-5.4,0-8.1,0c-0.6,0-0.8,0.2-0.8,0.8c0,1,0,1.9,0,2.9
		c-0.2,0-0.2,0-0.2,0c-0.5-0.9-1.3-1-2.2-0.9c-0.4,0-0.7-0.1-0.7-0.5c0,0,0-0.1,0-0.1c-0.4-1-0.8-2,0.3-3c0.6-0.6,0.7-1.5,1.1-2.5
		c-0.9,0-1.5,0-2.2,0c-0.7,0.1-1.1-0.2-1.3-0.8C179.2,155.7,179,155.3,178.8,154.7"/>
	<path class="st0" d="M130.4,14.2c1.6,0,3,0,4.4,0c0.5,0,0.5,0.3,0.5,0.7c0,1.9,0,3.8,0,5.6c0,0.6,0.1,0.9,0.8,0.8c0.3,0,0.7,0,1,0
		c1.4,0,1.4,0,1.8,1.5c-0.3,0-0.6,0.1-0.9,0.1c-1.8,0-3.5,0-5.3,0c-0.6,0-0.7-0.2-0.7-0.8c0-0.5,0.2-0.8,0.7-0.7c0.4,0,0.8,0,1.4,0
		C132.8,19,131.6,16.7,130.4,14.2"/>
	<path class="st0" d="M166.4,155.1c-0.7-1.3-1.4-2.5-2.1-3.8c0.4,0,0.7-0.1,0.9-0.1c2.3,0,4.6,0,7,0c0.9,0,1.3,0.2,1.5,1.1
		c0,0.2,0.1,0.4,0.2,0.6c-1.1,0-2.1,0.4-2.9-0.7c-0.2-0.2-0.5-0.3-0.8-0.4c-0.8,0-1.6,0-2.6,0c0.4,0.8,0.8,1.5,1.2,2.2
		c0.1,0.2,0.5,0.2,0.7,0.2c1.1-0.1,2.3-0.2,3.4-0.3c0.9-0.1,1.1,0.4,1.4,1.1c-0.3,0-0.5,0.1-0.7,0.1c-1.8,0-3.5,0-5.3,0
		c-0.6,0-0.9,0.2-0.8,0.8c0.1,0.7-0.1,1-0.9,0.9c-0.6-0.1-1.2,0-1.8,0c-0.5,0-1,0.2-1.1-0.6c0-0.1-0.3-0.2-0.4-0.2
		c-0.3,0-0.5,0-0.8,0c-0.4,0-0.7,0-0.6-0.5c0-0.2,0.4-0.4,0.6-0.4c0.9,0,1.9,0,2.8,0.1C165.8,155.1,166,155.1,166.4,155.1"/>
	<path class="st0" d="M123.8,185h4.4c0.2,2,0.3,4,0.5,6.1c-1.4,0-2.7,0-4.1,0c-0.1,0-0.3-0.3-0.4-0.4
		C124.1,188.8,123.9,187,123.8,185"/>
	<path class="st0" d="M152.7,141.5c-0.7,0.2-1,0-1.4-0.4c-1.4-1.7-2.9-3.4-4.3-5.1c-0.3-0.4-0.7-0.6-1.2-0.6c-0.8,0-1.6,0-2.4,0
		c-0.2,0-0.4-0.2-0.5-0.4c0.2-0.1,0.4-0.4,0.6-0.4c2.2,0,4.4-0.1,6.6,0c0.8,0,1.6,0.5,2.4,0.9c0.2,0.1,0.3,0.6,0.2,0.8
		c-0.2,0.9-0.4,1.8-0.7,2.6c-0.3,0.7-0.3,1.2,0.1,1.7C152.3,140.9,152.5,141.2,152.7,141.5"/>
	<path class="st0" d="M128,183.3c-1.6,0-3,0-4.5,0c-0.2,0-0.4-0.3-0.5-0.5c-0.4-1.2-0.8-2.5-1.3-3.7c-0.1-0.4,0-0.6,0.4-0.6
		c1.5,0,3,0,4.5,0c0.2,0,0.5,0.2,0.6,0.3C127.6,180.2,127.8,181.7,128,183.3"/>
	<path class="st0" d="M168.9,169.5c1,0,2,0,3.1,0c0.5,0,0.7,0.2,0.6,0.6c0,0.7,0,1.3,0,2c0,0.4-0.2,0.5-0.6,0.5c-1.9,0-3.8,0-5.7,0
		c-0.2,0-0.5-0.3-0.6-0.5c-0.2-0.6-0.3-1.2-0.6-1.8c-0.2-0.5,0-0.7,0.5-0.7c1.1,0,2.1,0,3.2,0C168.9,169.7,168.9,169.6,168.9,169.5"
		/>
	<path class="st0" d="M67.2,160.3c-0.3,0.4-0.7,0.8-1,1.2c-0.7,1-1.4,2-2.1,3.1c-0.3,0.4-0.5,0.4-0.7,0c-0.7-1.4-1.9-2.3-3.2-3
		c-0.6-0.4-1.4-0.6-2.1-0.9c-0.2-0.1-0.3-0.3-0.4-0.4c0.2-0.1,0.3-0.2,0.5-0.2c0.4,0,0.9,0,1.3,0c1.2-0.2,2.3,0.2,3.2,1.1
		c0.6,0.6,2.1,0.2,2.4-0.5c0.4-1,1.2-0.4,1.9-0.6C67.1,160.2,67.2,160.2,67.2,160.3"/>
	<path class="st0" d="M16.2,173.2c-0.3,0.7-0.6,1.3-0.9,1.8c-0.1,0.1-0.3,0.2-0.4,0.2c-2.6,0-5.2,0-7.8,0c-0.1-0.9,0.9-2,1.8-2
		c2.1,0,4.3,0,6.4-0.1C15.5,173.2,15.7,173.2,16.2,173.2"/>
	<path class="st0" d="M14.6,193c0.3,2.2,0.3,2.2-1.8,2.2c-1.6,0-3.2,0.1-4.7,0.1c-0.6,0-0.8-0.1-0.8-0.8c0.1-1.8-0.2-1.5,1.6-1.6
		c1.7-0.1,3.3-0.1,5-0.1C14.1,192.9,14.3,193,14.6,193"/>
	<path class="st0" d="M183.7,147H183h-7.5c-1.1,0-1.1,0-1.1-1.1c0-0.2,0-0.4,0-0.7c0.3,0,0.6,0,0.8,0c2.2,0,4.4,0,6.6,0
		C183.1,145.3,183.4,145.5,183.7,147"/>
	<path class="st0" d="M51.2,157.5c-1,0.7-1.6,1.5-2.8,1.5c-2.4-0.1-4.9,0-7.3,0h-0.9c0.8-0.9,1.3-1.6,2.5-1.5c2.5,0.1,5,0,7.5,0
		C50.5,157.4,50.7,157.4,51.2,157.5"/>
	<path class="st0" d="M62.8,178.2c0.3-0.8,0.6-1.4,0.8-2c0.1-0.1,0.2-0.3,0.4-0.3c1.4,0,2.8,0,4.3,0c-0.4,0.8-0.7,1.5-1.1,2.1
		c-0.1,0.1-0.3,0.2-0.4,0.2C65.5,178.2,64.2,178.2,62.8,178.2"/>
	<path class="st0" d="M148.4,150.5c1.9,0,3.9,0,5.8,0c0.3,0,0.7-0.2,0.7,0.4c0,0.1-0.4,0.3-0.6,0.3c-4,0-7.9,0-11.9,0
		c-0.2,0-0.4-0.2-0.7-0.3c0.2-0.1,0.5-0.4,0.7-0.4C144.4,150.5,146.4,150.5,148.4,150.5"/>
	<path class="st0" d="M116.1,13c0,0.3,0,0.5,0,0.8c0,0.5-0.2,0.6-0.6,0.6c-1.4,0-2.8,0-4.2,0c-1.2,0-1.3-0.1-1.1-1.4H116.1z"/>
	<path class="st0" d="M24.2,114.5c0.8,0,1.5,0,2.3,0c0.2,0,0.4,0.2,0.4,0.4c0.4,0.9,0.8,1.7,1.2,2.8c-0.9,0-1.8,0-2.6,0
		c-0.1,0-0.2-0.2-0.3-0.3C24.9,116.4,24.6,115.5,24.2,114.5"/>
	<path class="st0" d="M86.4,12.9c1.9,0,3.7,0,5.5,0c0.5,0,0.4,0.3,0.4,0.7c0,0.3,0.1,0.7-0.4,0.7c-1.7,0-3.3,0.1-5,0
		C86.1,14.3,86.6,13.5,86.4,12.9"/>
	<path class="st0" d="M180.8,37.4h-2.3c-1.7,0-3.4,0-5.1,0c-0.7,0-1-0.3-1.1-1c0.5,0,0.9,0,1.3,0c1.9,0,3.7,0,5.6,0
		C179.9,36.4,180.3,36.7,180.8,37.4"/>
	<path class="st0" d="M46.9,178.7c0.1-0.4,0.1-0.7,0.2-1c0.3-0.6,0.6-1.3,1-1.9c0.1-0.2,0.4-0.4,0.6-0.4c0.2,0,0.5,0.3,0.6,0.5
		c0.6,0.7,0.4,1.6,0.4,2.5c0,0.1-0.3,0.3-0.4,0.4C48.5,178.8,47.8,178.7,46.9,178.7"/>
	<path class="st0" d="M179,150.2h7.8c0.3,0.8,0.2,0.9-0.6,0.9c-2.2,0-4.4,0-6.6,0C179,151.1,178.9,150.9,179,150.2"/>
	<path class="st0" d="M57,159c0.4-0.9,1.2-1.5,2.2-1.5c0.7,0,1.3,0,2,0c0.2,0,0.5,0.3,0.5,0.5c0,0.3,0.3,0.9-0.3,0.9
		C59.8,159.1,58.4,159,57,159"/>
	<path class="st0" d="M62.8,184.8c-0.1-1.3,0-1.3,1-1.3c1,0,1.9,0,2.9,0c0.4,0,0.6,0.1,0.5,0.5c-0.1,0.3,0.1,0.8-0.5,0.8
		C65.4,184.8,64.1,184.8,62.8,184.8"/>
	<path class="st0" d="M67.8,157.5c0.5,0,1.1,0,1.6,0c0.2,0,0.4,0.2,0.5,0.3c-0.1,0.2-0.2,0.4-0.3,0.5c-1,1.2-2.2,0.9-3.5,0.7
		c-0.2,0-0.4-0.7-0.5-1.1c0-0.1,0.4-0.3,0.6-0.4C66.8,157.5,67.3,157.5,67.8,157.5L67.8,157.5z"/>
	<path class="st0" d="M60.2,190.9c1.4,0.1,2.8,0.2,4.2,0.3c0.1,1.2,0.1,1.2-1,1.2c-0.8,0-1.5,0-2.3-0.1
		C60.1,192.3,60,192.3,60.2,190.9"/>
	<path class="st0" d="M7.9,182.2c0.3-0.2,0.5-0.5,0.7-0.5c2,0,4.1-0.1,6.1-0.1c0.2,0,0.4,0.2,0.6,0.3c-0.2,0.2-0.3,0.4-0.5,0.4
		c-2.2,0-4.3,0-6.5,0C8.2,182.3,8.2,182.3,7.9,182.2"/>
	<path class="st0" d="M117.1,123c0.6,1.1,1.8,0.6,2.6,1c-0.1,0.6-0.3,1-1,0.8c-0.4-0.1-0.8-0.2-1.2-0.1c-0.9,0.1-1.1-0.5-1.3-1.2
		C116.5,123.3,116.8,123.1,117.1,123"/>
	<path class="st0" d="M155.8,142.6c-0.4,0.3-0.8,0.8-1.4,1c-0.6,0.3-0.9-0.2-1.2-0.6c-0.1-0.1-0.2-0.3-0.1-0.3c0.5-0.4,1-0.8,1.5-1
		c0.2-0.1,0.7,0.2,1,0.3C155.8,142,155.8,142.2,155.8,142.6"/>
	<path class="st0" d="M28.3,125.8c-0.4,0-0.9,0-1.3,0c-0.2,0-0.3-0.3-0.5-0.4c0.2-0.2,0.3-0.5,0.5-0.5c0.9-0.1,1.7-0.1,2.6,0
		c0.2,0,0.4,0.3,0.4,0.5c0,0.2-0.3,0.4-0.4,0.5C29.2,125.8,28.7,125.8,28.3,125.8"/>
	<path class="st0" d="M99.7,160.2c-0.4,0-0.8,0-1.2,0c-0.4,0-0.6-0.2-0.5-0.5c0.1-0.2,0.3-0.4,0.5-0.4c0.8,0,1.6-0.1,2.4,0
		c0.2,0,0.4,0.3,0.6,0.5c-0.2,0.2-0.3,0.4-0.6,0.5C100.5,160.3,100.1,160.2,99.7,160.2"/>
	<path class="st0" d="M116.8,0.7c1.6,0,3.1,0,4.7,0c0.1,0,0.3,0.2,0.4,0.3c-0.1,0.1-0.3,0.2-0.4,0.2c-1.4,0-2.9,0-4.3,0
		c-0.2,0-0.3-0.2-0.5-0.3C116.7,0.9,116.7,0.8,116.8,0.7"/>
	<path class="st0" d="M72.2,14.4c-0.2,0-0.5,0.1-0.7,0c-0.2-0.1-0.4-0.3-0.4-0.5c0-0.2,0.2-0.5,0.4-0.5c0.5-0.1,1-0.1,1.5,0
		c0.2,0,0.5,0.3,0.5,0.5c0,0.2-0.3,0.5-0.5,0.5C72.8,14.5,72.5,14.4,72.2,14.4"/>
	<path class="st0" d="M47.8,182.6c0.6,0.1,1.1,0.1,1.6,0.2c-0.2,1.2-0.5,1.4-1.3,1.3C47.6,183.9,47.5,183.6,47.8,182.6"/>
	<path class="st0" d="M155.3,144.8c0.1-0.5,0.1-1.1,0.2-1.2c0.4-0.2,1-0.1,1.5-0.1c0.1,0,0.2,0.3,0.2,0.4c-0.1,0.2-0.2,0.6-0.4,0.7
		C156.4,144.7,155.9,144.7,155.3,144.8"/>
	<path class="st0" d="M60.8,56.6c-0.3,0-0.5,0-0.8,0c-0.2,0-0.3-0.2-0.4-0.4c0.1-0.1,0.3-0.4,0.4-0.4c0.6-0.1,1.1,0,1.7,0
		c0.1,0,0.4,0.3,0.4,0.4c0,0.1-0.2,0.3-0.4,0.4C61.3,56.6,61,56.6,60.8,56.6"/>
	<path class="st0" d="M23.3,173.9c-0.6,0-1.3,0-1.9,0c-0.1,0-0.3-0.3-0.3-0.4c0-0.1,0.2-0.3,0.3-0.3c0.5-0.1,1-0.1,1.5,0
		c0.2,0,0.4,0.4,0.6,0.6C23.4,173.8,23.3,173.9,23.3,173.9"/>
	<path class="st0" d="M154.8,141c-0.4,0-0.9,0-1.3,0c-0.1,0-0.1-0.4-0.1-0.8c0.6,0.2,1,0.3,1.5,0.5
		C154.8,140.8,154.8,140.9,154.8,141"/>
	<path class="st0" d="M132.5,163.3c0.7-0.1,1.4-0.3,2.1-0.3c0.1,0,0.4,0.4,0.3,0.5c-0.2,0.5-0.4,1-0.7,1.4c-0.1,0.1-0.7,0.1-0.9-0.1
		C133,164.4,132.8,163.9,132.5,163.3"/>
	<path class="st0" d="M124.8,51.8c-1.3-0.3-2.8-0.6-4.4-1c-0.5-0.1-0.9-0.3-1.4-0.3c-1.3-0.2-2.4-0.9-3.5-1.8
		c-0.4-0.3-0.4-1.2,0.1-1.5c0.8-0.5,1.8-0.9,2.7-1.2c3.8-1.2,7.6-0.8,11.4-0.2c1.3,0.2,2.4,0.6,3.5,1.4c0.5,0.4,1.1,0.9,0.9,1.5
		c-0.2,0.5-0.7,1.1-1.3,1.3c-1.7,0.5-3.4,0.9-5.1,1.3C126.9,51.6,126,51.7,124.8,51.8"/>
</g>
</svg>
