<?xml version="1.0" encoding="utf-8"?>
<!-- Generator: Adobe Illustrator 26.0.1, SVG Export Plug-In . SVG Version: 6.00 Build 0)  -->
<svg version="1.1" id="Calque_1" xmlns="http://www.w3.org/2000/svg" xmlns:xlink="http://www.w3.org/1999/xlink" x="0px" y="0px"
	 viewBox="0 0 512 512" style="enable-background:new 0 0 512 512;" xml:space="preserve">
<style type="text/css">
	.st0{fill:#FFFFFF;}
</style>
<path d="M0,0h512v512H0V0z"/>
<g>
	<path class="st0" d="M1723.1-407c3.1-1.2,5.4-3.3,7.8-5.2c0.7-0.6,0.5-1.4,0.5-2.2c0-8.6,0-17.2,0-25.8c0-1.3-0.5-2.4-1.2-3.4
		c-2-2.8-4.3-5.4-6.6-8c-1-1.1-1.9-2.2-2.9-3.2c-2.7-2.7-3.9-5.7-3.6-9.8c0.6-7.2,0.2-14.5,0.2-21.8c0-1,0.1-2,0.1-3
		c0-1.3,0.6-1.8,1.9-1.8c0.8,0,1.6,0,2.3,0c11.8,0,23.7,0,35.5,0c0.8,0,1.6-0.1,2.3,0c1.6,0.1,2.1-0.7,2.1-2.2
		c0-4.4,0.2-8.7,0.2-13.1c0-4.9-0.1-9.8-0.1-14.7c0-1.5,0.2-3-2.1-2.9c-0.8,0.1-1.2-0.5-1.2-1.3c-0.2-2.9-0.7-5.8-0.4-8.7
		c0.1-1.3,0.6-2,2-2.2c3.2-0.4,6.5-0.4,9.7,0c1.5,0.2,2.2,0.9,2.1,2.4c-0.1,2.7,0,5.4,0,8c0,1.3-0.6,1.8-1.8,1.8c-0.1,0-0.2,0-0.3,0
		c-1.2,0.2-2.7-0.6-3.5,0.3c-1.1,1.1-0.5,2.8-0.5,4.2c0,7.4,0.1,14.7,0.1,22.1c0,2.5-0.2,4.9-0.4,7.4c-0.2,1.7-0.8,2.4-2.4,2.4
		c-3.5,0-6.9,0.3-10.4,0.3c-9.3,0-18.5,0-27.8,0c-3.8,0-3.2,0.1-3.4,3.3c-0.6,6.9,0,13.8-0.1,20.8c0,1.5,0.7,2.5,1.5,3.6
		c3.1,4.3,6.6,8.2,10.2,12c1.6,1.7,2.4,3.5,2.3,6c-0.2,7.4-0.1,14.7-0.1,22.1c0,0.7,0,1.3,0,2c0.1,2.3,0.3,2.5,2.2,1.4
		c0.6-0.3,1.1-0.8,1.7-1c1.7-0.7,2.4-0.2,2.6,1.6c0.3,3.3,0.3,6.7,0.2,10c0,1.3-0.3,2.7-0.1,4c0.6,3.6-1.1,5.8-3.8,7.9
		c-4.2,3.2-8.5,6.1-12.9,9.1c-1.8,1.2-2.5,2.5-2.5,4.7c0.1,9.3,0.1,18.5,0,27.8c0,1.7-0.1,3.3-0.2,5c0,2.1-0.9,3.7-2.5,5.2
		c-12.3,11.4-24.8,22.5-36.9,34.1c-1.9,1.9-2.7,3.7-2.7,6.4c0.1,18.2,0,36.4,0.1,54.6c0,2.8-0.8,4.8-2.7,6.8
		c-5.1,5.5-10.6,10.6-15.9,15.9c-4.7,4.7-4.7,4.7-4.7,11.3c0,9.2,0.1,18.3-0.1,27.5c0,2.6,0.7,4.6,2.4,6.3c2.1,2.1,4.3,4.3,6.5,6.3
		c2.2,2,3.1,4.3,3,7.4c-0.2,6.7-0.2,13.4,0,20.1c0,2.3-0.6,4-2.3,5.6c-2.2,2-4.3,4.3-6.4,6.4c-1.2,1.2-2,2.5-2.2,4.3
		c-0.2,2.1-0.7,4.4-3.6,5.7c0-4.1-0.1-7.8,0.1-11.5c0.1-1.7,1.5-3,2.7-4.1c6.3-5.7,4.8-4.4,5-11.8c0.1-3.2-0.1-6.5,0-9.7
		c0.1-1.8-0.5-3.2-1.7-4.6c-1.9-2.3-4.1-4.1-6.2-6.1c-1.8-1.8-2.8-3.7-2.7-6.5c0.2-13.1,0.1-26.1,0-39.2c0-2.3,0.7-4,2.3-5.6
		c6.3-6.3,12.5-12.7,18.9-19c2.3-2.2,3.2-4.5,3-7.7c-0.3-3.9-0.1-7.8-0.1-11.7c0-1.3-0.1-2.5-1.3-3.3c-2-1.3-2.1-3.2-2.1-5.3
		c0.1-8.3,0-16.5,0-24.8c0-1.1,0.2-2.2-0.3-3.4c-1.7,0.4-2.2,1.7-2.5,3c-0.5,2.1-0.7,4.2-0.5,6.3c0.2,2.1-0.5,3.8-1.7,5.5
		c-8.2,11-17,21.6-25.4,32.5c-1.9,2.5-3.7,5-5.7,7.5c-1.1,1.4-1.6,2.9-1.4,4.7c0.3,3,0.7,6-1.2,8.7c-0.4,0.6-0.2,1.7-0.2,2.6
		c0,21.9,0,43.8-0.1,65.7c0,11.8-0.2,23.7-0.3,35.5c0,2.9,0.5,5.7,0,9c-2.1-1.1-3.1-2.9-4.6-4c-3.4-2.5-4-5.8-4-9.9
		c0.2-42.2,0.2-84.4,0.1-126.7c0-17.5-0.3-35.1-0.4-52.6c0-3.2,0-3.2-3.1-3.3c-1.6,0-3.1-0.1-4.7,0.1c-2.9,0.3-5.2-0.8-7.4-2.5
		c-3.1-2.5-5.8-5.6-8.6-8.5c-2.3-2.4-4.5-4.9-7.9-6.9c-0.1,3.2-0.2,6-0.2,8.7c-0.2,19.1,0.8,38.2,1.3,57.3
		c0.2,5.9,0.2,11.8,0.2,17.8c0,2.9,0,2.9-2.6,3.8c-2.8,1.1-2.8,1.1-2.8,4.1c0,3.9-0.1,7.8,0,11.7c0.1,1.8-0.5,3.2-1.8,4.5
		c-1.6,1.6-3.1,3.2-4.8,4.7c-1.1,1.1-1.6,2.3-1.6,3.9c0.1,9.9,0.1,19.9,0.2,29.8c0,0.9,0,1.8-0.1,2.7c-0.1,1.4-1,2.3-2.4,2.2
		c-1.5-0.1-1.6-1.3-1.6-2.5c0-8.8,0.1-17.6,0-26.5c0-7.6-0.1-15.2-0.2-22.8c0-0.6-0.1-1.3-0.2-2.1c-1.6,0-2.6,0.9-3.5,1.8
		c-5,5-10,9.9-14.9,15c-1.1,1.1-2.2,2.3-2.1,4c0,0.4,0.1,1,0.4,1.2c0.5,0.5,1,0,1.4-0.3c3.7-2.7,5.7-2.5,8.8,0.9
		c2.1,2.3,4.4,4.5,6.6,6.6c1,1,1.5,2.1,1.4,3.5c-0.1,5.9-0.1,11.8,0,17.8c0,2.1-0.8,3.5-2.3,4.6c-3.3,2.3-4.1,5.4-3.8,9.3
		c0.3,4.2,0,8.5,0.1,12.7c0.1,2-0.7,3.4-2.3,4.4c-0.6,0.3-1.1,0.8-1.7,1c-3.4,1-4.1,3.4-4,6.7c0.2,6.8,0.1,13.6,0,20.4
		c0,1.2,0.3,2.5-0.7,3.6c-1.5-0.6-2.5-1.8-3.6-2.9c-2.8-2.7-5.5-5.6-8.3-8.2c-1.1-1.1-1.2-2.3-1.2-3.6c0-6.4,0-12.7,0-19.1
		c0-14.3,0-28.6,0-42.9c0-2.4,0.5-4.3,2.2-6c1.8-1.8,2.7-4,1.8-6.6c-0.4-0.1-0.6-0.2-0.8-0.1c-1,0.3-1.3,1.9-2.4,1.5
		c-1.3-0.5-0.8-2-0.8-3c0-34-0.2-67.9,0.1-101.9c0.1-13.5-0.6-27,0.3-40.5c0.2-2.4-0.6-4.6-2.1-6.5c-3.2-4-6.8-7.7-10.5-11.2
		c-4-3.8-7.9-7.5-11.6-11.6c-1.1-1.2-1.6-2.5-1.6-4.2c0.1-21.1,0-42.2,0.1-63.3c0-3.1,0.3-6.2,0.4-9.4c0.1-1.9-0.1-3.8-0.6-5.6
		c-0.4-1.4-0.9-2.7-2.3-3.7c-0.6,1-0.4,1.9-0.5,2.7c-0.9,27.6-0.7,55.2-0.7,82.8c0,27.9,0.1,55.8,0.1,83.8c0,1.6,0,3.1,0.8,4.5
		c0.6,1,0.5,2.1,0.5,3.3c0,16.6,0,33.3,0,49.9c0,0.9,0.1,1.9-0.2,2.6c-1.3,2.5-1,5.2-1,7.9c0,13.5-0.3,27,0.2,40.5
		c0.1,1.9-0.3,3.6-1.9,4.7c-1.4,1-1.8,3.4-4.3,3c-0.8-0.1-0.7,1.2-0.7,2c-0.2,4.2-0.4,8.5-0.4,12.7c0,10.9,0,21.9,0.2,32.8
		c0.1,3.2-0.4,5.9-3.2,7.9c-1.3,1-2.3,2.4-3.5,3.5c-0.7,0.7-1.5,0.5-1.6-0.6c-0.1-0.8,0-1.6,0-2.3c0-36.3,0-72.6,0-108.9
		c0-2.2,0.6-3.9,2.1-5.3c2.2-2.1,4.3-4.3,6.4-6.4c1-0.9,1.3-1.9,1.3-3.3c0-11.8,0-23.7,0-35.5c0-0.9-0.1-1.8-0.4-2.6
		c-0.7-2-1.4-2.5-3.5-2.4c-1.9,0.1-3.8,0.3-5.7,0.3c-1.5,0-1.9,0.7-1.9,2c-0.1,5.7-0.4,11.4-0.4,17.1c0,16.1,0.1,32.2,0.1,48.2
		c0,9.5-0.1,18.9,0,28.4c0.1,8-0.2,16-0.2,24.1c0,9.7,0.1,19.4,0.2,29.1c0,5.2,0.1,10.5,0.1,15.7c0,0.9,0.3,1.8-0.5,2.5
		c-0.8,0.1-1.3-0.3-1.8-0.8c-3.8-3.9-7.6-7.8-11.5-11.6c-1.3-1.3-1.2-2.8-1.2-4.4c0-16.1,0-32.2,0-48.3c0-11.5,0.1-23-0.1-34.5
		c-0.1-3.3,1.2-5.6,3.5-7.5c1.4-1.2,2.8-2.3,4-3.5c1.5-1.4,2.4-3.2,2.5-5.3c0.1-2.1-0.1-2.4-2.1-2c-0.5,0.1-1.1,0.3-2-0.1
		c-0.3-75.4,0.5-150.9-0.4-226.8c-2.1,0.9-2.5,2.4-2.8,3.9c-0.4,2.2-0.5,4.4-0.4,6.7c0.6,23.1,0.3,46.2,0.2,69.4
		c0,3.3-1.1,5.9-3.3,8.4c-4.7,5.1-9.8,9.8-14.7,14.7c-2,2-4.3,3.8-5.6,6.2c-1.3,2.4-0.2,5.4-0.2,8.2c-0.1,6.8,0.3,13.7-0.1,20.4
		c-1.6,22.9-0.5,45.7-0.7,68.6c-0.2,22.8,0,45.6-0.1,68.4c0,21.3-0.1,42.7-0.2,64c0,2.6-0.2,5.1,0.2,7.7c0.3,1.5,0,3,0,5.2
		c-3.4-2.6-5.7-5.5-8.3-8c-0.8-0.8-0.5-1.9-0.5-2.9c0-5.6,0-11.2,0-16.8c0-21.3,0-42.7,0.1-64c0-2.4-0.6-4.3-2.3-6
		c-2.2-2.4-4.3-4.8-6.9-6.9c-0.6-0.5-1-1.2-2.1-1c-0.4,2.7-0.6,5.5-0.7,8.2c-0.4,15.6,0,31.3-0.1,46.9c0,4.2-0.1,8.5-0.2,12.7
		c-0.1,2.5-0.6,2.8-2.9,1.7c-2.1-1-4-2.4-6-3.6c-0.7-0.4-0.8-1-0.8-1.7c0-0.9,0-1.8,0-2.7c0-18.3,0-36.6,0.1-55
		c0-2.6-0.8-4.4-2.7-6.1c-4.4-3.9-4.3-4.8,0.2-8.9c2.6-2.3,2.6-3.2,0.3-5.8c-0.1-0.1-0.1-0.2-0.2-0.2c-5.5-4.9-4.5-3.3-4.5-11.3
		c0-26,0-52.1-0.1-78.1c0-2.4,0.6-4.2,2.3-6c4.8-5,9.8-9.8,14.8-14.6c3.4-3.4,6.7-6.8,9.9-10.5c1.5-1.7,2.2-3.5,2.1-5.8
		c-0.1-2.2-0.7-4.5,1.7-6.1c0.7-0.5,0.4-1.6,0.1-2.5c-1.2-0.1-1.8,0.9-2.4,1.5c-10.7,10-20.6,20.8-30.5,31.5
		c-1.1,1.2-1.4,2.4-1.4,3.9c-0.3,17-0.6,33.9-1,50.9c-0.3,11.8-0.8,23.7-1.2,35.5c0,0.4,0.1,1.1-0.1,1.3c-2.2,2.4-1.1,5.3-1.3,7.9
		c-0.1,3.8-0.1,7.6,0,11.4c0,1.6-0.4,2.8-1.5,3.9c-1.6,1.6-3.1,3.2-4.8,4.7c-1.2,1.1-1.8,2.3-1.8,4.1c0.1,9.7,0.1,19.4,0.2,29.2
		c0,1.3,0.2,2.7-0.3,4c-0.3,0.9-0.8,1.7-1.9,1.6c-1.1-0.1-1.5-0.8-1.7-1.8c-0.1-1-0.1-2-0.1-3c0-16.3-0.1-32.6,0.1-48.9
		c0-3-1.1-5.2-3.2-6.8c-2.3-1.8-3.8-4.4-6.2-6c-0.9-0.5-0.7-1.6-0.7-2.5c0-9.7,0-19.4,0-29.2c0.1-15.5,0.1-31-0.2-46.6
		c0-0.4-0.1-0.9-0.1-1.3c-2.8,0.5-5.9,3.6-5.9,6.1c0,12.7,0,25.5,0,38.2c0,10.7-0.1,21.4,0,32.2c0,8.5,0.1,17,0.2,25.5
		c0,1.8-0.4,3.2-1.7,4.5c-2.9,3.1-5.7,6.3-9,9c-0.8,0.7-1.5,1.7-2.8,1.8c-0.9-1.3-0.7-2.8-0.7-4.2c0-3.2,0-6.5,0-9.7
		c0-0.2-0.1-0.5,0-0.7c1.9-4.2,0.5-8.5,0.3-12.8c-0.8-17.6-0.3-35.3-0.2-52.9c0.1-10.4-0.1-20.8-0.1-31.1c0-0.3,0.1-0.8-0.1-1
		c-2.6-3.1-1.3-6.8-1.5-10.3c-0.2-4-0.1-8,1.7-11.8c0.4-0.8,0.2-2,0.1-3c-0.5-8-0.2-16.1-0.1-24.1c0.1-5.1-0.2-10.2-0.2-15.4
		c0-5.9,0.1-11.8,0.1-17.7c0-0.6,0-1.1,0-1.7c0-0.8,0-1.8,1.1-1.7c1.1,0.1,0.9,1.1,0.9,1.9c0,3,0,6,0,9c0,0.8-0.2,2.1,0.8,2.3
		c1.1,0.2,1.8-0.8,2.2-1.7c0.8-1.8,1.3-3.8,1.3-5.8c-0.5-16.5-0.1-33.1-0.3-49.6c0-1.6,0.4-3.4-2-4c-0.9-0.2-0.8-1.3-0.8-2
		c0-3.9,0.1-7.8,0-11.7c0-1.5,0.7-2.5,1.6-3.5c4-4.1,7.9-8.2,12-12.2c4.2-4.2,8.5-8.3,12.4-12.7c0.8-0.9,1.6-1.8,1.5-3.2
		c-0.3-7.6,0.5-15.2-0.1-22.8c-0.1-1.3,0.1-2.7-1-3.9c-3.5,1-4.6,4.6-7.2,6.7c-2.7,2.1-4.9,4.9-7.4,7.3c-2.4,2.4-4.7,4.7-7.1,7
		c-1.1-0.2-1-1.1-1.2-1.8c-0.1-0.4-0.2-0.9-0.2-1.3c-1.1-14.4-1.3-13.2,8.1-22.7c9.7-9.7,7.9-6.8,8-19.5c0.1-7.6-0.4-15.2-0.2-22.8
		c0.1-2.2,0.7-4.1,2-5.9c1.8-2.4,3.9-4.6,6.1-6.6c6.7-6.1,12.7-12.9,19.2-19.1c2-2,3-4.1,2.9-7.1c-0.2-5.5,0-10.9-0.1-16.4
		c0-2.1,0.7-3.9,1.9-5.6c1.8-2.5,3.9-4.6,6.1-6.6c2.2-2.1,4.3-4.2,6.5-6.3c1.4-1.3,1.8-2.9,1.8-4.8c0-9-0.1-18.1,0.1-27.1
		c0.2-9.6-0.2-19.2-0.2-28.8c0-4.4-1.3-7.9-4.4-11.1c-4.7-4.9-9.5-9.7-14.3-14.6c-2.6-2.7-5.1-5.6-7.7-8.4c-1.2-1.3-1.7-2.7-1.7-4.5
		c-0.3-17.9-0.8-35.7-0.8-53.6c0-10.5-0.1-21-0.2-31.5c0-1.6-0.1-3.2,1.1-4.5c0.4-0.4,0.8-0.9,1.4-0.8c0.6,0.1,0.8,0.7,0.9,1.3
		c0.3,2.1,0.7,4.2,0.6,6.3c-0.4,12.1,0.6,24.1,0.9,36.1c0.3,14.3,0.6,28.6,0.8,42.9c0,2.4,0.7,4.2,2.3,6
		c8.4,9.6,17.4,18.6,26.3,27.7c7.1,7.2,14.2,14.6,20.8,22.3c1.2,1.4,1.8,2.9,1.8,4.8c0.2,23.3,1.9,46.6,1.9,70c0,5,1.3,9,3.9,13.1
		c5,8,10,15.9,15.2,23.7c0.3,0.5,0.6,0.9,0.9,1.4c0.6,0.8,1.4,0.9,1.7-0.1c0.4-1.3,1.2-2,2.3-2.7c1.3-0.8,1.9-2.1,1.8-3.7
		c-0.1-0.9,0-1.8,0-2.7c0-65.9,0-131.8,0-197.7c0-4.6,0.2-4.7,4.6-4.5c2.6,0.1,2.8,0.3,2.9,2.9c0.1,6.7,0.1,13.4,0.1,20.1
		c0,34.6,0.1,69.3,0.1,103.9c0,25.6,0,51.2,0,76.7c0,2.3,0.1,4.5,2.7,5.5c0.5,0.2,0.7,0.8,1,1.3c0.9,1.8,1.2,1.9,2.4,0.6
		c0.5-0.6,1-1.2,1.4-1.9c5.5-8.7,10.9-17.4,16.4-26.1c1.1-1.8,1.6-3.6,1.6-5.7c0.4-25.2,1.5-50.4,2.3-75.7c0.1-1.8,1-2.9,2-4
		c8.6-9.4,17.5-18.5,26.4-27.6c6.7-7,13.4-14.1,20.2-21.1c1.8-1.8,2.5-3.7,2.5-6.2c0-29.6,1.3-59.2,1.9-88.8c0-0.9-0.5-2.2,1-2.4
		c1.2-0.2,3.5,1.2,3.6,2.3c0.1,0.8,0.1,1.6,0.1,2.3c-0.3,15.2-0.6,30.4-1,45.5c-0.3,14.2-0.9,28.4-1.1,42.5
		c-0.1,3.3-1.1,5.9-3.4,8.3c-7,7.5-14.4,14.7-21.4,22.1c-2.2,2.3-4.4,4.8-6.6,7.1c-0.9,0.9-1.4,1.9-1.3,3.3
		c1.3,19.3,0.1,38.6-0.1,57.9c0,5.7,1.8,9.9,5.8,13.5c3,2.8,6.1,5.5,8.9,8.7c1.5,1.7,2.2,3.4,2.1,5.7c-0.1,5.8,0,11.6-0.1,17.4
		c0,1.9,0.4,3.5,1.7,4.9c1.4,1.6,2.6,3.4,4.2,4.8c6.2,5.5,11.6,11.8,17.7,17.4c0.2,0.2,0.5,0.5,0.7,0.7c5.9,5.8,5.9,5.8,5.9,14.3
		c0,8.7,0.1,17.4-0.1,26.1c0,2.4,0.7,4.3,2.1,6.1c2.4,3,5.2,5.6,7.9,8.2c6.2,6,6.3,6,6.5,14.7c0.1,2.5,0,4.9-0.3,7.4
		c-0.2,1.5-1,1.6-2.1,1c-1.1-0.6-1.9-1.5-2.8-2.4c-4.8-5-9.6-10-14.5-14.9c-1.1-1.1-2.1-2.3-3.8-3.1c-1.3,2.3-1.4,4.8-1.5,7.1
		c-0.1,6.5,0.1,12.9,0.2,19.4c0,1.4,0.9,2.2,1.7,3.2c3.9,5.1,8.7,9.3,13.2,13.8c3.6,3.7,7.3,7.3,10.9,10.9c0.7,0.7,1.5,1.3,1.5,2.5
		c0.1,4.1,0.4,8.3,0.4,12.4c0,2.9-0.2,3-3.1,3c-3.6,0-7.2-0.1-10.7,0c-1.8,0.1-3.2-0.6-4.5-1.8c-6.5-5.8-12.3-12.3-18.5-18.4
		c-3.5-3.4-4.7-6.9-4.6-11.8c0.2-28.3,0.1-56.5,0.2-84.8c0-2.4-0.7-4.2-2.3-6c-6.3-7.1-13.2-13.6-19.9-20.3c-4-4-8-8.1-11.8-12.4
		c-0.9-1-1.6-2-1.5-3.5c0.2-16.2-0.5-32.4,0.3-48.6c0.1-1.4,0-2.9,0.7-4.2c1.4-2.5,1.6-5.2,1.6-8.1c0-7.7,0.3-15.4,0.5-23.1
		c0.1-2.9-0.2-5.8-0.6-8.7c-0.2-1.5-1-1.9-1.9-0.8c-2.5,2.9-5.5,5.2-7.8,8.3c-0.7,1-0.7,2.1-0.7,3.2c0,15-0.5,29.9-1,44.9
		c-0.4,10.2-0.7,20.3-1,30.5c0,1.6-0.6,3-1.4,4.4c-4.2,7.3-8.7,14.3-13.2,21.3c-3.1,4.8-6,9.7-9.1,14.4c-1,1.6-1.5,3.1-1.5,5
		c0.1,17,0.1,34,0,50.9c0,2,0.6,3.7,1.5,5.3c6.8,11.4,14.1,22.5,21.2,33.8c1.6,2.6,2.5,5.2,2.6,8.4c0.4,24.5,2,48.9,1.9,73.3
		c0,3.7,2.2,5.8,5.3,7.7c0.7-1.5,0.5-2.7,0.6-3.9c0-3.8,0-7.6,0-11.4c0-0.8-0.2-1.6,0.2-2.3c0.2-0.3,0.4-0.5,0.8-0.4
		c0.2,0.1,0.4,0.2,0.5,0.4c0.4,0.7,0.2,1.5,0.2,2.3c0,4.6,0,9.2-0.1,13.7c0,2.3,0.6,4.4,1.7,6.4c0.4,0.7,1,1.4,1.8,1.3
		c1.1-0.2,0.7-1.3,0.7-2c0.1-3.9,0.2-7.8,0.2-11.7c0-17.4,0-34.8,0-52.3c0-2.7,0-5.4,0.1-8c0.3-4.7,0.1-9.4-1.5-13.9
		c-0.4-1.1-0.3-2.2-0.3-3.3c0.1-15.3,0.2-30.6,0.3-45.9c0-1-0.1-2,0.3-3c2.6-7.1,2.7-14.4,2.5-21.8c-0.1-6.4-0.2-12.7-0.4-19.1
		c-0.1-3.4,1.2-5.8,3.4-8c1.1-1.1,2.2-2.2,3.7-3.1c1.4,2.3,1.4,4.8,1.4,7.1c0.1,3.5-0.2,6.9-0.2,10.4c0,15.1,0,30.2-0.1,45.2
		c0,2.3,0.6,4.1,2,5.8c2.2,2.8,4.9,5.2,7.5,7.7c7.1,6.7,7.1,6.7,7.1,16.4c0,4,0.1,8,0,12.1c0,1.7,0.4,3,1.4,4.3
		c2.1,2.8,4.5,5.3,7,7.7c6.7,6.4,13.4,12.8,19.6,19.7c1.6,1.8,2.3,3.6,2.2,6c-0.1,10.3,0,20.6-0.1,30.8c0,2.2,0.6,3.9,2,5.5
		c1.8,2,3.7,3.9,5.6,5.7c1.9,1.8,3.7,3.6,5.5,5.4c2.7,2.7,3.8,5.9,3.4,9.7c-0.2,2.2-0.4,4.4,0.5,6.8c1.2-1,1-2.1,1-3.1
		c0.1-4.8,0.1-9.6,0.2-14.4c0-17.1,0-34.2,0.1-51.3c0-1.1-0.8-3.2,0.9-3.3c1.1,0,0.6,2.1,0.6,3.2c0,21.8-0.1,43.6-0.1,65.3
		c0,41.1,0.1,82.2,0.1,123.3c0,36.5,0,73.1,0,109.6c0,3.1-0.1,6.3-0.1,9.4c0,2,0.4,3.9,1.5,6c1.1-1.4,0.8-2.8,0.8-4
		c0.1-19.7,0.1-39.3,0.2-59c0-13.5,0.1-27,0.1-40.5c0-2.3-0.2-4.7-0.2-7c0.1-22.3,0.1-44.7,0.3-67c0.2-21.8,0.7-43.5,1-65.3
		c0-1-0.6-2.7,1-2.7c1.6,0,1.1,1.7,1,2.7c-0.2,15.9-0.4,31.7-0.6,47.6c-0.2,21.7-0.9,43.3-0.5,65c0,1.4,0.1,2.9,0.2,4.3
		c0,0.6,0.3,1.1,1,1.1c0.8-0.1,0.7-0.8,0.7-1.3c0-3.5,0-6.9-0.1-10.4c-0.1-3.1,0.9-5.6,3.2-7.9c1.7,1.4,0.4,3.5,1.5,4.9
		c2.6-1.3,11.7-12.5,14.5-17.7c-0.2-0.1-0.4-0.3-0.5-0.3c-5.3,1.5-4.9,1.1-5.4-3.7c-0.2-1.3-0.4-2.7-0.5-4c-0.2-1.4-0.2-2.8,0.4-4.3
		c1-2.4,1.2-5,1.1-7.6c-0.1-1.7,0.4-3,1.3-4.3c3.3-4.8,7.2-9.1,10.7-13.7c4.6-5.9,4.6-5.9,4.6-13.3c0-43.6,0-87.1-0.1-130.7
		c0-2.9,0.8-5.1,2.4-7.4c4.4-5.9,9.1-11.6,13.7-17.3c2.9-3.5,4.2-7.2,4.1-11.9c-0.3-13.7-0.1-27.5-0.1-41.2c0-2.2-0.5-4.1-1.8-5.9
		c-2.6-3.7-5.4-7.3-9-10.8c-0.6,3.2-0.7,5.9-0.7,8.7c-0.4,14.7-0.1,29.5-0.1,44.2c0,3.7,0,7.4,0,11.1c0,0.9,0.1,1.8-0.4,2.6
		c-2.6,3.6-5.1,7.3-8.6,10.6c-0.7-1.4-0.6-2.7-0.7-3.8c-0.6-12.1-0.5-24.1-0.5-36.2c0-12.7,0.1-25.5,0.2-38.2c0-1.7-0.5-3-1.4-4.4
		c-2.5-3.7-5.3-7.2-8.1-10.7c-2.7-3.3-5.3-6.6-7.8-10.1c-0.9-1.3-1.4-2.7-1.4-4.3c0-15.6,0-31.3,0-46.9c0-1.7,0.4-3.1,1.4-4.4
		c1.7-2.1,3.3-4.2,5-6.3c0.6-0.8,1.2-1.7,2.3-1.7c1.9,0,3.8,0,5.7,0.2c0.8,0.1,0.9,1,0.9,1.6c0,4,0,8,0.1,12.1
		c0,1.2-0.7,1.5-1.7,1.6c-1.8,0-3.6-0.1-5.4,0c-2.4,0.1-2.7,0.4-2.8,2.8c-0.1,5.1-0.1,10.3-0.2,15.4c0,3.8,0.1,7.6,0,11.4
		c0,1.3,0.2,2.4,0.9,3.5c4.2,6.5,9.5,12.2,14.1,18.3c0.8,1.1,1.7,0.9,2.6,0.2c1.3-1.1,2.1-0.6,3,0.6c6.3,8.5,13.4,16.5,19.5,25.1
		c1.2,1.6,1.7,3.3,1.7,5.3c0,28.3-0.1,56.5,0,84.8c0,2.2-0.6,3.9-1.9,5.5c-6.3,8.1-12.6,16.2-19,24.3c-1.9,2.4-2.7,4.9-2.6,7.9
		c0.1,35.9,0.1,71.7,0.1,107.6c0,1.3,0,2.6,0,4.1c1.7,0.1,2.5-0.9,3.4-1.7c5.4-5,10.7-10.1,16.1-15.1c7.6-7.1,7.6-7.3,18-7.7
		c4.4-0.2,7.2-2.4,9.9-5.3c0.9-1,1.3-2.2,1.4-3.6c0.5-21.5,1.2-43.1,0.7-64.7c0-1-0.1-2,0.3-3c0.4-0.9,1.1-1.4,2.1-1.4
		c1.1,0.1,1.5,0.9,1.5,1.8c0,1.7,0,3.4,0.1,5C1722.8-409.7,1722.6-408.5,1723.1-407z M1385.2-400.8c2.5-1.4,4.3-3.1,6-5
		c1.9-2.1,2.8-4.3,2.8-7.2c-0.2-10,0-20.1-0.1-30.2c0-2.3,0.6-4,2.1-5.7c3.8-4.3,7.8-8.3,11.9-12.3c5-4.9,10.1-9.8,14.7-15.1
		c1.1-1.3,1.6-2.5,1.6-4.2c-0.1-4.1-0.2-8.3-0.1-12.4c0.1-9.9-0.5-8.8,7.2-16.6c2.6-2.6,5.4-5,7.8-7.9c1.2-1.4,1.6-2.8,1.6-4.6
		c-0.1-12.5,0-25-0.1-37.5c-0.1-6.7-0.2-13.4,0.1-20.1c0.1-2.1,0.4-4.1,1-6.4c1.4,1.3,2.6,2.3,3.7,3.4c2.3,2,3.5,4.4,3.4,7.6
		c-0.2,7.6-0.3,15.2-0.3,22.8c0,6.3,0.2,12.5,2.5,18.5c0.2,0.6,0.3,1.3,0.3,2c0.1,13.4,0.4,26.8,0.4,40.2c-0.1,11.6-0.3,11.7-8.9,20
		c-7,6.8-13.9,13.6-20.8,20.4c-1.4,1.4-2.7,3-4,4.5c-1.5,1.8-2.2,3.8-2.2,6.1c0,9.5-0.2,19-0.2,28.5c0.1,22.1,1.3,44.2,0.6,66.3
		c-0.1,2.2,0,4.4,0,6.6c1.1-1,1.3-2.4,2.2-3.3c7.2-7,13.9-14.5,20.9-21.7c5-5.1,10.3-9.9,14.8-15.5c1.8-2.2,2.5-4.5,2.5-7.4
		c-0.1-17.3-0.1-34.6-0.2-51.9c0-0.8,0-1.6,0.1-2.3c0-0.5,0.3-0.9,0.8-0.9c0.7-0.1,1,0.4,1.1,1c0.1,0.7,0.1,1.3,0.1,2
		c0,2.5,0,4.9,0,7.4c0,14.7,0.1,29.5,0.1,44.2c0,0.7-0.4,1.7,0.6,2c0.9,0.3,1.5-0.4,2-0.9c1.6-1.7,2.9-3.7,4.7-5.2
		c1.5-1.2,2.1-2.8,2.1-4.7c0-5.2,0.2-10.5,0.3-15.7c0.4-20.2,1.3-40.4,2.1-60.6c0.1-1.6,0.5-3,1.4-4.4c2.8-4.4,5.6-8.9,8.4-13.3
		c4.8-7.4,9.6-14.8,14-22.5c0.7-1.3,1.3-2.5,1.3-4.1c-0.1-17.3,0.3-34.6-0.1-51.9c0-1.6-0.4-3-1.3-4.4c-2.4-3.8-4.7-7.6-7-11.4
		c-5.1-8.1-10.4-16.1-15.3-24.4c-0.8-1.4-1.3-2.7-1.4-4.4c-0.6-13.7-1-27.4-1.6-41.2c-0.6-11.5-0.5-23-0.7-34.5
		c0-1.1,0.1-2.2-0.8-3.2c-3.4-3.6-6.1-7.7-9.8-11c-1-0.9-1.9-2.1-3.7-2.2c0.1,9-1,17.8-0.5,26.6c0.2,3.5,0.3,7,1.6,10.2
		c1.2,3.1,1.5,6.3,1.5,9.5c0,12.3,0,24.6,0.1,36.9c0,9.9,0.1,10-7,16.8c-7,6.8-13.5,14.3-20.8,20.8c-2.2,2-4.2,4.3-6.1,6.7
		c-1.1,1.4-1.7,2.8-1.7,4.6c0,6-0.2,12.1-0.2,18.1c0.1,22.7,0.1,45.3,0.4,68c0.1,4.8-1.3,8.4-4.8,11.4c-0.4,0.4-0.8,0.8-1.2,1.2
		c-4.5,4.4-9,8.7-13.2,13.3c-1.1,1.2-2.4,2.4-3.6,3.5c-1.7,1.6-3.7,2.4-6.1,2.2c-1.4-0.2-2.9-0.1-4.4-0.1c-3.2,0.1-3.5,0.5-3.5,3.8
		c0,13.8,0,27.7,0,41.5C1384.6-407.3,1384.5-404.2,1385.2-400.8z M1554.6-423.4c-0.1,0-0.2,0-0.2,0c0,12.7,0,25.5,0,38.2
		c0,3.7,0.9,6.7,3.8,9.2c2,1.8,3.7,3.9,5.5,5.8c0.6,0.7,1.2,1.3,2.1,1.7c1.7,0.8,2.8,0.2,3-1.7c0.1-1.2,0.1-2.5,0.1-3.7
		c0-13.8,0.1-27.7,0.1-41.5c0-1,0.1-2,0.2-3c0-0.2,0.4-0.5,0.7-0.6c0.3,0,0.7,0.2,0.7,0.6c0.1,0.9,0.2,1.8,0.2,2.7
		c0,12.5,0,25,0,37.5c0,4.1-0.3,8.3,0,12.4c0.1,1.5,0.3,2.9,1.4,4c3.4,3.7,6.9,7.3,10.4,10.9c0.4,0.5,1,1,1.7,0.7
		c0.8-0.3,0.5-1.1,0.5-1.8c0-5.6,0-11.2,0-16.7c0-1-0.4-2.2,0.5-2.9c1.9-1.4,1.5-3.3,1.6-5.2c0.4-16.2,0.2-32.4,0.1-48.6
		c0-9.5,0.1-9.6-7-16.2c-5.8-5.4-11.4-11-16.5-17.1c-1.2-1.4-2.4-2.6-3.8-3.8c-1-0.9-2.1-1.7-3.2-2.5c-1-0.7-1.7-0.5-1.8,0.8
		c0,0.8,0,1.6,0,2.3C1554.6-448.8,1554.6-436.1,1554.6-423.4z M1454.3-223.6c0.9-41.8,0.2-83.7,0.4-125.3c-1.2-0.5-1.7,0.2-2.1,0.6
		c-6.8,6.3-13.6,12.6-19.7,19.6c-1.5,1.7-2.1,3.4-2.1,5.7c0.1,24.4,0.1,48.9,0,73.3c0,2.4,0.6,4.3,2.3,6c6.3,6.3,12.6,12.7,18.9,19
		C1452.5-224.3,1452.8-223.4,1454.3-223.6z M1459.1-364.8c1.1-0.2,1.7-0.7,2.1-1.4c0.5-0.9,1-1.8,1.2-2.7c0.4-1.5,1.8-0.1,2.7-1.1
		c4.9-5.5,10.7-10.2,15.5-15.7c1.8-2.1,2.5-4.2,2.5-7c-0.1-24.8,0-49.6-0.1-74.4c0-2.6,0.7-4.5,2.5-6.2c1.9-1.9,3.7-3.8,5.8-5.6
		c1.7-1.5,2.7-3.2,2.4-5.5c-0.1-0.8,0-1.6,0-2.3c0-0.9,0.2-1.8,1.4-1.9c1.3-0.1,1.4,0.8,1.5,1.8c0.1,1,0,2,0,3
		c0,57.3,0,114.6,0,171.8c0,1.2-0.8,3.1,0.7,3.5c1.3,0.4,1.9-1.5,2.8-2.5c0.7-0.8,0.8-1.8,0.8-2.8c0-5.7,0.1-11.4-0.1-17.1
		c-1-31.1-0.6-62.3-0.6-93.4c0-23.8,0.3-47.6-0.3-71.3c-0.1-2.6-0.9-4.5-2.5-6.3c-1.9-2.1-2.1-2.1-3.5,0.2c-2,3.2-4,6.5-6,9.7
		c-3.9,6.1-7.9,12.2-11.5,18.5c-0.8,1.4-1.3,2.7-1.3,4.4c0.1,25.1-1.4,50.2-2.1,75.3c-0.1,1.8-0.6,3.2-1.7,4.6
		c-1.9,2.4-4.1,4.5-6.4,6.4C1459-378.2,1457.7-372.1,1459.1-364.8z M1512.2-302.3c0.4-1.5,0.3-2.8,0.3-4.1c0-38.3,0-76.6,0-114.9
		c0-21.1,0.1-42.2,0.1-63.3c0-1,0-2,0.2-3c0.1-0.7,0.7-1.2,1.4-1.1c0.8,0,1.3,0.5,1.3,1.2c0.1,1,0.2,2,0.1,3
		c-0.3,2.3,0.6,4.1,2.4,5.6c1.7,1.5,3.3,3,4.9,4.6c2.2,2.1,3.5,4.5,3.3,7.7c-0.1,2.1,0.1,4.2,0.1,6.4c0,23,0.1,46,0,69
		c0,2.2,0.5,3.9,2.1,5.4c5,5,9.9,10,14.9,15c0.8,0.8,1.7,1.7,3.1,1.9c0.7-2.1,0-4.2,0.3-6.1c0.5-3.5-0.8-6.3-3.2-8.7
		c-1.9-1.9-3.7-3.8-5.6-5.8c-1.1-1.2-1.5-2.6-1.6-4.3c-0.8-25.3-1.9-50.6-2.3-76c0-1.7-0.5-3.2-1.4-4.7
		c-5.2-7.9-10.2-15.9-15.3-23.9c-0.8-1.3-1.4-2.8-2.4-4c-1.1-1.5-1.8-1.4-2.7,0.3c-0.3,0.6-0.7,1.1-1.4,1.4
		c-1.5,0.7-1.7,1.9-1.7,3.3c0.1,3,0.1,6,0.1,9c0,59.4-0.1,118.8-0.1,178.2c0,1.7-0.1,3.4,0.4,5
		C1510-303.9,1510.5-302.8,1512.2-302.3z M1601.6-385.8c-1,3.4-1.3,6.3-1.2,9.3c0,5.1,0.5,10.3,0.2,15.4c-0.1,2.9,0.8,4.9,2.7,6.8
		c6.2,6.2,12.4,12.5,18.7,18.7c0.6,0.6,1.2,1.3,2.3,0.9c0.1-0.3,0.2-0.6,0.3-0.9c0.6-8.7,0.6-17.4,0.1-26.1
		c-0.1-1.3-0.7-2.3-1.6-3.2c-3.4-3.5-6.7-7.2-10.2-10.7C1609.4-379,1606-382.4,1601.6-385.8z M1561.1-344.1
		c-0.7,1.8-0.5,3.2-0.5,4.5c0,19.4-0.1,38.8-0.1,58.2c0,16.2,0,32.4,0,48.5c0,0.9,0,1.8,0,2.7c0.1,1,0.7,1.1,1.4,0.7
		c0.5-0.2,1-0.6,1.3-1c2.2-2.7,4.8-5,7.4-7.3c0.4-0.4,0.7-0.8,1-1.3c0.9-1.4,1-2.6-0.5-3.7c-1.1-0.8-1.7-2.2-2.8-2.8
		c-1.6-0.9-1.6-2.2-1.6-3.7c0-4.6,0-9.2,0-13.7c0-24.2,0.2-48.4-0.1-72.7C1566.6-339.6,1564.5-342,1561.1-344.1z M1408.1-340.4
		c-2.1,2-3.7,3.6-5.3,5.1c-1.3,1.2-1.8,2.6-1.9,4.5c0,3.9-0.4,7.8-0.5,11.7c-0.4,22.9,0.1,45.7-0.1,68.6c0,3.7,2.7,5.1,5.4,7.4
		c0.2-2.5,0.4-4.2,0.5-6c0.5-16.6,0.5-33.2,0.3-49.9c-0.1-11.2-0.1-22.3-0.1-33.5c0-1-0.2-2.1,0.8-2.7
		C1409.2-336.4,1408.6-338,1408.1-340.4z M1571.3-333.9c-0.8,1.2-0.6,2-0.6,2.8c0,27.3,0,54.6-0.1,82c0,3,1.8,4.4,3.8,5.8
		c1,0.6,1.6,0.2,1.7-1c0.2-2.4,0.5-4.9,0.6-7.3c0.5-8.9,0.3-17.8,0.2-26.7c-0.2-15.6,0.1-31.2-0.1-46.8
		C1576.7-329.6,1574.5-331.8,1571.3-333.9z M1461.4-357.1c-2.3,1.2-2.4,2.9-2.4,4.8c0,11.3-0.1,22.6-0.1,33.8
		c-0.1,43.2-0.2,86.4-0.3,129.7c0,19.2,0.1,38.4,0.1,57.6c0,1.3-0.1,2.7,0,4c0,0.7,0.2,1.5,1,1.6c0.9,0.1,0.9-0.8,0.9-1.5
		c0.1-1.1,0.1-2.2,0.1-3.3c0-10.3,0.1-20.5,0.1-30.8c0-43.6,0-87.1,0-130.7c0-15-0.2-30.1,0.9-45.1
		C1462.2-343.5,1462.1-350.2,1461.4-357.1z M1411.2-225.3c2.6-1.1,3.4-2.8,3.4-4.8c0.1-2.7,0-5.4,0-8c0-34.7,0.1-69.4,0.1-104.2
		c0-1.2,0.2-2.4-0.6-3.5c-4,2.3-4.2,2.6-3.7,6.8c0.1,0.4,0.1,0.9,0.1,1.3c0,7.9,0,15.8,0,23.8c-0.1,24.3-0.3,48.7,0,73
		C1410.7-235.8,1411-230.8,1411.2-225.3z M1391.5-357.2c3.5-1.7,4.9-4.5,5.1-8c0.1-1.1-0.4-2.6,0.4-3.2c2-1.6,1.6-3.8,1.6-5.8
		c0.1-5,0-10,0-15.1c0-0.9,0-1.8-0.1-2.7c-0.2-1.1-0.9-1.3-1.6-0.5c-2.5,3-5.8,5.2-8.5,8.1c-2.7,3-4.3,6.4-4,10.6
		c0.2,2.5,0.1,5.1,0.1,7.7c0,4.6-0.3,9.1,0.2,13.7c0.1,0.5,0,1.2,0.7,1.3c0.6,0.1,1.1-0.2,1.4-0.7c1.1-1.4,1.3-3.1,1.4-4.7
		c0.1-1.5,0.1-3.1,1.3-4.3C1391-359.9,1390.3-358.4,1391.5-357.2z M1554.6-223.4c1.3,0,1.4-0.7,1.7-1.1c0.9-2.1,1-4.3,0.9-6.6
		c-0.7-16.6-0.1-33.3-0.3-49.9c0-0.9-0.3-2,0.6-2.5c1.7-1.2,1.4-2.9,1.4-4.5c0.1-15.2,0.1-30.4,0.1-45.6c0-3,0.1-6,0.3-9
		c0.1-2.4-0.7-4.4-2.1-6.2c-0.4-0.5-1-1-1.7-0.7c-0.7,0.2-0.5,0.9-0.5,1.4c0,1-0.1,2-0.1,3c0,31.6-0.1,63.2-0.1,94.8
		C1554.5-241.4,1554.6-232.4,1554.6-223.4z M1551.7-219.3c1.3-2.1,1.4-4.1,1.4-6.1c-0.1-8.1-0.2-16.3-0.3-24.4
		c-0.1-17.9-0.1-35.7-0.1-53.6c0-14.8,0.2-29.7,0.4-44.5c0-2.5-0.5-4.9-2.1-6.9c-0.4-0.5-1-1-1.7-0.9c-0.9,0.2-0.7,1-0.7,1.7
		c-0.2,11.8-0.2,23.7,0,35.5c0,0.8,0,1.6,0.8,2.1c1.3,0.8,1.1,2.1,1.1,3.3c0,29.4-0.1,58.7-0.1,88.1
		C1550.4-223.2,1550.2-221.2,1551.7-219.3z M1578-336.8c0.8-0.7,0.6-1.4,0.7-2c0.1-0.4,0.3-0.8,0.9-0.8c0.5,0,0.8,0.4,0.9,0.8
		c0.1,0.8,0.2,1.6,0.1,2.3c-0.1,1.4,0.1,2.8,1.1,3.8c1.7,1.8,1.9,3.9,1.9,6.2c0,26.6,0,53.2,0,79.8c0,2.5-0.1,4.9-2,6.8
		c-0.4,0.4-0.8,1.2-0.8,1.8c-0.1,4.2-0.3,8.5,0,12.7c0,0.4,0.1,0.9,0.6,1.1c0.6,0.3,1-0.3,1.4-0.6c1.7-1.3,1.9-3.1,1.9-5
		c0-34,0-67.9,0-101.9c0-9.3,0-9.3-6.6-16.1c-2.1-2.1-4.1-4.4-6.6-6.1C1568.8-347.7,1571.5-340.6,1578-336.8z M1385-221.3
		c1.9-1.3,1.9-2.6,1.8-3.9c0-1-0.3-2-0.3-3c0-18,0-36,0-53.9c0-0.9-0.2-2,0.6-2.5c1.6-1.1,1.4-2.7,1.4-4.2c0-10.5,0.1-21,0.1-31.5
		c0-0.6,0-1.1,0-1.7c-0.1-1.2-0.8-1.8-2-1.8c-1.2,0-1.9,0.6-2,1.8c-0.1,0.9-0.1,1.8-0.1,2.7c0,26.2,0,52.5,0,78.7
		C1384.6-234.4,1384.8-228.2,1385-221.3z M1705.4-335.6c-4.2-0.3-7.4,1.1-10.4,3.9c-7.8,7.2-15.4,14.5-23.3,21.7
		c-2.5,2.2-2.7,4.5-2.1,7.4C1672.6-304.2,1703.1-332.3,1705.4-335.6z M1382.1-217.5c0.6-2.1,0.9-4.1,0.8-6.2
		c-0.4-14.2-0.4-28.3-0.4-42.5c0-17.6,0.1-35.3,0.1-52.9c0-1,0-2-0.1-3c-0.1-1.3-0.9-1.7-2-1.7c-1.3-0.1-1.8,0.6-1.8,1.8
		c0,1.8-0.7,3.8,1.3,5.2c0.9,0.6,0.7,1.8,0.7,2.8c0,11.3,0.1,22.5,0,33.8c-0.3,20.1-0.2,40.2,0.5,60.3
		C1381.2-219.2,1380.9-218.2,1382.1-217.5z M1738-409.8c-4.6,2.8-8.8,5.3-13,7.8c-0.6,0.4-1.4,0.7-1.5,1.6c-0.3,3.5-0.7,7-0.3,10.6
		c3.6-1.5,12.5-8,14.4-10.4c0.3-0.3,0.7-0.7,0.7-1.1C1738.3-404,1738.9-406.7,1738-409.8z M1565.9-348.9c0.3-0.3,0.5-0.5,0.6-0.7
		c2.1-8.2-3.4-17.9-11.9-20.9c0,3-0.2,5.9,0.1,8.7c0.2,2.3,1.4,4.2,3.6,5.1c1-0.8-0.1-2.4,1.6-2.9
		C1560.8-355.4,1561.4-351,1565.9-348.9z M1512.5-196.9c0.4-12.1,0.7-23.6,0-35.5c-2.5,1.3-3.5,2.8-3.5,5.2c0.1,8.4,0.1,16.8,0,25.1
		C1508.9-199.6,1510.1-198.4,1512.5-196.9z M1379.2-344.9c3.1-1.7,3.6-4.4,3.5-7.1c-0.3-5.3-0.1-10.7-0.1-16c0-2.4-0.1-4.9-0.2-7.3
		c0-0.5,0-1.2-0.7-1.3c-0.6-0.1-1,0.2-1.4,0.7c-1,1.1-1.4,2.4-1.5,3.9c-0.4,7.1-0.5,14.2-0.2,21.4
		C1378.7-348.9,1378.6-347,1379.2-344.9z M1401.4-368.1c1.5-3.2,1.5-24.3,0-27.3c-1.1,2.6-1.7,17-1.1,25.1
		C1400.4-369.4,1400.4-368.5,1401.4-368.1z M1552.9-362.3c0-3.6,0.1-6.5-0.1-9.4c-0.1-1.5-0.7-3-1.7-4.3c-0.4-0.6-1-1-1.7-0.9
		c-0.9,0.1-0.9,0.9-0.9,1.5c0,2.3-0.2,4.7,0,7C1548.8-365.9,1549.7-363.8,1552.9-362.3z M1659-297.2c-5,1.8-7.7,5.8-6.8,10.1
		C1657.3-288.6,1659.8-292.3,1659-297.2z M1765.1-527.5c0.4,0,0.9,0,1.3,0c1,0,1.8-0.3,1.8-1.4c0-1.3,0.7-2.9-0.8-3.6
		c-1.5-0.7-3.2-0.6-4.9-0.1c-0.5,0.1-0.7,0.5-0.8,1C1761.2-529,1762.4-527.5,1765.1-527.5z M1497.5-169c0-0.1,0.1-0.4,0-0.6
		c-1.5-2.2-3.3-4-5.4-5.7c-0.4-0.3-0.9,0-1,0.4c-0.2,0.8-0.4,1.7,0.4,2.5c1.4,1.4,2.7,2.9,4.1,4.3c0.4,0.4,0.9,0.7,1.4,0.3
		C1497.4-168,1497.5-168.4,1497.5-169z M1497.6-162.3c0-0.4,0-0.9-0.4-1.2c-1.5-1.5-2.9-3-4.4-4.5c-0.4-0.4-0.9-0.8-1.4-0.5
		c-0.5,0.3-0.5,1-0.5,1.5c0,0.6,0.2,1,0.6,1.5c1.3,1.3,2.6,2.7,3.9,4.1c0.4,0.4,0.8,0.8,1.4,0.5
		C1497.4-161.2,1497.5-161.8,1497.6-162.3z M1491.9-162c-1,0-1.5,1.6-0.7,2.5c1.5,1.8,3.1,3.4,4.8,5.1c0.6,0.6,1.3,0.2,1.5-0.5
		c0.2-0.7,0.3-1.5-0.4-2.1c-1.4-1.4-2.8-2.9-4.2-4.3C1492.5-161.6,1492.1-161.8,1491.9-162z M1497.6-148.7c0-0.2,0-0.5-0.1-0.7
		c-1.5-2.2-3.3-4.2-5.4-5.8c-0.6-0.4-1,0.1-1.2,0.7c-0.1,0.6-0.1,1.1,0.2,1.6c1.4,1.9,3.1,3.5,4.9,5
		C1496.9-147.1,1497.5-147.7,1497.6-148.7z M1490.9-147.3c0.1,1.3,4.1,6,5.5,6.4c0.7,0.2,1.1-0.1,1.1-0.8c0.1-0.7,0-1.3-0.5-1.8
		c-1.5-1.5-2.9-3-4.4-4.5c-0.3-0.3-0.7-0.6-1.2-0.4C1491-148.2,1490.9-147.8,1490.9-147.3z M1491.2-182.3c-0.4,1.5-0.6,2.5,0.5,3.5
		c1.3,1.2,2.4,2.6,3.6,3.8c0.4,0.5,1,1.1,1.7,0.6c0.9-0.6,0.9-1.8,0.3-2.3C1495.3-178.6,1493.8-180.8,1491.2-182.3z M1491.7-142.3
		c-0.6,3.9,1.2,6.2,6,7.8C1497-138.2,1493.9-139.7,1491.7-142.3z M1497.5-188.7c0-0.2,0.1-0.5-0.1-0.7c-1.4-2.3-3.3-4.1-5.4-5.8
		c-0.5-0.4-1,0-1.1,0.6c-0.1,0.8,0,1.5,0.5,2.2c1.3,1.7,2.9,3,4.4,4.5c0.3,0.3,0.7,0.6,1.2,0.3
		C1497.4-187.8,1497.5-188.2,1497.5-188.7z M1497.5-182.1c0-0.2,0-0.4-0.1-0.6c-1.2-2.5-3.4-4-5.4-5.7c-0.4-0.3-0.9,0-1,0.5
		c-0.1,0.7-0.3,1.5,0.4,2.2c1.5,1.5,2.9,3,4.4,4.5c0.3,0.3,0.6,0.7,1.1,0.3C1497.3-181.2,1497.5-181.6,1497.5-182.1z M1491.7-222
		c-1,0.6-1,1.6-0.5,2.3c1.3,2.1,3.1,3.7,4.9,5.3c0.7,0.7,1.2,0,1.4-0.7c0.2-0.6,0.2-1.3-0.3-1.9c-1.5-1.6-3.1-3.1-4.6-4.7
		C1492.3-221.8,1492-221.8,1491.7-222z M1497.6-201.9c0-0.8-0.2-1.3-0.7-1.9c-1.3-1.3-2.6-2.7-3.9-4c-0.4-0.5-1-1.1-1.7-0.6
		c-0.6,0.4-0.5,1.2-0.2,1.9c1.2,2.3,3.2,4,5.1,5.6C1497.1-200.2,1497.5-201.1,1497.6-201.9z M1497.5-195.4c0-0.2,0.1-0.5,0-0.7
		c-1.5-2.2-3.3-4.1-5.4-5.8c-0.6-0.4-1,0.1-1.1,0.8c-0.1,0.7,0.1,1.3,0.5,1.9c1.2,1.9,3.1,3.2,4.7,4.7c0.2,0.2,0.6,0.4,0.9,0.1
		C1497.4-194.5,1497.5-194.9,1497.5-195.4z M1491.7-215.2c-1,0.5-1,1.4-0.6,2c1.3,2.3,3.3,3.9,5.2,5.5c0.7,0.6,1.2-0.1,1.3-0.8
		c0.1-0.6,0.1-1.1-0.4-1.6c-1.5-1.6-3.1-3.2-4.6-4.8C1492.3-215.1,1492-215.1,1491.7-215.2z M1490.7-228.4c0.8,3.9,3.6,5.5,6,8
		C1497.3-224.2,1495.7-226.3,1490.7-228.4z"/>
	<path class="st0" d="M1522.6,17.8c0-3.6-0.3-7.1,0.1-10.4c0.4-4-1-6.9-3.9-9.3c-1.3-1.1-2.3-2.4-3.8-3.3c-1,0.8-0.6,1.9-0.6,2.8
		c0,2.6,0,5.1,0.1,7.7c0.1,2.2-0.5,4.1-2.2,5.3c-4.5,3.1-5.2,7.4-5,12.5c0.4,10,0.5,20.1,0,30.1c0,0.8-0.1,1.6-0.1,2.3
		c0.1,1.5-0.7,1.9-2,1.9c-1.3,0-2.2-0.2-2.2-1.8c-0.1-4-0.3-8-0.4-12c-0.3-15.7,0.5-31.5,0.5-47.2c0-5.6-0.2-11.2-0.3-16.7
		c0-0.5,0-1.1-0.8-1.6c-1.3,0.8-1.2,2.2-1.3,3.4c-0.1,2,0,4,0,6c0,12.1,0,24.1,0,36.2c0,0.7,0.3,1.6-0.6,2.4
		c-0.8-0.7-1.6-1.4-2.4-2.1c-3.6-3.6-7-7.5-10.4-11.4c-1.1-1.3-1.6-2.5-1.6-4.2c0.1-3.6,0.1-7.1,0.1-10.7c0-1.5,0.1-3.1-0.5-4.7
		c-1.5,0.8-1.2,2.1-1.2,3.2c0,7.9,0,15.9,0.2,23.8c0.1,2.6-0.5,4.7-2.6,6.2c-3.8,2.6-4.5,6.1-4.3,10.4c0.3,6,0.1,12.1,0.1,18.1
		c0,2.5-0.2,2.6-2.6,2.8c-0.3,0-0.7,0-1,0c-4.5,0.1-4.5,0.1-4.5-4.3c0-37.3,0-74.6,0.1-111.9c0-2.7,0.1-5.4-0.1-8
		c-0.1-1.9,0.5-3.4,1.8-4.8c3.9-4.4,8.1-8.3,12.3-12.3c1.8-1.7,2.6-3.4,2.3-5.9c-0.2-1.7-0.5-3.5,0.7-5.3c4.7,2.9,7.2,8.2,12.3,10.8
		c0.6-2.2-0.4-3.4-1.7-4.3c-3.7-2.7-6.3-6.6-9.8-9.6c-1-0.8-1.5-1.8-1.5-3.2c0.1-9,0-18.1,0.1-27.1c0-1.5,0.2-3,0.4-4.9
		c2,1.1,3.2,2.4,4.5,3.6c2.9,2.8,5.6,5.8,8.5,8.5c1.3,1.2,1.3,2.5,1.3,3.9c0,7.7,0,15.4,0,23.1c0,2.5,0.1,4.9,0.2,7.4
		c0,0.9,0,1.8,1.2,2.3c0.7-1.2,0.5-2.5,0.5-3.6c0-9.4,0.1-18.8,0-28.1c0-2.2,0.5-3.9,2.1-5.4c2.1-2,4.1-4.1,6.2-6.1
		c1.3-1.2,1.9-2.6,1.9-4.4c-0.1-15.3,0.4-30.6-0.2-45.9c-0.1-3.4,1.4-5.1,4-6.7c0.9,1.3,0.7,2.7,0.7,4c0.8,13.4,0.4,26.8,0.2,40.2
		c-0.1,3.9,0.1,7.8,0,11.7c-0.1,1.9,0.5,3.4,2,4.4c2.8,2,3.2,4.6,3.2,7.8c-0.1,22.7,0,45.3-0.1,68c0,2.9,0.6,5.3,3.1,6.9
		c1.7,1.1,2,2.7,2,4.7c-0.1,14.7,0,29.5,0,44.2c0,0.8-0.3,1.8,0.1,2.3c2.2,2.9-0.2,4.4-1.7,6.2C1525,16.5,1524.3,17.6,1522.6,17.8z
		 M1505.2-74.1c-1.1,4.5-1.9,8.3-2.3,12.2c-0.1,0.5,0,1.2,0.2,1.6c2,4,4,7.9,6,11.9c0.3,0.6,0.7,0.8,1.4,0.5c2.3-0.9,3.5-3.6,2.6-6
		c-1.5-4.2-3-8.4-4.5-12.6C1507.7-68.8,1506.9-71.2,1505.2-74.1z M1497.8-74.4c-0.3,0-0.5-0.1-0.8-0.1c-2.3,7.4-4.7,14.9-7,22.3
		c-0.4,1.2,0.3,1.9,1,2.6c1.7,1.8,2.3,1.7,3.3-0.5c1.1-2.4,1.9-5,3.1-7.4C1500.2-63.1,1498.5-68.7,1497.8-74.4z"/>
	<path class="st0" d="M1274.4-427.6c0-8.3,0.2-16.6-0.1-24.9c-0.1-3.2,0.9-5.5,3-7.7c3.4-3.7,6.5-7.6,9.8-11.5c1-1.2,1.4-2.4,1.4-4
		c-0.1-6.9,0-13.8,0-20.8c0-2.3-0.1-2.4-2.4-2.6c-5.8-0.5-11.6-0.3-17.4-0.2c-7,0.1-14.1,0.2-21.1-0.3c-3.2-0.2-3.3-0.2-3.4-3.5
		c-0.5-9.7-0.5-19.4,0-29.1c0.2-3.5,0.2-3.5-3.2-3.6c-3,0-3.2-0.1-3.3-3.2c-0.1-2.3,0-4.7,0-7c0-1.2,0.4-1.9,1.7-2.1
		c3.3-0.4,6.7-0.5,10-0.1c1.6,0.2,2.4,1,2.4,2.6c0,2.4-0.1,4.7-0.4,7c-0.2,1.5-0.2,2.9-2.4,2.8c-1.3-0.1-1.1,1.1-1.1,2
		c0,3.4-0.1,6.7-0.1,10.1c0,5.8,0,11.6,0.1,17.4c0,2.7,0.1,2.8,2.8,2.9c8.3,0.6,16.5,0.3,24.8,0.3c4.7,0,9.4-0.1,14.1,0
		c2.4,0,2.4,0.1,2.6,2.4c0.3,4.3,0.3,8.7,0.2,13.1c-0.1,4.2-0.3,8.5,0.2,12.7c0.3,2.3-0.3,4.1-1.8,5.8c-2.8,3.2-5.6,6.4-8.3,9.6
		c-1,1.2-2,2.4-3,3.6c-0.9,1.1-1.3,2.2-1.3,3.7c0,8.4,0,16.8,0,25.1c0,1.4,0.4,2.6,1.5,3.6c1.8,1.7,4,2.8,6.1,4.2
		c0.9,0.6,1.5,0.2,1.5-0.9c0-1.7-0.1-3.3,0-5c0-1,0-2,0.2-3c0.1-0.8,0.4-1.5,1.4-1.6c1,0,1.7,0.6,1.9,1.5c0.1,0.8,0.1,1.6,0.1,2.3
		c-0.3,19.9,0.2,39.8,0.8,59.6c0,1.5,0.2,2.9,0,4.4c-0.4,2.8,1,4.7,2.8,6.4c2.3,2.1,4.6,3.7,7.9,3.7c2.9,0,5.8,0.7,8.7,0.9
		c1.7,0.1,2.9,0.8,4.2,1.8c4,3.2,7.6,7,11.3,10.4c1.3,1.2,2.5,2.5,4.2,3.5c0.8-1.8,0.2-3.5,0.9-5.1c0,1,0.1,2,0,3
		c-0.3,3.7,1.8,5.7,4.8,7.3c0.6-1.1,0.4-2.1,0.4-3c0-32.8,0-65.7,0-98.5c0-2-0.6-3.6-1.7-5.2c-4.7-6.7-10-12.9-15-19.3
		c-2.3-2.9-5.2-5.6-6.4-9c-1.1-3.2-0.3-6.9-0.3-10.3c0-25.7,0-51.4-0.1-77.1c0-2.4,0.6-4.3,2-6.1c6.4-8.2,12.8-16.4,19.1-24.6
		c0.9-1.2,1.8-1.7,3-0.6c1.3,1.1,2.1,0.4,3-0.6c4.8-5.6,9.3-11.5,13.7-17.4c0.7-0.9,1-1.9,1-3.1c-0.1-8.9,0.3-17.9-0.1-26.8
		c-0.1-3.3-0.2-3.3-3.5-3.3c-0.3,0-0.7,0-1,0c-5.4,0.1-5.5,0.1-5.5-5.2c0-2.8,0.1-5.6,0.1-8.4c0-1.6,0.7-2.2,2.2-2.3
		c2.9-0.2,5.6,0.1,7.4,2.8c0.3,0.5,0.7,0.9,1.1,1.3c3.2,3.5,4.7,7.4,4.6,12.4c-0.3,14.1-0.2,28.1-0.1,42.2c0,2.4-0.6,4.3-2,6.2
		c-3.3,4.8-7.1,9.2-10.7,13.7c-5.9,7.4-6,7.4-5.9,16.9c0,13.5,0.3,27,0.3,40.5c0,9.2-0.3,18.3-0.6,27.5c0,1.1,0.1,2.2-0.5,3.3
		c-1,0.3-1.4-0.6-1.8-1.1c-2.4-2.6-4.5-5.6-6.6-8.5c-0.9-1.3-1-2.7-1-4.1c0-12.1,0.1-24.1,0.1-36.2c0-7.7-0.1-15.4-0.2-23.1
		c0-0.8,0-1.6-0.1-2.3c0-0.5-0.1-0.9-0.6-1.1c-0.5-0.1-0.9,0.1-1.2,0.4c-0.3,0.3-0.6,0.7-0.9,1c-2.4,3.1-4.8,6.2-7.2,9.2
		c-1.1,1.4-1.5,2.8-1.5,4.6c0.1,15.3,0,30.6,0,45.9c0,1.7,0.4,3,1.4,4.3c3.1,4.5,6.6,8.7,10,13c2.2,2.8,4.3,5.7,6.6,8.5
		c1.6,2,2.2,4.2,2.2,6.8c-0.1,34.5,0,69,0,103.5c0,10.5,0,21,0,31.5c0,2.1,0.5,3.9,1.7,5.6c2.7,3.8,5.9,7,9.2,10.2
		c3,2.9,5.9,5.8,8.9,8.6c1.6,1.4,2,3,1.8,5.1c-0.2,2.6-0.5,5.1-1,7.6c-0.4,2.1-0.9,2.3-3,1.9c-2.4-0.5-4.2-2-5.9-3.7
		c-1.4-1.4-2.6-3-5-3.9c0,3.2,0,6.1,0,9c0,0.7,0.4,1.3,0.7,1.8c5.5,8.1,11.9,15.5,18.1,23.3c1.1-1.6,1.1-1.6,1.5-4.7
		c0.9-0.5,1.4,0.3,1.9,0.8c2,1.9,3.3,4.2,4.7,6.5c0.4,0.6,0.5,1.2,0.5,1.9c0,6,0,12.1-0.1,18.1c0,0.5,0,1.1-0.5,1.6
		c-0.7,0.3-1-0.2-1.3-0.6c-11.1-14.1-22.2-28.3-33.3-42.4c-1.7-2.2-2.6-4.5-2.5-7.3c0.2-4.9,0-9.8,0.1-14.7c0-1.8-0.5-3.2-1.8-4.5
		c-2.5-2.6-5-5.1-7.6-7.5c-12.6-11.6-25.1-23.2-37.7-34.7c-1.8-1.6-2.6-3.2-2.6-5.7c0.1-9.7,0.2-19.4-0.1-29.1
		c-0.2-7.1,0.7-5.1-5-9.5c-4-3.1-8.1-6-12.2-8.8c-1.5-1.1-2.1-2.3-2-4.2c0.1-5,0-10.1,0.1-15.1c0.1-3.4,1.1-3.9,4.1-2.2
		C1272.5-428.1,1273-427.4,1274.4-427.6z M1336.5-317.3c0.8-3.7-0.1-6.5-2.5-8.4c-2.5-1.9-4.6-4.3-7-6.4c-4.5-4-9-8-13.2-12.4
		c-2.8-3-6-3-10.1-3C1314.2-336.5,1325.2-327.1,1336.5-317.3z M1286.4-401.2c0-3.5,0-6.4,0-9.2c0-1.6-0.7-2.7-2.1-3.5
		c-3.5-2.1-7-4.3-10.5-6.4c-0.6-0.4-1.2-1.1-2.4-0.5c0,2,0.1,4.2,0,6.4c-0.1,1.8,0.6,3,1.9,3.9c2.3,1.7,4.6,3.4,7,5.1
		C1282-404,1283.8-402.5,1286.4-401.2z M1244.6-539.5c0.9-0.4,2.6,0.8,3.1-1.3c0.6-2.9,0.2-3.6-2.8-3.6c-0.8,0-1.5,0-2.3,0.1
		c-0.5,0-1,0.1-1.1,0.6c-0.4,1.2-0.4,2.5,0,3.6c0.4,1,1.5,0.6,2.4,0.7C1243.9-539.5,1244.2-539.5,1244.6-539.5z M1357.1-303.6
		c-0.2,1.8-0.4,2.9,0.2,4.2C1357.9-300.7,1358.1-301.9,1357.1-303.6z"/>
	<path class="st0" d="M1405.5-106.6c3,1.5,6.2,3,9.1,4.8c2.5,1.5,4.8,1.4,7.2,0c3.2-1.8,6.6-3.1,9.5-5.4c0.3-0.3,0.8-0.4,1.2-0.6
		c3.3-1.5,3.9-1.3,3.9,2.3c0.1,8.9,0.1,17.9,0.1,26.8c0,1.2-0.2,2.4,0.3,3.8c1.3-0.7,1.5-1.9,1.7-3c0.4-2.3,0.6-4.6,0.4-7
		c-0.5-6.7-0.3-13.4-0.3-20.1c0-0.9,0.1-1.8,0.1-2.7c0-2.9,1.3-4.9,4-6c0.6-0.3,1.2-0.7,1.8-0.9c1.7-0.6,2-1.7,2-3.4
		c-0.1-6-0.1-12.1-0.1-18.1c0-2.3,0-4.7,0.2-7c0.1-1.5,0.8-1.9,1.9-0.9c2.2,1.9,4.3,3.7,4.1,7.1c-0.3,4,0,8-0.1,12.1
		c-0.1,2,0.6,3.4,1.9,4.7c2.4,2.3,4.7,4.8,7.1,7.1c1.3,1.2,1.8,2.7,1.7,4.5c-0.1,8.3-0.1,16.5,0,24.8c0,1.8-0.6,3.2-1.7,4.5
		c-3.7,4.3-7.9,8.2-12,12.1c-2.3,2.1-3.8,4.6-4.1,7.7c-0.4,3.5-0.9,7.1-0.9,10.7c0.1,23-0.1,46,0.1,69c0,3.5-1.5,5.6-3.8,7.7
		c-1.4,1.3-2.7,1.2-4.1,0.1c-1.7-1.3-3.1-2.9-4.7-4.3c-4.4-3.6-5.7-8-5.5-13.7c0.4-13.6,0.1-27.2,0.2-40.9c0-2.1-0.5-3.6-2-5
		c-2.2-2.1-4.2-4.3-6.4-6.3c-1.3-1.2-1.7-2.4-1.7-4.1c0.1-9.5,0-19,0.1-28.5c0-2.2-0.6-3.8-2.1-5.3c-2.8-2.7-5.5-5.5-8.3-8.3
		c-1.1-1.1-1.6-2.2-1.6-3.8c0.1-4,0-8,0.1-12.1C1404.7-105,1404.8-105.8,1405.5-106.6z"/>
	<path class="st0" d="M1547.3-127.3c0.3,0.1,0.7,0.2,0.9,0.4c7.3,6.5,15.3,12,22.7,18.2c1.9,1.6,2.7,3.2,2.7,5.7
		c-0.2,26.3-0.3,52.7-0.5,79c-0.1,10.3-0.3,20.5-0.4,30.8c0,1.7-0.5,3-1.7,4.2c-4,3.9-7.7,8.1-11.8,11.8c-2.1,1.9-2.8,4-2.7,6.7
		c0.2,8.6,0.1,17.2,0,25.8c0,0.9,0.5,2.2-0.8,2.6c-0.9,0.3-1.6-0.6-2.2-1.2c-1.6-1.5-3.2-3.1-4.9-4.6c-1.4-1.3-2.2-2.8-2-4.7
		c0.1-0.6,0-1.1,0-1.7c0-56.3,0-112.5,0-168.8C1546.7-124.5,1546.2-126,1547.3-127.3z"/>
	<path class="st0" d="M1559.6-867.5c3.9,3.9,7.6,7.4,11.2,11c3.8,3.8,7.4,7.7,11.2,11.5c1,1,1.4,2.1,1.4,3.6
		c0.4,27.7,0.4,55.4,0,83.1c0,2.7-1.2,4.6-3,6.4c-17,17-33.9,34-50.9,50.9c-2.3,2.3-3.1,4.7-3.1,8c0,24,0.3,48,0,72
		c0,4.4-1.2,7.8-4.6,10.5c-0.8,0.6-1.4,1.4-2.2,2.1c-2.8,2.2-4.7,4.7-3.9,8.6c0.1,0.4,0,0.9-0.1,1.3c-0.1,0.7-0.5,1.2-1.3,1.3
		c-0.8,0.1-1.3-0.4-1.5-1.1c-0.2-0.8-0.2-1.5-0.2-2.3c0-3.2-0.1-6.5-0.1-9.7c0-82.1,0-164.2,0-246.2c0-2.8,0.6-3.8,2.5-4
		c1.7-0.2,2.5,0.4,2.8,2.1c0.1,0.5,0.1,1.1,0.1,1.7c0,29-0.1,58.1-0.1,87.1c0,42.4,0.1,84.9,0.1,127.3c0,7.8,0.1,15.6,0.1,23.4
		c0,0.8-0.2,1.6,0.4,2.5c1.7-0.5,2.2-1.9,2.6-3.3c0.7-2.4,0.8-4.9,0.6-7.3c-0.8-12.4-0.3-24.8-0.4-37.2c-0.1-10.9,0.1-21.9-0.1-32.8
		c0-2.6,0.6-4.6,2.5-6.5c8.9-9.2,17.9-18.1,27-27.1c8.8-8.7,17.6-17.5,26.1-26.5c1.4-1.5,2-3,2-5.1c-0.1-24.7-0.1-49.4,0-74
		c0-2-0.5-3.7-1.8-5.2c-2.2-2.7-4.6-5.2-7.1-7.6c-2.3-2.2-4.4-4.4-6.8-6.5C1559.5-858.7,1558.3-862.4,1559.6-867.5z"/>
	<path class="st0" d="M1449.2-865.9c1.3,4.1,0.3,7.5-2.8,10.3c-3.4,3.1-6.4,6.5-9.8,9.6c-5.9,5.5-5.9,5.5-5.9,13.5
		c0,23.1,0,46.2-0.1,69.4c0,2.4,0.7,4.2,2.2,6c5.8,6.7,12.3,12.7,18.5,18.9c11.4,11.4,22.6,22.8,34,34.2c1.7,1.7,2.5,3.4,2.5,5.9
		c0,7.6,0.2,15.2,0.2,22.8c0,17.3,0,34.6,0,51.9c0,1.2,0,2.5,0.1,3.7c0.2,1.3,0.6,2.5,2,3.2c0.8-0.9,0.5-1.8,0.5-2.7
		c0.7-33.2,0.8-66.3,0.7-99.5c-0.1-32.7-0.1-65.4-0.1-98.2c0-1.9-0.2-3.8-0.2-5.7c0-2.4,2.3-3.7,4.4-2.6c0.8,0.4,0.8,1.3,0.8,2
		c0,1.8-0.1,3.6-0.1,5.4c0,69.1,0,138.3,0,207.4c0,3.1,0,6.3,0,9.4c0,0.8,0,1.6-0.1,2.3c-0.1,0.7-0.4,1.3-1.2,1.3
		c-0.9,0-1.5-0.5-1.6-1.4c-0.1-1.2-0.2-2.5-0.1-3.7c0.2-1.7-0.5-2.9-1.8-4.1c-2.2-1.9-4.2-4-6.2-6.1c-1.9-1.9-2.6-4.1-2.6-6.9
		c0.1-24.6,0-49.1,0.1-73.7c0-2.9-0.9-5-2.8-7.1c-9.5-10.3-19.5-20-29.4-29.8c-7.9-7.8-15.7-15.5-23.1-23.7
		c-1.4-1.5-1.9-3.1-1.9-5.1c0.1-27.3,0.1-54.5,0-81.8c0-2.1,0.6-3.5,2-5c6-6.1,11.9-12.4,18.3-18.2
		C1447-864.5,1447.7-865.6,1449.2-865.9z"/>
	<path class="st0" d="M1575.5-83.4c3.8,2.4,6.1,5.7,8.9,8.4c0.8,0.8,0.4,1.9,0.4,2.9c0,9.4,0.1,18.8,0,28.1c0,2.3,0.6,4.1,2.3,5.6
		c2,1.8,3.8,3.8,5.8,5.6c1.5,1.4,2.1,2.9,2.1,5c-0.1,15.2,0,30.4-0.1,45.6c0,2.9,0.8,4.9,3,6.7c1.3,1,2.6,2.2,3.7,3.4
		c3.1,3.4,3.1,5.7-0.1,9c-2.8,2.9-5.8,5.6-8.6,8.4c-3.4,3.4-6.8,6.8-10.2,10.2c-1.9,1.9-1.9,1.9-3.9,0c-0.7-0.7-1.4-1.4-2.1-2.1
		c-1.1-1.2-1.6-2.5-1.6-4.2c0-31.3,0-62.5,0-93.8c0-12.1,0.3-24.1,0.4-36.2C1575.3-81.5,1575.4-82.1,1575.5-83.4z"/>
	<path class="st0" d="M1603.3,25.6c-2.2-1.8-4.1-3.8-6-5.8c-1-1-0.6-2.3-0.6-3.5c0-15.1-0.1-30.1,0-45.2c0-2.7-0.7-4.7-2.7-6.5
		c-1.9-1.7-3.6-3.7-5.5-5.4c-1.5-1.3-2-2.7-2-4.7c0.1-9.4,0-18.8,0.1-28.1c0-2.3-0.6-4-2.3-5.6c-2.8-2.6-5.4-5.3-8.1-8
		c-0.8-0.8-1.5-1.6-1.5-2.9c0-4.4-0.1-8.7-0.1-13.1c0-2,0.3-2.2,2.2-1.6c1.4,0.4,2.7,1.1,4,1.7c1.7,0.8,3.4,1.8,5.2,2.4
		c2.7,0.9,5.1,0.9,7.6-0.7c3.2-2,6.6-3.8,9.9-5.7c1.9-1.1,2.8-0.7,3.2,1.4c0.2,1,0.2,2,0.2,3c0,10.9,0,21.9-0.2,32.8
		c0,2.1,0.5,3.7,2,5.1c1.4,1.3,2.7,2.7,4.1,3.9c1.1,1,1.3,1.9,0.3,3.1c-1.5,2-3.2,3.8-5.1,5.3c-3.4,2.6-4.5,5.8-4.4,10.1
		c0.2,21.3,0.1,42.6,0.1,64C1603.7,22.9,1604,24.2,1603.3,25.6z"/>
	<path class="st0" d="M1389.8-121.5c-1.9-1.1-3.1-2.3-4.4-3.6c-2.5-2.5-5-5.1-7.6-7.6c-1.1-1-1.4-2.1-1.4-3.5c0-21.1,0-42.2,0-63.2
		c0-1.6,0.4-2.8,1.5-3.9c3.6-3.5,7-7.1,10.6-10.7c1.8-1.7,4.5-1.7,6.2,0.1c2.9,2.8,5.7,5.7,8.5,8.5c0.9,0.9,1.1,1.8,1.1,3
		c0,6.1-0.1,12.3,0,18.4c0,1.6-0.5,2.9-1.7,3.8c-4,2.7-4.8,6.5-4.4,11c0.3,3.9,0,7.8,0.1,11.7c0.1,1.8-0.6,3-2,3.9
		c-1.1,0.7-2.1,1.7-3.3,2.2c-2.3,0.9-2.7,2.6-2.7,4.8c0,6.9,0,13.8-0.1,20.7C1390.3-124.6,1390.4-123.3,1389.8-121.5z"/>
	<path class="st0" d="M1351.8-164.8c0.9-0.3,1.3,0.2,1.7,0.6c5.9,5.8,11.9,11.4,17.5,17.6c1.1,1.3,1.6,2.5,1.6,4.2
		c-0.1,17.5,0.4,35.1-0.1,52.6c-0.1,2.5-0.8,4.5-2.5,6.3c-2.4,2.3-4.8,4.7-7.2,7c-1.6,1.6-2.4,3.3-2.3,5.6c0.2,5.1,0.2,10.3,0,15.4
		c-0.1,2.3,0.7,4.1,2.3,5.6c1.7,1.6,3.4,3.2,5.1,4.9c1.1,1.1,2.1,2.2,2.9,4.1c-8-2.5-15.5-4.4-22.7-7.6c-1.4-0.6-2-1.5-2-3
		c0.1-10.3,0.1-20.5,0-30.8c0-1.6,0.6-2.8,1.5-3.9c2.2-2.8,4.9-5.2,7.5-7.6c5.3-5.1,5.3-5,5.3-12.4c0-11.5-0.1-23,0.1-34.5
		c0-2.7-0.7-4.7-2.6-6.5c-1.5-1.5-3-3-4.3-4.7C1350.5-156,1350.3-160.4,1351.8-164.8z"/>
	<path class="st0" d="M1639.5-39c0.7-2.6,2.7-3.9,4.4-5.4c2.2-1.9,3.3-3.9,3.1-6.9c-0.3-4.9-0.2-9.8,0-14.7c0.1-2.1-0.5-3.7-1.9-5.2
		c-1.5-1.6-3.1-3.2-4.7-4.8c-1.4-1.4-2.8-2.9-4.2-4.3c-1-1-1.3-2.2-1.3-3.6c0-17.9,0-35.7,0-53.6c0-1.6,0.6-2.7,1.6-3.8
		c4.6-5.1,9.7-9.8,14.6-14.7c1.2-1.2,2.3-2.7,3.9-3.7c1.2,1.1,1.1,2.5,1.2,3.8c0,2.1-0.2,4.2-0.3,6.4c0,1.2-0.8,2.1-1.6,2.8
		c-1.8,1.9-3.6,3.6-5.4,5.4c-1.3,1.3-1.9,2.8-1.9,4.8c0.1,13.1,0.1,26.1,0,39.2c0,1.8,0.5,3.3,1.7,4.5c1.4,1.6,2.9,3.1,4.4,4.6
		c1.3,1.3,2.5,2.5,3.9,3.7c3.2,2.8,4.8,5.9,4.6,10.5c-0.4,7.9-0.2,15.8-0.1,23.8c0,2.4-0.6,3.8-2.9,4.9
		C1652.4-42.7,1645.9-41.2,1639.5-39z"/>
	<path class="st0" d="M1444.3,28.8c1,1.1,1,2.4,1,3.6c0,3.7-0.1,7.4,0,11c0,1.4-0.7,2.3-1.4,3.3c-2.1,2.8-4.8,5-7.1,7.6
		c-1,1.1-1.7,0.5-2.5-0.2c-4.1-3.3-7.6-7.2-11.4-10.8c-3.8-3.5-5.1-7.4-5-12.6c0.2-17.7-0.3-35.5-0.4-53.2c0-1.8-0.5-3.2-1.5-4.6
		c-2.6-3.8-5.6-7.2-8.6-10.7c-1.9-2.2-2.7-4.6-2.7-7.6c0.2-10.6,0-21.2,0.1-31.8c0-2.3,0.2-4.6,0.4-7.4c2.5,1.4,4,3.4,5.8,4.9
		c3,2.4,3.7,5.3,3.6,9.1c-0.3,8.6,0,17.2-0.1,25.8c0,1.9,0.5,3.4,1.9,4.7c2.1,2,4,4.2,6.2,6.1c1.5,1.4,2.1,2.9,2.1,5
		c-0.1,15.1,0,30.1-0.1,45.2c0,2.8,0.8,4.9,2.8,6.8c2.7,2.5,5.4,5,7.8,7.8c0.4,0.5,1,0.9,1.5,1.3c1.9,1.4,3,1.3,4.7-0.3
		C1442.3,30.9,1442.9,29.6,1444.3,28.8z"/>
	<path class="st0" d="M1617.9-143.4c2.8,2.1,5.1,4.1,4.7,8.1c-0.4,3.6,0.1,7.4-0.1,11c-0.1,2.2,0.6,3.9,2.2,5.3
		c2.3,2.2,4.6,4.6,6.9,6.8c1.5,1.5,2.2,3.1,2.2,5.3c-0.1,7.8-0.1,15.6,0,23.4c0,2.3-0.6,4-2.1,5.7c-2.6,2.8-5.3,5.4-8,8.1
		c-2.1,2.1-4.3,4.3-6.3,6.5c-0.9,0.9-1.6,1.1-2.5,0.2c-1.8-1.8-3.7-3.6-5.5-5.4c-0.7-0.7-0.5-1.7-0.5-2.6c0-12.1,0-24.1,0-36.2
		c0-1.8,0.6-3,2-3.9c0.9-0.6,1.8-1.4,2.9-1.7c2.8-1,3.4-2.9,3.4-5.7c-0.1-6.8-0.5-13.6-0.1-20.4
		C1617-140.3,1616.8-141.9,1617.9-143.4z"/>
	<path class="st0" d="M1401.2-157.2c-0.8-2.8-0.6-5.4-0.6-7.9c0-1.9,0.2-3.8,0-5.7c-0.2-2.5,0.6-4.3,2.5-5.8c2-1.7,1.9-1.8,4.4-0.6
		c0.9,0.4,1.8,0.3,2.5-0.3c1.6-1.3,2.7-2.7,2.7-5c-0.1-9.5,0-19-0.1-28.4c0-1.9,0.4-3.5,1.8-4.8c2.2-2.1,4.3-4.2,6.4-6.4
		c1-1,2.1-1.2,3.4-1c2.8,0.4,6.4,4.4,6.4,7.2c0,17.1,0,34.1-0.1,51.2c0,1.5,0.1,3.1-0.5,4.7c-0.9,0.4-1.7-0.1-2.5-0.5
		c-1-0.5-2-1.1-2.8-1.8c-4.3-3.2-8.4-3.4-12.9-0.1C1408.7-160.3,1405.5-158,1401.2-157.2z"/>
	<path class="st0" d="M1600.2-158.8c-2.1,0-3.2-1-4.4-1.8c-1.2-0.7-2.4-1.6-3.7-2.2c-2.7-1.3-5.3-1.4-8,0.3c-2,1.3-4,2.5-6,3.7
		c-2,1.2-4,2.4-6.4,2.8c-0.9-0.8-0.8-1.8-0.8-2.8c0-4.2,0-8.5,0-12.7c0-1.5,3.3-5.4,4.6-5.8c0.5-0.1,0.9,0.1,1.2,0.4
		c1,1,2,1.4,3.3,0.6c1.3-0.8,2.6-1.8,2.9-3.5c0.1-0.8,0-1.6,0-2.3c0-9.3,0.1-18.5,0-27.8c0-2.2,0.6-3.9,2.1-5.3
		c1.9-1.8,3.9-3.7,5.7-5.7c1.1-1.1,2.3-1.3,3.7-1.1c3.1,0.4,6.5,4.4,6.5,7.5c0,14.8,0,29.7,0,44.5
		C1600.8-166.3,1600.4-162.6,1600.2-158.8z"/>
	<path class="st0" d="M1352.2-202.3c0,6.7-0.1,13.4,0.1,20.1c0,2.3-0.6,4.1-2.2,5.7c-1.8,1.8-3.7,3.6-5.5,5.4c-2,1.8-3,3.9-2.9,6.8
		c0.2,4,0.1,8,0,12.1c-0.1,2.1,0.6,3.7,2,5.1c1.5,1.5,3,3,4.5,4.5c0.9,0.9,1.6,1.8,1.6,3.2c0,4.8,0,9.6,0,14.4
		c0,0.5,0.1,1.2-0.6,1.4c-0.8,0.3-1.3-0.2-1.7-0.8c-0.8-1.1-1.2-2.4-1.3-3.7c-0.1-1.2-0.5-2.5-0.2-3.7c0.7-3.4-1-5.5-3.2-7.6
		c-1.8-1.8-3.7-3.6-5.5-5.4c-1.3-1.3-2-2.8-1.9-4.8c0.1-7.4,0.1-14.7,0-22.1c0-1.8,0.5-3.2,1.7-4.6c2-2.4,4.4-4.5,6.7-6.6
		c2.3-2.1,3.5-4.5,3.4-7.9c-0.3-9.9-0.2-19.9,0-29.8c0-2.2-0.6-3.8-2-5.4c-3.8-4.4-8.1-8.3-12.2-12.4c-2.5-2.4-4.8-5-7.2-7.4
		c-1.2-1.2-1.7-2.5-1.7-4.2c0.1-19.3,0-38.6,0-58c0-2.9,0-2.9,3-3c0.6,0,1.1,0,1.7,0c1.6-0.1,2.6,0.5,2.5,2.3c0,0.9,0.1,1.8,0.1,2.7
		c0.2,10.4,0.3,20.8,0.6,31.2c0.1,2.4-0.2,4.7-2.4,6.2c-0.9,0.6-1.1,1.6-1.1,2.7c0,4.7,0,9.4,0,14.1c0,1.5,0.8,2.5,1.6,3.5
		c4.2,5.1,9.1,9.5,13.8,14.2c2.2,2.2,4.3,4.5,6.5,6.7c1.4,1.4,2,3,2,5.1C1352.1-215.7,1352.2-209,1352.2-202.3z"/>
	<path class="st0" d="M1463.1,6.4c-3.1-3-5.8-5.5-8.5-8.2c-2.1-2.1-4.2-4.3-6.3-6.4c-1.1-1.1-1.7-2.2-1.7-3.8
		c0.1-15.3,0-30.6,0-45.8c0-1.3,0.2-2.3,1.2-3.3c4.8-4.7,9.5-9.4,14.2-14.1c0.1-0.1,0.4-0.2,0.7-0.3c0.7,1.1,0.5,2.3,0.5,3.5
		c0.5,25.6,0.1,51.3,0.2,76.9C1463.4,5.1,1463.3,5.5,1463.1,6.4z"/>
	<path class="st0" d="M1377.1-128.6c2,0.8,3.1,2.1,4.2,3.2c2.2,2.2,4.3,4.6,6.5,6.8c3.1,3.2,6.6,5.9,10.9,7.5
		c2.5,0.9,3.8,2.6,3.7,5.5c-0.1,12.5-0.1,25-0.1,37.5c0,0.9,0.2,1.8-0.2,2.6c-0.8,0.5-1.3-0.1-1.7-0.5c-3.3-3.3-6.7-6.5-10-9.9
		c-3.6-3.8-7.4-7.4-11.3-11c-2.1-2-2.8-4.2-2.8-7.1c0.2-8.5-0.1-17,0-25.4C1376.5-122.4,1376.9-125.3,1377.1-128.6z"/>
	<path class="st0" d="M1612.2-151.9c-3.5-0.7-5.9-2.5-8.3-4.3c-1.1-0.8-0.9-2-0.9-3c-0.1-4.8-0.2-9.6-0.2-14.4
		c0-13.8,0-27.7,0.1-41.5c0-2.8-0.7-4.8-2.9-6.7c-4.2-3.6-4.1-4.3-0.3-8.2c1.6-1.6,3.2-3.1,4.9-4.6c1.6-1.5,2.6-1.7,4-0.4
		c2.3,2,4.4,4,4.3,7.8c-0.4,20.9,0.3,41.8-0.2,62.6C1612.7-160.6,1612.4-156.4,1612.2-151.9z"/>
	<path class="st0" d="M1405.3-33.2c3.1,3,5.7,6.4,8.1,10c0.6,0.9,0.4,1.9,0.4,2.9c0.1,11.5,0.1,23,0.2,34.5
		c0.1,5.5,0.2,10.9,0.4,16.4c0,0.9,0.3,1.8-0.4,2.8c-1.6-0.5-2.7-1.7-3.9-2.8c-5.5-5.4-5.5-5.4-5.5-13c0-15.6,0-31.2,0-46.9
		c0-1.2,0-2.4,0-3.6C1404.8-33,1405.1-33.1,1405.3-33.2z"/>
	<path class="st0" d="M1462.7,55.1c-1.4-2.1-2.6-4-3.9-5.9c-0.7-1-0.6-2.1-0.6-3.2c0-5.7-0.1-11.4,0.1-17.1c0.1-2.4-0.7-4.1-2.4-5.6
		c-2.1-1.9-4.2-3.7-6.3-5.5c-2.2-1.8-3.3-4-3-7c0.3-3.9,0-7.8,0.1-11.7c0-1.1-0.2-2.3,0.9-3.1c1.3,0.3,2,1.4,2.9,2.2
		c4,3.7,7.9,7.6,11.6,11.6c0.9,1,1.5,2.1,1.5,3.6c-0.1,13.4,0,26.8,0,40.2C1463.4,53.9,1463.5,54.4,1462.7,55.1z"/>
	<path class="st0" d="M1445.3-208.7c3.1,1.8,4.9,4.3,7,6.5c0.5,0.5,0.3,1.3,0.3,1.9c-0.1,17.2,0.3,34.3-0.2,51.5
		c0,1-0.2,1.9-0.4,3.1c-3-1.2-4.9-3.4-6.9-5.5c-0.6-0.6-0.5-1.5-0.5-2.2c-0.2-16.6-0.6-33.2,0-49.8
		C1444.9-204.9,1445.1-206.7,1445.3-208.7z"/>
	<path class="st0" d="M1615.8-207.4c2.7,1.8,4.6,4.2,6.6,6.3c0.8,0.8,0.5,1.9,0.4,2.9c-0.3,5.9-0.4,11.8-0.3,17.7
		c0,10.7,0.4,21.4-0.1,32.1c-0.1,1.2,0.1,2.4-0.4,3.9c-2.7-1.2-4.6-3.4-6.7-5.3c-0.6-0.6-0.4-1.5-0.4-2.2c0.2-16.5-0.5-33,0.1-49.5
		C1615.1-203.4,1615.1-205.3,1615.8-207.4z"/>
	<path class="st0" d="M1479,55.7c0-7.1,0-14.4,0-21.6c0-1.6,0.7-2.8,1.8-3.8c1.7-1.7,3.6-3.3,5.2-5.3c3.2,2.6,5.6,5.7,8.3,8.5
		c1,1,1.4,10.6,0.7,11.7c-0.2,0.4-0.6,0.7-0.9,1c-4.1,3.6-8.7,6.7-13.3,9.6C1480.2,56.1,1479.7,56.3,1479,55.7z"/>
	<path class="st0" d="M1484.1-835.4c0-2.6,0-5.1,0-7.7c0-1.1,0.5-1.6,1.6-1.6c5.2,0,10.5,0,15.7,0c1.2,0,1.5,0.6,1.5,1.7
		c0,5.1,0,10.2,0,15.4c0,1.3-0.5,1.8-1.8,1.8c-5.1,0-10.2,0-15.3,0c-1.4,0-1.7-0.7-1.7-1.9C1484.2-830.3,1484.1-832.9,1484.1-835.4
		C1484.1-835.4,1484.1-835.4,1484.1-835.4z"/>
	<path class="st0" d="M1534,56.8c-2.4-1.4-4-3-5.5-4.5c-5.9-5.9-5.9-5.9-5.9-14.1c0-0.6,0.1-1.1,0-1.7c-0.8-4,1.1-6.8,4.2-9.1
		c2.2-1.6,4.3-3.4,6.9-5.5C1534.6,33.8,1533.9,45,1534,56.8z"/>
	<path class="st0" d="M1520.2,11.5c0.9,3.5,0.5,6.5,0.2,9.5c-0.1,1.6-1.5,2.8-2.7,3.7c-2.2,1.6-2.8,3.7-2.8,6.4
		c0.1,7.7,0.1,15.4,0,23.1c0,3-1.8,4.2-4.7,3.2c-1.1-0.4-1.1-1.3-1.1-2.2c0-2.6,0-5.1,0-7.7c0-7.3,0.1-14.5-0.1-21.8
		c-0.1-2.6,0.7-4.4,2.5-6.2C1514.2,16.8,1516.7,14,1520.2,11.5z"/>
	<path class="st0" d="M1559.1,56c-0.5-1.2-0.3-2.3-0.3-3.4c0-7.4,0-14.7,0-22.1c0-1.9,0.5-3.5,1.9-4.8c3.7-3.5,7.4-7.1,11.3-10.8
		c0.5,0.1,0.7,0.7,0.8,1.4c0.4,2.8,0,5.6-0.1,8.4c-0.1,1.2-1,2.2-1.9,3.1c-1.5,1.6-3.1,3.2-4.8,4.7c-1.4,1.3-2,2.8-1.9,4.7
		c0.1,3.6,0.1,7.1,0,10.7c-0.1,2.7-0.7,5.3-2.8,7.3C1560.6,55.6,1560.1,56,1559.1,56z"/>
	<path class="st0" d="M1503.2-251.2c-1.6-12.7-0.3-24.8-0.7-36.8c1.2-0.6,1.7,0.1,2.3,0.6c5.7,4.8,5.8,5,5.8,12.5
		c0,4.7-0.1,9.4,0,14.1c0,1.9-0.4,3.5-1.8,4.8C1507.1-254.5,1505.7-252.6,1503.2-251.2z"/>
</g>
<g>
	<path class="st0" d="M93.3,512c3-8.4,6-16.9,8.9-25.3c1.7-5,3.6-10,5-15.1c1-3.9,1.6-8-2.5-11c-0.7-0.5-1.2-1.6-1.2-2.4
		c0.4-7.8,0.4-15.6,1.7-23.3c1.4-7.6,1.3-8.8-5.5-12.1c-1.2-0.6-2.2-2.9-2.1-4.3c0.2-2.3,1-4.7,2.2-6.7
		c6.1-10.4,12.7-20.6,18.6-31.2c5.1-9.1,9.6-18.7,14.7-28.7c-18.6-9.5-38.2-15.7-60.5-17c17.6-28.2,42.1-48.2,68.2-66.7
		c-1.9,2.2-3.8,4.5-5.7,6.7c-2,2.2-4.2,4.2-6,6.5c-7.8,9.6-16.1,18.8-23,29c-6.9,10.1-8.1,13.4,4.1,22.9
		c8.2,6.4,17.3,11.6,26.5,17.6c-1.8,4.1-3.9,8.5-5.9,13c-5.3,11.6-8.6,23.8-9.4,36.6c-0.2,2.8,0.6,5.8,1.6,8.5
		c9.4,25.2,16.5,50.9,20,77.6c1.1,8.4,0.9,16.9,1.4,25.4c-1.1,0-2.2,0-3.3,0c-0.4-4.6-0.6-9.2-1.3-13.7
		c-4.9-31.2-14.8-60.9-28.6-89.2c-0.9-1.9-1.5-3.8-2.2-5.6c-7.5,10.9-7.2,11,0.8,21.5c2.1,2.7,3.3,7.3,2.6,10.5
		c-2,9.4-4.6,18.6-1,28c3.6,9.6,1.9,18.7-1.9,27.8c-2.8,6.7-4.8,13.8-7.2,20.7C99.3,512,96.3,512,93.3,512z"/>
	<path class="st0" d="M303.1,512c-5.3-10.4-10.9-20.7-15.8-31.4c-6.7-14.5-12.7-29.6-13-45.8c-0.2-9.6,1.4-19.4,3.6-28.8
		c3-13,7.2-25.8,10.9-38.6c0.6-2,1.6-3.9,2.8-7c-3.3,33.2-4.6,65.1,1.4,97c0-3.2-0.2-6.5,0-9.7c0.3-3.6,0.6-7.3,1.4-10.9
		c0.7-3.2,2.1-6.3,3.8-9.4c-4.8,16,2.3,30.5,5.6,45.4c2.4,10.8,6.3,21.2,10.2,31.6c2.4-37-1.2-74.1,5.6-110.7
		c-0.4,4.1-1.1,8.3-1,12.4c0.6,23.6,0.9,47.2,2.4,70.8c0.7,10.5,3.8,20.9,5.8,31.3c0.2,1.2,0.4,2.5,0.6,3.8
		C319.4,512,311.3,512,303.1,512z"/>
	<path class="st0" d="M221,512c-12-31.5-23.9-63.1-36-94.6c-1.2-3.2-0.7-5.1,1.2-7.8c20.3-28.7,40.4-57.5,60.6-86.3
		c2.8-4,2.8-7.6,0.9-12.1c-8.6-20.1-18.2-35.9-32-51.5c4.2-3.8,8.3-7.7,12.6-11.5c3.2-2.9,6.6-5.7,10.7-7.8c-1.9,3-3.7,6.1-5.7,9
		c-4,5.6-4.4,11.3-1.6,17.6c6.1,13.5,11.9,27.2,17.9,40.8c2.7,6.1,2.5,11.7-0.9,17.6c-16.5,28.7-32.6,57.6-49.1,86.3
		c-2.3,4-2.7,7.2-1.1,11.7c9.7,27.7,18.9,55.5,28.3,83.3c0.6,1.7,0.7,3.5,1,5.3C225.4,512,223.2,512,221,512z"/>
	<path class="st0" d="M181,512c3.9-7.7,7.8-15.3,11.5-23c2.8-5.8,5.1-11.7,8.4-19.1c5.9,14.8,11.3,28.5,16.7,42.2
		C205.5,512,193.2,512,181,512z"/>
	<path class="st0" d="M350.5,422.3c22.1,5.4,43.3,5.8,64.8,0.9c-7.8,0-15.4,0.6-22.9-0.1c-10.8-1-21.6-2.2-32.1-4.7
		c-13.4-3.2-19.6-17.3-14.4-31.9c7,12.1,19.2,11.6,30.4,13.4c4.2,0.7,8.4,1,13.2,1.5c0,3.3,0,6.7,0,10.4c13.5,0,26.4,0,39.9,0
		c0-24.7,0-49.5,0-74.5c12.7,2.3,17.2,19.5,15.5,29.8c-1.2,7.4-3.3,14.3-9.2,19.6c-0.7,0.7-0.7,2.2-1.1,3.3c0,0.1,0.2,0.3,0.2,0.5
		c-0.6,5.4-2.4,11.1-1.4,16.2c1,5.1,6.1,9.4,6.8,14.4c0.9,6.1-1,12.6-1.6,18.9c-0.2,1.9-1,4-0.5,5.7c5.2,19.2-3.4,32.2-23.1,33.8
		c-14.4,1.2-28.8-0.5-42.7-4.6c-10.8-3.2-15.7-13-13.3-25.6c0.1-0.5,0.2-1,0.3-1.6C351.6,441.1,348.5,432.8,350.5,422.3z"/>
	<path class="st0" d="M364.9,204.1c0,3.9,0,8.5,0,13.5c-6.2,0-12.5,1-16.3,6.7c-2,2.9-3.8,6.5-4.2,9.9c-1,8.6,3.7,16.1,11.2,19
		c7.2,2.8,16.5,1.9,23.1-8.2c8.4,4.5,16.7,8.9,24.9,13.3c-4.8,3.5-8.8,8.8-8.4,16.5c0.4,7.5,4.4,12.5,10.8,15.9
		c-7.6,11.5-6.6,22.3,2.5,28.3c8.7,5.7,19.8,3.9,25.5-4.2c6.7-9.5,3.9-19.8-7.6-28c6.9-12.6,5.8-20.5-3.3-27.7
		c7.4-3.9,15.3-8,23.1-12.3c1.7-1,3-2.7,4.5-4c3.8-3.2,7.5-6.8,11.6-9.6c9-6.2,10.9-18.1,4.3-27.2c-2.2-3-3.2-6.9-4.7-10.3
		c0.8-0.5,1.6-0.9,2.4-1.4c5.4,7.8,10.9,15.5,16.1,23.3c0.7,1.1,0.6,3.1,0,4.5c-4.6,11.9-2.6,20.5,6.8,29.4c1,0.9,1.7,2.8,1.7,4.2
		c-0.7,14.4-4.6,27.9-12.9,39.8c-1.2,1.7-3.5,3.3-5.4,3.5c-12,1-20,7.7-23.3,19.4c-0.5,1.9-2.2,4.1-3.9,5c-13.3,6.6-27.5,7.8-42,6.5
		c-2.1-0.2-4.8-1.8-6-3.6c-6.4-9.6-15.1-13.5-26.6-11.6c-2,0.3-4.8-0.2-6.3-1.4c-8.5-7-15.6-15.2-20.4-25.1c-0.9-1.9-0.9-5-0.1-7.1
		c3.9-9.5,3-18.6-4-25.7c-4.5-4.5-4.6-8.9-3.8-13.9c1.7-10.8,5.2-21,11.3-30.2c0.9-1.4,2.5-2.7,4-3.2
		C354.6,206.5,359.7,205.4,364.9,204.1z M442.8,268.7c-0.3,11,7.7,18.4,18.2,18.7c9.8,0.3,18.6-8.5,18.3-18.3
		c-0.3-10.4-7.3-18-18.2-18.3C450.8,250.6,442.8,258.4,442.8,268.7z M389.7,287.1c0.1-10.4-7.9-18.8-18.1-18.9
		c-9.6-0.2-18.3,8.6-18.5,18.3c-0.1,9.9,8,18.2,18.1,18.4C381.2,305.2,389.6,297.1,389.7,287.1z"/>
	<path class="st0" d="M211.1,212.1c14.9-9.7,30.5-19.2,45.3-29.7c22.9-16.4,44.1-35,58.2-59.9c4.8-8.5,8.3-18.1,10.3-27.6
		c3.9-18.7-7.3-33.4-26.4-34.7c-7.7-0.5-15.5,1.4-23.1,2.2c3.8-1.9,7.9-4,12.2-6c12.1-5.6,24.4-10.3,38-10.4
		c22.9-0.2,31,16.9,29.2,34.8c-1.9,18.9-12.1,34.2-24.2,48c-32.7,37.6-74.2,62.9-118.9,83.4C211.3,212.2,210.9,212.1,211.1,212.1z"
		/>
	<path class="st0" d="M152.7,508.8c2.9-16.7,1.2-33.2,0.1-49.8c-1.9-27.2-4.6-54.5,3.9-81.1c1.7-5.2,4.3-10,6.5-15.1
		c11.6,8.7,22.5,16.9,34,25.6c-8.9,8.2-17.9,16.5-27.1,24.9c5.3,9.6,10.9,19.3,16,29.2c1.2,2.3,1.9,5.5,1.3,7.8
		C181.1,472.8,168.9,492,152.7,508.8z"/>
	<path class="st0" d="M414.5,252.5c-22.1,0.9-44.1-17.4-44.5-44c-0.4-24.1,20.3-44.9,44.2-44.6c28,0.3,45.2,23.2,44.6,45.1
		C458.1,233.4,439.1,252.6,414.5,252.5z M443.1,208.4c0-16.1-12.8-29.1-28.5-29.1c-15.6,0.1-28.9,13.2-29.1,28.8
		c-0.2,15.6,13,28.6,29,28.7C430.8,237,443.1,224.7,443.1,208.4z"/>
	<path class="st0" d="M191.9,251.8c-1,0.9-2.6,2.5-4.2,4.1c-0.6-1.3-1.3-2.6-2-4.1c-6.2,8.9-8.4,18.6-5.4,29.6c0.8,2.9,0.4,6,0.7,10
		c0.8,0.4,2.6,1.4,5.3,2.7c-4.7-9.9-6.1-18.8-2-28.1c1.4-3.3,3.4-4.6,6.9-2.6c3.8,2.2,7.7,4.4,11.7,7.7
		c-10.9,0.7-12.6,9.6-17.1,16.7c12.9-5.1,24.5-12.4,38.5-12.6c-5,13.9-18,13.2-29.2,15.8c4.7,2.9,12.7,3.5,23,1.7
		c7.5-1.3,13.3,2.1,12.7,8.2c-0.3,3.1-1.7,6.5-3.7,9c-5.8,7.2-13.4,11.6-22.7,9c-10.9-3.1-21.5-7.1-31.9-11.5
		c-6.4-2.7-9.5-8.6-11.3-15.4c-1.9-7-4.6-13.9-7.1-20.7c-0.7-1.9-1.7-3.7-2.3-5.6c-2.8-8.3-0.7-13.2,7.4-16.1
		c9.6-3.5,19.3-6.8,29.4-10.3c-0.2-3.8-0.5-8.5,5.9-9.8c1.3,1.8,2.8,3.8,4.1,6c1.5,2.6,1.4,6.2,5.7,6.8c0.9,0.1,2.4,3.8,1.9,4.6
		c-1.8,2.5-4.2,5.1-6.9,6.4C197.6,253.7,194.8,252.3,191.9,251.8z"/>
	<path class="st0" d="M327.5,286.5c6.2-0.6,10.7,5,14.9,10.2c8.4,10.3,14.7,22,18.9,34.7c2.9,8.8-0.2,15.6-6.9,20.9
		c-6.4,5.1-14,8.7-21.9,4.4c-15.9-8.8-27.9-21.7-34.8-38.6c-3.8-9.4,0.7-16.7,7.5-23C311,289.8,317.7,286.7,327.5,286.5z M355,330.4
		c-3.1,12.2-12.7,17.3-23.1,21.7c9.8,0.2,16.1-5.8,21.7-12.7C355.6,337,357.9,333.8,355,330.4z M322.5,332.2
		c2.7-8.4,9-12.3,18.1-13.9C330.5,317.2,323.5,322.7,322.5,332.2z"/>
	<path class="st0" d="M233.9,130.9c-3.3-9.3-1.5-17.4-0.2-25.5c0.8-4.9,2-9.8,2.2-14.7c0.1-2.7-0.8-6.6-2.6-7.9
		c-1.7-1.2-5.9-0.6-8,0.7c-7,4.3-13.5,9.4-20.4,14.2c5.1-6.9,10.2-13.5,15-20.4c7.3-10.5,7.3-10.6-0.4-20.6
		c-7.9-10.4-16.7-19.7-29.3-24.4c-7.5-2.8-15-3.2-22.5,0c-1.3,0.6-2.7,0.9-5.4,1.8c10.4-11.9,21.3-19,36.5-16.1
		c6.7,1.3,12,4.8,15.7,10.4c5.2,7.6,9.3,16,14.9,23.2c5.9,7.4,13.3,13.6,19.7,20.6c1.9,2.1,3.5,5.1,3.7,7.9
		c0.9,13.3-4,25.2-10.3,36.6C240.2,121.3,237.2,125.6,233.9,130.9z"/>
	<path class="st0" d="M426,406.5c-9.8,0-19.4,0-29.3,0c0-22.5,0-45,0-67.8c9.6,0,19.3,0,29.3,0C426,361,426,383.4,426,406.5z"/>
	<path class="st0" d="M389.5,337.9c0,17.8,0,35.1,0,52.4c-16.2,3-32.1-6.8-32.9-21C355.4,348,365.5,341.3,389.5,337.9z M365.3,351
		c-3.5,1.1-4.7,2.6-5,11.5c-0.2,7-0.8,14.6,6.1,19.4C361.1,371.6,360.9,361.3,365.3,351z"/>
	<path class="st0" d="M483.1,326.9c-1.5,7.5-2.2,13.7-4.1,19.5c-2,6.1-2.1,11.5,0.7,17.5c2.5,5.4,4,11.4,5.1,17.3
		c1,5.3-0.6,10.3-4.5,14.2c-6.5,6.8-9.6,14.3-6.6,24c1.7,5.6-1.1,10.6-5.5,14.7c-1.6,1.5-3.6,4.2-3.2,5.8
		c2.9,10.7-3.8,16.8-10.8,22.7c0.7-1.2,1.4-2.3,2.1-3.5c3.9-6.6,5.3-13.5,3.4-21.1c-0.6-2.4-0.3-5.7,0.8-7.8
		c3.1-5.8,3-11.6,1.9-17.7c-1.4-7.9-0.5-14.6,6.9-19.9c9.9-7.1,10.6-13.9,3.5-24c-9-12.9-8.6-12.6,1.8-24.4
		C478.3,339.9,479.8,333.8,483.1,326.9z"/>
	<path class="st0" d="M348.4,159.5c-1.4,13.3-2.7,26.5-4,39.1c-0.6-2.1-1.3-5.1-2.4-8.1c-3-8.3-7.4-10.9-15.2-6.9
		c-15.6,7.9-30.7,16.5-46,25c-5,2.8-9.8,6.2-15.5,9.9C272.8,209.3,335.9,164.7,348.4,159.5z"/>
	<path class="st0" d="M209.6,350.2c0.2-0.3,1.1-1.4,2-2.5c0.6,0.3,1.3,0.4,1.5,0.8c6,8.9,6.8,14.7,2.5,19.4
		c-4.4,4.8-16.4,6-23.3,2.3c-5.1-2.7-6.3-9.6-3.3-17.9c2.2-6,7.5-9.5,12.8-7.6C204.6,345.6,206.7,348,209.6,350.2z"/>
	<path class="st0" d="M156.6,40.3c-3.5,9-8.7,16.7-17.4,21.8c0.3-2.6,1-5.1,0.5-7.2c-0.4-1.7-2.2-4.1-3.7-4.4
		c-9.6-1.8-29.6,4.8-34.7,13.1c-4.8,7.9-4.7,15.9-3,24.4c1.7,8.5,3.9,16.9,4.5,25.4c0.5,6.7-1.2,13.5-2,20.2
		c-0.4,3.1-0.9,6.1-2.3,9.1c0.5-5.7,0.8-11.5,1.4-17.2c1.7-14.1-2.8-27.1-6.6-40.4c-4.1-14.3,1.2-25.9,15.2-31.3
		c10.8-4.2,22.5-6.1,33.8-9.1C147.1,43.4,151.7,41.8,156.6,40.3z"/>
	<path class="st0" d="M84.7,135.4c-7.6,3.1-15.5,5.7-22.8,9.4c-7.6,4-15.5,8.1-21.7,13.9c-18.2,16.8-15.2,37.1-0.3,53.7
		c4.7,5.2,11.1,8.9,16.8,13.3c-14-4.8-27.1-11.1-33.1-25.9c-5.6-14-2-26.6,8.1-37.6c11.5-12.5,26.5-18.7,42-24.3
		c3.6-1.3,7.2-2.4,10.7-3.6C84.5,134.7,84.6,135,84.7,135.4z"/>
	<path class="st0" d="M399.6,273.8c0-7.6,6-13.8,13.4-13.8c7.5,0,13.6,6,13.7,13.6c0.1,7.7-6.3,14.3-13.7,14.2
		C405.7,287.6,399.6,281.2,399.6,273.8z M420.1,274.9c0-0.8-0.1-1.7-0.1-2.5c-2.4-1.4-4.9-3.8-7.3-3.8c-1.7,0-4.5,3.3-4.8,5.4
		c-0.4,3.4,2.1,6.3,5.9,5.4C416.1,278.9,418,276.5,420.1,274.9z"/>
	<path class="st0" d="M168,342.6c5.7,3.1,11,5.9,16.7,9c-2.8,8-5,16.8,1.5,25.3c-8.7-4.1-16.2-9.8-20.8-18c-1.6-2.7-0.1-7.3,0.4-11
		C166.1,346,167.3,344.2,168,342.6z"/>
	<path class="st0" d="M133.3,89c-0.1-6.3,1.8-12.4,6-17.5c4.3-5.3,9-4.4,10.7,2.3c1.5,6,1.8,12.3,2.9,18.5c1,5.4,2.3,10.7,3.9,16
		c1.6,5.2,3.6,10.3,4.2,15.9c-2.6-5.7-5.3-11.4-7.7-17.3c-2-4.9-3.3-10.1-5.6-14.9c-1.5-3.1-3.5-7-6.3-8.2
		C139.9,83.1,136.3,87,133.3,89z"/>
	<path class="st0" d="M420,139.4c0,6.7,0,12.9,0,19.3c-4.5,0-8.7,0-13.3,0c0-6.2,0-12.6,0-19.3C411,139.4,415.3,139.4,420,139.4z"/>
	<path class="st0" d="M400.4,150.6c1.2,9.7,1.2,9.7-5.2,11.5C395,151.5,395.5,150.4,400.4,150.6z"/>
	<path class="st0" d="M420.1,274.9c-2.1,1.6-4,4-6.4,4.5c-3.7,0.8-6.3-2-5.9-5.4c0.3-2.1,3.1-5.3,4.8-5.4c2.4,0,4.9,2.4,7.3,3.8
		C420.1,273.2,420.1,274.1,420.1,274.9z"/>
</g>
</svg>
