<?xml version="1.0" encoding="utf-8"?>
<!-- Generator: Adobe Illustrator 26.0.1, SVG Export Plug-In . SVG Version: 6.00 Build 0)  -->
<svg version="1.1" id="Calque_1" xmlns="http://www.w3.org/2000/svg" xmlns:xlink="http://www.w3.org/1999/xlink" x="0px" y="0px"
	 viewBox="0 0 512 512" style="enable-background:new 0 0 512 512;" width="512" height="512" xml:space="preserve">
<style type="text/css">
	.st0{fill:#FFFFFF;}
</style>
<path d="M0,0h512v512H0V0z"/>
<g>
	<path class="st0" d="M436,265.7c0,41.5,0,83,0,124.5c0,11.4-5.3,19.5-15.8,24.1C370,436.2,319.7,457.9,269.5,480
		c-9.2,4-17.4,4-26.6,0c-50.1-22.1-100.4-43.8-150.6-65.6c-11-4.8-16.3-13-16.3-24.9c0.1-82.6,0.3-165.2,0.4-247.7
		c0-10.5,4.6-18.1,13.7-23.2c47.6-26.7,95.2-53.4,142.8-80.2c3.6-2,7.1-4,10.8-6c8-4.4,16.2-4.5,24.2,0
		c51.7,28.9,103.3,57.9,154.9,87c8.5,4.8,12.8,12.3,12.8,22.1c0,41.4,0,82.9,0,124.3C435.7,265.7,435.8,265.7,436,265.7z
		 M267.2,259.2c0,51.1,0,102.2,0,153.3c0,5.2,3.3,7.4,7.9,5.4c31.3-13.6,62.7-27.3,94-40.8c2.8-1.2,4-3.1,4-6.2
		c-0.2-70.3-0.3-140.6-0.3-210.9c0-3.3-1.1-5.3-4.1-7c-25.5-14.2-51-28.5-76.5-42.8c-5.9-3.3-11.7-6.6-17.6-9.8
		c-3.6-1.9-7.3,0.3-7.5,4.3c0,0.7,0,1.5,0,2.2C267.2,157.7,267.2,208.4,267.2,259.2z M243.8,258.9c0-51,0-102,0-153.1
		c0-6-3.6-8.1-8.8-5.2c-31.1,17.4-62.1,34.9-93.2,52.2c-2.7,1.5-3.8,3.4-3.8,6.5c0,70.2-0.1,140.5-0.3,210.7c0,3.6,1.3,5.6,4.6,7
		c22.9,9.8,45.7,19.8,68.6,29.8c8.4,3.7,16.8,7.4,25.3,11c4.2,1.8,7.5-0.4,7.7-5c0-0.7,0-1.3,0-2
		C243.8,360.2,243.8,309.5,243.8,258.9z"/>
	<path class="st0" d="M191,295c-11.7-0.3-23.5-0.7-35.2-1.1c-1.2,0-2.4-0.1-3.6-0.2c-2.9-0.4-4.8-2.3-4.8-5.2
		c-0.1-9.9-0.1-19.9,0-29.8c0-3,2-5.1,5.2-5.4c7-0.6,14-1.2,21-1.8c13.7-1.2,27.4-2.3,41.1-3.5c4.4-0.4,8.8-0.8,13.2-1
		c3.3-0.2,5.6,1.9,5.6,5.2c0.1,12.9,0.1,25.9,0,38.8c0,3.3-2.5,5.4-6,5.3c-10.8-0.3-21.7-0.7-32.5-1.1c-1.3,0-2.7,0-4,0
		C191,295,191,295,191,295z"/>
	<path class="st0" d="M187.2,301.2c15.6,0.7,28,1.2,40.5,1.8c3.9,0.2,5.9,2.2,5.9,6.1c0,12.3,0,24.7,0,37c0,4.7-2.3,6.7-6.9,6
		c-24.1-3.8-48.2-7.6-72.3-11.4c-1.2-0.2-2.5-0.4-3.7-0.9c-2.1-0.9-3.3-2.5-3.3-4.9c0-9.9,0-19.7,0-29.6c0-3.6,2.2-5.6,5.9-5.4
		C165.6,300.2,177.9,300.8,187.2,301.2z"/>
	<path class="st0" d="M233.1,213.4c0,5.8,0,11.7,0,17.5c0,4-1.9,6.1-5.9,6.5c-24.1,2.8-48.2,5.7-72.3,8.5c-1.6,0.2-3.3,0.7-4.9-0.1
		c-2-0.9-3.1-2.6-3.1-4.8c0-10.1,0-20.2,0-30.3c0-2.6,1.8-4.4,5.1-5.1c9.1-2,18.2-3.9,27.4-5.9c15.6-3.3,31.2-6.7,46.8-10
		c4.2-0.9,6.8,1.1,6.8,5.5C233.1,201.3,233.1,207.3,233.1,213.4z"/>
</g>
</svg>
