<?xml version="1.0" encoding="utf-8"?>
<!-- Generator: Adobe Illustrator 26.0.1, SVG Export Plug-In . SVG Version: 6.00 Build 0)  -->
<svg version="1.1" id="Calque_1" xmlns="http://www.w3.org/2000/svg" xmlns:xlink="http://www.w3.org/1999/xlink" x="0px" y="0px"
	 viewBox="0 0 512 512" style="enable-background:new 0 0 512 512;" xml:space="preserve">
<style type="text/css">
	.st0{fill:#FFFFFF;}
</style>
<path d="M0,0h512v512H0V0z"/>
<g>
	<path class="st0" d="M304,156.9c-5.7,13.6-16.8,22.3-32,28.3c11.4,3.7,21.1,2.1,31.7-0.8c-10,12.4-22.9,16.2-37.8,19
		c1.2,0.8,2.3,1.5,4,2.6c-9.8,5.9-20,9.3-31.2,5.3c-13.7-4.9-16.1-17.3-6.7-28.4c2.5,2.3,4.9,6.2,7.4,6.3c3.4,0.1,7.4-2.1,10.1-4.5
		c2.2-1.9,3.4-5.3,4.1-8.3c1.7-7.4-4.1-13-11.5-10.9c-3.5,1-7,2.9-9.7,5.3c-12,11-17.8,25.4-22.3,40.7c18.5,1.1,20.8,2.1,26,12
		c-1.8-0.4-3.2-0.7-4.6-1.1c-8.7-2.5-18,3.6-18.7,12.7c-0.1,1.8,1,4.7,2.4,5.4c1.7,0.9,5.2,0.9,6.4-0.3c3.1-3.2,5.4-7.2,8.2-11.1
		c4.6,2.1,7.2,6.9,6.2,12.7c-1.2,7.1-5.8,10.5-16.3,12c7.3,19.8,6.9,38.5-8.8,55.1c-0.6-2.7-1.1-5.1-1.8-8.5
		c-17.5,14.4-35.1,19.2-54.7,4.3c3-0.7,5.3-1.2,7.1-1.6c-2.7-5.6-5.1-10.8-7.6-16.1c15,11.1,31.5,6.9,37.2-10.8
		c2.9-9.1,3.5-19.3,3.2-29c-0.3-9.3-2.9-18.6-5-27.7c-1.6-6.9-1-13.3,2.7-19.3c7.8-12.5,12.4-26.1,15.1-40.6
		c4.4-24.4,19-42.7,36.9-58.9c4.1-3.7,8.1-7.3,12.3-11.2c-9.2-2-23.7,4-50.5,20.8c17.8-22.7,40.4-35.3,65.6-42.5
		c3.6,11.3,6.9,22,10.3,32.8c-31.3,0.4-40.8,25.6-52.3,49.6c6.8-0.8,12.9-1.3,18.9-2.3c1.3-0.2,2.7-2.3,3.2-3.8
		c2.6-8.3,4.9-16.8,7.2-25.1c5.3,8.9,6.2,19.4,5.6,30.3c7.9-2.5,10.6-5.1,22-20.3c1.4,13.1-1.7,24.6-7.2,35.6
		c0.4,0.6,0.9,1.2,1.3,1.7C288.2,163.6,296.1,160.2,304,156.9z"/>
	<path class="st0" d="M304.3,321.4c-11-11-14.6-23.1-10.4-38.5c6.1,12,13.9,21,25.3,26.4c11.7,5.5,23.5,5.9,35.6,1.8
		c18.1-6.2,27.7-21.6,27.5-45.2c11.4,8.8,18.6,19.2,20,32.9c2.4,22.2-8.6,38.2-25.7,52.8c2.8-10.8,4.4-20.2-3-28.3
		c-6.1,1.9-9.7,5.4-12.1,11.6c-7.3,19.3-22.1,31.5-40.6,39.8c-2.9,1.3-5.8,2.4-9.2,3.3c9.3-10.1,16.1-21.2,15.3-35.6
		c-10.5,21.8-26.6,38-48,49.6c2.3-6.4,5.3-12.2,6.5-18.3c1.2-6.1,0.8-12.5,0-19c-4.6,12.3-10,23.8-19.2,33.1
		c-3.8,3.8-8,7.2-12.5,10.5c3.5-9.8,5.4-19.3,0.5-30c-8.6,11-14.2,22-13.6,35.2c0.6,13.1,12.5,20.6,24.4,15.1
		c6.5-3.1,12-8.4,17.6-12.5c-2.7,6.5-7.6,12-13.7,16.7c-10.6,8.2-22.7,11.4-36,10.1c-22.8-2.3-34.4-21.2-26.8-43.2
		c5.4-15.5,17.4-25.5,29.6-35.1c18.5-14.5,39.6-24,61.9-31.1C299.7,323,301.5,322.3,304.3,321.4z"/>
	<path class="st0" d="M293,479c-37.1,3-70.7-4.5-98-32.5c-7.4,16.5-5.2,31.4,2.8,46.1c-36.3-26.8-32.8-63.7-25-102.9
		c-20.1,20.8-33.7,43-35.5,71.3c-8.2-18-9.7-36.2-1.9-54.6c8.8-20.7,24.7-35.3,42.6-47.8c9.6-6.7,20-12.5,30-18.6
		c1.6-1,3.3-1.9,4.7-3.4c-25,2.4-46,13.8-66.1,28.2c0.8-1.1,1.5-2.3,2.4-3.3c23.8-26.3,51.7-46.3,86.8-53.6c14.7-3,30-3.1,45-4.4
		c4.3-0.4,7.4,0.8,8.4,5.9c0.6,3,2.7,5.6,4.5,9.1c-2.2,0.8-4.3,1.6-6.4,2.3c-25.9,8.9-50.3,20.4-69.8,40.3c-8.8,9-16,19.1-18.8,31.5
		c-3.4,14.8-0.7,28.1,11.1,38.7c1.3,1.2,2.8,2.6,4.4,2.8c7.3,1.2,10.9,6.9,15.2,11.9c15.5,17.8,35.4,27.7,58.3,32
		C289.7,478.3,291.3,478.7,293,479z"/>
	<path class="st0" d="M372.5,199.7c-6.8,4.4-12.9,8.4-19.4,12.7c10.4,4.5,20.9,7.1,31.9,3.4c8.3-2.8,11.1-10.9,7.3-18.7
		c-3.5-7.1-9.6-11.3-16.6-14.4c-5.7-2.6-11.9-4.4-17.2-7.6c-5.8-3.5-10.8-8.2-16.5-12.5c-5,7.2-3.4,15.4-0.7,24.6
		c-16.4-22.8-10.9-57.1,12-73.5c7.6-5.5,16.9-9.2,26-11.7c13.6-3.8,25.1,1.8,34.5,11.6c3.8,3.9,5.7,8.6,3.7,14
		c-2,5.4-6.5,8.4-11.8,8.5c-7.3,0.2-14.5-1.1-21.8-1.7c0-0.7,0.1-1.3,0.1-2c2.7-0.3,5.9,0.1,8.1-1.2c2.6-1.5,6.3-4.9,5.9-6.7
		c-0.5-2.7-3.9-5.6-6.8-6.8c-2.4-1-5.8-0.2-8.6,0.5c-2.8,0.7-5.5,2-8.1,3.5c-17.3,10.3-18.5,25.3-2.3,37c7.4,5.4,16,9.1,24.3,13.1
		c14.9,7.1,28.3,16.1,39,29c12,14.5,17.5,31.3,18.2,50.2c-7-15.8-16.1-29.8-31.4-39c10.3,19.3,20,38.7,14.9,61.6
		c-4.5-10.5-9-21.1-13.5-31.6c-0.7,0.1-1.4,0.2-2.1,0.3c-1.1,13.5-3.7,26.6-11.7,38.3c1-11.8-2.4-22.3-7.8-32.4
		c-0.8-1.6-3-3.4-4.6-3.4c-15.8,0-29.4-6.1-42.1-14.9c-13.3-9.2-27.9-15.3-44.4-15.8c-21.5-0.7-38.9,8-53.1,23.7
		c-0.8,0.9-1.5,1.8-2.3,2.6c-0.1,0.1-0.3,0-1,0.1c8.5-20.5,22.6-34.7,44.2-38.8c13.3-2.6,27.3-1.8,41-2.2
		C350.3,199.5,360.6,199.7,372.5,199.7z"/>
	<path class="st0" d="M122.4,303.1c-22.2-8.7-26.4-21-18.1-48.5c-8.6,1.8-16.1,10.6-17.3,20.5c-1.7,13.8,5.2,24.1,22.7,33
		c-11.1,3.8-20.7,1.4-31.2-4.2c-1.4,5.4-2.7,10.4-4.1,15.5c-4.1-7.3-5.8-15.1-4.9-23.5c0.2-1.9-1-4.8-2.6-6
		c-12.2-9.5-11.6-17.5,0.6-27.4c7.2-5.8,12.7-13.8,18.5-21.1c1-1.3,0.1-4.5-0.4-6.7c-2.7-13.9-2.9-27.7,2.1-42.4
		c4.9,15.8,11.3,29.5,25,38.9c0.8-1.6,1.6-2.9,2.1-4.3c5-12.3,12.4-23.1,23.1-30.8c19.2-13.8,32.7-31.6,40.2-54
		c2,6.5,3.9,12.7,5.9,19.1c7.8-12.4,14.4-24.3,22.4-35.3c8.1-11.2,18.8-19.8,31.4-26.1c-3.1,3.3-6.2,6.6-9.3,9.9
		c-18.4,19.8-30.8,42.6-35.6,69.3c-2,11-6.1,20.9-14,29.3c-3.3,3.5-5.2,8.8-6.5,13.6c-7.4,28-24.7,45-53.5,49.5
		c-3.3,0.5-4.6,1.9-5,5.2C112.7,286.2,115.4,294.5,122.4,303.1z M162.5,191.6c-9,11.4-24.1,16-28.8,31.1
		C147,221.1,161,206,162.5,191.6z"/>
	<path class="st0" d="M338.7,118.8c3.1-17.2,12.5-29,26.3-38.3c-8.6-8.9-18.6-14.4-29.9-17.7c-26.4-7.8-52.2-4.5-77.7,4.2
		c-25.9,8.9-47.5,24.2-65.2,45c-0.8,0.9-1.5,1.8-2.3,2.6c-0.1,0.1-0.4,0.1-0.4,0.1c5.3-21.8,10.6-43.7,16.2-66.9
		c2.9,6.9,5.5,13,8.5,20.1c4.8-19.4,15.9-32.8,33.9-42.8c-6.7,9.2-11.2,17.9-10.8,29.6c16.8-13.6,33.8-25.4,54.7-30.6
		c-4.8,4.3-9.7,8.7-15,13.5c19-3.5,36.8-6.7,54.6-10c0.2,0.6,0.3,1.3,0.5,1.9c-6.3,2.9-12.6,5.8-19,8.7c0.1,0.6,0.2,1.1,0.3,1.7
		c21.8-1.7,43.7-3.5,64.5,6.6c-6.6,0.8-12.8,1.4-18.9,2.6c-1.9,0.4-3.5,2.6-5.2,4c1.9,1.4,3.6,3.4,5.8,3.9c13,3.1,26.1,5.4,39,8.9
		c6.3,1.7,12,5.5,18,8.4c-0.1,0.5-0.2,1-0.4,1.5c-8.6,0-17.1,0-25.7,0c0,0.5-0.1,0.9-0.1,1.4c3.9,0.9,7.8,1.6,11.6,2.8
		c16.7,5.4,30.4,14.8,39.4,30.1c7.4,12.6,6.4,25.3-2.1,33.8c-8.3,8.3-22.9,9.5-36,2.2c3,0,5,0.1,7,0c13.9-0.7,20.8-11.3,15.8-24.3
		c-7.6-19.7-30.7-30.5-52.8-24.6C360.7,100.5,352.4,105.6,338.7,118.8z"/>
	<path class="st0" d="M148.9,54.2c4.8,22,2.7,43.7-2.5,65.4c24.6-29.9,43.7-62.6,54.2-100.2c-2,12.3-3.7,24.6-6.1,36.8
		c-6,31.4-14.3,62-28.7,90.7c-7.8,15.5-17.7,29.1-32,39.5c-10.7,7.8-18.4,18.2-23.7,30.4c-10-7.8-14.9-25.7-10.1-39.2
		c2.2-6,5.4-11.8,8.8-17.3c7.9-12.8,10.4-26.6,8-41.3c-1.2-7.2-3.6-14.1-11.8-16c-8.2-1.9-13.9,2.5-18.5,8.7c-0.8,1-1.6,2-2.8,2.8
		c3.1-10.3,7.6-19.7,16-26.7c11.8-9.9,24.8-7,31.5,6.8c0.6,1.2,1.1,2.4,2.1,4.4C142.2,84.8,145.9,69.7,148.9,54.2z"/>
	<path class="st0" d="M231.3,439.3c30.3-2.5,57.4-8.9,66.5-43.5c4.9,15.4,1.7,25.9-14.2,47.5c8.2,4.9,16.9,6.7,26.4,6.6
		c0.1-1.2,0.3-1.9,0.2-2.7c-0.7-24,9.6-38.3,32.8-45.3c38.6-11.7,73,16.3,68.7,55.9c-0.2,1.9-0.7,3.8-1.3,7.5
		c-3.7-15.9-11.1-27.3-23.7-34.8c-12.4-7.4-25.5-7.9-38.5-2.5c-17.6,7.2-19.2,30.2-3.1,42.9C313.8,480.6,257,472.1,231.3,439.3z"/>
	<path class="st0" d="M261.1,266c5.2-33.8,29-50.6,61.8-43.7c8.5,1.8,16.6,5.8,24.5,9.6c7.9,3.9,14.9,9.7,23,13
		c7.8,3.2,16.4,4.4,24.4,6.4c-3.4,3.4-3.4,3.4-23.9,6.7c0.7,14.9-1,29.4-16.1,37.3c-11.6,6.1-23.6,3.8-36.1-1
		c4.7-1.2,8.7-1.9,12.4-3.3c14-5.4,20.2-18.9,15.3-33.1c-4.9-14.2-16.5-23-32.8-23.3C290.3,234.3,272.4,243.6,261.1,266z"/>
	<path class="st0" d="M331.2,68.5c7.8,3.4,15.1,6.6,23.5,10.3c-14.1,12.1-21.2,27.2-25.1,45.9C322.9,105,322.5,87.2,331.2,68.5z"/>
	<path class="st0" d="M161.7,270.2c7.4-1.5,12.7-4.4,14-12.4c-5.6,1.4-10.9,2.7-16.3,4c-0.3-0.4-0.7-0.9-1-1.3
		c12.3-9.5,19-22.2,22.5-37c4.9,14.1,8.8,28.3,4.5,43.2C182.1,278.2,170.9,279.9,161.7,270.2z"/>
	<path class="st0" d="M323.4,66.5c-6.3,15.9-7.5,31.2-4.9,47.8c-7.1-5.7-11.8-12.2-13.3-19.9c-1.6-8.4-1.5-17.1-1.7-25.6
		c0-1.2,2.5-3.6,3.8-3.6C312.3,65.1,317.3,65.9,323.4,66.5z"/>
	<path class="st0" d="M279,66.5c5.7-0.6,11.5-1.2,18.2-1.9c-4.1,14.8-3.6,28.5,3.9,41.7C289.2,103.4,277.1,81.5,279,66.5z"/>
</g>
</svg>
