<?xml version="1.0" encoding="utf-8"?>
<!-- Generator: Adobe Illustrator 25.2.3, SVG Export Plug-In . SVG Version: 6.00 Build 0)  -->
<svg version="1.1" id="Calque_1" xmlns="http://www.w3.org/2000/svg" xmlns:xlink="http://www.w3.org/1999/xlink" x="0px" y="0px"
	 width="512px" height="512px" viewBox="0 0 512 512" style="enable-background:new 0 0 512 512;" xml:space="preserve">
<style type="text/css">
	.st0{fill:#FFFFFF;}
</style>
<path d="M0,0h512v512H0V0z"/>
<g transform="translate(0,0)">
	<path class="st0" d="M73.1,26.3c-9.5,0-19.4,0.7-29.6,2.1c37,18.1,77.5,39.9,103.7,77.1C105,87.2,56.3,89.8,22.9,112.3
		c38.6,4.2,82.4,10.9,113,45.3c-43.5,3.1-83.6,25.6-103.3,58.6c37.6-12.9,81.3-25.9,124.6-5.8c-34.4,20-56.9,56.2-57.5,91
		c23.6-27,44.4-42.4,87.9-51.2c-13.3,32.1-14.6,66.9,1.3,95.5c5-25.4,11.6-53.8,32.8-74.2c15.7,34.8,17.9,62.7,9.9,93.4
		c0,0,0,0.1,0,0.1c-1,6-3,11.9-5.7,17.3c0,0,0,0.1,0,0.1c-0.1,0.3-0.2,0.5-0.4,0.8c-10.1,21.1-38.9,45.2-62.7,37.3
		c-30.4-10-10.9-61.9,34.5-30.8c5.3-5.2,9.5-11,12.3-17.1c-38.4-32.6-85.5-12.2-91.1,18c-14.5,77.7,99.6,84.1,143.7-5.9
		c19.1-39.2,27.6-72.2,29.5-112.7c20.7,20.3,27.3,48.5,32.2,73.6c16-28.7,14.6-63.4,1.3-95.5c43.5,8.8,64.4,24.2,87.9,51.2
		c-0.5-34.8-23.1-71-57.5-91c43.3-20.1,87.1-7,124.6,5.8c-19.7-33-59.8-55.5-103.3-58.6c30.6-34.4,74.4-41.1,113-45.3
		c-33.3-22.5-82.1-25.2-124.2-6.8c26.2-37.2,66.6-59,103.7-77.1c-10.2-1.4-20.1-2-29.6-2.1c-66.7-0.2-117.1,30.9-148.4,67.5
		c-26.1,30.4-19.9,66,3.2,72c31.7,7.8,32.1,38.8,5.1,67.4c0,0,0,0,0,0c-7.7,17.2-23.1,29.3-41.7,29.3c-16.3,0-30.2-9.4-38.6-23.3
		c-33.1-30.1-35-65.1-1.1-73.5c23.1-5.9,29.2-41.5,3.1-72C190.1,57.2,139.8,26.2,73.1,26.3L73.1,26.3z M258,171.9
		c-14.8,0-28.4,15.1-28.4,36c0,20.8,13.6,36,28.4,36c14.8,0,28.4-15.1,28.4-36C286.4,187.1,272.8,171.9,258,171.9L258,171.9z
		 M371.3,340.2c-3.9,0-7.7,0.4-11.4,1.3l38.2,28.6c-18.6,0.9-38.7,9.1-55.4,25c26.8-6.4,67.6-9.6,86,23.3c1.1,3.8,1.6,7.6,1.6,11.3
		c0.2,13.2-5.8,26.1-14.3,34.6c-11.4,11.4-34.6,13.5-63.5,4.7c-28.3-8.6-60.5-27.2-87.9-52.3c-3.8,4.9-7.8,9.7-12.1,14.3
		c29.2,26.7,63.1,46.4,94.5,55.9c32.2,9.8,63.2,9.6,82.2-9.3c12-12,20.1-29.2,19.8-48.1c0-3.1-0.3-6.1-0.9-9.3
		C448.7,375,407.6,340.1,371.3,340.2L371.3,340.2z"/>
</g>
</svg>
